G04 #@! TF.GenerationSoftware,KiCad,Pcbnew,(2018-02-15 revision 29b28de31)-makepkg*
G04 #@! TF.CreationDate,2019-09-05T06:32:13+03:00*
G04 #@! TF.ProjectId,ATM90E26_Featherwing,41544D39304532365F46656174686572,rev?*
G04 #@! TF.SameCoordinates,Original*
G04 #@! TF.FileFunction,Paste,Top*
G04 #@! TF.FilePolarity,Positive*
%FSLAX46Y46*%
G04 Gerber Fmt 4.6, Leading zero omitted, Abs format (unit mm)*
G04 Created by KiCad (PCBNEW (2018-02-15 revision 29b28de31)-makepkg) date 09/05/19 06:32:13*
%MOMM*%
%LPD*%
G01*
G04 APERTURE LIST*
%ADD10R,2.200000X2.800000*%
%ADD11R,2.800000X2.800000*%
%ADD12R,0.889000X0.889000*%
%ADD13R,1.397000X1.397000*%
%ADD14R,1.397000X0.348000*%
%ADD15R,2.286000X1.270000*%
%ADD16R,2.159000X3.556000*%
%ADD17R,1.470000X1.270000*%
%ADD18R,0.762000X0.889000*%
%ADD19R,2.740000X1.010000*%
%ADD20R,3.000000X1.500000*%
%ADD21R,1.930400X5.334000*%
%ADD22R,2.800000X2.400000*%
%ADD23R,1.270000X1.270000*%
%ADD24R,3.500000X1.600000*%
%ADD25R,2.500000X4.300000*%
%ADD26R,1.300000X1.500000*%
G04 APERTURE END LIST*
D10*
X127400000Y-89800000D03*
X125400000Y-97200000D03*
D11*
X134800000Y-97200000D03*
D12*
X140597000Y-112370000D03*
X140597000Y-110846000D03*
D13*
X134374000Y-100305000D03*
X131072000Y-100305000D03*
D12*
X158885000Y-115037000D03*
X158885000Y-116561000D03*
X158885000Y-113386000D03*
X158885000Y-111862000D03*
X162187000Y-105766000D03*
X162187000Y-107290000D03*
X157361000Y-105766000D03*
X157361000Y-107290000D03*
X140978000Y-109195000D03*
X139454000Y-109195000D03*
X139454000Y-107417000D03*
X140978000Y-107417000D03*
X139073000Y-119609000D03*
X137549000Y-119609000D03*
X149715000Y-117780000D03*
X148191000Y-117780000D03*
X146058000Y-117780000D03*
X144534000Y-117780000D03*
X159647000Y-89001600D03*
X159647000Y-87477600D03*
X136500000Y-88262000D03*
X136500000Y-86738000D03*
X140597000Y-114148000D03*
X140597000Y-115672000D03*
D14*
X151238000Y-106494000D03*
X151238000Y-107144000D03*
X151238000Y-107794000D03*
X151238000Y-108444000D03*
X151238000Y-109094000D03*
X151238000Y-109744000D03*
X151238000Y-110394000D03*
X151238000Y-111694000D03*
X151238000Y-111044000D03*
X151238000Y-112344000D03*
X151238000Y-112994000D03*
X151238000Y-113644000D03*
X151238000Y-114294000D03*
X151238000Y-114944000D03*
X143926000Y-106494000D03*
X143926000Y-107144000D03*
X143926000Y-107794000D03*
X143926000Y-108444000D03*
X143926000Y-109094000D03*
X143926000Y-109744000D03*
X143926000Y-110394000D03*
X143926000Y-111044000D03*
X143926000Y-111694000D03*
X143926000Y-112344000D03*
X143926000Y-112994000D03*
X143926000Y-113644000D03*
X143926000Y-114294000D03*
X143926000Y-114944000D03*
D15*
X145907000Y-99669600D03*
X145907000Y-97383600D03*
X145907000Y-95097600D03*
D16*
X139557000Y-97383600D03*
D17*
X159647000Y-96231600D03*
X159647000Y-91931600D03*
D12*
X143010000Y-118847000D03*
X143010000Y-120371000D03*
X144534000Y-120371000D03*
X146058000Y-120371000D03*
X138184000Y-114529000D03*
X136660000Y-114529000D03*
X160663000Y-105766000D03*
X160663000Y-107290000D03*
X159012000Y-107290000D03*
X159012000Y-105766000D03*
X136660000Y-111989000D03*
X138184000Y-111989000D03*
X151265000Y-120371000D03*
X151265000Y-118847000D03*
X149715000Y-120371000D03*
X148191000Y-120371000D03*
X160917000Y-100559000D03*
X159393000Y-100559000D03*
X155456000Y-100559000D03*
X156980000Y-100559000D03*
X148238000Y-100559000D03*
X149762000Y-100559000D03*
D18*
X151646000Y-100559000D03*
X153170000Y-100559000D03*
D19*
X163992000Y-109751000D03*
X163992000Y-111751000D03*
X163992000Y-113751000D03*
X163992000Y-115751000D03*
D20*
X171492000Y-107351000D03*
X171492000Y-118151000D03*
X125577000Y-107859000D03*
X125577000Y-118659000D03*
D19*
X133077000Y-110259000D03*
X133077000Y-112259000D03*
X133077000Y-114259000D03*
X133077000Y-116259000D03*
D21*
X155202000Y-118974000D03*
X155202000Y-109322000D03*
D22*
X165297000Y-99908600D03*
X165297000Y-88508600D03*
X171397000Y-88508600D03*
X171397000Y-99908600D03*
D23*
X140216000Y-117704000D03*
X137676000Y-117704000D03*
X138057000Y-105512000D03*
X140597000Y-105512000D03*
D24*
X139675000Y-89509600D03*
X145075000Y-89509600D03*
D25*
X152789000Y-96580600D03*
X152789000Y-88280600D03*
D26*
X126566000Y-100305000D03*
X128466000Y-100305000D03*
M02*
