G04 #@! TF.GenerationSoftware,KiCad,Pcbnew,(2018-02-15 revision 29b28de31)-makepkg*
G04 #@! TF.CreationDate,2018-11-16T08:15:48+03:00*
G04 #@! TF.ProjectId,ATM90E26_Featherwing,41544D39304532365F46656174686572,rev?*
G04 #@! TF.SameCoordinates,Original*
G04 #@! TF.FileFunction,Copper,L1,Top,Signal*
G04 #@! TF.FilePolarity,Positive*
%FSLAX46Y46*%
G04 Gerber Fmt 4.6, Leading zero omitted, Abs format (unit mm)*
G04 Created by KiCad (PCBNEW (2018-02-15 revision 29b28de31)-makepkg) date 11/16/18 08:15:48*
%MOMM*%
%LPD*%
G01*
G04 APERTURE LIST*
%ADD10R,0.889000X0.889000*%
%ADD11R,1.397000X1.397000*%
%ADD12R,1.397000X0.348000*%
%ADD13R,2.286000X1.270000*%
%ADD14R,2.159000X3.556000*%
%ADD15R,1.470000X1.270000*%
%ADD16R,0.762000X0.889000*%
%ADD17R,2.740000X1.010000*%
%ADD18R,3.000000X1.500000*%
%ADD19R,1.930400X5.334000*%
%ADD20C,3.810000*%
%ADD21C,1.778000*%
%ADD22R,2.800000X2.400000*%
%ADD23R,1.270000X1.270000*%
%ADD24R,1.270000X3.302000*%
%ADD25R,1.270000X2.286000*%
%ADD26R,1.270000X2.794000*%
%ADD27R,3.500000X1.600000*%
%ADD28R,2.500000X4.300000*%
%ADD29R,1.300000X1.500000*%
%ADD30C,0.800000*%
%ADD31C,0.400000*%
%ADD32C,0.347800*%
%ADD33C,0.250000*%
%ADD34C,0.254000*%
G04 APERTURE END LIST*
D10*
X140597000Y-112370000D03*
X140597000Y-110846000D03*
D11*
X134374000Y-100305000D03*
X131072000Y-100305000D03*
D10*
X158885000Y-115037000D03*
X158885000Y-116561000D03*
X158885000Y-113386000D03*
X158885000Y-111862000D03*
X162187000Y-105766000D03*
X162187000Y-107290000D03*
X157361000Y-105766000D03*
X157361000Y-107290000D03*
X140978000Y-109195000D03*
X139454000Y-109195000D03*
X139454000Y-107417000D03*
X140978000Y-107417000D03*
X139073000Y-119609000D03*
X137549000Y-119609000D03*
X149715000Y-117780000D03*
X148191000Y-117780000D03*
X146058000Y-117780000D03*
X144534000Y-117780000D03*
X159647000Y-89001600D03*
X159647000Y-87477600D03*
X136914000Y-89509600D03*
X136914000Y-87985600D03*
X140597000Y-114148000D03*
X140597000Y-115672000D03*
D12*
X151238000Y-106494000D03*
X151238000Y-107144000D03*
X151238000Y-107794000D03*
X151238000Y-108444000D03*
X151238000Y-109094000D03*
X151238000Y-109744000D03*
X151238000Y-110394000D03*
X151238000Y-111694000D03*
X151238000Y-111044000D03*
X151238000Y-112344000D03*
X151238000Y-112994000D03*
X151238000Y-113644000D03*
X151238000Y-114294000D03*
X151238000Y-114944000D03*
X143926000Y-106494000D03*
X143926000Y-107144000D03*
X143926000Y-107794000D03*
X143926000Y-108444000D03*
X143926000Y-109094000D03*
X143926000Y-109744000D03*
X143926000Y-110394000D03*
X143926000Y-111044000D03*
X143926000Y-111694000D03*
X143926000Y-112344000D03*
X143926000Y-112994000D03*
X143926000Y-113644000D03*
X143926000Y-114294000D03*
X143926000Y-114944000D03*
D13*
X144407000Y-99669600D03*
X144407000Y-97383600D03*
X144407000Y-95097600D03*
D14*
X138057000Y-97383600D03*
D15*
X159647000Y-96231600D03*
X159647000Y-91931600D03*
D10*
X143010000Y-118847000D03*
X143010000Y-120371000D03*
X144534000Y-120371000D03*
X146058000Y-120371000D03*
X138184000Y-114529000D03*
X136660000Y-114529000D03*
X160663000Y-105766000D03*
X160663000Y-107290000D03*
X159012000Y-107290000D03*
X159012000Y-105766000D03*
X136660000Y-111989000D03*
X138184000Y-111989000D03*
X151265000Y-120371000D03*
X151265000Y-118847000D03*
X149715000Y-120371000D03*
X148191000Y-120371000D03*
X160917000Y-100559000D03*
X159393000Y-100559000D03*
X155456000Y-100559000D03*
X156980000Y-100559000D03*
X147836000Y-100559000D03*
X149360000Y-100559000D03*
D16*
X151646000Y-100559000D03*
X153170000Y-100559000D03*
D17*
X163992000Y-109751000D03*
X163992000Y-111751000D03*
X163992000Y-113751000D03*
X163992000Y-115751000D03*
D18*
X171492000Y-107351000D03*
X171492000Y-118151000D03*
X125577000Y-107859000D03*
X125577000Y-118659000D03*
D17*
X133077000Y-110259000D03*
X133077000Y-112259000D03*
X133077000Y-114259000D03*
X133077000Y-116259000D03*
D19*
X155202000Y-118974000D03*
X155202000Y-109322000D03*
D20*
X125992000Y-104369000D03*
X125992000Y-122149000D03*
D21*
X139962000Y-103099000D03*
X142502000Y-103099000D03*
X145042000Y-103099000D03*
X147582000Y-103099000D03*
X150122000Y-103099000D03*
X152662000Y-103099000D03*
X155202000Y-103099000D03*
X157742000Y-103099000D03*
X160282000Y-103099000D03*
X162822000Y-103099000D03*
X165362000Y-103099000D03*
X167902000Y-103099000D03*
X139962000Y-123419000D03*
X142502000Y-123419000D03*
X145042000Y-123419000D03*
X147582000Y-123419000D03*
X150122000Y-123419000D03*
X152662000Y-123419000D03*
X155202000Y-123419000D03*
X157742000Y-123419000D03*
X160282000Y-123419000D03*
X162822000Y-123419000D03*
X165362000Y-123419000D03*
X167902000Y-123419000D03*
X137422000Y-123419000D03*
X134882000Y-123419000D03*
X132342000Y-123419000D03*
X129802000Y-123419000D03*
D22*
X165297000Y-99908600D03*
X165297000Y-88508600D03*
X171397000Y-88508600D03*
X171397000Y-99908600D03*
D23*
X140216000Y-117704000D03*
X137676000Y-117704000D03*
X138057000Y-105512000D03*
X140597000Y-105512000D03*
D24*
X135009000Y-89509600D03*
D25*
X132977000Y-89001600D03*
D26*
X126373000Y-89255600D03*
D25*
X133993000Y-96875600D03*
X129294000Y-96875600D03*
X126246000Y-96875600D03*
D27*
X139675000Y-89509600D03*
X145075000Y-89509600D03*
D28*
X152789000Y-96580600D03*
X152789000Y-88280600D03*
D29*
X126566000Y-100305000D03*
X128466000Y-100305000D03*
D30*
X141965553Y-108308796D03*
X142500000Y-110500000D03*
X128000000Y-94000000D03*
X128000000Y-92000000D03*
X170000000Y-95000000D03*
X170000000Y-92500000D03*
X165000000Y-95000000D03*
X165000000Y-92500000D03*
X157612400Y-114932100D03*
X150947000Y-117701300D03*
X140499988Y-106515700D03*
X146579900Y-110733700D03*
X160779200Y-110497200D03*
X155677100Y-114958600D03*
X154681300Y-113671800D03*
X154650034Y-105802013D03*
X143438700Y-121438700D03*
X149802200Y-121870900D03*
X152784287Y-106975601D03*
X130510600Y-114259000D03*
X158679900Y-109796900D03*
X160554100Y-113405700D03*
X153127625Y-107861402D03*
X128846800Y-116259000D03*
X166447100Y-110900100D03*
X162097800Y-114751000D03*
X166414400Y-109744300D03*
X165362000Y-108637700D03*
X152500000Y-106000000D03*
X142650000Y-106188051D03*
X156794800Y-108896300D03*
X160540000Y-114470200D03*
X153020900Y-116444600D03*
X150738480Y-105368008D03*
X152189900Y-117691900D03*
X137150500Y-104138700D03*
X145331600Y-113644000D03*
X167150300Y-121966400D03*
X153017800Y-112058400D03*
X149931900Y-111694000D03*
X138000000Y-95000000D03*
X139500000Y-95000000D03*
X141500000Y-95000000D03*
X141500000Y-100000000D03*
X139500000Y-100000000D03*
X138000000Y-100000000D03*
X136914000Y-90678000D03*
D31*
X136532100Y-117700000D02*
X136532100Y-115791800D01*
X136532100Y-118592100D02*
X136532100Y-117700000D01*
X137676000Y-117704000D02*
X136641000Y-117704000D01*
X136641000Y-117704000D02*
X136637000Y-117700000D01*
X136637000Y-117700000D02*
X136532100Y-117700000D01*
X143010000Y-118847000D02*
X143010000Y-118002500D01*
X143010000Y-118002500D02*
X142822100Y-117814600D01*
X142822100Y-117814600D02*
X142822100Y-117399400D01*
X142727100Y-107144000D02*
X142564664Y-107144000D01*
X141965553Y-107743111D02*
X141965553Y-108308796D01*
X142516100Y-109744000D02*
X141965553Y-109193453D01*
X142564664Y-107144000D02*
X141965553Y-107743111D01*
X141965553Y-108874481D02*
X141965553Y-108308796D01*
X141965553Y-109193453D02*
X141965553Y-108874481D01*
X141541800Y-110846000D02*
X141887800Y-110500000D01*
X142727000Y-111694000D02*
X142500000Y-111467000D01*
X142500000Y-111467000D02*
X142500000Y-111065685D01*
X141934315Y-110500000D02*
X142500000Y-110500000D01*
X141887800Y-110500000D02*
X141934315Y-110500000D01*
X142500000Y-111065685D02*
X142500000Y-110500000D01*
X144915000Y-99669600D02*
X146050001Y-98534599D01*
X146050001Y-98534599D02*
X146050001Y-96348599D01*
X146050001Y-96348599D02*
X145950001Y-96248599D01*
X145950001Y-96248599D02*
X142863999Y-96248599D01*
X142763700Y-96148300D02*
X142763700Y-94044300D01*
X142863999Y-96248599D02*
X142763700Y-96148300D01*
X144407000Y-99669600D02*
X144915000Y-99669600D01*
D32*
X143926000Y-114968500D02*
X143926000Y-114944000D01*
D31*
X146105700Y-99614200D02*
X153170000Y-99614200D01*
X146050300Y-99669600D02*
X146105700Y-99614200D01*
X153170000Y-100559000D02*
X153170000Y-99614200D01*
X145228700Y-99669600D02*
X146050300Y-99669600D01*
X145228700Y-99669600D02*
X144407000Y-99669600D01*
X125577000Y-107859000D02*
X127577300Y-107859000D01*
X161261100Y-86808300D02*
X160591800Y-87477600D01*
X171397000Y-86808300D02*
X161261100Y-86808300D01*
X171397000Y-88508600D02*
X171397000Y-86808300D01*
X158885000Y-113386000D02*
X158885000Y-114330800D01*
X143926000Y-116227200D02*
X144534000Y-116835200D01*
X143926000Y-114968500D02*
X143926000Y-116227200D01*
X144851300Y-87985600D02*
X145075000Y-88209300D01*
X136914000Y-87985600D02*
X144851300Y-87985600D01*
X160663000Y-107290000D02*
X162187000Y-107290000D01*
X171492000Y-118151000D02*
X169491700Y-118151000D01*
X160119400Y-87477600D02*
X160591800Y-87477600D01*
X160119400Y-87477600D02*
X159647000Y-87477600D01*
X155342300Y-87477600D02*
X154539300Y-88280600D01*
X159647000Y-87477600D02*
X155342300Y-87477600D01*
X152789000Y-88280600D02*
X154539300Y-88280600D01*
X139652200Y-110338000D02*
X139652200Y-110846000D01*
X139454000Y-110139800D02*
X139652200Y-110338000D01*
X139454000Y-109195000D02*
X139454000Y-110139800D01*
X140597000Y-110846000D02*
X139652200Y-110846000D01*
X145075000Y-89509600D02*
X145075000Y-88859400D01*
X145075000Y-88859400D02*
X145075000Y-88209300D01*
X150459900Y-88859400D02*
X151038700Y-88280600D01*
X145075000Y-88859400D02*
X150459900Y-88859400D01*
X152789000Y-88280600D02*
X151038700Y-88280600D01*
X144534000Y-117780000D02*
X144534000Y-117399400D01*
X144534000Y-117399400D02*
X144534000Y-116835200D01*
X171492000Y-107351000D02*
X169491700Y-107351000D01*
X163992000Y-115751000D02*
X162121700Y-115751000D01*
X158885000Y-115037000D02*
X158885000Y-114330800D01*
X163992000Y-115751000D02*
X165862300Y-115751000D01*
X158885000Y-115037000D02*
X159829800Y-115037000D01*
X137549000Y-119609000D02*
X137549000Y-120553800D01*
X139724800Y-120553800D02*
X137549000Y-120553800D01*
X140017800Y-120260800D02*
X139724800Y-120553800D01*
X140017800Y-120203700D02*
X140017800Y-120260800D01*
X142822100Y-117399400D02*
X140017800Y-120203700D01*
X144534000Y-117399400D02*
X142822100Y-117399400D01*
X137549000Y-123292000D02*
X137422000Y-123419000D01*
X137549000Y-120553800D02*
X137549000Y-123292000D01*
X137549000Y-119609000D02*
X136604200Y-119609000D01*
X136604200Y-118664200D02*
X136532100Y-118592100D01*
X136604200Y-119609000D02*
X136604200Y-118664200D01*
X136297700Y-115791800D02*
X136532100Y-115791800D01*
X134947400Y-114441500D02*
X136297700Y-115791800D01*
X134947400Y-111526600D02*
X134947400Y-114441500D01*
X133679800Y-110259000D02*
X134947400Y-111526600D01*
X133077000Y-110259000D02*
X133679800Y-110259000D01*
X139532400Y-115791800D02*
X139652200Y-115672000D01*
X136532100Y-115791800D02*
X139532400Y-115791800D01*
X140597000Y-115672000D02*
X139652200Y-115672000D01*
D32*
X142727000Y-111694000D02*
X143926000Y-111694000D01*
D31*
X169491700Y-116093200D02*
X168844000Y-115445500D01*
X169491700Y-118151000D02*
X169491700Y-116093200D01*
X166167800Y-115445500D02*
X165862300Y-115751000D01*
X168844000Y-115445500D02*
X166167800Y-115445500D01*
X158885000Y-115037000D02*
X157940200Y-115037000D01*
X160543800Y-115751000D02*
X162121700Y-115751000D01*
X159829800Y-115037000D02*
X160543800Y-115751000D01*
X160663000Y-107290000D02*
X159012000Y-107290000D01*
X159012000Y-107290000D02*
X157361000Y-107290000D01*
X125577000Y-114659300D02*
X125577000Y-118659000D01*
X129977300Y-110259000D02*
X125577000Y-114659300D01*
X127577300Y-107859000D02*
X129977300Y-110259000D01*
X129977300Y-110259000D02*
X133077000Y-110259000D01*
D32*
X142727100Y-107144000D02*
X143926000Y-107144000D01*
D31*
X169491700Y-114797800D02*
X169491700Y-107351000D01*
X168844000Y-115445500D02*
X169491700Y-114797800D01*
X163192800Y-107351000D02*
X163131800Y-107290000D01*
X169491700Y-107351000D02*
X163192800Y-107351000D01*
X162187000Y-107290000D02*
X163131800Y-107290000D01*
X145075000Y-89509600D02*
X145075000Y-90809900D01*
X137673000Y-94044300D02*
X142763700Y-94044300D01*
X135866300Y-95851000D02*
X137673000Y-94044300D01*
X135866300Y-97547400D02*
X135866300Y-95851000D01*
X134452300Y-98961400D02*
X135866300Y-97547400D01*
X133583100Y-98961400D02*
X134452300Y-98961400D01*
X133175200Y-99369300D02*
X133583100Y-98961400D01*
X133175200Y-101765500D02*
X133175200Y-99369300D01*
X136921700Y-105512000D02*
X133175200Y-101765500D01*
X142763700Y-93121200D02*
X145075000Y-90809900D01*
X142763700Y-94044300D02*
X142763700Y-93121200D01*
X138057000Y-105512000D02*
X136921700Y-105512000D01*
X157835300Y-114932100D02*
X157612400Y-114932100D01*
X157940200Y-115037000D02*
X157835300Y-114932100D01*
X139454000Y-107417000D02*
X139454000Y-109195000D01*
X139192300Y-106210500D02*
X139192300Y-105512000D01*
X139454000Y-106472200D02*
X139192300Y-106210500D01*
X139454000Y-107417000D02*
X139454000Y-106472200D01*
X138057000Y-105512000D02*
X139192300Y-105512000D01*
X140597000Y-110846000D02*
X141541800Y-110846000D01*
D32*
X142727100Y-109744000D02*
X143926000Y-109744000D01*
D31*
X142727100Y-109744000D02*
X142516100Y-109744000D01*
X142516100Y-109871700D02*
X141541800Y-110846000D01*
X142516100Y-109744000D02*
X142516100Y-109871700D01*
X151265000Y-118847000D02*
X151265000Y-117902200D01*
X149715000Y-117780000D02*
X150659800Y-117780000D01*
X150738500Y-117701300D02*
X150947000Y-117701300D01*
X150659800Y-117780000D02*
X150738500Y-117701300D01*
X151064100Y-117701300D02*
X151265000Y-117902200D01*
X150947000Y-117701300D02*
X151064100Y-117701300D01*
X143056000Y-108444000D02*
X142850000Y-108650000D01*
X143926000Y-108444000D02*
X143056000Y-108444000D01*
X142850000Y-108650000D02*
X142850000Y-108900000D01*
X142850000Y-108900000D02*
X143019999Y-109069999D01*
X143019999Y-109069999D02*
X143901999Y-109069999D01*
X140978000Y-106572500D02*
X140921200Y-106515700D01*
X140978000Y-107417000D02*
X140978000Y-106572500D01*
X140921200Y-106515700D02*
X140499988Y-106515700D01*
X142869497Y-108080503D02*
X143131999Y-107818001D01*
X143050000Y-108450000D02*
X142869497Y-108269497D01*
X142869497Y-108269497D02*
X142869497Y-108080503D01*
X143395500Y-108450000D02*
X143050000Y-108450000D01*
X143401500Y-108444000D02*
X143395500Y-108450000D01*
X143926000Y-108444000D02*
X143401500Y-108444000D01*
X143131999Y-107818001D02*
X143901999Y-107818001D01*
X143926000Y-108444000D02*
X144949700Y-108444000D01*
X144949700Y-108444000D02*
X146579900Y-110074200D01*
X140978000Y-107417000D02*
X140978000Y-109195000D01*
X140597000Y-105512000D02*
X140597000Y-107036000D01*
X140597000Y-107036000D02*
X140978000Y-107417000D01*
D32*
X143926000Y-109069600D02*
X143926000Y-109094000D01*
X143926000Y-107818500D02*
X143926000Y-107794000D01*
D31*
X163992000Y-113751000D02*
X162121700Y-113751000D01*
X127938100Y-115527600D02*
X131206700Y-112259000D01*
X127938100Y-119015100D02*
X127938100Y-115527600D01*
X132342000Y-123419000D02*
X127938100Y-119015100D01*
X133077000Y-112259000D02*
X131206700Y-112259000D01*
X162121700Y-111839700D02*
X160779200Y-110497200D01*
X162121700Y-113751000D02*
X162121700Y-111839700D01*
X146579900Y-110074200D02*
X146579900Y-110733700D01*
D33*
X139073000Y-119609000D02*
X139073000Y-117962000D01*
X139073000Y-117962000D02*
X139331000Y-117704000D01*
X139331000Y-117704000D02*
X140216000Y-117704000D01*
X142512500Y-114683700D02*
X142902200Y-114294000D01*
X142512500Y-115274400D02*
X142512500Y-114683700D01*
X141043200Y-116743700D02*
X142512500Y-115274400D01*
X140216000Y-116743700D02*
X141043200Y-116743700D01*
X140216000Y-117704000D02*
X140216000Y-116743700D01*
X143926000Y-114294000D02*
X142902200Y-114294000D01*
X141291500Y-114148000D02*
X140597000Y-114148000D01*
X143255051Y-112994000D02*
X142101051Y-114148000D01*
X142101051Y-114148000D02*
X141291500Y-114148000D01*
X143926000Y-112994000D02*
X143255051Y-112994000D01*
X139446200Y-114529000D02*
X139827200Y-114148000D01*
X138184000Y-114529000D02*
X139446200Y-114529000D01*
X140597000Y-114148000D02*
X139827200Y-114148000D01*
X150217044Y-104263001D02*
X156421601Y-104263001D01*
X156421601Y-104263001D02*
X156472000Y-104313400D01*
X148699800Y-114074900D02*
X148699800Y-105780245D01*
X152091500Y-115463900D02*
X150088800Y-115463900D01*
X152261800Y-115293600D02*
X152091500Y-115463900D01*
X152261800Y-114369300D02*
X152261800Y-115293600D01*
X152186500Y-114294000D02*
X152261800Y-114369300D01*
X150088800Y-115463900D02*
X148699800Y-114074900D01*
X148699800Y-105780245D02*
X150217044Y-104263001D01*
X151238000Y-114294000D02*
X152186500Y-114294000D01*
X159393000Y-100559000D02*
X158623200Y-100559000D01*
X158623200Y-100559000D02*
X156980000Y-100559000D01*
X156980000Y-100559000D02*
X156980000Y-101328800D01*
X160663000Y-105766000D02*
X162187000Y-105766000D01*
X160663000Y-105766000D02*
X159893200Y-105766000D01*
X156472000Y-101836800D02*
X156980000Y-101328800D01*
X156472000Y-104313400D02*
X156472000Y-101836800D01*
X159893200Y-105284900D02*
X159893200Y-105766000D01*
X158921700Y-104313400D02*
X159893200Y-105284900D01*
X156472000Y-104313400D02*
X158921700Y-104313400D01*
X149164400Y-105945393D02*
X150416801Y-104692992D01*
X156666500Y-105766000D02*
X157361000Y-105766000D01*
X155593492Y-104692992D02*
X156666500Y-105766000D01*
X149164400Y-113818900D02*
X149164400Y-105945393D01*
X151238000Y-114944000D02*
X150289500Y-114944000D01*
X150289500Y-114944000D02*
X149164400Y-113818900D01*
X150416801Y-104692992D02*
X155593492Y-104692992D01*
X157361000Y-105766000D02*
X158130800Y-105766000D01*
X159012000Y-105766000D02*
X158130800Y-105766000D01*
X143250399Y-112344000D02*
X143926000Y-112344000D01*
X140857501Y-113325001D02*
X142269398Y-113325001D01*
X140597000Y-112370000D02*
X140597000Y-113064500D01*
X142269398Y-113325001D02*
X143250399Y-112344000D01*
X140597000Y-113064500D02*
X140857501Y-113325001D01*
X139446200Y-111989000D02*
X139827200Y-112370000D01*
X138184000Y-111989000D02*
X139446200Y-111989000D01*
X140597000Y-112370000D02*
X139827200Y-112370000D01*
X146058000Y-120371000D02*
X146058000Y-117780000D01*
X146058000Y-112152200D02*
X146058000Y-117010200D01*
X144949800Y-111044000D02*
X146058000Y-112152200D01*
X143926000Y-111044000D02*
X144949800Y-111044000D01*
X146058000Y-117780000D02*
X146058000Y-117010200D01*
X155202000Y-118974000D02*
X156492500Y-118974000D01*
X158885000Y-116561000D02*
X158115200Y-116561000D01*
X158069900Y-117396600D02*
X158069900Y-116606300D01*
X156492500Y-118974000D02*
X158069900Y-117396600D01*
X158069900Y-116606300D02*
X158115200Y-116561000D01*
X151238000Y-110394000D02*
X152261800Y-110394000D01*
X152461300Y-110394000D02*
X152261800Y-110394000D01*
X153743100Y-111675800D02*
X152461300Y-110394000D01*
X153743100Y-112021900D02*
X153743100Y-111675800D01*
X154667700Y-112946500D02*
X153743100Y-112021900D01*
X154981800Y-112946500D02*
X154667700Y-112946500D01*
X156402400Y-114367100D02*
X154981800Y-112946500D01*
X156402400Y-114938800D02*
X156402400Y-114367100D01*
X158069900Y-116606300D02*
X156402400Y-114938800D01*
X155575200Y-109322000D02*
X155202000Y-109322000D01*
X158115200Y-111862000D02*
X155575200Y-109322000D01*
X158885000Y-111862000D02*
X158115200Y-111862000D01*
X153489500Y-109744000D02*
X153911500Y-109322000D01*
X151238000Y-109744000D02*
X153489500Y-109744000D01*
X155202000Y-109322000D02*
X153911500Y-109322000D01*
X148191000Y-120371000D02*
X148191000Y-117780000D01*
X143926000Y-110394000D02*
X144949800Y-110394000D01*
X148191000Y-117780000D02*
X148191000Y-117010200D01*
X146954900Y-115774100D02*
X148191000Y-117010200D01*
X146954900Y-112399100D02*
X146954900Y-115774100D01*
X144949800Y-110394000D02*
X146954900Y-112399100D01*
X154255400Y-114958600D02*
X155677100Y-114958600D01*
X152290800Y-112994000D02*
X154255400Y-114958600D01*
X151238000Y-112994000D02*
X152290800Y-112994000D01*
X153605500Y-113671800D02*
X154681300Y-113671800D01*
X152277700Y-112344000D02*
X153605500Y-113671800D01*
X151238000Y-112344000D02*
X152277700Y-112344000D01*
X153873800Y-108114231D02*
X153873800Y-106578247D01*
X152894031Y-109094000D02*
X153873800Y-108114231D01*
X154250035Y-106202012D02*
X154650034Y-105802013D01*
X151238000Y-109094000D02*
X152894031Y-109094000D01*
X153873800Y-106578247D02*
X154250035Y-106202012D01*
D31*
X147836000Y-100559000D02*
X146891200Y-100559000D01*
X134374000Y-100305000D02*
X135572800Y-100305000D01*
X143711500Y-101077700D02*
X145042000Y-102408200D01*
X136345500Y-101077700D02*
X143711500Y-101077700D01*
X135572800Y-100305000D02*
X136345500Y-101077700D01*
X146891200Y-100559000D02*
X145042000Y-102408200D01*
X145042000Y-102408200D02*
X145042000Y-103099000D01*
D33*
X144534000Y-120371000D02*
X143764200Y-120371000D01*
X143010000Y-120371000D02*
X143764200Y-120371000D01*
X143140800Y-121140800D02*
X143438700Y-121438700D01*
X143010000Y-121140800D02*
X143140800Y-121140800D01*
X143010000Y-120371000D02*
X143010000Y-121140800D01*
X151265000Y-120371000D02*
X150495200Y-120371000D01*
X149715000Y-120371000D02*
X150105100Y-120761100D01*
X149802200Y-121064000D02*
X150105100Y-120761100D01*
X149802200Y-121870900D02*
X149802200Y-121064000D01*
X150105100Y-120761100D02*
X150495200Y-120371000D01*
X125590600Y-100500000D02*
X125590600Y-101259000D01*
X125590600Y-98999300D02*
X125590600Y-100500000D01*
X126566000Y-100305000D02*
X125666000Y-100305000D01*
X125666000Y-100305000D02*
X125590600Y-100380400D01*
X125590600Y-100380400D02*
X125590600Y-100500000D01*
X136660000Y-114529000D02*
X136660000Y-113759200D01*
X126246000Y-96875600D02*
X126246000Y-98343900D01*
X135890200Y-112989400D02*
X136660000Y-113759200D01*
X135890200Y-110580300D02*
X135890200Y-112989400D01*
X127329700Y-102019800D02*
X135890200Y-110580300D01*
X126351400Y-102019800D02*
X127329700Y-102019800D01*
X125590600Y-101259000D02*
X126351400Y-102019800D01*
X126246000Y-98343900D02*
X125590600Y-98999300D01*
X136660000Y-111989000D02*
X136660000Y-111219200D01*
X128466000Y-100305000D02*
X128953700Y-100305000D01*
X136660000Y-108011300D02*
X136660000Y-111219200D01*
X128953700Y-100305000D02*
X136660000Y-108011300D01*
X128292600Y-99056300D02*
X128466000Y-99229700D01*
X128292600Y-95154300D02*
X128292600Y-99056300D01*
X132977000Y-90469900D02*
X128292600Y-95154300D01*
X132977000Y-89001600D02*
X132977000Y-90469900D01*
X128466000Y-100305000D02*
X128466000Y-99229700D01*
X151238000Y-107144000D02*
X152615888Y-107144000D01*
X152615888Y-107144000D02*
X152784287Y-106975601D01*
X133077000Y-114259000D02*
X131381700Y-114259000D01*
X131381700Y-114259000D02*
X130510600Y-114259000D01*
X158856300Y-109796900D02*
X158679900Y-109796900D01*
X160554100Y-111494700D02*
X158856300Y-109796900D01*
X160554100Y-113405700D02*
X160554100Y-111494700D01*
X151238000Y-107794000D02*
X153060223Y-107794000D01*
X153060223Y-107794000D02*
X153127625Y-107861402D01*
X132229400Y-116259000D02*
X131381700Y-116259000D01*
X132229400Y-116259000D02*
X133077000Y-116259000D01*
X131381700Y-116259000D02*
X128846800Y-116259000D01*
X166447100Y-113796400D02*
X166447100Y-110900100D01*
X165492500Y-114751000D02*
X166447100Y-113796400D01*
X162097800Y-114751000D02*
X165492500Y-114751000D01*
X163992000Y-111751000D02*
X165687300Y-111751000D01*
X165687300Y-110471400D02*
X166414400Y-109744300D01*
X165687300Y-111751000D02*
X165687300Y-110471400D01*
X163992000Y-109751000D02*
X165687300Y-109751000D01*
X165687300Y-108963000D02*
X165362000Y-108637700D01*
X165687300Y-109751000D02*
X165687300Y-108963000D01*
X151238000Y-106494000D02*
X152006000Y-106494000D01*
X152006000Y-106494000D02*
X152500000Y-106000000D01*
X143926000Y-106494000D02*
X142955949Y-106494000D01*
X142955949Y-106494000D02*
X142650000Y-106188051D01*
X156794800Y-108984800D02*
X156794800Y-108896300D01*
X158578500Y-110768500D02*
X156794800Y-108984800D01*
X159191000Y-110768500D02*
X158578500Y-110768500D01*
X159828700Y-111406200D02*
X159191000Y-110768500D01*
X159828700Y-113758900D02*
X159828700Y-111406200D01*
X160540000Y-114470200D02*
X159828700Y-113758900D01*
X152738200Y-116161900D02*
X153020900Y-116444600D01*
X150149900Y-116161900D02*
X152738200Y-116161900D01*
X147855500Y-113867500D02*
X150149900Y-116161900D01*
X147855500Y-103372500D02*
X147855500Y-113867500D01*
X147582000Y-103099000D02*
X147855500Y-103372500D01*
X150214200Y-108368700D02*
X150214200Y-105892288D01*
X150214200Y-105892288D02*
X150338481Y-105768007D01*
X151238000Y-108444000D02*
X150289500Y-108444000D01*
X150338481Y-105768007D02*
X150738480Y-105368008D01*
X150289500Y-108444000D02*
X150214200Y-108368700D01*
X143358436Y-104451600D02*
X147405200Y-108498364D01*
X151373900Y-116875900D02*
X151789901Y-117291901D01*
X147405200Y-114054100D02*
X150227000Y-116875900D01*
X150227000Y-116875900D02*
X151373900Y-116875900D01*
X151789901Y-117291901D02*
X152189900Y-117691900D01*
X138029085Y-104451600D02*
X143358436Y-104451600D01*
X147405200Y-108498364D02*
X147405200Y-114054100D01*
X137716185Y-104138700D02*
X138029085Y-104451600D01*
X137150500Y-104138700D02*
X137716185Y-104138700D01*
X143926000Y-113644000D02*
X145331600Y-113644000D01*
X151238000Y-113644000D02*
X152261800Y-113644000D01*
X153859300Y-115241500D02*
X152261800Y-113644000D01*
X153859300Y-121757200D02*
X153859300Y-115241500D01*
X154068500Y-121966400D02*
X153859300Y-121757200D01*
X167150300Y-121966400D02*
X154068500Y-121966400D01*
X152261800Y-111302400D02*
X153017800Y-112058400D01*
X152261800Y-111044000D02*
X152261800Y-111302400D01*
X151238000Y-111044000D02*
X152261800Y-111044000D01*
X151238000Y-111694000D02*
X150214200Y-111694000D01*
X150214200Y-111694000D02*
X149931900Y-111694000D01*
X149360000Y-100559000D02*
X151646000Y-100559000D01*
D31*
X144407000Y-97383600D02*
X138057000Y-97383600D01*
X131072000Y-100305000D02*
X131072000Y-99106200D01*
X136914000Y-91952700D02*
X136914000Y-90678000D01*
X134773300Y-94093400D02*
X136914000Y-91952700D01*
X134289600Y-94093400D02*
X134773300Y-94093400D01*
X131072000Y-97311000D02*
X134289600Y-94093400D01*
X131072000Y-99106200D02*
X131072000Y-97311000D01*
X139675000Y-89509600D02*
X137424700Y-89509600D01*
X136914000Y-90678000D02*
X136914000Y-89509600D01*
X136914000Y-89509600D02*
X137424700Y-89509600D01*
X159647000Y-91931600D02*
X159647000Y-89001600D01*
X152789000Y-96580600D02*
X154539300Y-96580600D01*
X158411700Y-92708200D02*
X154539300Y-96580600D01*
X158411700Y-91931600D02*
X158411700Y-92708200D01*
X159647000Y-91931600D02*
X158411700Y-91931600D01*
X149555700Y-95097600D02*
X151038700Y-96580600D01*
X144407000Y-95097600D02*
X149555700Y-95097600D01*
X152789000Y-96580600D02*
X151038700Y-96580600D01*
X171397000Y-99908600D02*
X171397000Y-101608900D01*
X162911700Y-101608900D02*
X171397000Y-101608900D01*
X161861800Y-100559000D02*
X162911700Y-101608900D01*
X160917000Y-100559000D02*
X161861800Y-100559000D01*
X160917000Y-98636900D02*
X160917000Y-100559000D01*
X159647000Y-97366900D02*
X160917000Y-98636900D01*
X159647000Y-96231600D02*
X159647000Y-97366900D01*
D34*
G36*
X141928700Y-96066067D02*
X141912343Y-96148300D01*
X141928700Y-96230533D01*
X141928700Y-96230536D01*
X141977148Y-96474100D01*
X142161699Y-96750301D01*
X142221824Y-96790475D01*
X142261998Y-96850600D01*
X142538198Y-97035151D01*
X142629000Y-97053213D01*
X142629000Y-97097850D01*
X142787750Y-97256600D01*
X144280000Y-97256600D01*
X144280000Y-97236600D01*
X144534000Y-97236600D01*
X144534000Y-97256600D01*
X144554000Y-97256600D01*
X144554000Y-97510600D01*
X144534000Y-97510600D01*
X144534000Y-97530600D01*
X144280000Y-97530600D01*
X144280000Y-97510600D01*
X142787750Y-97510600D01*
X142629000Y-97669350D01*
X142629000Y-98144909D01*
X142725673Y-98378298D01*
X142876911Y-98529537D01*
X142806191Y-98576791D01*
X142665843Y-98786835D01*
X142616560Y-99034600D01*
X142616560Y-100242700D01*
X136691368Y-100242700D01*
X136627000Y-100178332D01*
X136627000Y-99703737D01*
X136851190Y-99796600D01*
X137771250Y-99796600D01*
X137930000Y-99637850D01*
X137930000Y-97510600D01*
X138184000Y-97510600D01*
X138184000Y-99637850D01*
X138342750Y-99796600D01*
X139262810Y-99796600D01*
X139496199Y-99699927D01*
X139674827Y-99521298D01*
X139771500Y-99287909D01*
X139771500Y-97669350D01*
X139612750Y-97510600D01*
X138184000Y-97510600D01*
X137930000Y-97510600D01*
X137910000Y-97510600D01*
X137910000Y-97256600D01*
X137930000Y-97256600D01*
X137930000Y-95129350D01*
X138184000Y-95129350D01*
X138184000Y-97256600D01*
X139612750Y-97256600D01*
X139771500Y-97097850D01*
X139771500Y-95479291D01*
X139674827Y-95245902D01*
X139496199Y-95067273D01*
X139262810Y-94970600D01*
X138342750Y-94970600D01*
X138184000Y-95129350D01*
X137930000Y-95129350D01*
X137849409Y-95048759D01*
X138018868Y-94879300D01*
X141928701Y-94879300D01*
X141928700Y-96066067D01*
X141928700Y-96066067D01*
G37*
X141928700Y-96066067D02*
X141912343Y-96148300D01*
X141928700Y-96230533D01*
X141928700Y-96230536D01*
X141977148Y-96474100D01*
X142161699Y-96750301D01*
X142221824Y-96790475D01*
X142261998Y-96850600D01*
X142538198Y-97035151D01*
X142629000Y-97053213D01*
X142629000Y-97097850D01*
X142787750Y-97256600D01*
X144280000Y-97256600D01*
X144280000Y-97236600D01*
X144534000Y-97236600D01*
X144534000Y-97256600D01*
X144554000Y-97256600D01*
X144554000Y-97510600D01*
X144534000Y-97510600D01*
X144534000Y-97530600D01*
X144280000Y-97530600D01*
X144280000Y-97510600D01*
X142787750Y-97510600D01*
X142629000Y-97669350D01*
X142629000Y-98144909D01*
X142725673Y-98378298D01*
X142876911Y-98529537D01*
X142806191Y-98576791D01*
X142665843Y-98786835D01*
X142616560Y-99034600D01*
X142616560Y-100242700D01*
X136691368Y-100242700D01*
X136627000Y-100178332D01*
X136627000Y-99703737D01*
X136851190Y-99796600D01*
X137771250Y-99796600D01*
X137930000Y-99637850D01*
X137930000Y-97510600D01*
X138184000Y-97510600D01*
X138184000Y-99637850D01*
X138342750Y-99796600D01*
X139262810Y-99796600D01*
X139496199Y-99699927D01*
X139674827Y-99521298D01*
X139771500Y-99287909D01*
X139771500Y-97669350D01*
X139612750Y-97510600D01*
X138184000Y-97510600D01*
X137930000Y-97510600D01*
X137910000Y-97510600D01*
X137910000Y-97256600D01*
X137930000Y-97256600D01*
X137930000Y-95129350D01*
X138184000Y-95129350D01*
X138184000Y-97256600D01*
X139612750Y-97256600D01*
X139771500Y-97097850D01*
X139771500Y-95479291D01*
X139674827Y-95245902D01*
X139496199Y-95067273D01*
X139262810Y-94970600D01*
X138342750Y-94970600D01*
X138184000Y-95129350D01*
X137930000Y-95129350D01*
X137849409Y-95048759D01*
X138018868Y-94879300D01*
X141928701Y-94879300D01*
X141928700Y-96066067D01*
G36*
X172741524Y-102733486D02*
X172090928Y-102464000D01*
X171333072Y-102464000D01*
X170632904Y-102754019D01*
X170097019Y-103289904D01*
X169807000Y-103990072D01*
X169807000Y-104747928D01*
X170097019Y-105448096D01*
X170614923Y-105966000D01*
X169865691Y-105966000D01*
X169632302Y-106062673D01*
X169453673Y-106241301D01*
X169357000Y-106474690D01*
X169357000Y-107065250D01*
X169515750Y-107224000D01*
X171365000Y-107224000D01*
X171365000Y-107204000D01*
X171619000Y-107204000D01*
X171619000Y-107224000D01*
X171639000Y-107224000D01*
X171639000Y-107478000D01*
X171619000Y-107478000D01*
X171619000Y-108577250D01*
X171777750Y-108736000D01*
X172741525Y-108736000D01*
X172741525Y-116766000D01*
X171777750Y-116766000D01*
X171619000Y-116924750D01*
X171619000Y-118024000D01*
X171639000Y-118024000D01*
X171639000Y-118278000D01*
X171619000Y-118278000D01*
X171619000Y-119377250D01*
X171777750Y-119536000D01*
X172741525Y-119536000D01*
X172741525Y-120513486D01*
X172090928Y-120244000D01*
X171333072Y-120244000D01*
X170632904Y-120534019D01*
X170097019Y-121069904D01*
X169807000Y-121770072D01*
X169807000Y-122527928D01*
X170097019Y-123228096D01*
X170632904Y-123763981D01*
X171151040Y-123978600D01*
X169319772Y-123978600D01*
X169426000Y-123722142D01*
X169426000Y-123115858D01*
X169193985Y-122555723D01*
X168765277Y-122127015D01*
X168205142Y-121895000D01*
X168185300Y-121895000D01*
X168185300Y-121760526D01*
X168027731Y-121380120D01*
X167736580Y-121088969D01*
X167356174Y-120931400D01*
X166944426Y-120931400D01*
X166564020Y-121088969D01*
X166446589Y-121206400D01*
X156814640Y-121206400D01*
X156814640Y-119672797D01*
X157040429Y-119521929D01*
X157082831Y-119458470D01*
X158104552Y-118436750D01*
X169357000Y-118436750D01*
X169357000Y-119027310D01*
X169453673Y-119260699D01*
X169632302Y-119439327D01*
X169865691Y-119536000D01*
X171206250Y-119536000D01*
X171365000Y-119377250D01*
X171365000Y-118278000D01*
X169515750Y-118278000D01*
X169357000Y-118436750D01*
X158104552Y-118436750D01*
X158554376Y-117986927D01*
X158617829Y-117944529D01*
X158660227Y-117881076D01*
X158660229Y-117881074D01*
X158778545Y-117704001D01*
X158785804Y-117693137D01*
X158793800Y-117652940D01*
X159329500Y-117652940D01*
X159577265Y-117603657D01*
X159787309Y-117463309D01*
X159913341Y-117274690D01*
X169357000Y-117274690D01*
X169357000Y-117865250D01*
X169515750Y-118024000D01*
X171365000Y-118024000D01*
X171365000Y-116924750D01*
X171206250Y-116766000D01*
X169865691Y-116766000D01*
X169632302Y-116862673D01*
X169453673Y-117041301D01*
X169357000Y-117274690D01*
X159913341Y-117274690D01*
X159927657Y-117253265D01*
X159976940Y-117005500D01*
X159976940Y-116116500D01*
X159927657Y-115868735D01*
X159883682Y-115802922D01*
X159964500Y-115607809D01*
X159964500Y-115352096D01*
X160334126Y-115505200D01*
X160745874Y-115505200D01*
X161126280Y-115347631D01*
X161195843Y-115278068D01*
X161220369Y-115337280D01*
X161511520Y-115628431D01*
X161891926Y-115786000D01*
X161987000Y-115786000D01*
X161987000Y-115878002D01*
X162145748Y-115878002D01*
X161987000Y-116036750D01*
X161987000Y-116382310D01*
X162083673Y-116615699D01*
X162262302Y-116794327D01*
X162495691Y-116891000D01*
X163706250Y-116891000D01*
X163865000Y-116732250D01*
X163865000Y-115878000D01*
X164119000Y-115878000D01*
X164119000Y-116732250D01*
X164277750Y-116891000D01*
X165488309Y-116891000D01*
X165721698Y-116794327D01*
X165900327Y-116615699D01*
X165997000Y-116382310D01*
X165997000Y-116036750D01*
X165838250Y-115878000D01*
X164119000Y-115878000D01*
X163865000Y-115878000D01*
X163845000Y-115878000D01*
X163845000Y-115624000D01*
X163865000Y-115624000D01*
X163865000Y-115604000D01*
X164119000Y-115604000D01*
X164119000Y-115624000D01*
X165838250Y-115624000D01*
X165997000Y-115465250D01*
X165997000Y-115327947D01*
X166040429Y-115298929D01*
X166082831Y-115235470D01*
X166931573Y-114386729D01*
X166995029Y-114344329D01*
X167163004Y-114092937D01*
X167207100Y-113871252D01*
X167207100Y-113871248D01*
X167221988Y-113796401D01*
X167207100Y-113721554D01*
X167207100Y-111603811D01*
X167324531Y-111486380D01*
X167482100Y-111105974D01*
X167482100Y-110694226D01*
X167324531Y-110313820D01*
X167306317Y-110295606D01*
X167449400Y-109950174D01*
X167449400Y-109538426D01*
X167291831Y-109158020D01*
X167000680Y-108866869D01*
X166620274Y-108709300D01*
X166411725Y-108709300D01*
X166403204Y-108666463D01*
X166403204Y-108666462D01*
X166397000Y-108657177D01*
X166397000Y-108431826D01*
X166239431Y-108051420D01*
X165948280Y-107760269D01*
X165650079Y-107636750D01*
X169357000Y-107636750D01*
X169357000Y-108227310D01*
X169453673Y-108460699D01*
X169632302Y-108639327D01*
X169865691Y-108736000D01*
X171206250Y-108736000D01*
X171365000Y-108577250D01*
X171365000Y-107478000D01*
X169515750Y-107478000D01*
X169357000Y-107636750D01*
X165650079Y-107636750D01*
X165567874Y-107602700D01*
X165156126Y-107602700D01*
X164775720Y-107760269D01*
X164484569Y-108051420D01*
X164327000Y-108431826D01*
X164327000Y-108598560D01*
X162622000Y-108598560D01*
X162374235Y-108647843D01*
X162164191Y-108788191D01*
X162023843Y-108998235D01*
X161974560Y-109246000D01*
X161974560Y-110256000D01*
X162023843Y-110503765D01*
X162139049Y-110676181D01*
X161814200Y-110351333D01*
X161814200Y-110291326D01*
X161656631Y-109910920D01*
X161365480Y-109619769D01*
X160985074Y-109462200D01*
X160573326Y-109462200D01*
X160192920Y-109619769D01*
X159973445Y-109839244D01*
X159707598Y-109573396D01*
X159557331Y-109210620D01*
X159266180Y-108919469D01*
X158885774Y-108761900D01*
X158474026Y-108761900D01*
X158093620Y-108919469D01*
X157948945Y-109064144D01*
X157829800Y-108944999D01*
X157829800Y-108690426D01*
X157696868Y-108369500D01*
X157931810Y-108369500D01*
X158165199Y-108272827D01*
X158186500Y-108251526D01*
X158207801Y-108272827D01*
X158441190Y-108369500D01*
X158726250Y-108369500D01*
X158885000Y-108210750D01*
X158885000Y-107417000D01*
X159139000Y-107417000D01*
X159139000Y-108210750D01*
X159297750Y-108369500D01*
X159582810Y-108369500D01*
X159816199Y-108272827D01*
X159837500Y-108251526D01*
X159858801Y-108272827D01*
X160092190Y-108369500D01*
X160377250Y-108369500D01*
X160536000Y-108210750D01*
X160536000Y-107417000D01*
X160790000Y-107417000D01*
X160790000Y-108210750D01*
X160948750Y-108369500D01*
X161233810Y-108369500D01*
X161425000Y-108290306D01*
X161616190Y-108369500D01*
X161901250Y-108369500D01*
X162060000Y-108210750D01*
X162060000Y-107417000D01*
X162314000Y-107417000D01*
X162314000Y-108210750D01*
X162472750Y-108369500D01*
X162757810Y-108369500D01*
X162991199Y-108272827D01*
X163169827Y-108094198D01*
X163266500Y-107860809D01*
X163266500Y-107575750D01*
X163107750Y-107417000D01*
X162314000Y-107417000D01*
X162060000Y-107417000D01*
X160790000Y-107417000D01*
X160536000Y-107417000D01*
X159139000Y-107417000D01*
X158885000Y-107417000D01*
X157488000Y-107417000D01*
X157488000Y-107437000D01*
X157234000Y-107437000D01*
X157234000Y-107417000D01*
X157214000Y-107417000D01*
X157214000Y-107163000D01*
X157234000Y-107163000D01*
X157234000Y-107143000D01*
X157488000Y-107143000D01*
X157488000Y-107163000D01*
X158885000Y-107163000D01*
X158885000Y-107143000D01*
X159139000Y-107143000D01*
X159139000Y-107163000D01*
X160536000Y-107163000D01*
X160536000Y-107143000D01*
X160790000Y-107143000D01*
X160790000Y-107163000D01*
X162060000Y-107163000D01*
X162060000Y-107143000D01*
X162314000Y-107143000D01*
X162314000Y-107163000D01*
X163107750Y-107163000D01*
X163266500Y-107004250D01*
X163266500Y-106719191D01*
X163185682Y-106524078D01*
X163229657Y-106458265D01*
X163278940Y-106210500D01*
X163278940Y-105321500D01*
X163229657Y-105073735D01*
X163089309Y-104863691D01*
X162879265Y-104723343D01*
X162631500Y-104674060D01*
X161742500Y-104674060D01*
X161494735Y-104723343D01*
X161425000Y-104769939D01*
X161355265Y-104723343D01*
X161107500Y-104674060D01*
X160357163Y-104674060D01*
X160306103Y-104623000D01*
X160585142Y-104623000D01*
X161145277Y-104390985D01*
X161552000Y-103984262D01*
X161958723Y-104390985D01*
X162518858Y-104623000D01*
X163125142Y-104623000D01*
X163685277Y-104390985D01*
X164092000Y-103984262D01*
X164498723Y-104390985D01*
X165058858Y-104623000D01*
X165665142Y-104623000D01*
X166225277Y-104390985D01*
X166632000Y-103984262D01*
X167038723Y-104390985D01*
X167598858Y-104623000D01*
X168205142Y-104623000D01*
X168765277Y-104390985D01*
X169193985Y-103962277D01*
X169426000Y-103402142D01*
X169426000Y-102795858D01*
X169280215Y-102443900D01*
X171314763Y-102443900D01*
X171397000Y-102460258D01*
X171479237Y-102443900D01*
X171722801Y-102395452D01*
X171999001Y-102210901D01*
X172183552Y-101934701D01*
X172219090Y-101756040D01*
X172741524Y-101756040D01*
X172741524Y-102733486D01*
X172741524Y-102733486D01*
G37*
X172741524Y-102733486D02*
X172090928Y-102464000D01*
X171333072Y-102464000D01*
X170632904Y-102754019D01*
X170097019Y-103289904D01*
X169807000Y-103990072D01*
X169807000Y-104747928D01*
X170097019Y-105448096D01*
X170614923Y-105966000D01*
X169865691Y-105966000D01*
X169632302Y-106062673D01*
X169453673Y-106241301D01*
X169357000Y-106474690D01*
X169357000Y-107065250D01*
X169515750Y-107224000D01*
X171365000Y-107224000D01*
X171365000Y-107204000D01*
X171619000Y-107204000D01*
X171619000Y-107224000D01*
X171639000Y-107224000D01*
X171639000Y-107478000D01*
X171619000Y-107478000D01*
X171619000Y-108577250D01*
X171777750Y-108736000D01*
X172741525Y-108736000D01*
X172741525Y-116766000D01*
X171777750Y-116766000D01*
X171619000Y-116924750D01*
X171619000Y-118024000D01*
X171639000Y-118024000D01*
X171639000Y-118278000D01*
X171619000Y-118278000D01*
X171619000Y-119377250D01*
X171777750Y-119536000D01*
X172741525Y-119536000D01*
X172741525Y-120513486D01*
X172090928Y-120244000D01*
X171333072Y-120244000D01*
X170632904Y-120534019D01*
X170097019Y-121069904D01*
X169807000Y-121770072D01*
X169807000Y-122527928D01*
X170097019Y-123228096D01*
X170632904Y-123763981D01*
X171151040Y-123978600D01*
X169319772Y-123978600D01*
X169426000Y-123722142D01*
X169426000Y-123115858D01*
X169193985Y-122555723D01*
X168765277Y-122127015D01*
X168205142Y-121895000D01*
X168185300Y-121895000D01*
X168185300Y-121760526D01*
X168027731Y-121380120D01*
X167736580Y-121088969D01*
X167356174Y-120931400D01*
X166944426Y-120931400D01*
X166564020Y-121088969D01*
X166446589Y-121206400D01*
X156814640Y-121206400D01*
X156814640Y-119672797D01*
X157040429Y-119521929D01*
X157082831Y-119458470D01*
X158104552Y-118436750D01*
X169357000Y-118436750D01*
X169357000Y-119027310D01*
X169453673Y-119260699D01*
X169632302Y-119439327D01*
X169865691Y-119536000D01*
X171206250Y-119536000D01*
X171365000Y-119377250D01*
X171365000Y-118278000D01*
X169515750Y-118278000D01*
X169357000Y-118436750D01*
X158104552Y-118436750D01*
X158554376Y-117986927D01*
X158617829Y-117944529D01*
X158660227Y-117881076D01*
X158660229Y-117881074D01*
X158778545Y-117704001D01*
X158785804Y-117693137D01*
X158793800Y-117652940D01*
X159329500Y-117652940D01*
X159577265Y-117603657D01*
X159787309Y-117463309D01*
X159913341Y-117274690D01*
X169357000Y-117274690D01*
X169357000Y-117865250D01*
X169515750Y-118024000D01*
X171365000Y-118024000D01*
X171365000Y-116924750D01*
X171206250Y-116766000D01*
X169865691Y-116766000D01*
X169632302Y-116862673D01*
X169453673Y-117041301D01*
X169357000Y-117274690D01*
X159913341Y-117274690D01*
X159927657Y-117253265D01*
X159976940Y-117005500D01*
X159976940Y-116116500D01*
X159927657Y-115868735D01*
X159883682Y-115802922D01*
X159964500Y-115607809D01*
X159964500Y-115352096D01*
X160334126Y-115505200D01*
X160745874Y-115505200D01*
X161126280Y-115347631D01*
X161195843Y-115278068D01*
X161220369Y-115337280D01*
X161511520Y-115628431D01*
X161891926Y-115786000D01*
X161987000Y-115786000D01*
X161987000Y-115878002D01*
X162145748Y-115878002D01*
X161987000Y-116036750D01*
X161987000Y-116382310D01*
X162083673Y-116615699D01*
X162262302Y-116794327D01*
X162495691Y-116891000D01*
X163706250Y-116891000D01*
X163865000Y-116732250D01*
X163865000Y-115878000D01*
X164119000Y-115878000D01*
X164119000Y-116732250D01*
X164277750Y-116891000D01*
X165488309Y-116891000D01*
X165721698Y-116794327D01*
X165900327Y-116615699D01*
X165997000Y-116382310D01*
X165997000Y-116036750D01*
X165838250Y-115878000D01*
X164119000Y-115878000D01*
X163865000Y-115878000D01*
X163845000Y-115878000D01*
X163845000Y-115624000D01*
X163865000Y-115624000D01*
X163865000Y-115604000D01*
X164119000Y-115604000D01*
X164119000Y-115624000D01*
X165838250Y-115624000D01*
X165997000Y-115465250D01*
X165997000Y-115327947D01*
X166040429Y-115298929D01*
X166082831Y-115235470D01*
X166931573Y-114386729D01*
X166995029Y-114344329D01*
X167163004Y-114092937D01*
X167207100Y-113871252D01*
X167207100Y-113871248D01*
X167221988Y-113796401D01*
X167207100Y-113721554D01*
X167207100Y-111603811D01*
X167324531Y-111486380D01*
X167482100Y-111105974D01*
X167482100Y-110694226D01*
X167324531Y-110313820D01*
X167306317Y-110295606D01*
X167449400Y-109950174D01*
X167449400Y-109538426D01*
X167291831Y-109158020D01*
X167000680Y-108866869D01*
X166620274Y-108709300D01*
X166411725Y-108709300D01*
X166403204Y-108666463D01*
X166403204Y-108666462D01*
X166397000Y-108657177D01*
X166397000Y-108431826D01*
X166239431Y-108051420D01*
X165948280Y-107760269D01*
X165650079Y-107636750D01*
X169357000Y-107636750D01*
X169357000Y-108227310D01*
X169453673Y-108460699D01*
X169632302Y-108639327D01*
X169865691Y-108736000D01*
X171206250Y-108736000D01*
X171365000Y-108577250D01*
X171365000Y-107478000D01*
X169515750Y-107478000D01*
X169357000Y-107636750D01*
X165650079Y-107636750D01*
X165567874Y-107602700D01*
X165156126Y-107602700D01*
X164775720Y-107760269D01*
X164484569Y-108051420D01*
X164327000Y-108431826D01*
X164327000Y-108598560D01*
X162622000Y-108598560D01*
X162374235Y-108647843D01*
X162164191Y-108788191D01*
X162023843Y-108998235D01*
X161974560Y-109246000D01*
X161974560Y-110256000D01*
X162023843Y-110503765D01*
X162139049Y-110676181D01*
X161814200Y-110351333D01*
X161814200Y-110291326D01*
X161656631Y-109910920D01*
X161365480Y-109619769D01*
X160985074Y-109462200D01*
X160573326Y-109462200D01*
X160192920Y-109619769D01*
X159973445Y-109839244D01*
X159707598Y-109573396D01*
X159557331Y-109210620D01*
X159266180Y-108919469D01*
X158885774Y-108761900D01*
X158474026Y-108761900D01*
X158093620Y-108919469D01*
X157948945Y-109064144D01*
X157829800Y-108944999D01*
X157829800Y-108690426D01*
X157696868Y-108369500D01*
X157931810Y-108369500D01*
X158165199Y-108272827D01*
X158186500Y-108251526D01*
X158207801Y-108272827D01*
X158441190Y-108369500D01*
X158726250Y-108369500D01*
X158885000Y-108210750D01*
X158885000Y-107417000D01*
X159139000Y-107417000D01*
X159139000Y-108210750D01*
X159297750Y-108369500D01*
X159582810Y-108369500D01*
X159816199Y-108272827D01*
X159837500Y-108251526D01*
X159858801Y-108272827D01*
X160092190Y-108369500D01*
X160377250Y-108369500D01*
X160536000Y-108210750D01*
X160536000Y-107417000D01*
X160790000Y-107417000D01*
X160790000Y-108210750D01*
X160948750Y-108369500D01*
X161233810Y-108369500D01*
X161425000Y-108290306D01*
X161616190Y-108369500D01*
X161901250Y-108369500D01*
X162060000Y-108210750D01*
X162060000Y-107417000D01*
X162314000Y-107417000D01*
X162314000Y-108210750D01*
X162472750Y-108369500D01*
X162757810Y-108369500D01*
X162991199Y-108272827D01*
X163169827Y-108094198D01*
X163266500Y-107860809D01*
X163266500Y-107575750D01*
X163107750Y-107417000D01*
X162314000Y-107417000D01*
X162060000Y-107417000D01*
X160790000Y-107417000D01*
X160536000Y-107417000D01*
X159139000Y-107417000D01*
X158885000Y-107417000D01*
X157488000Y-107417000D01*
X157488000Y-107437000D01*
X157234000Y-107437000D01*
X157234000Y-107417000D01*
X157214000Y-107417000D01*
X157214000Y-107163000D01*
X157234000Y-107163000D01*
X157234000Y-107143000D01*
X157488000Y-107143000D01*
X157488000Y-107163000D01*
X158885000Y-107163000D01*
X158885000Y-107143000D01*
X159139000Y-107143000D01*
X159139000Y-107163000D01*
X160536000Y-107163000D01*
X160536000Y-107143000D01*
X160790000Y-107143000D01*
X160790000Y-107163000D01*
X162060000Y-107163000D01*
X162060000Y-107143000D01*
X162314000Y-107143000D01*
X162314000Y-107163000D01*
X163107750Y-107163000D01*
X163266500Y-107004250D01*
X163266500Y-106719191D01*
X163185682Y-106524078D01*
X163229657Y-106458265D01*
X163278940Y-106210500D01*
X163278940Y-105321500D01*
X163229657Y-105073735D01*
X163089309Y-104863691D01*
X162879265Y-104723343D01*
X162631500Y-104674060D01*
X161742500Y-104674060D01*
X161494735Y-104723343D01*
X161425000Y-104769939D01*
X161355265Y-104723343D01*
X161107500Y-104674060D01*
X160357163Y-104674060D01*
X160306103Y-104623000D01*
X160585142Y-104623000D01*
X161145277Y-104390985D01*
X161552000Y-103984262D01*
X161958723Y-104390985D01*
X162518858Y-104623000D01*
X163125142Y-104623000D01*
X163685277Y-104390985D01*
X164092000Y-103984262D01*
X164498723Y-104390985D01*
X165058858Y-104623000D01*
X165665142Y-104623000D01*
X166225277Y-104390985D01*
X166632000Y-103984262D01*
X167038723Y-104390985D01*
X167598858Y-104623000D01*
X168205142Y-104623000D01*
X168765277Y-104390985D01*
X169193985Y-103962277D01*
X169426000Y-103402142D01*
X169426000Y-102795858D01*
X169280215Y-102443900D01*
X171314763Y-102443900D01*
X171397000Y-102460258D01*
X171479237Y-102443900D01*
X171722801Y-102395452D01*
X171999001Y-102210901D01*
X172183552Y-101934701D01*
X172219090Y-101756040D01*
X172741524Y-101756040D01*
X172741524Y-102733486D01*
G36*
X135130200Y-110895102D02*
X135130201Y-112914548D01*
X135115312Y-112989400D01*
X135174297Y-113285937D01*
X135298995Y-113472560D01*
X135342272Y-113537329D01*
X135405728Y-113579729D01*
X135635524Y-113809525D01*
X135617343Y-113836735D01*
X135568060Y-114084500D01*
X135568060Y-114973500D01*
X135617343Y-115221265D01*
X135757691Y-115431309D01*
X135967735Y-115571657D01*
X136215500Y-115620940D01*
X137104500Y-115620940D01*
X137352265Y-115571657D01*
X137422000Y-115525061D01*
X137491735Y-115571657D01*
X137739500Y-115620940D01*
X138628500Y-115620940D01*
X138876265Y-115571657D01*
X139086309Y-115431309D01*
X139181398Y-115289000D01*
X139371353Y-115289000D01*
X139446200Y-115303888D01*
X139517500Y-115289706D01*
X139517500Y-115386250D01*
X139676250Y-115545000D01*
X140470000Y-115545000D01*
X140470000Y-115525000D01*
X140724000Y-115525000D01*
X140724000Y-115545000D01*
X140744000Y-115545000D01*
X140744000Y-115799000D01*
X140724000Y-115799000D01*
X140724000Y-115819000D01*
X140470000Y-115819000D01*
X140470000Y-115799000D01*
X139676250Y-115799000D01*
X139517500Y-115957750D01*
X139517500Y-116242809D01*
X139563093Y-116352881D01*
X139507425Y-116436195D01*
X139333235Y-116470843D01*
X139123191Y-116611191D01*
X138982843Y-116821235D01*
X138946000Y-117006459D01*
X138946000Y-116942690D01*
X138849327Y-116709301D01*
X138670698Y-116530673D01*
X138437309Y-116434000D01*
X137961750Y-116434000D01*
X137803000Y-116592750D01*
X137803000Y-117577000D01*
X137823000Y-117577000D01*
X137823000Y-117831000D01*
X137803000Y-117831000D01*
X137803000Y-118561250D01*
X137676000Y-118688250D01*
X137676000Y-119482000D01*
X137696000Y-119482000D01*
X137696000Y-119736000D01*
X137676000Y-119736000D01*
X137676000Y-120529750D01*
X137834750Y-120688500D01*
X138119809Y-120688500D01*
X138314922Y-120607682D01*
X138380735Y-120651657D01*
X138628500Y-120700940D01*
X139517500Y-120700940D01*
X139765265Y-120651657D01*
X139975309Y-120511309D01*
X140115657Y-120301265D01*
X140164940Y-120053500D01*
X140164940Y-119164500D01*
X140129522Y-118986440D01*
X140851000Y-118986440D01*
X141098765Y-118937157D01*
X141308809Y-118796809D01*
X141449157Y-118586765D01*
X141498440Y-118339000D01*
X141498440Y-118276191D01*
X141930500Y-118276191D01*
X141930500Y-118561250D01*
X142089250Y-118720000D01*
X142883000Y-118720000D01*
X142883000Y-117926250D01*
X142724250Y-117767500D01*
X142439190Y-117767500D01*
X142205801Y-117864173D01*
X142027173Y-118042802D01*
X141930500Y-118276191D01*
X141498440Y-118276191D01*
X141498440Y-117353562D01*
X141591129Y-117291629D01*
X141633531Y-117228170D01*
X142996973Y-115864729D01*
X143060429Y-115822329D01*
X143106753Y-115753000D01*
X143640250Y-115753000D01*
X143799000Y-115594250D01*
X143799000Y-115115440D01*
X144053000Y-115115440D01*
X144053000Y-115594250D01*
X144211750Y-115753000D01*
X144750810Y-115753000D01*
X144984199Y-115656327D01*
X145162827Y-115477698D01*
X145259500Y-115244309D01*
X145259500Y-115189750D01*
X145100750Y-115031000D01*
X144924881Y-115031000D01*
X145082309Y-114925809D01*
X145183736Y-114774014D01*
X145259500Y-114698250D01*
X145259500Y-114679000D01*
X145298001Y-114679000D01*
X145298001Y-116780523D01*
X145104809Y-116700500D01*
X144819750Y-116700500D01*
X144661000Y-116859250D01*
X144661000Y-117653000D01*
X144681000Y-117653000D01*
X144681000Y-117907000D01*
X144661000Y-117907000D01*
X144661000Y-118700750D01*
X144819750Y-118859500D01*
X145104809Y-118859500D01*
X145298001Y-118779477D01*
X145298000Y-119373602D01*
X145296000Y-119374939D01*
X145226265Y-119328343D01*
X144978500Y-119279060D01*
X144089500Y-119279060D01*
X144089500Y-119132750D01*
X143930752Y-118974002D01*
X144089500Y-118974002D01*
X144089500Y-118859500D01*
X144248250Y-118859500D01*
X144407000Y-118700750D01*
X144407000Y-117907000D01*
X144387000Y-117907000D01*
X144387000Y-117653000D01*
X144407000Y-117653000D01*
X144407000Y-116859250D01*
X144248250Y-116700500D01*
X143963191Y-116700500D01*
X143729802Y-116797173D01*
X143551173Y-116975801D01*
X143454500Y-117209190D01*
X143454500Y-117494250D01*
X143613248Y-117652998D01*
X143454500Y-117652998D01*
X143454500Y-117767500D01*
X143295750Y-117767500D01*
X143137000Y-117926250D01*
X143137000Y-118720000D01*
X143157000Y-118720000D01*
X143157000Y-118974000D01*
X143137000Y-118974000D01*
X143137000Y-118994000D01*
X142883000Y-118994000D01*
X142883000Y-118974000D01*
X142089250Y-118974000D01*
X141930500Y-119132750D01*
X141930500Y-119417809D01*
X142011318Y-119612922D01*
X141967343Y-119678735D01*
X141918060Y-119926500D01*
X141918060Y-120815500D01*
X141967343Y-121063265D01*
X142107691Y-121273309D01*
X142285040Y-121391811D01*
X142294096Y-121437337D01*
X142403700Y-121601371D01*
X142403700Y-121644574D01*
X142507430Y-121895000D01*
X142198858Y-121895000D01*
X141638723Y-122127015D01*
X141232000Y-122533738D01*
X140825277Y-122127015D01*
X140265142Y-121895000D01*
X139658858Y-121895000D01*
X139098723Y-122127015D01*
X138670015Y-122555723D01*
X138659367Y-122581430D01*
X138494196Y-122526409D01*
X137601605Y-123419000D01*
X137615748Y-123433143D01*
X137436143Y-123612748D01*
X137422000Y-123598605D01*
X137407858Y-123612748D01*
X137228253Y-123433143D01*
X137242395Y-123419000D01*
X136349804Y-122526409D01*
X136184633Y-122581430D01*
X136173985Y-122555723D01*
X135965066Y-122346804D01*
X136529409Y-122346804D01*
X137422000Y-123239395D01*
X138314591Y-122346804D01*
X138229533Y-122091461D01*
X137660035Y-121883484D01*
X137054300Y-121909277D01*
X136614467Y-122091461D01*
X136529409Y-122346804D01*
X135965066Y-122346804D01*
X135745277Y-122127015D01*
X135185142Y-121895000D01*
X134578858Y-121895000D01*
X134018723Y-122127015D01*
X133612000Y-122533738D01*
X133205277Y-122127015D01*
X132645142Y-121895000D01*
X132038858Y-121895000D01*
X132010581Y-121906713D01*
X129998618Y-119894750D01*
X136469500Y-119894750D01*
X136469500Y-120179810D01*
X136566173Y-120413199D01*
X136744802Y-120591827D01*
X136978191Y-120688500D01*
X137263250Y-120688500D01*
X137422000Y-120529750D01*
X137422000Y-119736000D01*
X136628250Y-119736000D01*
X136469500Y-119894750D01*
X129998618Y-119894750D01*
X128773100Y-118669233D01*
X128773100Y-117989750D01*
X136406000Y-117989750D01*
X136406000Y-118465310D01*
X136502673Y-118698699D01*
X136587474Y-118783500D01*
X136566173Y-118804801D01*
X136469500Y-119038190D01*
X136469500Y-119323250D01*
X136628250Y-119482000D01*
X137422000Y-119482000D01*
X137422000Y-118942250D01*
X137549000Y-118815250D01*
X137549000Y-117831000D01*
X136564750Y-117831000D01*
X136406000Y-117989750D01*
X128773100Y-117989750D01*
X128773100Y-117294000D01*
X129052674Y-117294000D01*
X129433080Y-117136431D01*
X129550511Y-117019000D01*
X131113677Y-117019000D01*
X131249191Y-117221809D01*
X131459235Y-117362157D01*
X131707000Y-117411440D01*
X134447000Y-117411440D01*
X134694765Y-117362157D01*
X134904809Y-117221809D01*
X135045157Y-117011765D01*
X135058896Y-116942690D01*
X136406000Y-116942690D01*
X136406000Y-117418250D01*
X136564750Y-117577000D01*
X137549000Y-117577000D01*
X137549000Y-116592750D01*
X137390250Y-116434000D01*
X136914691Y-116434000D01*
X136681302Y-116530673D01*
X136502673Y-116709301D01*
X136406000Y-116942690D01*
X135058896Y-116942690D01*
X135094440Y-116764000D01*
X135094440Y-115754000D01*
X135045157Y-115506235D01*
X134904809Y-115296191D01*
X134849149Y-115259000D01*
X134904809Y-115221809D01*
X135045157Y-115011765D01*
X135094440Y-114764000D01*
X135094440Y-113754000D01*
X135045157Y-113506235D01*
X134904809Y-113296191D01*
X134849149Y-113259000D01*
X134904809Y-113221809D01*
X135045157Y-113011765D01*
X135094440Y-112764000D01*
X135094440Y-111754000D01*
X135045157Y-111506235D01*
X134904809Y-111296191D01*
X134849674Y-111259351D01*
X134985327Y-111123699D01*
X135082000Y-110890310D01*
X135082000Y-110846902D01*
X135130200Y-110895102D01*
X135130200Y-110895102D01*
G37*
X135130200Y-110895102D02*
X135130201Y-112914548D01*
X135115312Y-112989400D01*
X135174297Y-113285937D01*
X135298995Y-113472560D01*
X135342272Y-113537329D01*
X135405728Y-113579729D01*
X135635524Y-113809525D01*
X135617343Y-113836735D01*
X135568060Y-114084500D01*
X135568060Y-114973500D01*
X135617343Y-115221265D01*
X135757691Y-115431309D01*
X135967735Y-115571657D01*
X136215500Y-115620940D01*
X137104500Y-115620940D01*
X137352265Y-115571657D01*
X137422000Y-115525061D01*
X137491735Y-115571657D01*
X137739500Y-115620940D01*
X138628500Y-115620940D01*
X138876265Y-115571657D01*
X139086309Y-115431309D01*
X139181398Y-115289000D01*
X139371353Y-115289000D01*
X139446200Y-115303888D01*
X139517500Y-115289706D01*
X139517500Y-115386250D01*
X139676250Y-115545000D01*
X140470000Y-115545000D01*
X140470000Y-115525000D01*
X140724000Y-115525000D01*
X140724000Y-115545000D01*
X140744000Y-115545000D01*
X140744000Y-115799000D01*
X140724000Y-115799000D01*
X140724000Y-115819000D01*
X140470000Y-115819000D01*
X140470000Y-115799000D01*
X139676250Y-115799000D01*
X139517500Y-115957750D01*
X139517500Y-116242809D01*
X139563093Y-116352881D01*
X139507425Y-116436195D01*
X139333235Y-116470843D01*
X139123191Y-116611191D01*
X138982843Y-116821235D01*
X138946000Y-117006459D01*
X138946000Y-116942690D01*
X138849327Y-116709301D01*
X138670698Y-116530673D01*
X138437309Y-116434000D01*
X137961750Y-116434000D01*
X137803000Y-116592750D01*
X137803000Y-117577000D01*
X137823000Y-117577000D01*
X137823000Y-117831000D01*
X137803000Y-117831000D01*
X137803000Y-118561250D01*
X137676000Y-118688250D01*
X137676000Y-119482000D01*
X137696000Y-119482000D01*
X137696000Y-119736000D01*
X137676000Y-119736000D01*
X137676000Y-120529750D01*
X137834750Y-120688500D01*
X138119809Y-120688500D01*
X138314922Y-120607682D01*
X138380735Y-120651657D01*
X138628500Y-120700940D01*
X139517500Y-120700940D01*
X139765265Y-120651657D01*
X139975309Y-120511309D01*
X140115657Y-120301265D01*
X140164940Y-120053500D01*
X140164940Y-119164500D01*
X140129522Y-118986440D01*
X140851000Y-118986440D01*
X141098765Y-118937157D01*
X141308809Y-118796809D01*
X141449157Y-118586765D01*
X141498440Y-118339000D01*
X141498440Y-118276191D01*
X141930500Y-118276191D01*
X141930500Y-118561250D01*
X142089250Y-118720000D01*
X142883000Y-118720000D01*
X142883000Y-117926250D01*
X142724250Y-117767500D01*
X142439190Y-117767500D01*
X142205801Y-117864173D01*
X142027173Y-118042802D01*
X141930500Y-118276191D01*
X141498440Y-118276191D01*
X141498440Y-117353562D01*
X141591129Y-117291629D01*
X141633531Y-117228170D01*
X142996973Y-115864729D01*
X143060429Y-115822329D01*
X143106753Y-115753000D01*
X143640250Y-115753000D01*
X143799000Y-115594250D01*
X143799000Y-115115440D01*
X144053000Y-115115440D01*
X144053000Y-115594250D01*
X144211750Y-115753000D01*
X144750810Y-115753000D01*
X144984199Y-115656327D01*
X145162827Y-115477698D01*
X145259500Y-115244309D01*
X145259500Y-115189750D01*
X145100750Y-115031000D01*
X144924881Y-115031000D01*
X145082309Y-114925809D01*
X145183736Y-114774014D01*
X145259500Y-114698250D01*
X145259500Y-114679000D01*
X145298001Y-114679000D01*
X145298001Y-116780523D01*
X145104809Y-116700500D01*
X144819750Y-116700500D01*
X144661000Y-116859250D01*
X144661000Y-117653000D01*
X144681000Y-117653000D01*
X144681000Y-117907000D01*
X144661000Y-117907000D01*
X144661000Y-118700750D01*
X144819750Y-118859500D01*
X145104809Y-118859500D01*
X145298001Y-118779477D01*
X145298000Y-119373602D01*
X145296000Y-119374939D01*
X145226265Y-119328343D01*
X144978500Y-119279060D01*
X144089500Y-119279060D01*
X144089500Y-119132750D01*
X143930752Y-118974002D01*
X144089500Y-118974002D01*
X144089500Y-118859500D01*
X144248250Y-118859500D01*
X144407000Y-118700750D01*
X144407000Y-117907000D01*
X144387000Y-117907000D01*
X144387000Y-117653000D01*
X144407000Y-117653000D01*
X144407000Y-116859250D01*
X144248250Y-116700500D01*
X143963191Y-116700500D01*
X143729802Y-116797173D01*
X143551173Y-116975801D01*
X143454500Y-117209190D01*
X143454500Y-117494250D01*
X143613248Y-117652998D01*
X143454500Y-117652998D01*
X143454500Y-117767500D01*
X143295750Y-117767500D01*
X143137000Y-117926250D01*
X143137000Y-118720000D01*
X143157000Y-118720000D01*
X143157000Y-118974000D01*
X143137000Y-118974000D01*
X143137000Y-118994000D01*
X142883000Y-118994000D01*
X142883000Y-118974000D01*
X142089250Y-118974000D01*
X141930500Y-119132750D01*
X141930500Y-119417809D01*
X142011318Y-119612922D01*
X141967343Y-119678735D01*
X141918060Y-119926500D01*
X141918060Y-120815500D01*
X141967343Y-121063265D01*
X142107691Y-121273309D01*
X142285040Y-121391811D01*
X142294096Y-121437337D01*
X142403700Y-121601371D01*
X142403700Y-121644574D01*
X142507430Y-121895000D01*
X142198858Y-121895000D01*
X141638723Y-122127015D01*
X141232000Y-122533738D01*
X140825277Y-122127015D01*
X140265142Y-121895000D01*
X139658858Y-121895000D01*
X139098723Y-122127015D01*
X138670015Y-122555723D01*
X138659367Y-122581430D01*
X138494196Y-122526409D01*
X137601605Y-123419000D01*
X137615748Y-123433143D01*
X137436143Y-123612748D01*
X137422000Y-123598605D01*
X137407858Y-123612748D01*
X137228253Y-123433143D01*
X137242395Y-123419000D01*
X136349804Y-122526409D01*
X136184633Y-122581430D01*
X136173985Y-122555723D01*
X135965066Y-122346804D01*
X136529409Y-122346804D01*
X137422000Y-123239395D01*
X138314591Y-122346804D01*
X138229533Y-122091461D01*
X137660035Y-121883484D01*
X137054300Y-121909277D01*
X136614467Y-122091461D01*
X136529409Y-122346804D01*
X135965066Y-122346804D01*
X135745277Y-122127015D01*
X135185142Y-121895000D01*
X134578858Y-121895000D01*
X134018723Y-122127015D01*
X133612000Y-122533738D01*
X133205277Y-122127015D01*
X132645142Y-121895000D01*
X132038858Y-121895000D01*
X132010581Y-121906713D01*
X129998618Y-119894750D01*
X136469500Y-119894750D01*
X136469500Y-120179810D01*
X136566173Y-120413199D01*
X136744802Y-120591827D01*
X136978191Y-120688500D01*
X137263250Y-120688500D01*
X137422000Y-120529750D01*
X137422000Y-119736000D01*
X136628250Y-119736000D01*
X136469500Y-119894750D01*
X129998618Y-119894750D01*
X128773100Y-118669233D01*
X128773100Y-117989750D01*
X136406000Y-117989750D01*
X136406000Y-118465310D01*
X136502673Y-118698699D01*
X136587474Y-118783500D01*
X136566173Y-118804801D01*
X136469500Y-119038190D01*
X136469500Y-119323250D01*
X136628250Y-119482000D01*
X137422000Y-119482000D01*
X137422000Y-118942250D01*
X137549000Y-118815250D01*
X137549000Y-117831000D01*
X136564750Y-117831000D01*
X136406000Y-117989750D01*
X128773100Y-117989750D01*
X128773100Y-117294000D01*
X129052674Y-117294000D01*
X129433080Y-117136431D01*
X129550511Y-117019000D01*
X131113677Y-117019000D01*
X131249191Y-117221809D01*
X131459235Y-117362157D01*
X131707000Y-117411440D01*
X134447000Y-117411440D01*
X134694765Y-117362157D01*
X134904809Y-117221809D01*
X135045157Y-117011765D01*
X135058896Y-116942690D01*
X136406000Y-116942690D01*
X136406000Y-117418250D01*
X136564750Y-117577000D01*
X137549000Y-117577000D01*
X137549000Y-116592750D01*
X137390250Y-116434000D01*
X136914691Y-116434000D01*
X136681302Y-116530673D01*
X136502673Y-116709301D01*
X136406000Y-116942690D01*
X135058896Y-116942690D01*
X135094440Y-116764000D01*
X135094440Y-115754000D01*
X135045157Y-115506235D01*
X134904809Y-115296191D01*
X134849149Y-115259000D01*
X134904809Y-115221809D01*
X135045157Y-115011765D01*
X135094440Y-114764000D01*
X135094440Y-113754000D01*
X135045157Y-113506235D01*
X134904809Y-113296191D01*
X134849149Y-113259000D01*
X134904809Y-113221809D01*
X135045157Y-113011765D01*
X135094440Y-112764000D01*
X135094440Y-111754000D01*
X135045157Y-111506235D01*
X134904809Y-111296191D01*
X134849674Y-111259351D01*
X134985327Y-111123699D01*
X135082000Y-110890310D01*
X135082000Y-110846902D01*
X135130200Y-110895102D01*
G36*
X153099300Y-121682353D02*
X153084412Y-121757200D01*
X153099300Y-121832047D01*
X153099300Y-121832051D01*
X153124992Y-121961212D01*
X152965142Y-121895000D01*
X152358858Y-121895000D01*
X151798723Y-122127015D01*
X151392000Y-122533738D01*
X150985277Y-122127015D01*
X150837200Y-122065680D01*
X150837200Y-121665026D01*
X150747477Y-121448415D01*
X150820500Y-121462940D01*
X151709500Y-121462940D01*
X151957265Y-121413657D01*
X152167309Y-121273309D01*
X152307657Y-121063265D01*
X152356940Y-120815500D01*
X152356940Y-119926500D01*
X152307657Y-119678735D01*
X152263682Y-119612922D01*
X152344500Y-119417809D01*
X152344500Y-119132750D01*
X152185750Y-118974000D01*
X151392000Y-118974000D01*
X151392000Y-118994000D01*
X151138000Y-118994000D01*
X151138000Y-118974000D01*
X151118000Y-118974000D01*
X151118000Y-118720000D01*
X151138000Y-118720000D01*
X151138000Y-118700000D01*
X151392000Y-118700000D01*
X151392000Y-118720000D01*
X151967368Y-118720000D01*
X151984026Y-118726900D01*
X152395774Y-118726900D01*
X152776180Y-118569331D01*
X153067331Y-118278180D01*
X153099301Y-118200999D01*
X153099300Y-121682353D01*
X153099300Y-121682353D01*
G37*
X153099300Y-121682353D02*
X153084412Y-121757200D01*
X153099300Y-121832047D01*
X153099300Y-121832051D01*
X153124992Y-121961212D01*
X152965142Y-121895000D01*
X152358858Y-121895000D01*
X151798723Y-122127015D01*
X151392000Y-122533738D01*
X150985277Y-122127015D01*
X150837200Y-122065680D01*
X150837200Y-121665026D01*
X150747477Y-121448415D01*
X150820500Y-121462940D01*
X151709500Y-121462940D01*
X151957265Y-121413657D01*
X152167309Y-121273309D01*
X152307657Y-121063265D01*
X152356940Y-120815500D01*
X152356940Y-119926500D01*
X152307657Y-119678735D01*
X152263682Y-119612922D01*
X152344500Y-119417809D01*
X152344500Y-119132750D01*
X152185750Y-118974000D01*
X151392000Y-118974000D01*
X151392000Y-118994000D01*
X151138000Y-118994000D01*
X151138000Y-118974000D01*
X151118000Y-118974000D01*
X151118000Y-118720000D01*
X151138000Y-118720000D01*
X151138000Y-118700000D01*
X151392000Y-118700000D01*
X151392000Y-118720000D01*
X151967368Y-118720000D01*
X151984026Y-118726900D01*
X152395774Y-118726900D01*
X152776180Y-118569331D01*
X153067331Y-118278180D01*
X153099301Y-118200999D01*
X153099300Y-121682353D01*
G36*
X149842000Y-117653000D02*
X149862000Y-117653000D01*
X149862000Y-117907000D01*
X149842000Y-117907000D01*
X149842000Y-118700750D01*
X150000750Y-118859500D01*
X150185500Y-118859500D01*
X150185500Y-118974002D01*
X150344248Y-118974002D01*
X150185500Y-119132750D01*
X150185500Y-119284232D01*
X150159500Y-119279060D01*
X149270500Y-119279060D01*
X149022735Y-119328343D01*
X148953000Y-119374939D01*
X148951000Y-119373602D01*
X148951000Y-118779478D01*
X149144191Y-118859500D01*
X149429250Y-118859500D01*
X149588000Y-118700750D01*
X149588000Y-117907000D01*
X149568000Y-117907000D01*
X149568000Y-117653000D01*
X149588000Y-117653000D01*
X149588000Y-117633000D01*
X149842000Y-117633000D01*
X149842000Y-117653000D01*
X149842000Y-117653000D01*
G37*
X149842000Y-117653000D02*
X149862000Y-117653000D01*
X149862000Y-117907000D01*
X149842000Y-117907000D01*
X149842000Y-118700750D01*
X150000750Y-118859500D01*
X150185500Y-118859500D01*
X150185500Y-118974002D01*
X150344248Y-118974002D01*
X150185500Y-119132750D01*
X150185500Y-119284232D01*
X150159500Y-119279060D01*
X149270500Y-119279060D01*
X149022735Y-119328343D01*
X148953000Y-119374939D01*
X148951000Y-119373602D01*
X148951000Y-118779478D01*
X149144191Y-118859500D01*
X149429250Y-118859500D01*
X149588000Y-118700750D01*
X149588000Y-117907000D01*
X149568000Y-117907000D01*
X149568000Y-117653000D01*
X149588000Y-117653000D01*
X149588000Y-117633000D01*
X149842000Y-117633000D01*
X149842000Y-117653000D01*
G36*
X133358424Y-109123326D02*
X133204000Y-109277750D01*
X133204000Y-110132000D01*
X133224000Y-110132000D01*
X133224000Y-110386000D01*
X133204000Y-110386000D01*
X133204000Y-110406000D01*
X132950000Y-110406000D01*
X132950000Y-110386000D01*
X131230750Y-110386000D01*
X131072000Y-110544750D01*
X131072000Y-110890310D01*
X131168673Y-111123699D01*
X131304326Y-111259351D01*
X131249191Y-111296191D01*
X131169819Y-111414979D01*
X131124466Y-111424000D01*
X131124463Y-111424000D01*
X130914497Y-111465765D01*
X130880899Y-111472448D01*
X130679528Y-111607000D01*
X130604699Y-111656999D01*
X130558117Y-111726714D01*
X127405818Y-114879015D01*
X127336100Y-114925599D01*
X127289516Y-114995317D01*
X127151548Y-115201800D01*
X127086743Y-115527600D01*
X127103101Y-115609838D01*
X127103100Y-117274000D01*
X125862750Y-117274000D01*
X125704000Y-117432750D01*
X125704000Y-118532000D01*
X125724000Y-118532000D01*
X125724000Y-118786000D01*
X125704000Y-118786000D01*
X125704000Y-118806000D01*
X125450000Y-118806000D01*
X125450000Y-118786000D01*
X125430000Y-118786000D01*
X125430000Y-118532000D01*
X125450000Y-118532000D01*
X125450000Y-117432750D01*
X125291250Y-117274000D01*
X124261524Y-117274000D01*
X124261524Y-109627690D01*
X131072000Y-109627690D01*
X131072000Y-109973250D01*
X131230750Y-110132000D01*
X132950000Y-110132000D01*
X132950000Y-109277750D01*
X132791250Y-109119000D01*
X131580691Y-109119000D01*
X131347302Y-109215673D01*
X131168673Y-109394301D01*
X131072000Y-109627690D01*
X124261524Y-109627690D01*
X124261524Y-109244000D01*
X125291250Y-109244000D01*
X125450000Y-109085250D01*
X125450000Y-107986000D01*
X125704000Y-107986000D01*
X125704000Y-109085250D01*
X125862750Y-109244000D01*
X127203309Y-109244000D01*
X127436698Y-109147327D01*
X127615327Y-108968699D01*
X127712000Y-108735310D01*
X127712000Y-108144750D01*
X127553250Y-107986000D01*
X125704000Y-107986000D01*
X125450000Y-107986000D01*
X125430000Y-107986000D01*
X125430000Y-107732000D01*
X125450000Y-107732000D01*
X125450000Y-107712000D01*
X125704000Y-107712000D01*
X125704000Y-107732000D01*
X127553250Y-107732000D01*
X127712000Y-107573250D01*
X127712000Y-106982690D01*
X127615327Y-106749301D01*
X127436698Y-106570673D01*
X127375365Y-106545268D01*
X127430795Y-106522308D01*
X128145308Y-105807795D01*
X128532000Y-104874238D01*
X128532000Y-104296901D01*
X133358424Y-109123326D01*
X133358424Y-109123326D01*
G37*
X133358424Y-109123326D02*
X133204000Y-109277750D01*
X133204000Y-110132000D01*
X133224000Y-110132000D01*
X133224000Y-110386000D01*
X133204000Y-110386000D01*
X133204000Y-110406000D01*
X132950000Y-110406000D01*
X132950000Y-110386000D01*
X131230750Y-110386000D01*
X131072000Y-110544750D01*
X131072000Y-110890310D01*
X131168673Y-111123699D01*
X131304326Y-111259351D01*
X131249191Y-111296191D01*
X131169819Y-111414979D01*
X131124466Y-111424000D01*
X131124463Y-111424000D01*
X130914497Y-111465765D01*
X130880899Y-111472448D01*
X130679528Y-111607000D01*
X130604699Y-111656999D01*
X130558117Y-111726714D01*
X127405818Y-114879015D01*
X127336100Y-114925599D01*
X127289516Y-114995317D01*
X127151548Y-115201800D01*
X127086743Y-115527600D01*
X127103101Y-115609838D01*
X127103100Y-117274000D01*
X125862750Y-117274000D01*
X125704000Y-117432750D01*
X125704000Y-118532000D01*
X125724000Y-118532000D01*
X125724000Y-118786000D01*
X125704000Y-118786000D01*
X125704000Y-118806000D01*
X125450000Y-118806000D01*
X125450000Y-118786000D01*
X125430000Y-118786000D01*
X125430000Y-118532000D01*
X125450000Y-118532000D01*
X125450000Y-117432750D01*
X125291250Y-117274000D01*
X124261524Y-117274000D01*
X124261524Y-109627690D01*
X131072000Y-109627690D01*
X131072000Y-109973250D01*
X131230750Y-110132000D01*
X132950000Y-110132000D01*
X132950000Y-109277750D01*
X132791250Y-109119000D01*
X131580691Y-109119000D01*
X131347302Y-109215673D01*
X131168673Y-109394301D01*
X131072000Y-109627690D01*
X124261524Y-109627690D01*
X124261524Y-109244000D01*
X125291250Y-109244000D01*
X125450000Y-109085250D01*
X125450000Y-107986000D01*
X125704000Y-107986000D01*
X125704000Y-109085250D01*
X125862750Y-109244000D01*
X127203309Y-109244000D01*
X127436698Y-109147327D01*
X127615327Y-108968699D01*
X127712000Y-108735310D01*
X127712000Y-108144750D01*
X127553250Y-107986000D01*
X125704000Y-107986000D01*
X125450000Y-107986000D01*
X125430000Y-107986000D01*
X125430000Y-107732000D01*
X125450000Y-107732000D01*
X125450000Y-107712000D01*
X125704000Y-107712000D01*
X125704000Y-107732000D01*
X127553250Y-107732000D01*
X127712000Y-107573250D01*
X127712000Y-106982690D01*
X127615327Y-106749301D01*
X127436698Y-106570673D01*
X127375365Y-106545268D01*
X127430795Y-106522308D01*
X128145308Y-105807795D01*
X128532000Y-104874238D01*
X128532000Y-104296901D01*
X133358424Y-109123326D01*
G36*
X151154900Y-117731701D02*
X151154900Y-117767500D01*
X151137998Y-117767500D01*
X151137998Y-117926248D01*
X150979250Y-117767500D01*
X150794500Y-117767500D01*
X150794500Y-117652998D01*
X150635752Y-117652998D01*
X150652850Y-117635900D01*
X151059099Y-117635900D01*
X151154900Y-117731701D01*
X151154900Y-117731701D01*
G37*
X151154900Y-117731701D02*
X151154900Y-117767500D01*
X151137998Y-117767500D01*
X151137998Y-117926248D01*
X150979250Y-117767500D01*
X150794500Y-117767500D01*
X150794500Y-117652998D01*
X150635752Y-117652998D01*
X150652850Y-117635900D01*
X151059099Y-117635900D01*
X151154900Y-117731701D01*
G36*
X157524873Y-112346476D02*
X157567271Y-112409929D01*
X157630724Y-112452327D01*
X157630726Y-112452329D01*
X157684537Y-112488284D01*
X157818663Y-112577904D01*
X157864189Y-112586960D01*
X157886318Y-112620078D01*
X157805500Y-112815191D01*
X157805500Y-113100250D01*
X157964250Y-113259000D01*
X158758000Y-113259000D01*
X158758000Y-113239000D01*
X159012000Y-113239000D01*
X159012000Y-113259000D01*
X159032000Y-113259000D01*
X159032000Y-113513000D01*
X159012000Y-113513000D01*
X159012000Y-114910000D01*
X159032000Y-114910000D01*
X159032000Y-115164000D01*
X159012000Y-115164000D01*
X159012000Y-115184000D01*
X158758000Y-115184000D01*
X158758000Y-115164000D01*
X157964250Y-115164000D01*
X157833326Y-115294924D01*
X157162400Y-114623999D01*
X157162400Y-114441948D01*
X157177288Y-114367100D01*
X157162400Y-114292252D01*
X157162400Y-114292248D01*
X157122755Y-114092938D01*
X157118304Y-114070562D01*
X156992729Y-113882627D01*
X156950329Y-113819171D01*
X156886873Y-113776771D01*
X156781852Y-113671750D01*
X157805500Y-113671750D01*
X157805500Y-113956809D01*
X157902173Y-114190198D01*
X157923475Y-114211500D01*
X157902173Y-114232802D01*
X157805500Y-114466191D01*
X157805500Y-114751250D01*
X157964250Y-114910000D01*
X158758000Y-114910000D01*
X158758000Y-113513000D01*
X157964250Y-113513000D01*
X157805500Y-113671750D01*
X156781852Y-113671750D01*
X155746541Y-112636440D01*
X156167200Y-112636440D01*
X156414965Y-112587157D01*
X156625009Y-112446809D01*
X156765357Y-112236765D01*
X156814640Y-111989000D01*
X156814640Y-111636242D01*
X157524873Y-112346476D01*
X157524873Y-112346476D01*
G37*
X157524873Y-112346476D02*
X157567271Y-112409929D01*
X157630724Y-112452327D01*
X157630726Y-112452329D01*
X157684537Y-112488284D01*
X157818663Y-112577904D01*
X157864189Y-112586960D01*
X157886318Y-112620078D01*
X157805500Y-112815191D01*
X157805500Y-113100250D01*
X157964250Y-113259000D01*
X158758000Y-113259000D01*
X158758000Y-113239000D01*
X159012000Y-113239000D01*
X159012000Y-113259000D01*
X159032000Y-113259000D01*
X159032000Y-113513000D01*
X159012000Y-113513000D01*
X159012000Y-114910000D01*
X159032000Y-114910000D01*
X159032000Y-115164000D01*
X159012000Y-115164000D01*
X159012000Y-115184000D01*
X158758000Y-115184000D01*
X158758000Y-115164000D01*
X157964250Y-115164000D01*
X157833326Y-115294924D01*
X157162400Y-114623999D01*
X157162400Y-114441948D01*
X157177288Y-114367100D01*
X157162400Y-114292252D01*
X157162400Y-114292248D01*
X157122755Y-114092938D01*
X157118304Y-114070562D01*
X156992729Y-113882627D01*
X156950329Y-113819171D01*
X156886873Y-113776771D01*
X156781852Y-113671750D01*
X157805500Y-113671750D01*
X157805500Y-113956809D01*
X157902173Y-114190198D01*
X157923475Y-114211500D01*
X157902173Y-114232802D01*
X157805500Y-114466191D01*
X157805500Y-114751250D01*
X157964250Y-114910000D01*
X158758000Y-114910000D01*
X158758000Y-113513000D01*
X157964250Y-113513000D01*
X157805500Y-113671750D01*
X156781852Y-113671750D01*
X155746541Y-112636440D01*
X156167200Y-112636440D01*
X156414965Y-112587157D01*
X156625009Y-112446809D01*
X156765357Y-112236765D01*
X156814640Y-111989000D01*
X156814640Y-111636242D01*
X157524873Y-112346476D01*
G36*
X135865000Y-99511764D02*
X135694344Y-99477819D01*
X135670657Y-99358735D01*
X135530309Y-99148691D01*
X135320265Y-99008343D01*
X135072500Y-98959060D01*
X133675500Y-98959060D01*
X133427735Y-99008343D01*
X133217691Y-99148691D01*
X133077343Y-99358735D01*
X133028060Y-99606500D01*
X133028060Y-101003500D01*
X133077343Y-101251265D01*
X133217691Y-101461309D01*
X133427735Y-101601657D01*
X133675500Y-101650940D01*
X135072500Y-101650940D01*
X135320265Y-101601657D01*
X135530309Y-101461309D01*
X135537492Y-101450559D01*
X135696914Y-101609982D01*
X135743499Y-101679701D01*
X135932817Y-101806199D01*
X136019699Y-101864252D01*
X136345500Y-101929058D01*
X136427737Y-101912700D01*
X138993038Y-101912700D01*
X138670015Y-102235723D01*
X138438000Y-102795858D01*
X138438000Y-103402142D01*
X138557897Y-103691600D01*
X138343886Y-103691600D01*
X138306516Y-103654229D01*
X138264114Y-103590771D01*
X138012722Y-103422796D01*
X137869897Y-103394386D01*
X137736780Y-103261269D01*
X137356374Y-103103700D01*
X136944626Y-103103700D01*
X136564220Y-103261269D01*
X136273069Y-103552420D01*
X136115500Y-103932826D01*
X136115500Y-104344574D01*
X136273069Y-104724980D01*
X136564220Y-105016131D01*
X136787000Y-105108409D01*
X136787000Y-105226250D01*
X136945750Y-105385000D01*
X137930000Y-105385000D01*
X137930000Y-105365000D01*
X138184000Y-105365000D01*
X138184000Y-105385000D01*
X138204000Y-105385000D01*
X138204000Y-105639000D01*
X138184000Y-105639000D01*
X138184000Y-106623250D01*
X138342750Y-106782000D01*
X138401088Y-106782000D01*
X138374500Y-106846190D01*
X138374500Y-107131250D01*
X138533250Y-107290000D01*
X139327000Y-107290000D01*
X139327000Y-107270000D01*
X139581000Y-107270000D01*
X139581000Y-107290000D01*
X139601000Y-107290000D01*
X139601000Y-107544000D01*
X139581000Y-107544000D01*
X139581000Y-109068000D01*
X139601000Y-109068000D01*
X139601000Y-109322000D01*
X139581000Y-109322000D01*
X139581000Y-110115750D01*
X139582798Y-110117548D01*
X139517500Y-110275191D01*
X139517500Y-110560250D01*
X139676250Y-110719000D01*
X140470000Y-110719000D01*
X140470000Y-110699000D01*
X140724000Y-110699000D01*
X140724000Y-110719000D01*
X141517750Y-110719000D01*
X141676500Y-110560250D01*
X141676500Y-110275191D01*
X141661662Y-110239368D01*
X141670265Y-110237657D01*
X141880309Y-110097309D01*
X142020657Y-109887265D01*
X142069940Y-109639500D01*
X142069940Y-109235517D01*
X142247999Y-109502001D01*
X142317720Y-109548587D01*
X142371412Y-109602279D01*
X142417998Y-109672000D01*
X142592500Y-109788599D01*
X142592500Y-109871002D01*
X142696985Y-109871002D01*
X142668264Y-109913986D01*
X142592500Y-109989750D01*
X142592500Y-110044309D01*
X142607705Y-110081017D01*
X142580060Y-110220000D01*
X142580060Y-110568000D01*
X142610095Y-110719000D01*
X142580060Y-110870000D01*
X142580060Y-111218000D01*
X142607705Y-111356983D01*
X142592500Y-111393691D01*
X142592500Y-111448250D01*
X142668264Y-111524014D01*
X142769691Y-111675809D01*
X142796916Y-111694000D01*
X142769691Y-111712191D01*
X142722656Y-111782583D01*
X142702470Y-111796071D01*
X142660070Y-111859527D01*
X141954597Y-112565001D01*
X141688940Y-112565001D01*
X141688940Y-111925500D01*
X141639657Y-111677735D01*
X141595682Y-111611922D01*
X141676500Y-111416809D01*
X141676500Y-111131750D01*
X141517750Y-110973000D01*
X140724000Y-110973000D01*
X140724000Y-110993000D01*
X140470000Y-110993000D01*
X140470000Y-110973000D01*
X139676250Y-110973000D01*
X139517500Y-111131750D01*
X139517500Y-111228294D01*
X139446200Y-111214112D01*
X139371353Y-111229000D01*
X139181398Y-111229000D01*
X139086309Y-111086691D01*
X138876265Y-110946343D01*
X138628500Y-110897060D01*
X137739500Y-110897060D01*
X137491735Y-110946343D01*
X137422000Y-110992939D01*
X137420000Y-110991602D01*
X137420000Y-109480750D01*
X138374500Y-109480750D01*
X138374500Y-109765810D01*
X138471173Y-109999199D01*
X138649802Y-110177827D01*
X138883191Y-110274500D01*
X139168250Y-110274500D01*
X139327000Y-110115750D01*
X139327000Y-109322000D01*
X138533250Y-109322000D01*
X138374500Y-109480750D01*
X137420000Y-109480750D01*
X137420000Y-108086147D01*
X137434888Y-108011300D01*
X137420000Y-107936453D01*
X137420000Y-107936448D01*
X137375904Y-107714763D01*
X137367878Y-107702750D01*
X138374500Y-107702750D01*
X138374500Y-107987810D01*
X138471173Y-108221199D01*
X138555974Y-108306000D01*
X138471173Y-108390801D01*
X138374500Y-108624190D01*
X138374500Y-108909250D01*
X138533250Y-109068000D01*
X139327000Y-109068000D01*
X139327000Y-107544000D01*
X138533250Y-107544000D01*
X138374500Y-107702750D01*
X137367878Y-107702750D01*
X137207929Y-107463371D01*
X137144473Y-107420971D01*
X135521252Y-105797750D01*
X136787000Y-105797750D01*
X136787000Y-106273310D01*
X136883673Y-106506699D01*
X137062302Y-106685327D01*
X137295691Y-106782000D01*
X137771250Y-106782000D01*
X137930000Y-106623250D01*
X137930000Y-105639000D01*
X136945750Y-105639000D01*
X136787000Y-105797750D01*
X135521252Y-105797750D01*
X131374441Y-101650940D01*
X131770500Y-101650940D01*
X132018265Y-101601657D01*
X132228309Y-101461309D01*
X132368657Y-101251265D01*
X132417940Y-101003500D01*
X132417940Y-99606500D01*
X132368657Y-99358735D01*
X132228309Y-99148691D01*
X132018265Y-99008343D01*
X131907000Y-98986211D01*
X131907000Y-97656867D01*
X132710560Y-96853307D01*
X132710560Y-98018600D01*
X132759843Y-98266365D01*
X132900191Y-98476409D01*
X133110235Y-98616757D01*
X133358000Y-98666040D01*
X134628000Y-98666040D01*
X134875765Y-98616757D01*
X135085809Y-98476409D01*
X135226157Y-98266365D01*
X135275440Y-98018600D01*
X135275440Y-95732600D01*
X135226157Y-95484835D01*
X135085809Y-95274791D01*
X134875765Y-95134443D01*
X134628000Y-95085160D01*
X134478708Y-95085160D01*
X134635468Y-94928400D01*
X134691067Y-94928400D01*
X134773300Y-94944757D01*
X134855533Y-94928400D01*
X134855537Y-94928400D01*
X135099101Y-94879952D01*
X135375301Y-94695401D01*
X135421887Y-94625680D01*
X135865000Y-94182567D01*
X135865000Y-99511764D01*
X135865000Y-99511764D01*
G37*
X135865000Y-99511764D02*
X135694344Y-99477819D01*
X135670657Y-99358735D01*
X135530309Y-99148691D01*
X135320265Y-99008343D01*
X135072500Y-98959060D01*
X133675500Y-98959060D01*
X133427735Y-99008343D01*
X133217691Y-99148691D01*
X133077343Y-99358735D01*
X133028060Y-99606500D01*
X133028060Y-101003500D01*
X133077343Y-101251265D01*
X133217691Y-101461309D01*
X133427735Y-101601657D01*
X133675500Y-101650940D01*
X135072500Y-101650940D01*
X135320265Y-101601657D01*
X135530309Y-101461309D01*
X135537492Y-101450559D01*
X135696914Y-101609982D01*
X135743499Y-101679701D01*
X135932817Y-101806199D01*
X136019699Y-101864252D01*
X136345500Y-101929058D01*
X136427737Y-101912700D01*
X138993038Y-101912700D01*
X138670015Y-102235723D01*
X138438000Y-102795858D01*
X138438000Y-103402142D01*
X138557897Y-103691600D01*
X138343886Y-103691600D01*
X138306516Y-103654229D01*
X138264114Y-103590771D01*
X138012722Y-103422796D01*
X137869897Y-103394386D01*
X137736780Y-103261269D01*
X137356374Y-103103700D01*
X136944626Y-103103700D01*
X136564220Y-103261269D01*
X136273069Y-103552420D01*
X136115500Y-103932826D01*
X136115500Y-104344574D01*
X136273069Y-104724980D01*
X136564220Y-105016131D01*
X136787000Y-105108409D01*
X136787000Y-105226250D01*
X136945750Y-105385000D01*
X137930000Y-105385000D01*
X137930000Y-105365000D01*
X138184000Y-105365000D01*
X138184000Y-105385000D01*
X138204000Y-105385000D01*
X138204000Y-105639000D01*
X138184000Y-105639000D01*
X138184000Y-106623250D01*
X138342750Y-106782000D01*
X138401088Y-106782000D01*
X138374500Y-106846190D01*
X138374500Y-107131250D01*
X138533250Y-107290000D01*
X139327000Y-107290000D01*
X139327000Y-107270000D01*
X139581000Y-107270000D01*
X139581000Y-107290000D01*
X139601000Y-107290000D01*
X139601000Y-107544000D01*
X139581000Y-107544000D01*
X139581000Y-109068000D01*
X139601000Y-109068000D01*
X139601000Y-109322000D01*
X139581000Y-109322000D01*
X139581000Y-110115750D01*
X139582798Y-110117548D01*
X139517500Y-110275191D01*
X139517500Y-110560250D01*
X139676250Y-110719000D01*
X140470000Y-110719000D01*
X140470000Y-110699000D01*
X140724000Y-110699000D01*
X140724000Y-110719000D01*
X141517750Y-110719000D01*
X141676500Y-110560250D01*
X141676500Y-110275191D01*
X141661662Y-110239368D01*
X141670265Y-110237657D01*
X141880309Y-110097309D01*
X142020657Y-109887265D01*
X142069940Y-109639500D01*
X142069940Y-109235517D01*
X142247999Y-109502001D01*
X142317720Y-109548587D01*
X142371412Y-109602279D01*
X142417998Y-109672000D01*
X142592500Y-109788599D01*
X142592500Y-109871002D01*
X142696985Y-109871002D01*
X142668264Y-109913986D01*
X142592500Y-109989750D01*
X142592500Y-110044309D01*
X142607705Y-110081017D01*
X142580060Y-110220000D01*
X142580060Y-110568000D01*
X142610095Y-110719000D01*
X142580060Y-110870000D01*
X142580060Y-111218000D01*
X142607705Y-111356983D01*
X142592500Y-111393691D01*
X142592500Y-111448250D01*
X142668264Y-111524014D01*
X142769691Y-111675809D01*
X142796916Y-111694000D01*
X142769691Y-111712191D01*
X142722656Y-111782583D01*
X142702470Y-111796071D01*
X142660070Y-111859527D01*
X141954597Y-112565001D01*
X141688940Y-112565001D01*
X141688940Y-111925500D01*
X141639657Y-111677735D01*
X141595682Y-111611922D01*
X141676500Y-111416809D01*
X141676500Y-111131750D01*
X141517750Y-110973000D01*
X140724000Y-110973000D01*
X140724000Y-110993000D01*
X140470000Y-110993000D01*
X140470000Y-110973000D01*
X139676250Y-110973000D01*
X139517500Y-111131750D01*
X139517500Y-111228294D01*
X139446200Y-111214112D01*
X139371353Y-111229000D01*
X139181398Y-111229000D01*
X139086309Y-111086691D01*
X138876265Y-110946343D01*
X138628500Y-110897060D01*
X137739500Y-110897060D01*
X137491735Y-110946343D01*
X137422000Y-110992939D01*
X137420000Y-110991602D01*
X137420000Y-109480750D01*
X138374500Y-109480750D01*
X138374500Y-109765810D01*
X138471173Y-109999199D01*
X138649802Y-110177827D01*
X138883191Y-110274500D01*
X139168250Y-110274500D01*
X139327000Y-110115750D01*
X139327000Y-109322000D01*
X138533250Y-109322000D01*
X138374500Y-109480750D01*
X137420000Y-109480750D01*
X137420000Y-108086147D01*
X137434888Y-108011300D01*
X137420000Y-107936453D01*
X137420000Y-107936448D01*
X137375904Y-107714763D01*
X137367878Y-107702750D01*
X138374500Y-107702750D01*
X138374500Y-107987810D01*
X138471173Y-108221199D01*
X138555974Y-108306000D01*
X138471173Y-108390801D01*
X138374500Y-108624190D01*
X138374500Y-108909250D01*
X138533250Y-109068000D01*
X139327000Y-109068000D01*
X139327000Y-107544000D01*
X138533250Y-107544000D01*
X138374500Y-107702750D01*
X137367878Y-107702750D01*
X137207929Y-107463371D01*
X137144473Y-107420971D01*
X135521252Y-105797750D01*
X136787000Y-105797750D01*
X136787000Y-106273310D01*
X136883673Y-106506699D01*
X137062302Y-106685327D01*
X137295691Y-106782000D01*
X137771250Y-106782000D01*
X137930000Y-106623250D01*
X137930000Y-105639000D01*
X136945750Y-105639000D01*
X136787000Y-105797750D01*
X135521252Y-105797750D01*
X131374441Y-101650940D01*
X131770500Y-101650940D01*
X132018265Y-101601657D01*
X132228309Y-101461309D01*
X132368657Y-101251265D01*
X132417940Y-101003500D01*
X132417940Y-99606500D01*
X132368657Y-99358735D01*
X132228309Y-99148691D01*
X132018265Y-99008343D01*
X131907000Y-98986211D01*
X131907000Y-97656867D01*
X132710560Y-96853307D01*
X132710560Y-98018600D01*
X132759843Y-98266365D01*
X132900191Y-98476409D01*
X133110235Y-98616757D01*
X133358000Y-98666040D01*
X134628000Y-98666040D01*
X134875765Y-98616757D01*
X135085809Y-98476409D01*
X135226157Y-98266365D01*
X135275440Y-98018600D01*
X135275440Y-95732600D01*
X135226157Y-95484835D01*
X135085809Y-95274791D01*
X134875765Y-95134443D01*
X134628000Y-95085160D01*
X134478708Y-95085160D01*
X134635468Y-94928400D01*
X134691067Y-94928400D01*
X134773300Y-94944757D01*
X134855533Y-94928400D01*
X134855537Y-94928400D01*
X135099101Y-94879952D01*
X135375301Y-94695401D01*
X135421887Y-94625680D01*
X135865000Y-94182567D01*
X135865000Y-99511764D01*
G36*
X142034497Y-108162736D02*
X142034497Y-108187264D01*
X142018140Y-108269497D01*
X142034497Y-108351730D01*
X142034497Y-108351733D01*
X142046234Y-108410740D01*
X142024296Y-108521030D01*
X142020657Y-108502735D01*
X141889202Y-108306000D01*
X142020657Y-108109265D01*
X142022259Y-108101211D01*
X142034497Y-108162736D01*
X142034497Y-108162736D01*
G37*
X142034497Y-108162736D02*
X142034497Y-108187264D01*
X142018140Y-108269497D01*
X142034497Y-108351730D01*
X142034497Y-108351733D01*
X142046234Y-108410740D01*
X142024296Y-108521030D01*
X142020657Y-108502735D01*
X141889202Y-108306000D01*
X142020657Y-108109265D01*
X142022259Y-108101211D01*
X142034497Y-108162736D01*
G36*
X150904000Y-87994850D02*
X151062750Y-88153600D01*
X152662000Y-88153600D01*
X152662000Y-88133600D01*
X152916000Y-88133600D01*
X152916000Y-88153600D01*
X154515250Y-88153600D01*
X154674000Y-87994850D01*
X154674000Y-86906791D01*
X158567500Y-86906791D01*
X158567500Y-87191850D01*
X158726250Y-87350600D01*
X159520000Y-87350600D01*
X159520000Y-86556850D01*
X159774000Y-86556850D01*
X159774000Y-87350600D01*
X160567750Y-87350600D01*
X160609750Y-87308600D01*
X163249560Y-87308600D01*
X163249560Y-89708600D01*
X163298843Y-89956365D01*
X163439191Y-90166409D01*
X163649235Y-90306757D01*
X163897000Y-90356040D01*
X166697000Y-90356040D01*
X166944765Y-90306757D01*
X167154809Y-90166409D01*
X167295157Y-89956365D01*
X167344440Y-89708600D01*
X167344440Y-88794350D01*
X169362000Y-88794350D01*
X169362000Y-89834909D01*
X169458673Y-90068298D01*
X169637301Y-90246927D01*
X169870690Y-90343600D01*
X171111250Y-90343600D01*
X171270000Y-90184850D01*
X171270000Y-88635600D01*
X169520750Y-88635600D01*
X169362000Y-88794350D01*
X167344440Y-88794350D01*
X167344440Y-87308600D01*
X167319316Y-87182291D01*
X169362000Y-87182291D01*
X169362000Y-88222850D01*
X169520750Y-88381600D01*
X171270000Y-88381600D01*
X171270000Y-86832350D01*
X171111250Y-86673600D01*
X169870690Y-86673600D01*
X169637301Y-86770273D01*
X169458673Y-86948902D01*
X169362000Y-87182291D01*
X167319316Y-87182291D01*
X167295157Y-87060835D01*
X167154809Y-86850791D01*
X166944765Y-86710443D01*
X166697000Y-86661160D01*
X163897000Y-86661160D01*
X163649235Y-86710443D01*
X163439191Y-86850791D01*
X163298843Y-87060835D01*
X163249560Y-87308600D01*
X160609750Y-87308600D01*
X160726500Y-87191850D01*
X160726500Y-86906791D01*
X160629827Y-86673402D01*
X160451199Y-86494773D01*
X160217810Y-86398100D01*
X159932750Y-86398100D01*
X159774000Y-86556850D01*
X159520000Y-86556850D01*
X159361250Y-86398100D01*
X159076190Y-86398100D01*
X158842801Y-86494773D01*
X158664173Y-86673402D01*
X158567500Y-86906791D01*
X154674000Y-86906791D01*
X154674000Y-86028600D01*
X171381593Y-86028600D01*
X171939862Y-86139646D01*
X172353857Y-86416269D01*
X172525800Y-86673600D01*
X171682750Y-86673600D01*
X171524000Y-86832350D01*
X171524000Y-88381600D01*
X171544000Y-88381600D01*
X171544000Y-88635600D01*
X171524000Y-88635600D01*
X171524000Y-90184850D01*
X171682750Y-90343600D01*
X172741524Y-90343600D01*
X172741524Y-93704733D01*
X172613534Y-93395738D01*
X172209862Y-92992066D01*
X171682439Y-92773600D01*
X171111561Y-92773600D01*
X170584138Y-92992066D01*
X170180466Y-93395738D01*
X169962000Y-93923161D01*
X169962000Y-94494039D01*
X170180466Y-95021462D01*
X170584138Y-95425134D01*
X171111561Y-95643600D01*
X171682439Y-95643600D01*
X172209862Y-95425134D01*
X172613534Y-95021462D01*
X172741524Y-94712467D01*
X172741524Y-98061160D01*
X169997000Y-98061160D01*
X169749235Y-98110443D01*
X169539191Y-98250791D01*
X169398843Y-98460835D01*
X169349560Y-98708600D01*
X169349560Y-100773900D01*
X167344440Y-100773900D01*
X167344440Y-98708600D01*
X167295157Y-98460835D01*
X167154809Y-98250791D01*
X166944765Y-98110443D01*
X166697000Y-98061160D01*
X163897000Y-98061160D01*
X163649235Y-98110443D01*
X163439191Y-98250791D01*
X163298843Y-98460835D01*
X163249560Y-98708600D01*
X163249560Y-100765892D01*
X162510387Y-100026720D01*
X162463801Y-99956999D01*
X162187601Y-99772448D01*
X161944037Y-99724000D01*
X161944033Y-99724000D01*
X161861800Y-99707643D01*
X161854345Y-99709126D01*
X161819309Y-99656691D01*
X161752000Y-99611716D01*
X161752000Y-98719132D01*
X161768357Y-98636899D01*
X161752000Y-98554664D01*
X161752000Y-98554663D01*
X161703552Y-98311099D01*
X161519001Y-98034899D01*
X161449283Y-97988315D01*
X160807179Y-97346212D01*
X160839809Y-97324409D01*
X160980157Y-97114365D01*
X161029440Y-96866600D01*
X161029440Y-95596600D01*
X160980157Y-95348835D01*
X160839809Y-95138791D01*
X160629765Y-94998443D01*
X160382000Y-94949160D01*
X158912000Y-94949160D01*
X158664235Y-94998443D01*
X158454191Y-95138791D01*
X158313843Y-95348835D01*
X158264560Y-95596600D01*
X158264560Y-96866600D01*
X158313843Y-97114365D01*
X158454191Y-97324409D01*
X158664235Y-97464757D01*
X158821323Y-97496003D01*
X158860448Y-97692700D01*
X158901121Y-97753571D01*
X159045000Y-97968901D01*
X159114718Y-98015485D01*
X160082000Y-98982768D01*
X160082000Y-99515694D01*
X159837500Y-99467060D01*
X158948500Y-99467060D01*
X158700735Y-99516343D01*
X158490691Y-99656691D01*
X158395602Y-99799000D01*
X157977398Y-99799000D01*
X157882309Y-99656691D01*
X157672265Y-99516343D01*
X157424500Y-99467060D01*
X156535500Y-99467060D01*
X156287735Y-99516343D01*
X156218000Y-99562939D01*
X156148265Y-99516343D01*
X155900500Y-99467060D01*
X155011500Y-99467060D01*
X154763735Y-99516343D01*
X154553691Y-99656691D01*
X154413343Y-99866735D01*
X154364060Y-100114500D01*
X154364060Y-101003500D01*
X154413343Y-101251265D01*
X154553691Y-101461309D01*
X154763735Y-101601657D01*
X154811544Y-101611167D01*
X154338723Y-101807015D01*
X153932000Y-102213738D01*
X153525277Y-101807015D01*
X152965142Y-101575000D01*
X152947750Y-101575000D01*
X153043000Y-101479750D01*
X153043000Y-100686000D01*
X153297000Y-100686000D01*
X153297000Y-101479750D01*
X153455750Y-101638500D01*
X153677309Y-101638500D01*
X153910698Y-101541827D01*
X154089327Y-101363199D01*
X154186000Y-101129810D01*
X154186000Y-100844750D01*
X154027250Y-100686000D01*
X153297000Y-100686000D01*
X153043000Y-100686000D01*
X153023000Y-100686000D01*
X153023000Y-100432000D01*
X153043000Y-100432000D01*
X153043000Y-99638250D01*
X153297000Y-99638250D01*
X153297000Y-100432000D01*
X154027250Y-100432000D01*
X154186000Y-100273250D01*
X154186000Y-99988190D01*
X154089327Y-99754801D01*
X153910698Y-99576173D01*
X153677309Y-99479500D01*
X153455750Y-99479500D01*
X153297000Y-99638250D01*
X153043000Y-99638250D01*
X152884250Y-99479500D01*
X152662691Y-99479500D01*
X152429302Y-99576173D01*
X152403268Y-99602207D01*
X152274765Y-99516343D01*
X152027000Y-99467060D01*
X151265000Y-99467060D01*
X151017235Y-99516343D01*
X150807191Y-99656691D01*
X150712102Y-99799000D01*
X150357398Y-99799000D01*
X150262309Y-99656691D01*
X150052265Y-99516343D01*
X149804500Y-99467060D01*
X148915500Y-99467060D01*
X148667735Y-99516343D01*
X148598000Y-99562939D01*
X148528265Y-99516343D01*
X148280500Y-99467060D01*
X147391500Y-99467060D01*
X147143735Y-99516343D01*
X146933691Y-99656691D01*
X146898655Y-99709125D01*
X146891200Y-99707642D01*
X146808963Y-99724000D01*
X146635000Y-99758603D01*
X146635000Y-95932600D01*
X149209833Y-95932600D01*
X150390115Y-97112882D01*
X150436699Y-97182601D01*
X150712899Y-97367152D01*
X150891560Y-97402690D01*
X150891560Y-98730600D01*
X150940843Y-98978365D01*
X151081191Y-99188409D01*
X151291235Y-99328757D01*
X151539000Y-99378040D01*
X154039000Y-99378040D01*
X154286765Y-99328757D01*
X154496809Y-99188409D01*
X154637157Y-98978365D01*
X154686440Y-98730600D01*
X154686440Y-97402690D01*
X154865101Y-97367152D01*
X155141301Y-97182601D01*
X155187887Y-97112880D01*
X158397497Y-93903270D01*
X165362000Y-93903270D01*
X165362000Y-94513930D01*
X165595690Y-95078107D01*
X166027493Y-95509910D01*
X166591670Y-95743600D01*
X167202330Y-95743600D01*
X167766507Y-95509910D01*
X168198310Y-95078107D01*
X168432000Y-94513930D01*
X168432000Y-93903270D01*
X168198310Y-93339093D01*
X167766507Y-92907290D01*
X167202330Y-92673600D01*
X166591670Y-92673600D01*
X166027493Y-92907290D01*
X165595690Y-93339093D01*
X165362000Y-93903270D01*
X158397497Y-93903270D01*
X158943983Y-93356785D01*
X159013701Y-93310201D01*
X159077954Y-93214040D01*
X160382000Y-93214040D01*
X160629765Y-93164757D01*
X160839809Y-93024409D01*
X160980157Y-92814365D01*
X161029440Y-92566600D01*
X161029440Y-91296600D01*
X160980157Y-91048835D01*
X160839809Y-90838791D01*
X160629765Y-90698443D01*
X160482000Y-90669051D01*
X160482000Y-89948884D01*
X160549309Y-89903909D01*
X160689657Y-89693865D01*
X160738940Y-89446100D01*
X160738940Y-88557100D01*
X160689657Y-88309335D01*
X160645682Y-88243522D01*
X160726500Y-88048409D01*
X160726500Y-87763350D01*
X160567750Y-87604600D01*
X159774000Y-87604600D01*
X159774000Y-87624600D01*
X159520000Y-87624600D01*
X159520000Y-87604600D01*
X158726250Y-87604600D01*
X158567500Y-87763350D01*
X158567500Y-88048409D01*
X158648318Y-88243522D01*
X158604343Y-88309335D01*
X158555060Y-88557100D01*
X158555060Y-89446100D01*
X158604343Y-89693865D01*
X158744691Y-89903909D01*
X158812001Y-89948884D01*
X158812000Y-90669051D01*
X158664235Y-90698443D01*
X158454191Y-90838791D01*
X158313843Y-91048835D01*
X158303307Y-91101803D01*
X158085899Y-91145048D01*
X157809699Y-91329599D01*
X157625148Y-91605799D01*
X157560342Y-91931600D01*
X157576700Y-92013836D01*
X157576700Y-92362332D01*
X154686440Y-95252593D01*
X154686440Y-94430600D01*
X154637157Y-94182835D01*
X154496809Y-93972791D01*
X154286765Y-93832443D01*
X154039000Y-93783160D01*
X151539000Y-93783160D01*
X151291235Y-93832443D01*
X151081191Y-93972791D01*
X150940843Y-94182835D01*
X150891560Y-94430600D01*
X150891560Y-95252592D01*
X150204287Y-94565320D01*
X150157701Y-94495599D01*
X149881501Y-94311048D01*
X149637937Y-94262600D01*
X149637933Y-94262600D01*
X149555700Y-94246243D01*
X149473467Y-94262600D01*
X146635000Y-94262600D01*
X146635000Y-93500000D01*
X146586664Y-93256996D01*
X146449013Y-93050987D01*
X146243004Y-92913336D01*
X146000000Y-92865000D01*
X137182568Y-92865000D01*
X137446283Y-92601285D01*
X137516001Y-92554701D01*
X137700552Y-92278501D01*
X137749000Y-92034937D01*
X137749000Y-92034933D01*
X137765357Y-91952700D01*
X137749000Y-91870467D01*
X137749000Y-91306711D01*
X137791431Y-91264280D01*
X137919174Y-90955881D01*
X137925000Y-90957040D01*
X141425000Y-90957040D01*
X141672765Y-90907757D01*
X141882809Y-90767409D01*
X142023157Y-90557365D01*
X142072440Y-90309600D01*
X142072440Y-89795350D01*
X142690000Y-89795350D01*
X142690000Y-90435910D01*
X142786673Y-90669299D01*
X142965302Y-90847927D01*
X143198691Y-90944600D01*
X144789250Y-90944600D01*
X144948000Y-90785850D01*
X144948000Y-89636600D01*
X145202000Y-89636600D01*
X145202000Y-90785850D01*
X145360750Y-90944600D01*
X146951309Y-90944600D01*
X147184698Y-90847927D01*
X147363327Y-90669299D01*
X147460000Y-90435910D01*
X147460000Y-89795350D01*
X147301250Y-89636600D01*
X145202000Y-89636600D01*
X144948000Y-89636600D01*
X142848750Y-89636600D01*
X142690000Y-89795350D01*
X142072440Y-89795350D01*
X142072440Y-88709600D01*
X142047316Y-88583290D01*
X142690000Y-88583290D01*
X142690000Y-89223850D01*
X142848750Y-89382600D01*
X144948000Y-89382600D01*
X144948000Y-88233350D01*
X145202000Y-88233350D01*
X145202000Y-89382600D01*
X147301250Y-89382600D01*
X147460000Y-89223850D01*
X147460000Y-88583290D01*
X147452984Y-88566350D01*
X150904000Y-88566350D01*
X150904000Y-90556909D01*
X151000673Y-90790298D01*
X151179301Y-90968927D01*
X151412690Y-91065600D01*
X152503250Y-91065600D01*
X152662000Y-90906850D01*
X152662000Y-88407600D01*
X152916000Y-88407600D01*
X152916000Y-90906850D01*
X153074750Y-91065600D01*
X154165310Y-91065600D01*
X154398699Y-90968927D01*
X154577327Y-90790298D01*
X154674000Y-90556909D01*
X154674000Y-88566350D01*
X154515250Y-88407600D01*
X152916000Y-88407600D01*
X152662000Y-88407600D01*
X151062750Y-88407600D01*
X150904000Y-88566350D01*
X147452984Y-88566350D01*
X147363327Y-88349901D01*
X147184698Y-88171273D01*
X146951309Y-88074600D01*
X145360750Y-88074600D01*
X145202000Y-88233350D01*
X144948000Y-88233350D01*
X144789250Y-88074600D01*
X143198691Y-88074600D01*
X142965302Y-88171273D01*
X142786673Y-88349901D01*
X142690000Y-88583290D01*
X142047316Y-88583290D01*
X142023157Y-88461835D01*
X141882809Y-88251791D01*
X141672765Y-88111443D01*
X141425000Y-88062160D01*
X137925000Y-88062160D01*
X137677235Y-88111443D01*
X137675503Y-88112600D01*
X137041000Y-88112600D01*
X137041000Y-88132600D01*
X136787000Y-88132600D01*
X136787000Y-88112600D01*
X136767000Y-88112600D01*
X136767000Y-87858600D01*
X136787000Y-87858600D01*
X136787000Y-87064850D01*
X137041000Y-87064850D01*
X137041000Y-87858600D01*
X137834750Y-87858600D01*
X137993500Y-87699850D01*
X137993500Y-87414791D01*
X137896827Y-87181402D01*
X137718199Y-87002773D01*
X137484810Y-86906100D01*
X137199750Y-86906100D01*
X137041000Y-87064850D01*
X136787000Y-87064850D01*
X136628250Y-86906100D01*
X136343190Y-86906100D01*
X136109801Y-87002773D01*
X135931173Y-87181402D01*
X135896988Y-87263933D01*
X135891765Y-87260443D01*
X135644000Y-87211160D01*
X134374000Y-87211160D01*
X134126235Y-87260443D01*
X133993000Y-87349468D01*
X133859765Y-87260443D01*
X133612000Y-87211160D01*
X132342000Y-87211160D01*
X132094235Y-87260443D01*
X131884191Y-87400791D01*
X131743843Y-87610835D01*
X131694560Y-87858600D01*
X131694560Y-90144600D01*
X131743843Y-90392365D01*
X131838328Y-90533770D01*
X127808130Y-94563969D01*
X127744671Y-94606371D01*
X127576696Y-94857764D01*
X127532600Y-95079449D01*
X127532600Y-95079453D01*
X127517712Y-95154300D01*
X127532600Y-95229147D01*
X127532601Y-98980653D01*
X127516000Y-98991746D01*
X127463765Y-98956843D01*
X127216000Y-98907560D01*
X126770386Y-98907560D01*
X126793929Y-98891829D01*
X126954575Y-98651405D01*
X127128765Y-98616757D01*
X127338809Y-98476409D01*
X127479157Y-98266365D01*
X127528440Y-98018600D01*
X127528440Y-95732600D01*
X127479157Y-95484835D01*
X127338809Y-95274791D01*
X127128765Y-95134443D01*
X126881000Y-95085160D01*
X125611000Y-95085160D01*
X125469795Y-95113247D01*
X125487404Y-95101481D01*
X125644329Y-94866628D01*
X125685524Y-94659526D01*
X125685524Y-91289602D01*
X125738000Y-91300040D01*
X127008000Y-91300040D01*
X127255765Y-91250757D01*
X127465809Y-91110409D01*
X127606157Y-90900365D01*
X127655440Y-90652600D01*
X127655440Y-87858600D01*
X127606157Y-87610835D01*
X127465809Y-87400791D01*
X127255765Y-87260443D01*
X127008000Y-87211160D01*
X125738000Y-87211160D01*
X125490235Y-87260443D01*
X125280191Y-87400791D01*
X125139843Y-87610835D01*
X125090560Y-87858600D01*
X125090560Y-90585320D01*
X124714798Y-90497235D01*
X124476834Y-90326287D01*
X124322403Y-90077285D01*
X124261524Y-89705808D01*
X124261524Y-87388531D01*
X124372570Y-86830262D01*
X124649193Y-86416267D01*
X125063184Y-86139647D01*
X125621455Y-86028600D01*
X150904000Y-86028600D01*
X150904000Y-87994850D01*
X150904000Y-87994850D01*
G37*
X150904000Y-87994850D02*
X151062750Y-88153600D01*
X152662000Y-88153600D01*
X152662000Y-88133600D01*
X152916000Y-88133600D01*
X152916000Y-88153600D01*
X154515250Y-88153600D01*
X154674000Y-87994850D01*
X154674000Y-86906791D01*
X158567500Y-86906791D01*
X158567500Y-87191850D01*
X158726250Y-87350600D01*
X159520000Y-87350600D01*
X159520000Y-86556850D01*
X159774000Y-86556850D01*
X159774000Y-87350600D01*
X160567750Y-87350600D01*
X160609750Y-87308600D01*
X163249560Y-87308600D01*
X163249560Y-89708600D01*
X163298843Y-89956365D01*
X163439191Y-90166409D01*
X163649235Y-90306757D01*
X163897000Y-90356040D01*
X166697000Y-90356040D01*
X166944765Y-90306757D01*
X167154809Y-90166409D01*
X167295157Y-89956365D01*
X167344440Y-89708600D01*
X167344440Y-88794350D01*
X169362000Y-88794350D01*
X169362000Y-89834909D01*
X169458673Y-90068298D01*
X169637301Y-90246927D01*
X169870690Y-90343600D01*
X171111250Y-90343600D01*
X171270000Y-90184850D01*
X171270000Y-88635600D01*
X169520750Y-88635600D01*
X169362000Y-88794350D01*
X167344440Y-88794350D01*
X167344440Y-87308600D01*
X167319316Y-87182291D01*
X169362000Y-87182291D01*
X169362000Y-88222850D01*
X169520750Y-88381600D01*
X171270000Y-88381600D01*
X171270000Y-86832350D01*
X171111250Y-86673600D01*
X169870690Y-86673600D01*
X169637301Y-86770273D01*
X169458673Y-86948902D01*
X169362000Y-87182291D01*
X167319316Y-87182291D01*
X167295157Y-87060835D01*
X167154809Y-86850791D01*
X166944765Y-86710443D01*
X166697000Y-86661160D01*
X163897000Y-86661160D01*
X163649235Y-86710443D01*
X163439191Y-86850791D01*
X163298843Y-87060835D01*
X163249560Y-87308600D01*
X160609750Y-87308600D01*
X160726500Y-87191850D01*
X160726500Y-86906791D01*
X160629827Y-86673402D01*
X160451199Y-86494773D01*
X160217810Y-86398100D01*
X159932750Y-86398100D01*
X159774000Y-86556850D01*
X159520000Y-86556850D01*
X159361250Y-86398100D01*
X159076190Y-86398100D01*
X158842801Y-86494773D01*
X158664173Y-86673402D01*
X158567500Y-86906791D01*
X154674000Y-86906791D01*
X154674000Y-86028600D01*
X171381593Y-86028600D01*
X171939862Y-86139646D01*
X172353857Y-86416269D01*
X172525800Y-86673600D01*
X171682750Y-86673600D01*
X171524000Y-86832350D01*
X171524000Y-88381600D01*
X171544000Y-88381600D01*
X171544000Y-88635600D01*
X171524000Y-88635600D01*
X171524000Y-90184850D01*
X171682750Y-90343600D01*
X172741524Y-90343600D01*
X172741524Y-93704733D01*
X172613534Y-93395738D01*
X172209862Y-92992066D01*
X171682439Y-92773600D01*
X171111561Y-92773600D01*
X170584138Y-92992066D01*
X170180466Y-93395738D01*
X169962000Y-93923161D01*
X169962000Y-94494039D01*
X170180466Y-95021462D01*
X170584138Y-95425134D01*
X171111561Y-95643600D01*
X171682439Y-95643600D01*
X172209862Y-95425134D01*
X172613534Y-95021462D01*
X172741524Y-94712467D01*
X172741524Y-98061160D01*
X169997000Y-98061160D01*
X169749235Y-98110443D01*
X169539191Y-98250791D01*
X169398843Y-98460835D01*
X169349560Y-98708600D01*
X169349560Y-100773900D01*
X167344440Y-100773900D01*
X167344440Y-98708600D01*
X167295157Y-98460835D01*
X167154809Y-98250791D01*
X166944765Y-98110443D01*
X166697000Y-98061160D01*
X163897000Y-98061160D01*
X163649235Y-98110443D01*
X163439191Y-98250791D01*
X163298843Y-98460835D01*
X163249560Y-98708600D01*
X163249560Y-100765892D01*
X162510387Y-100026720D01*
X162463801Y-99956999D01*
X162187601Y-99772448D01*
X161944037Y-99724000D01*
X161944033Y-99724000D01*
X161861800Y-99707643D01*
X161854345Y-99709126D01*
X161819309Y-99656691D01*
X161752000Y-99611716D01*
X161752000Y-98719132D01*
X161768357Y-98636899D01*
X161752000Y-98554664D01*
X161752000Y-98554663D01*
X161703552Y-98311099D01*
X161519001Y-98034899D01*
X161449283Y-97988315D01*
X160807179Y-97346212D01*
X160839809Y-97324409D01*
X160980157Y-97114365D01*
X161029440Y-96866600D01*
X161029440Y-95596600D01*
X160980157Y-95348835D01*
X160839809Y-95138791D01*
X160629765Y-94998443D01*
X160382000Y-94949160D01*
X158912000Y-94949160D01*
X158664235Y-94998443D01*
X158454191Y-95138791D01*
X158313843Y-95348835D01*
X158264560Y-95596600D01*
X158264560Y-96866600D01*
X158313843Y-97114365D01*
X158454191Y-97324409D01*
X158664235Y-97464757D01*
X158821323Y-97496003D01*
X158860448Y-97692700D01*
X158901121Y-97753571D01*
X159045000Y-97968901D01*
X159114718Y-98015485D01*
X160082000Y-98982768D01*
X160082000Y-99515694D01*
X159837500Y-99467060D01*
X158948500Y-99467060D01*
X158700735Y-99516343D01*
X158490691Y-99656691D01*
X158395602Y-99799000D01*
X157977398Y-99799000D01*
X157882309Y-99656691D01*
X157672265Y-99516343D01*
X157424500Y-99467060D01*
X156535500Y-99467060D01*
X156287735Y-99516343D01*
X156218000Y-99562939D01*
X156148265Y-99516343D01*
X155900500Y-99467060D01*
X155011500Y-99467060D01*
X154763735Y-99516343D01*
X154553691Y-99656691D01*
X154413343Y-99866735D01*
X154364060Y-100114500D01*
X154364060Y-101003500D01*
X154413343Y-101251265D01*
X154553691Y-101461309D01*
X154763735Y-101601657D01*
X154811544Y-101611167D01*
X154338723Y-101807015D01*
X153932000Y-102213738D01*
X153525277Y-101807015D01*
X152965142Y-101575000D01*
X152947750Y-101575000D01*
X153043000Y-101479750D01*
X153043000Y-100686000D01*
X153297000Y-100686000D01*
X153297000Y-101479750D01*
X153455750Y-101638500D01*
X153677309Y-101638500D01*
X153910698Y-101541827D01*
X154089327Y-101363199D01*
X154186000Y-101129810D01*
X154186000Y-100844750D01*
X154027250Y-100686000D01*
X153297000Y-100686000D01*
X153043000Y-100686000D01*
X153023000Y-100686000D01*
X153023000Y-100432000D01*
X153043000Y-100432000D01*
X153043000Y-99638250D01*
X153297000Y-99638250D01*
X153297000Y-100432000D01*
X154027250Y-100432000D01*
X154186000Y-100273250D01*
X154186000Y-99988190D01*
X154089327Y-99754801D01*
X153910698Y-99576173D01*
X153677309Y-99479500D01*
X153455750Y-99479500D01*
X153297000Y-99638250D01*
X153043000Y-99638250D01*
X152884250Y-99479500D01*
X152662691Y-99479500D01*
X152429302Y-99576173D01*
X152403268Y-99602207D01*
X152274765Y-99516343D01*
X152027000Y-99467060D01*
X151265000Y-99467060D01*
X151017235Y-99516343D01*
X150807191Y-99656691D01*
X150712102Y-99799000D01*
X150357398Y-99799000D01*
X150262309Y-99656691D01*
X150052265Y-99516343D01*
X149804500Y-99467060D01*
X148915500Y-99467060D01*
X148667735Y-99516343D01*
X148598000Y-99562939D01*
X148528265Y-99516343D01*
X148280500Y-99467060D01*
X147391500Y-99467060D01*
X147143735Y-99516343D01*
X146933691Y-99656691D01*
X146898655Y-99709125D01*
X146891200Y-99707642D01*
X146808963Y-99724000D01*
X146635000Y-99758603D01*
X146635000Y-95932600D01*
X149209833Y-95932600D01*
X150390115Y-97112882D01*
X150436699Y-97182601D01*
X150712899Y-97367152D01*
X150891560Y-97402690D01*
X150891560Y-98730600D01*
X150940843Y-98978365D01*
X151081191Y-99188409D01*
X151291235Y-99328757D01*
X151539000Y-99378040D01*
X154039000Y-99378040D01*
X154286765Y-99328757D01*
X154496809Y-99188409D01*
X154637157Y-98978365D01*
X154686440Y-98730600D01*
X154686440Y-97402690D01*
X154865101Y-97367152D01*
X155141301Y-97182601D01*
X155187887Y-97112880D01*
X158397497Y-93903270D01*
X165362000Y-93903270D01*
X165362000Y-94513930D01*
X165595690Y-95078107D01*
X166027493Y-95509910D01*
X166591670Y-95743600D01*
X167202330Y-95743600D01*
X167766507Y-95509910D01*
X168198310Y-95078107D01*
X168432000Y-94513930D01*
X168432000Y-93903270D01*
X168198310Y-93339093D01*
X167766507Y-92907290D01*
X167202330Y-92673600D01*
X166591670Y-92673600D01*
X166027493Y-92907290D01*
X165595690Y-93339093D01*
X165362000Y-93903270D01*
X158397497Y-93903270D01*
X158943983Y-93356785D01*
X159013701Y-93310201D01*
X159077954Y-93214040D01*
X160382000Y-93214040D01*
X160629765Y-93164757D01*
X160839809Y-93024409D01*
X160980157Y-92814365D01*
X161029440Y-92566600D01*
X161029440Y-91296600D01*
X160980157Y-91048835D01*
X160839809Y-90838791D01*
X160629765Y-90698443D01*
X160482000Y-90669051D01*
X160482000Y-89948884D01*
X160549309Y-89903909D01*
X160689657Y-89693865D01*
X160738940Y-89446100D01*
X160738940Y-88557100D01*
X160689657Y-88309335D01*
X160645682Y-88243522D01*
X160726500Y-88048409D01*
X160726500Y-87763350D01*
X160567750Y-87604600D01*
X159774000Y-87604600D01*
X159774000Y-87624600D01*
X159520000Y-87624600D01*
X159520000Y-87604600D01*
X158726250Y-87604600D01*
X158567500Y-87763350D01*
X158567500Y-88048409D01*
X158648318Y-88243522D01*
X158604343Y-88309335D01*
X158555060Y-88557100D01*
X158555060Y-89446100D01*
X158604343Y-89693865D01*
X158744691Y-89903909D01*
X158812001Y-89948884D01*
X158812000Y-90669051D01*
X158664235Y-90698443D01*
X158454191Y-90838791D01*
X158313843Y-91048835D01*
X158303307Y-91101803D01*
X158085899Y-91145048D01*
X157809699Y-91329599D01*
X157625148Y-91605799D01*
X157560342Y-91931600D01*
X157576700Y-92013836D01*
X157576700Y-92362332D01*
X154686440Y-95252593D01*
X154686440Y-94430600D01*
X154637157Y-94182835D01*
X154496809Y-93972791D01*
X154286765Y-93832443D01*
X154039000Y-93783160D01*
X151539000Y-93783160D01*
X151291235Y-93832443D01*
X151081191Y-93972791D01*
X150940843Y-94182835D01*
X150891560Y-94430600D01*
X150891560Y-95252592D01*
X150204287Y-94565320D01*
X150157701Y-94495599D01*
X149881501Y-94311048D01*
X149637937Y-94262600D01*
X149637933Y-94262600D01*
X149555700Y-94246243D01*
X149473467Y-94262600D01*
X146635000Y-94262600D01*
X146635000Y-93500000D01*
X146586664Y-93256996D01*
X146449013Y-93050987D01*
X146243004Y-92913336D01*
X146000000Y-92865000D01*
X137182568Y-92865000D01*
X137446283Y-92601285D01*
X137516001Y-92554701D01*
X137700552Y-92278501D01*
X137749000Y-92034937D01*
X137749000Y-92034933D01*
X137765357Y-91952700D01*
X137749000Y-91870467D01*
X137749000Y-91306711D01*
X137791431Y-91264280D01*
X137919174Y-90955881D01*
X137925000Y-90957040D01*
X141425000Y-90957040D01*
X141672765Y-90907757D01*
X141882809Y-90767409D01*
X142023157Y-90557365D01*
X142072440Y-90309600D01*
X142072440Y-89795350D01*
X142690000Y-89795350D01*
X142690000Y-90435910D01*
X142786673Y-90669299D01*
X142965302Y-90847927D01*
X143198691Y-90944600D01*
X144789250Y-90944600D01*
X144948000Y-90785850D01*
X144948000Y-89636600D01*
X145202000Y-89636600D01*
X145202000Y-90785850D01*
X145360750Y-90944600D01*
X146951309Y-90944600D01*
X147184698Y-90847927D01*
X147363327Y-90669299D01*
X147460000Y-90435910D01*
X147460000Y-89795350D01*
X147301250Y-89636600D01*
X145202000Y-89636600D01*
X144948000Y-89636600D01*
X142848750Y-89636600D01*
X142690000Y-89795350D01*
X142072440Y-89795350D01*
X142072440Y-88709600D01*
X142047316Y-88583290D01*
X142690000Y-88583290D01*
X142690000Y-89223850D01*
X142848750Y-89382600D01*
X144948000Y-89382600D01*
X144948000Y-88233350D01*
X145202000Y-88233350D01*
X145202000Y-89382600D01*
X147301250Y-89382600D01*
X147460000Y-89223850D01*
X147460000Y-88583290D01*
X147452984Y-88566350D01*
X150904000Y-88566350D01*
X150904000Y-90556909D01*
X151000673Y-90790298D01*
X151179301Y-90968927D01*
X151412690Y-91065600D01*
X152503250Y-91065600D01*
X152662000Y-90906850D01*
X152662000Y-88407600D01*
X152916000Y-88407600D01*
X152916000Y-90906850D01*
X153074750Y-91065600D01*
X154165310Y-91065600D01*
X154398699Y-90968927D01*
X154577327Y-90790298D01*
X154674000Y-90556909D01*
X154674000Y-88566350D01*
X154515250Y-88407600D01*
X152916000Y-88407600D01*
X152662000Y-88407600D01*
X151062750Y-88407600D01*
X150904000Y-88566350D01*
X147452984Y-88566350D01*
X147363327Y-88349901D01*
X147184698Y-88171273D01*
X146951309Y-88074600D01*
X145360750Y-88074600D01*
X145202000Y-88233350D01*
X144948000Y-88233350D01*
X144789250Y-88074600D01*
X143198691Y-88074600D01*
X142965302Y-88171273D01*
X142786673Y-88349901D01*
X142690000Y-88583290D01*
X142047316Y-88583290D01*
X142023157Y-88461835D01*
X141882809Y-88251791D01*
X141672765Y-88111443D01*
X141425000Y-88062160D01*
X137925000Y-88062160D01*
X137677235Y-88111443D01*
X137675503Y-88112600D01*
X137041000Y-88112600D01*
X137041000Y-88132600D01*
X136787000Y-88132600D01*
X136787000Y-88112600D01*
X136767000Y-88112600D01*
X136767000Y-87858600D01*
X136787000Y-87858600D01*
X136787000Y-87064850D01*
X137041000Y-87064850D01*
X137041000Y-87858600D01*
X137834750Y-87858600D01*
X137993500Y-87699850D01*
X137993500Y-87414791D01*
X137896827Y-87181402D01*
X137718199Y-87002773D01*
X137484810Y-86906100D01*
X137199750Y-86906100D01*
X137041000Y-87064850D01*
X136787000Y-87064850D01*
X136628250Y-86906100D01*
X136343190Y-86906100D01*
X136109801Y-87002773D01*
X135931173Y-87181402D01*
X135896988Y-87263933D01*
X135891765Y-87260443D01*
X135644000Y-87211160D01*
X134374000Y-87211160D01*
X134126235Y-87260443D01*
X133993000Y-87349468D01*
X133859765Y-87260443D01*
X133612000Y-87211160D01*
X132342000Y-87211160D01*
X132094235Y-87260443D01*
X131884191Y-87400791D01*
X131743843Y-87610835D01*
X131694560Y-87858600D01*
X131694560Y-90144600D01*
X131743843Y-90392365D01*
X131838328Y-90533770D01*
X127808130Y-94563969D01*
X127744671Y-94606371D01*
X127576696Y-94857764D01*
X127532600Y-95079449D01*
X127532600Y-95079453D01*
X127517712Y-95154300D01*
X127532600Y-95229147D01*
X127532601Y-98980653D01*
X127516000Y-98991746D01*
X127463765Y-98956843D01*
X127216000Y-98907560D01*
X126770386Y-98907560D01*
X126793929Y-98891829D01*
X126954575Y-98651405D01*
X127128765Y-98616757D01*
X127338809Y-98476409D01*
X127479157Y-98266365D01*
X127528440Y-98018600D01*
X127528440Y-95732600D01*
X127479157Y-95484835D01*
X127338809Y-95274791D01*
X127128765Y-95134443D01*
X126881000Y-95085160D01*
X125611000Y-95085160D01*
X125469795Y-95113247D01*
X125487404Y-95101481D01*
X125644329Y-94866628D01*
X125685524Y-94659526D01*
X125685524Y-91289602D01*
X125738000Y-91300040D01*
X127008000Y-91300040D01*
X127255765Y-91250757D01*
X127465809Y-91110409D01*
X127606157Y-90900365D01*
X127655440Y-90652600D01*
X127655440Y-87858600D01*
X127606157Y-87610835D01*
X127465809Y-87400791D01*
X127255765Y-87260443D01*
X127008000Y-87211160D01*
X125738000Y-87211160D01*
X125490235Y-87260443D01*
X125280191Y-87400791D01*
X125139843Y-87610835D01*
X125090560Y-87858600D01*
X125090560Y-90585320D01*
X124714798Y-90497235D01*
X124476834Y-90326287D01*
X124322403Y-90077285D01*
X124261524Y-89705808D01*
X124261524Y-87388531D01*
X124372570Y-86830262D01*
X124649193Y-86416267D01*
X125063184Y-86139647D01*
X125621455Y-86028600D01*
X150904000Y-86028600D01*
X150904000Y-87994850D01*
M02*
