M48
INCH,TZ
T1C0.0157
T2C0.0394
T3C0.0984
T4C0.0630
T5C0.0669
T6C0.0709
T7C0.1000
%
G90
G05
T1
X50631Y-45649
X50857Y-44859
X51181Y-35433
X51181Y-36417
X51181Y-37402
X51181Y-38386
X53210Y-44196
X54556Y-43421
X54724Y-36220
X54724Y-36693
X54724Y-37205
X55315Y-37205
X55512Y-36614
X55512Y-37795
X55971Y-47969
X56067Y-43781
X56080Y-41985
X56102Y-42754
X56102Y-36220
X56102Y-38189
X56133Y-39620
X56654Y-41555
X57296Y-44737
X58780Y-45916
X59036Y-43601
X59055Y-47971
X59606Y-40139
X59891Y-45739
X59982Y-41663
X60056Y-42325
X60182Y-43919
X60314Y-42950
X60386Y-44365
X60431Y-42320
X60480Y-41392
X60959Y-44742
X61428Y-45201
X61722Y-45593
X62475Y-46329
X62579Y-47742
X62708Y-41273
X62878Y-43324
X63011Y-44833
X63564Y-45192
X63564Y-48009
X64318Y-42389
X64764Y-36220
X64764Y-37106
X64764Y-37992
X66634Y-38307
X66650Y-42264
X66654Y-35886
X66713Y-44646
X66713Y-45846
T2
X51103Y-48590
X52103Y-48590
X53103Y-48590
X54103Y-48590
X55103Y-40590
X55103Y-48590
X56103Y-40590
X56103Y-48590
X57103Y-40590
X57103Y-48590
X58103Y-40590
X58103Y-48590
X59103Y-40590
X59103Y-48590
X60103Y-40590
X60103Y-48590
X61103Y-40590
X61103Y-48590
X62103Y-40590
X62103Y-48590
X63103Y-40590
X63103Y-48590
X64103Y-40590
X64103Y-48590
X65103Y-40590
X65103Y-48590
X66103Y-40590
X66103Y-48590
T3
X49603Y-41090
X49603Y-48090
T4
X67479Y-37090
T5
X49803Y-36811
X52559Y-36811
T6
X65707Y-37090
T7
X67603Y-41090
X67603Y-48090
T0
M30
