G04 #@! TF.GenerationSoftware,KiCad,Pcbnew,(2018-02-15 revision 29b28de31)-makepkg*
G04 #@! TF.CreationDate,2019-09-05T06:32:13+03:00*
G04 #@! TF.ProjectId,ATM90E26_Featherwing,41544D39304532365F46656174686572,rev?*
G04 #@! TF.SameCoordinates,Original*
G04 #@! TF.FileFunction,Soldermask,Top*
G04 #@! TF.FilePolarity,Negative*
%FSLAX46Y46*%
G04 Gerber Fmt 4.6, Leading zero omitted, Abs format (unit mm)*
G04 Created by KiCad (PCBNEW (2018-02-15 revision 29b28de31)-makepkg) date 09/05/19 06:32:13*
%MOMM*%
%LPD*%
G01*
G04 APERTURE LIST*
%ADD10C,0.100000*%
G04 APERTURE END LIST*
D10*
G36*
X140279649Y-122371849D02*
X140477832Y-122453939D01*
X140656201Y-122573122D01*
X140807878Y-122724799D01*
X140927061Y-122903168D01*
X141009151Y-123101351D01*
X141051000Y-123311741D01*
X141051000Y-123526259D01*
X141009151Y-123736649D01*
X140927061Y-123934832D01*
X140807878Y-124113201D01*
X140656201Y-124264878D01*
X140477832Y-124384061D01*
X140279649Y-124466151D01*
X140069259Y-124508000D01*
X139854741Y-124508000D01*
X139644351Y-124466151D01*
X139446168Y-124384061D01*
X139267799Y-124264878D01*
X139116122Y-124113201D01*
X138996939Y-123934832D01*
X138914849Y-123736649D01*
X138873000Y-123526259D01*
X138873000Y-123311741D01*
X138914849Y-123101351D01*
X138996939Y-122903168D01*
X139116122Y-122724799D01*
X139267799Y-122573122D01*
X139446168Y-122453939D01*
X139644351Y-122371849D01*
X139854741Y-122330000D01*
X140069259Y-122330000D01*
X140279649Y-122371849D01*
X140279649Y-122371849D01*
G37*
G36*
X160599649Y-122371849D02*
X160797832Y-122453939D01*
X160976201Y-122573122D01*
X161127878Y-122724799D01*
X161247061Y-122903168D01*
X161329151Y-123101351D01*
X161371000Y-123311741D01*
X161371000Y-123526259D01*
X161329151Y-123736649D01*
X161247061Y-123934832D01*
X161127878Y-124113201D01*
X160976201Y-124264878D01*
X160797832Y-124384061D01*
X160599649Y-124466151D01*
X160389259Y-124508000D01*
X160174741Y-124508000D01*
X159964351Y-124466151D01*
X159766168Y-124384061D01*
X159587799Y-124264878D01*
X159436122Y-124113201D01*
X159316939Y-123934832D01*
X159234849Y-123736649D01*
X159193000Y-123526259D01*
X159193000Y-123311741D01*
X159234849Y-123101351D01*
X159316939Y-122903168D01*
X159436122Y-122724799D01*
X159587799Y-122573122D01*
X159766168Y-122453939D01*
X159964351Y-122371849D01*
X160174741Y-122330000D01*
X160389259Y-122330000D01*
X160599649Y-122371849D01*
X160599649Y-122371849D01*
G37*
G36*
X130119649Y-122371849D02*
X130317832Y-122453939D01*
X130496201Y-122573122D01*
X130647878Y-122724799D01*
X130767061Y-122903168D01*
X130849151Y-123101351D01*
X130891000Y-123311741D01*
X130891000Y-123526259D01*
X130849151Y-123736649D01*
X130767061Y-123934832D01*
X130647878Y-124113201D01*
X130496201Y-124264878D01*
X130317832Y-124384061D01*
X130119649Y-124466151D01*
X129909259Y-124508000D01*
X129694741Y-124508000D01*
X129484351Y-124466151D01*
X129286168Y-124384061D01*
X129107799Y-124264878D01*
X128956122Y-124113201D01*
X128836939Y-123934832D01*
X128754849Y-123736649D01*
X128713000Y-123526259D01*
X128713000Y-123311741D01*
X128754849Y-123101351D01*
X128836939Y-122903168D01*
X128956122Y-122724799D01*
X129107799Y-122573122D01*
X129286168Y-122453939D01*
X129484351Y-122371849D01*
X129694741Y-122330000D01*
X129909259Y-122330000D01*
X130119649Y-122371849D01*
X130119649Y-122371849D01*
G37*
G36*
X132659649Y-122371849D02*
X132857832Y-122453939D01*
X133036201Y-122573122D01*
X133187878Y-122724799D01*
X133307061Y-122903168D01*
X133389151Y-123101351D01*
X133431000Y-123311741D01*
X133431000Y-123526259D01*
X133389151Y-123736649D01*
X133307061Y-123934832D01*
X133187878Y-124113201D01*
X133036201Y-124264878D01*
X132857832Y-124384061D01*
X132659649Y-124466151D01*
X132449259Y-124508000D01*
X132234741Y-124508000D01*
X132024351Y-124466151D01*
X131826168Y-124384061D01*
X131647799Y-124264878D01*
X131496122Y-124113201D01*
X131376939Y-123934832D01*
X131294849Y-123736649D01*
X131253000Y-123526259D01*
X131253000Y-123311741D01*
X131294849Y-123101351D01*
X131376939Y-122903168D01*
X131496122Y-122724799D01*
X131647799Y-122573122D01*
X131826168Y-122453939D01*
X132024351Y-122371849D01*
X132234741Y-122330000D01*
X132449259Y-122330000D01*
X132659649Y-122371849D01*
X132659649Y-122371849D01*
G37*
G36*
X135199649Y-122371849D02*
X135397832Y-122453939D01*
X135576201Y-122573122D01*
X135727878Y-122724799D01*
X135847061Y-122903168D01*
X135929151Y-123101351D01*
X135971000Y-123311741D01*
X135971000Y-123526259D01*
X135929151Y-123736649D01*
X135847061Y-123934832D01*
X135727878Y-124113201D01*
X135576201Y-124264878D01*
X135397832Y-124384061D01*
X135199649Y-124466151D01*
X134989259Y-124508000D01*
X134774741Y-124508000D01*
X134564351Y-124466151D01*
X134366168Y-124384061D01*
X134187799Y-124264878D01*
X134036122Y-124113201D01*
X133916939Y-123934832D01*
X133834849Y-123736649D01*
X133793000Y-123526259D01*
X133793000Y-123311741D01*
X133834849Y-123101351D01*
X133916939Y-122903168D01*
X134036122Y-122724799D01*
X134187799Y-122573122D01*
X134366168Y-122453939D01*
X134564351Y-122371849D01*
X134774741Y-122330000D01*
X134989259Y-122330000D01*
X135199649Y-122371849D01*
X135199649Y-122371849D01*
G37*
G36*
X137739649Y-122371849D02*
X137937832Y-122453939D01*
X138116201Y-122573122D01*
X138267878Y-122724799D01*
X138387061Y-122903168D01*
X138469151Y-123101351D01*
X138511000Y-123311741D01*
X138511000Y-123526259D01*
X138469151Y-123736649D01*
X138387061Y-123934832D01*
X138267878Y-124113201D01*
X138116201Y-124264878D01*
X137937832Y-124384061D01*
X137739649Y-124466151D01*
X137529259Y-124508000D01*
X137314741Y-124508000D01*
X137104351Y-124466151D01*
X136906168Y-124384061D01*
X136727799Y-124264878D01*
X136576122Y-124113201D01*
X136456939Y-123934832D01*
X136374849Y-123736649D01*
X136333000Y-123526259D01*
X136333000Y-123311741D01*
X136374849Y-123101351D01*
X136456939Y-122903168D01*
X136576122Y-122724799D01*
X136727799Y-122573122D01*
X136906168Y-122453939D01*
X137104351Y-122371849D01*
X137314741Y-122330000D01*
X137529259Y-122330000D01*
X137739649Y-122371849D01*
X137739649Y-122371849D01*
G37*
G36*
X168219649Y-122371849D02*
X168417832Y-122453939D01*
X168596201Y-122573122D01*
X168747878Y-122724799D01*
X168867061Y-122903168D01*
X168949151Y-123101351D01*
X168991000Y-123311741D01*
X168991000Y-123526259D01*
X168949151Y-123736649D01*
X168867061Y-123934832D01*
X168747878Y-124113201D01*
X168596201Y-124264878D01*
X168417832Y-124384061D01*
X168219649Y-124466151D01*
X168009259Y-124508000D01*
X167794741Y-124508000D01*
X167584351Y-124466151D01*
X167386168Y-124384061D01*
X167207799Y-124264878D01*
X167056122Y-124113201D01*
X166936939Y-123934832D01*
X166854849Y-123736649D01*
X166813000Y-123526259D01*
X166813000Y-123311741D01*
X166854849Y-123101351D01*
X166936939Y-122903168D01*
X167056122Y-122724799D01*
X167207799Y-122573122D01*
X167386168Y-122453939D01*
X167584351Y-122371849D01*
X167794741Y-122330000D01*
X168009259Y-122330000D01*
X168219649Y-122371849D01*
X168219649Y-122371849D01*
G37*
G36*
X163139649Y-122371849D02*
X163337832Y-122453939D01*
X163516201Y-122573122D01*
X163667878Y-122724799D01*
X163787061Y-122903168D01*
X163869151Y-123101351D01*
X163911000Y-123311741D01*
X163911000Y-123526259D01*
X163869151Y-123736649D01*
X163787061Y-123934832D01*
X163667878Y-124113201D01*
X163516201Y-124264878D01*
X163337832Y-124384061D01*
X163139649Y-124466151D01*
X162929259Y-124508000D01*
X162714741Y-124508000D01*
X162504351Y-124466151D01*
X162306168Y-124384061D01*
X162127799Y-124264878D01*
X161976122Y-124113201D01*
X161856939Y-123934832D01*
X161774849Y-123736649D01*
X161733000Y-123526259D01*
X161733000Y-123311741D01*
X161774849Y-123101351D01*
X161856939Y-122903168D01*
X161976122Y-122724799D01*
X162127799Y-122573122D01*
X162306168Y-122453939D01*
X162504351Y-122371849D01*
X162714741Y-122330000D01*
X162929259Y-122330000D01*
X163139649Y-122371849D01*
X163139649Y-122371849D01*
G37*
G36*
X165679649Y-122371849D02*
X165877832Y-122453939D01*
X166056201Y-122573122D01*
X166207878Y-122724799D01*
X166327061Y-122903168D01*
X166409151Y-123101351D01*
X166451000Y-123311741D01*
X166451000Y-123526259D01*
X166409151Y-123736649D01*
X166327061Y-123934832D01*
X166207878Y-124113201D01*
X166056201Y-124264878D01*
X165877832Y-124384061D01*
X165679649Y-124466151D01*
X165469259Y-124508000D01*
X165254741Y-124508000D01*
X165044351Y-124466151D01*
X164846168Y-124384061D01*
X164667799Y-124264878D01*
X164516122Y-124113201D01*
X164396939Y-123934832D01*
X164314849Y-123736649D01*
X164273000Y-123526259D01*
X164273000Y-123311741D01*
X164314849Y-123101351D01*
X164396939Y-122903168D01*
X164516122Y-122724799D01*
X164667799Y-122573122D01*
X164846168Y-122453939D01*
X165044351Y-122371849D01*
X165254741Y-122330000D01*
X165469259Y-122330000D01*
X165679649Y-122371849D01*
X165679649Y-122371849D01*
G37*
G36*
X155519649Y-122371849D02*
X155717832Y-122453939D01*
X155896201Y-122573122D01*
X156047878Y-122724799D01*
X156167061Y-122903168D01*
X156249151Y-123101351D01*
X156291000Y-123311741D01*
X156291000Y-123526259D01*
X156249151Y-123736649D01*
X156167061Y-123934832D01*
X156047878Y-124113201D01*
X155896201Y-124264878D01*
X155717832Y-124384061D01*
X155519649Y-124466151D01*
X155309259Y-124508000D01*
X155094741Y-124508000D01*
X154884351Y-124466151D01*
X154686168Y-124384061D01*
X154507799Y-124264878D01*
X154356122Y-124113201D01*
X154236939Y-123934832D01*
X154154849Y-123736649D01*
X154113000Y-123526259D01*
X154113000Y-123311741D01*
X154154849Y-123101351D01*
X154236939Y-122903168D01*
X154356122Y-122724799D01*
X154507799Y-122573122D01*
X154686168Y-122453939D01*
X154884351Y-122371849D01*
X155094741Y-122330000D01*
X155309259Y-122330000D01*
X155519649Y-122371849D01*
X155519649Y-122371849D01*
G37*
G36*
X158059649Y-122371849D02*
X158257832Y-122453939D01*
X158436201Y-122573122D01*
X158587878Y-122724799D01*
X158707061Y-122903168D01*
X158789151Y-123101351D01*
X158831000Y-123311741D01*
X158831000Y-123526259D01*
X158789151Y-123736649D01*
X158707061Y-123934832D01*
X158587878Y-124113201D01*
X158436201Y-124264878D01*
X158257832Y-124384061D01*
X158059649Y-124466151D01*
X157849259Y-124508000D01*
X157634741Y-124508000D01*
X157424351Y-124466151D01*
X157226168Y-124384061D01*
X157047799Y-124264878D01*
X156896122Y-124113201D01*
X156776939Y-123934832D01*
X156694849Y-123736649D01*
X156653000Y-123526259D01*
X156653000Y-123311741D01*
X156694849Y-123101351D01*
X156776939Y-122903168D01*
X156896122Y-122724799D01*
X157047799Y-122573122D01*
X157226168Y-122453939D01*
X157424351Y-122371849D01*
X157634741Y-122330000D01*
X157849259Y-122330000D01*
X158059649Y-122371849D01*
X158059649Y-122371849D01*
G37*
G36*
X142819649Y-122371849D02*
X143017832Y-122453939D01*
X143196201Y-122573122D01*
X143347878Y-122724799D01*
X143467061Y-122903168D01*
X143549151Y-123101351D01*
X143591000Y-123311741D01*
X143591000Y-123526259D01*
X143549151Y-123736649D01*
X143467061Y-123934832D01*
X143347878Y-124113201D01*
X143196201Y-124264878D01*
X143017832Y-124384061D01*
X142819649Y-124466151D01*
X142609259Y-124508000D01*
X142394741Y-124508000D01*
X142184351Y-124466151D01*
X141986168Y-124384061D01*
X141807799Y-124264878D01*
X141656122Y-124113201D01*
X141536939Y-123934832D01*
X141454849Y-123736649D01*
X141413000Y-123526259D01*
X141413000Y-123311741D01*
X141454849Y-123101351D01*
X141536939Y-122903168D01*
X141656122Y-122724799D01*
X141807799Y-122573122D01*
X141986168Y-122453939D01*
X142184351Y-122371849D01*
X142394741Y-122330000D01*
X142609259Y-122330000D01*
X142819649Y-122371849D01*
X142819649Y-122371849D01*
G37*
G36*
X145359649Y-122371849D02*
X145557832Y-122453939D01*
X145736201Y-122573122D01*
X145887878Y-122724799D01*
X146007061Y-122903168D01*
X146089151Y-123101351D01*
X146131000Y-123311741D01*
X146131000Y-123526259D01*
X146089151Y-123736649D01*
X146007061Y-123934832D01*
X145887878Y-124113201D01*
X145736201Y-124264878D01*
X145557832Y-124384061D01*
X145359649Y-124466151D01*
X145149259Y-124508000D01*
X144934741Y-124508000D01*
X144724351Y-124466151D01*
X144526168Y-124384061D01*
X144347799Y-124264878D01*
X144196122Y-124113201D01*
X144076939Y-123934832D01*
X143994849Y-123736649D01*
X143953000Y-123526259D01*
X143953000Y-123311741D01*
X143994849Y-123101351D01*
X144076939Y-122903168D01*
X144196122Y-122724799D01*
X144347799Y-122573122D01*
X144526168Y-122453939D01*
X144724351Y-122371849D01*
X144934741Y-122330000D01*
X145149259Y-122330000D01*
X145359649Y-122371849D01*
X145359649Y-122371849D01*
G37*
G36*
X147899649Y-122371849D02*
X148097832Y-122453939D01*
X148276201Y-122573122D01*
X148427878Y-122724799D01*
X148547061Y-122903168D01*
X148629151Y-123101351D01*
X148671000Y-123311741D01*
X148671000Y-123526259D01*
X148629151Y-123736649D01*
X148547061Y-123934832D01*
X148427878Y-124113201D01*
X148276201Y-124264878D01*
X148097832Y-124384061D01*
X147899649Y-124466151D01*
X147689259Y-124508000D01*
X147474741Y-124508000D01*
X147264351Y-124466151D01*
X147066168Y-124384061D01*
X146887799Y-124264878D01*
X146736122Y-124113201D01*
X146616939Y-123934832D01*
X146534849Y-123736649D01*
X146493000Y-123526259D01*
X146493000Y-123311741D01*
X146534849Y-123101351D01*
X146616939Y-122903168D01*
X146736122Y-122724799D01*
X146887799Y-122573122D01*
X147066168Y-122453939D01*
X147264351Y-122371849D01*
X147474741Y-122330000D01*
X147689259Y-122330000D01*
X147899649Y-122371849D01*
X147899649Y-122371849D01*
G37*
G36*
X150439649Y-122371849D02*
X150637832Y-122453939D01*
X150816201Y-122573122D01*
X150967878Y-122724799D01*
X151087061Y-122903168D01*
X151169151Y-123101351D01*
X151211000Y-123311741D01*
X151211000Y-123526259D01*
X151169151Y-123736649D01*
X151087061Y-123934832D01*
X150967878Y-124113201D01*
X150816201Y-124264878D01*
X150637832Y-124384061D01*
X150439649Y-124466151D01*
X150229259Y-124508000D01*
X150014741Y-124508000D01*
X149804351Y-124466151D01*
X149606168Y-124384061D01*
X149427799Y-124264878D01*
X149276122Y-124113201D01*
X149156939Y-123934832D01*
X149074849Y-123736649D01*
X149033000Y-123526259D01*
X149033000Y-123311741D01*
X149074849Y-123101351D01*
X149156939Y-122903168D01*
X149276122Y-122724799D01*
X149427799Y-122573122D01*
X149606168Y-122453939D01*
X149804351Y-122371849D01*
X150014741Y-122330000D01*
X150229259Y-122330000D01*
X150439649Y-122371849D01*
X150439649Y-122371849D01*
G37*
G36*
X152979649Y-122371849D02*
X153177832Y-122453939D01*
X153356201Y-122573122D01*
X153507878Y-122724799D01*
X153627061Y-122903168D01*
X153709151Y-123101351D01*
X153751000Y-123311741D01*
X153751000Y-123526259D01*
X153709151Y-123736649D01*
X153627061Y-123934832D01*
X153507878Y-124113201D01*
X153356201Y-124264878D01*
X153177832Y-124384061D01*
X152979649Y-124466151D01*
X152769259Y-124508000D01*
X152554741Y-124508000D01*
X152344351Y-124466151D01*
X152146168Y-124384061D01*
X151967799Y-124264878D01*
X151816122Y-124113201D01*
X151696939Y-123934832D01*
X151614849Y-123736649D01*
X151573000Y-123526259D01*
X151573000Y-123311741D01*
X151614849Y-123101351D01*
X151696939Y-122903168D01*
X151816122Y-122724799D01*
X151967799Y-122573122D01*
X152146168Y-122453939D01*
X152344351Y-122371849D01*
X152554741Y-122330000D01*
X152769259Y-122330000D01*
X152979649Y-122371849D01*
X152979649Y-122371849D01*
G37*
G36*
X126470445Y-120097929D02*
X126606006Y-120124894D01*
X126989091Y-120283573D01*
X127331536Y-120512388D01*
X127333862Y-120513942D01*
X127627058Y-120807138D01*
X127627060Y-120807141D01*
X127857427Y-121151909D01*
X127857427Y-121151910D01*
X128016106Y-121534995D01*
X128076975Y-121841000D01*
X128097000Y-121941676D01*
X128097000Y-122356324D01*
X128016106Y-122763006D01*
X127857427Y-123146091D01*
X127628612Y-123488536D01*
X127627058Y-123490862D01*
X127333862Y-123784058D01*
X127333859Y-123784060D01*
X126989091Y-124014427D01*
X126606006Y-124173106D01*
X126470445Y-124200071D01*
X126199326Y-124254000D01*
X125784674Y-124254000D01*
X125513555Y-124200071D01*
X125377994Y-124173106D01*
X124994909Y-124014427D01*
X124650141Y-123784060D01*
X124650138Y-123784058D01*
X124356942Y-123490862D01*
X124355388Y-123488536D01*
X124126573Y-123146091D01*
X123967894Y-122763006D01*
X123887000Y-122356324D01*
X123887000Y-121941676D01*
X123907026Y-121841000D01*
X123967894Y-121534995D01*
X124126573Y-121151910D01*
X124126573Y-121151909D01*
X124356940Y-120807141D01*
X124356942Y-120807138D01*
X124650138Y-120513942D01*
X124652464Y-120512388D01*
X124994909Y-120283573D01*
X125377994Y-120124894D01*
X125513555Y-120097929D01*
X125784674Y-120044000D01*
X126199326Y-120044000D01*
X126470445Y-120097929D01*
X126470445Y-120097929D01*
G37*
G36*
X156367200Y-121841000D02*
X154036800Y-121841000D01*
X154036800Y-116107000D01*
X156367200Y-116107000D01*
X156367200Y-121841000D01*
X156367200Y-121841000D01*
G37*
G36*
X146702500Y-118424500D02*
X143779500Y-118424500D01*
X143755114Y-118426902D01*
X143731665Y-118434015D01*
X143710054Y-118445566D01*
X143691112Y-118461112D01*
X143675566Y-118480054D01*
X143664015Y-118501665D01*
X143656902Y-118525114D01*
X143654500Y-118549500D01*
X143654500Y-119601500D01*
X143656902Y-119625886D01*
X143664015Y-119649335D01*
X143675566Y-119670946D01*
X143691112Y-119689888D01*
X143710054Y-119705434D01*
X143731665Y-119716985D01*
X143755114Y-119724098D01*
X143779500Y-119726500D01*
X146702500Y-119726500D01*
X146702500Y-121015500D01*
X142365500Y-121015500D01*
X142365500Y-118202500D01*
X143764500Y-118202500D01*
X143788886Y-118200098D01*
X143812335Y-118192985D01*
X143833946Y-118181434D01*
X143852888Y-118165888D01*
X143868434Y-118146946D01*
X143879985Y-118125335D01*
X143887098Y-118101886D01*
X143889500Y-118077500D01*
X143889500Y-117135500D01*
X146702500Y-117135500D01*
X146702500Y-118424500D01*
X146702500Y-118424500D01*
G37*
G36*
X151909500Y-121015500D02*
X150620500Y-121015500D01*
X150620500Y-118202500D01*
X151909500Y-118202500D01*
X151909500Y-121015500D01*
X151909500Y-121015500D01*
G37*
G36*
X150359500Y-121015500D02*
X147546500Y-121015500D01*
X147546500Y-119726500D01*
X150359500Y-119726500D01*
X150359500Y-121015500D01*
X150359500Y-121015500D01*
G37*
G36*
X139717500Y-120253500D02*
X136904500Y-120253500D01*
X136904500Y-118964500D01*
X139717500Y-118964500D01*
X139717500Y-120253500D01*
X139717500Y-120253500D01*
G37*
G36*
X127277000Y-119609000D02*
X123877000Y-119609000D01*
X123877000Y-117709000D01*
X127277000Y-117709000D01*
X127277000Y-119609000D01*
X127277000Y-119609000D01*
G37*
G36*
X173192000Y-119101000D02*
X169792000Y-119101000D01*
X169792000Y-117201000D01*
X173192000Y-117201000D01*
X173192000Y-119101000D01*
X173192000Y-119101000D01*
G37*
G36*
X138511000Y-118539000D02*
X136841000Y-118539000D01*
X136841000Y-116869000D01*
X138511000Y-116869000D01*
X138511000Y-118539000D01*
X138511000Y-118539000D01*
G37*
G36*
X141051000Y-118539000D02*
X139381000Y-118539000D01*
X139381000Y-116869000D01*
X141051000Y-116869000D01*
X141051000Y-118539000D01*
X141051000Y-118539000D01*
G37*
G36*
X150359500Y-118424500D02*
X147546500Y-118424500D01*
X147546500Y-117135500D01*
X150359500Y-117135500D01*
X150359500Y-118424500D01*
X150359500Y-118424500D01*
G37*
G36*
X159529500Y-117205500D02*
X158240500Y-117205500D01*
X158240500Y-114392500D01*
X159529500Y-114392500D01*
X159529500Y-117205500D01*
X159529500Y-117205500D01*
G37*
G36*
X134647000Y-116964000D02*
X131507000Y-116964000D01*
X131507000Y-115554000D01*
X134647000Y-115554000D01*
X134647000Y-116964000D01*
X134647000Y-116964000D01*
G37*
G36*
X165562000Y-116456000D02*
X162422000Y-116456000D01*
X162422000Y-115046000D01*
X165562000Y-115046000D01*
X165562000Y-116456000D01*
X165562000Y-116456000D01*
G37*
G36*
X141241500Y-116316500D02*
X139952500Y-116316500D01*
X139952500Y-113503500D01*
X141241500Y-113503500D01*
X141241500Y-116316500D01*
X141241500Y-116316500D01*
G37*
G36*
X144824500Y-115318000D02*
X143027500Y-115318000D01*
X143027500Y-106120000D01*
X144824500Y-106120000D01*
X144824500Y-115318000D01*
X144824500Y-115318000D01*
G37*
G36*
X152136500Y-115318000D02*
X150339500Y-115318000D01*
X150339500Y-106120000D01*
X152136500Y-106120000D01*
X152136500Y-115318000D01*
X152136500Y-115318000D01*
G37*
G36*
X138828500Y-115173500D02*
X136015500Y-115173500D01*
X136015500Y-113884500D01*
X138828500Y-113884500D01*
X138828500Y-115173500D01*
X138828500Y-115173500D01*
G37*
G36*
X134647000Y-114964000D02*
X131507000Y-114964000D01*
X131507000Y-113554000D01*
X134647000Y-113554000D01*
X134647000Y-114964000D01*
X134647000Y-114964000D01*
G37*
G36*
X165562000Y-114456000D02*
X162422000Y-114456000D01*
X162422000Y-113046000D01*
X165562000Y-113046000D01*
X165562000Y-114456000D01*
X165562000Y-114456000D01*
G37*
G36*
X159529500Y-114030500D02*
X158240500Y-114030500D01*
X158240500Y-111217500D01*
X159529500Y-111217500D01*
X159529500Y-114030500D01*
X159529500Y-114030500D01*
G37*
G36*
X141241500Y-113014500D02*
X139952500Y-113014500D01*
X139952500Y-110201500D01*
X141241500Y-110201500D01*
X141241500Y-113014500D01*
X141241500Y-113014500D01*
G37*
G36*
X134647000Y-112964000D02*
X131507000Y-112964000D01*
X131507000Y-111554000D01*
X134647000Y-111554000D01*
X134647000Y-112964000D01*
X134647000Y-112964000D01*
G37*
G36*
X138828500Y-112633500D02*
X136015500Y-112633500D01*
X136015500Y-111344500D01*
X138828500Y-111344500D01*
X138828500Y-112633500D01*
X138828500Y-112633500D01*
G37*
G36*
X165562000Y-112456000D02*
X162422000Y-112456000D01*
X162422000Y-111046000D01*
X165562000Y-111046000D01*
X165562000Y-112456000D01*
X165562000Y-112456000D01*
G37*
G36*
X156367200Y-112189000D02*
X154036800Y-112189000D01*
X154036800Y-106455000D01*
X156367200Y-106455000D01*
X156367200Y-112189000D01*
X156367200Y-112189000D01*
G37*
G36*
X134647000Y-110964000D02*
X131507000Y-110964000D01*
X131507000Y-109554000D01*
X134647000Y-109554000D01*
X134647000Y-110964000D01*
X134647000Y-110964000D01*
G37*
G36*
X165562000Y-110456000D02*
X162422000Y-110456000D01*
X162422000Y-109046000D01*
X165562000Y-109046000D01*
X165562000Y-110456000D01*
X165562000Y-110456000D01*
G37*
G36*
X141622500Y-109839500D02*
X138809500Y-109839500D01*
X138809500Y-108550500D01*
X141622500Y-108550500D01*
X141622500Y-109839500D01*
X141622500Y-109839500D01*
G37*
G36*
X127277000Y-108809000D02*
X123877000Y-108809000D01*
X123877000Y-106909000D01*
X127277000Y-106909000D01*
X127277000Y-108809000D01*
X127277000Y-108809000D01*
G37*
G36*
X173192000Y-108301000D02*
X169792000Y-108301000D01*
X169792000Y-106401000D01*
X173192000Y-106401000D01*
X173192000Y-108301000D01*
X173192000Y-108301000D01*
G37*
G36*
X141622500Y-108061500D02*
X138809500Y-108061500D01*
X138809500Y-106772500D01*
X141622500Y-106772500D01*
X141622500Y-108061500D01*
X141622500Y-108061500D01*
G37*
G36*
X159656500Y-107934500D02*
X158367500Y-107934500D01*
X158367500Y-105121500D01*
X159656500Y-105121500D01*
X159656500Y-107934500D01*
X159656500Y-107934500D01*
G37*
G36*
X158005500Y-107934500D02*
X156716500Y-107934500D01*
X156716500Y-105121500D01*
X158005500Y-105121500D01*
X158005500Y-107934500D01*
X158005500Y-107934500D01*
G37*
G36*
X162831500Y-107934500D02*
X160018500Y-107934500D01*
X160018500Y-105121500D01*
X162831500Y-105121500D01*
X162831500Y-107934500D01*
X162831500Y-107934500D01*
G37*
G36*
X126470445Y-102317929D02*
X126606006Y-102344894D01*
X126989091Y-102503573D01*
X127331536Y-102732388D01*
X127333862Y-102733942D01*
X127627058Y-103027138D01*
X127627060Y-103027141D01*
X127857427Y-103371909D01*
X127857427Y-103371910D01*
X128016106Y-103754995D01*
X128097000Y-104161674D01*
X128097000Y-104576326D01*
X128043071Y-104847445D01*
X128016106Y-104983006D01*
X127857427Y-105366091D01*
X127628612Y-105708536D01*
X127627058Y-105710862D01*
X127333862Y-106004058D01*
X127333859Y-106004060D01*
X126989091Y-106234427D01*
X126606006Y-106393106D01*
X126518560Y-106410500D01*
X126199326Y-106474000D01*
X125784674Y-106474000D01*
X125465440Y-106410500D01*
X125377994Y-106393106D01*
X124994909Y-106234427D01*
X124650141Y-106004060D01*
X124650138Y-106004058D01*
X124356942Y-105710862D01*
X124355388Y-105708536D01*
X124126573Y-105366091D01*
X123967894Y-104983006D01*
X123940929Y-104847445D01*
X123887000Y-104576326D01*
X123887000Y-104161674D01*
X123967894Y-103754995D01*
X124126573Y-103371910D01*
X124126573Y-103371909D01*
X124356940Y-103027141D01*
X124356942Y-103027138D01*
X124650138Y-102733942D01*
X124652464Y-102732388D01*
X124994909Y-102503573D01*
X125377994Y-102344894D01*
X125513555Y-102317929D01*
X125784674Y-102264000D01*
X126199326Y-102264000D01*
X126470445Y-102317929D01*
X126470445Y-102317929D01*
G37*
G36*
X141432000Y-106347000D02*
X139762000Y-106347000D01*
X139762000Y-104677000D01*
X141432000Y-104677000D01*
X141432000Y-106347000D01*
X141432000Y-106347000D01*
G37*
G36*
X138892000Y-106347000D02*
X137222000Y-106347000D01*
X137222000Y-104677000D01*
X138892000Y-104677000D01*
X138892000Y-106347000D01*
X138892000Y-106347000D01*
G37*
G36*
X155519649Y-102051849D02*
X155717832Y-102133939D01*
X155896201Y-102253122D01*
X156047878Y-102404799D01*
X156167061Y-102583168D01*
X156249151Y-102781351D01*
X156291000Y-102991741D01*
X156291000Y-103206259D01*
X156249151Y-103416649D01*
X156167061Y-103614832D01*
X156047878Y-103793201D01*
X155896201Y-103944878D01*
X155717832Y-104064061D01*
X155519649Y-104146151D01*
X155309259Y-104188000D01*
X155094741Y-104188000D01*
X154884351Y-104146151D01*
X154686168Y-104064061D01*
X154507799Y-103944878D01*
X154356122Y-103793201D01*
X154236939Y-103614832D01*
X154154849Y-103416649D01*
X154113000Y-103206259D01*
X154113000Y-102991741D01*
X154154849Y-102781351D01*
X154236939Y-102583168D01*
X154356122Y-102404799D01*
X154507799Y-102253122D01*
X154686168Y-102133939D01*
X154884351Y-102051849D01*
X155094741Y-102010000D01*
X155309259Y-102010000D01*
X155519649Y-102051849D01*
X155519649Y-102051849D01*
G37*
G36*
X168219649Y-102051849D02*
X168417832Y-102133939D01*
X168596201Y-102253122D01*
X168747878Y-102404799D01*
X168867061Y-102583168D01*
X168949151Y-102781351D01*
X168991000Y-102991741D01*
X168991000Y-103206259D01*
X168949151Y-103416649D01*
X168867061Y-103614832D01*
X168747878Y-103793201D01*
X168596201Y-103944878D01*
X168417832Y-104064061D01*
X168219649Y-104146151D01*
X168009259Y-104188000D01*
X167794741Y-104188000D01*
X167584351Y-104146151D01*
X167386168Y-104064061D01*
X167207799Y-103944878D01*
X167056122Y-103793201D01*
X166936939Y-103614832D01*
X166854849Y-103416649D01*
X166813000Y-103206259D01*
X166813000Y-102991741D01*
X166854849Y-102781351D01*
X166936939Y-102583168D01*
X167056122Y-102404799D01*
X167207799Y-102253122D01*
X167386168Y-102133939D01*
X167584351Y-102051849D01*
X167794741Y-102010000D01*
X168009259Y-102010000D01*
X168219649Y-102051849D01*
X168219649Y-102051849D01*
G37*
G36*
X165679649Y-102051849D02*
X165877832Y-102133939D01*
X166056201Y-102253122D01*
X166207878Y-102404799D01*
X166327061Y-102583168D01*
X166409151Y-102781351D01*
X166451000Y-102991741D01*
X166451000Y-103206259D01*
X166409151Y-103416649D01*
X166327061Y-103614832D01*
X166207878Y-103793201D01*
X166056201Y-103944878D01*
X165877832Y-104064061D01*
X165679649Y-104146151D01*
X165469259Y-104188000D01*
X165254741Y-104188000D01*
X165044351Y-104146151D01*
X164846168Y-104064061D01*
X164667799Y-103944878D01*
X164516122Y-103793201D01*
X164396939Y-103614832D01*
X164314849Y-103416649D01*
X164273000Y-103206259D01*
X164273000Y-102991741D01*
X164314849Y-102781351D01*
X164396939Y-102583168D01*
X164516122Y-102404799D01*
X164667799Y-102253122D01*
X164846168Y-102133939D01*
X165044351Y-102051849D01*
X165254741Y-102010000D01*
X165469259Y-102010000D01*
X165679649Y-102051849D01*
X165679649Y-102051849D01*
G37*
G36*
X163139649Y-102051849D02*
X163337832Y-102133939D01*
X163516201Y-102253122D01*
X163667878Y-102404799D01*
X163787061Y-102583168D01*
X163869151Y-102781351D01*
X163911000Y-102991741D01*
X163911000Y-103206259D01*
X163869151Y-103416649D01*
X163787061Y-103614832D01*
X163667878Y-103793201D01*
X163516201Y-103944878D01*
X163337832Y-104064061D01*
X163139649Y-104146151D01*
X162929259Y-104188000D01*
X162714741Y-104188000D01*
X162504351Y-104146151D01*
X162306168Y-104064061D01*
X162127799Y-103944878D01*
X161976122Y-103793201D01*
X161856939Y-103614832D01*
X161774849Y-103416649D01*
X161733000Y-103206259D01*
X161733000Y-102991741D01*
X161774849Y-102781351D01*
X161856939Y-102583168D01*
X161976122Y-102404799D01*
X162127799Y-102253122D01*
X162306168Y-102133939D01*
X162504351Y-102051849D01*
X162714741Y-102010000D01*
X162929259Y-102010000D01*
X163139649Y-102051849D01*
X163139649Y-102051849D01*
G37*
G36*
X160599649Y-102051849D02*
X160797832Y-102133939D01*
X160976201Y-102253122D01*
X161127878Y-102404799D01*
X161247061Y-102583168D01*
X161329151Y-102781351D01*
X161371000Y-102991741D01*
X161371000Y-103206259D01*
X161329151Y-103416649D01*
X161247061Y-103614832D01*
X161127878Y-103793201D01*
X160976201Y-103944878D01*
X160797832Y-104064061D01*
X160599649Y-104146151D01*
X160389259Y-104188000D01*
X160174741Y-104188000D01*
X159964351Y-104146151D01*
X159766168Y-104064061D01*
X159587799Y-103944878D01*
X159436122Y-103793201D01*
X159316939Y-103614832D01*
X159234849Y-103416649D01*
X159193000Y-103206259D01*
X159193000Y-102991741D01*
X159234849Y-102781351D01*
X159316939Y-102583168D01*
X159436122Y-102404799D01*
X159587799Y-102253122D01*
X159766168Y-102133939D01*
X159964351Y-102051849D01*
X160174741Y-102010000D01*
X160389259Y-102010000D01*
X160599649Y-102051849D01*
X160599649Y-102051849D01*
G37*
G36*
X158059649Y-102051849D02*
X158257832Y-102133939D01*
X158436201Y-102253122D01*
X158587878Y-102404799D01*
X158707061Y-102583168D01*
X158789151Y-102781351D01*
X158831000Y-102991741D01*
X158831000Y-103206259D01*
X158789151Y-103416649D01*
X158707061Y-103614832D01*
X158587878Y-103793201D01*
X158436201Y-103944878D01*
X158257832Y-104064061D01*
X158059649Y-104146151D01*
X157849259Y-104188000D01*
X157634741Y-104188000D01*
X157424351Y-104146151D01*
X157226168Y-104064061D01*
X157047799Y-103944878D01*
X156896122Y-103793201D01*
X156776939Y-103614832D01*
X156694849Y-103416649D01*
X156653000Y-103206259D01*
X156653000Y-102991741D01*
X156694849Y-102781351D01*
X156776939Y-102583168D01*
X156896122Y-102404799D01*
X157047799Y-102253122D01*
X157226168Y-102133939D01*
X157424351Y-102051849D01*
X157634741Y-102010000D01*
X157849259Y-102010000D01*
X158059649Y-102051849D01*
X158059649Y-102051849D01*
G37*
G36*
X152979649Y-102051849D02*
X153177832Y-102133939D01*
X153356201Y-102253122D01*
X153507878Y-102404799D01*
X153627061Y-102583168D01*
X153709151Y-102781351D01*
X153751000Y-102991741D01*
X153751000Y-103206259D01*
X153709151Y-103416649D01*
X153627061Y-103614832D01*
X153507878Y-103793201D01*
X153356201Y-103944878D01*
X153177832Y-104064061D01*
X152979649Y-104146151D01*
X152769259Y-104188000D01*
X152554741Y-104188000D01*
X152344351Y-104146151D01*
X152146168Y-104064061D01*
X151967799Y-103944878D01*
X151816122Y-103793201D01*
X151696939Y-103614832D01*
X151614849Y-103416649D01*
X151573000Y-103206259D01*
X151573000Y-102991741D01*
X151614849Y-102781351D01*
X151696939Y-102583168D01*
X151816122Y-102404799D01*
X151967799Y-102253122D01*
X152146168Y-102133939D01*
X152344351Y-102051849D01*
X152554741Y-102010000D01*
X152769259Y-102010000D01*
X152979649Y-102051849D01*
X152979649Y-102051849D01*
G37*
G36*
X150439649Y-102051849D02*
X150637832Y-102133939D01*
X150816201Y-102253122D01*
X150967878Y-102404799D01*
X151087061Y-102583168D01*
X151169151Y-102781351D01*
X151211000Y-102991741D01*
X151211000Y-103206259D01*
X151169151Y-103416649D01*
X151087061Y-103614832D01*
X150967878Y-103793201D01*
X150816201Y-103944878D01*
X150637832Y-104064061D01*
X150439649Y-104146151D01*
X150229259Y-104188000D01*
X150014741Y-104188000D01*
X149804351Y-104146151D01*
X149606168Y-104064061D01*
X149427799Y-103944878D01*
X149276122Y-103793201D01*
X149156939Y-103614832D01*
X149074849Y-103416649D01*
X149033000Y-103206259D01*
X149033000Y-102991741D01*
X149074849Y-102781351D01*
X149156939Y-102583168D01*
X149276122Y-102404799D01*
X149427799Y-102253122D01*
X149606168Y-102133939D01*
X149804351Y-102051849D01*
X150014741Y-102010000D01*
X150229259Y-102010000D01*
X150439649Y-102051849D01*
X150439649Y-102051849D01*
G37*
G36*
X147899649Y-102051849D02*
X148097832Y-102133939D01*
X148276201Y-102253122D01*
X148427878Y-102404799D01*
X148547061Y-102583168D01*
X148629151Y-102781351D01*
X148671000Y-102991741D01*
X148671000Y-103206259D01*
X148629151Y-103416649D01*
X148547061Y-103614832D01*
X148427878Y-103793201D01*
X148276201Y-103944878D01*
X148097832Y-104064061D01*
X147899649Y-104146151D01*
X147689259Y-104188000D01*
X147474741Y-104188000D01*
X147264351Y-104146151D01*
X147066168Y-104064061D01*
X146887799Y-103944878D01*
X146736122Y-103793201D01*
X146616939Y-103614832D01*
X146534849Y-103416649D01*
X146493000Y-103206259D01*
X146493000Y-102991741D01*
X146534849Y-102781351D01*
X146616939Y-102583168D01*
X146736122Y-102404799D01*
X146887799Y-102253122D01*
X147066168Y-102133939D01*
X147264351Y-102051849D01*
X147474741Y-102010000D01*
X147689259Y-102010000D01*
X147899649Y-102051849D01*
X147899649Y-102051849D01*
G37*
G36*
X145359649Y-102051849D02*
X145557832Y-102133939D01*
X145736201Y-102253122D01*
X145887878Y-102404799D01*
X146007061Y-102583168D01*
X146089151Y-102781351D01*
X146131000Y-102991741D01*
X146131000Y-103206259D01*
X146089151Y-103416649D01*
X146007061Y-103614832D01*
X145887878Y-103793201D01*
X145736201Y-103944878D01*
X145557832Y-104064061D01*
X145359649Y-104146151D01*
X145149259Y-104188000D01*
X144934741Y-104188000D01*
X144724351Y-104146151D01*
X144526168Y-104064061D01*
X144347799Y-103944878D01*
X144196122Y-103793201D01*
X144076939Y-103614832D01*
X143994849Y-103416649D01*
X143953000Y-103206259D01*
X143953000Y-102991741D01*
X143994849Y-102781351D01*
X144076939Y-102583168D01*
X144196122Y-102404799D01*
X144347799Y-102253122D01*
X144526168Y-102133939D01*
X144724351Y-102051849D01*
X144934741Y-102010000D01*
X145149259Y-102010000D01*
X145359649Y-102051849D01*
X145359649Y-102051849D01*
G37*
G36*
X142819649Y-102051849D02*
X143017832Y-102133939D01*
X143196201Y-102253122D01*
X143347878Y-102404799D01*
X143467061Y-102583168D01*
X143549151Y-102781351D01*
X143591000Y-102991741D01*
X143591000Y-103206259D01*
X143549151Y-103416649D01*
X143467061Y-103614832D01*
X143347878Y-103793201D01*
X143196201Y-103944878D01*
X143017832Y-104064061D01*
X142819649Y-104146151D01*
X142609259Y-104188000D01*
X142394741Y-104188000D01*
X142184351Y-104146151D01*
X141986168Y-104064061D01*
X141807799Y-103944878D01*
X141656122Y-103793201D01*
X141536939Y-103614832D01*
X141454849Y-103416649D01*
X141413000Y-103206259D01*
X141413000Y-102991741D01*
X141454849Y-102781351D01*
X141536939Y-102583168D01*
X141656122Y-102404799D01*
X141807799Y-102253122D01*
X141986168Y-102133939D01*
X142184351Y-102051849D01*
X142394741Y-102010000D01*
X142609259Y-102010000D01*
X142819649Y-102051849D01*
X142819649Y-102051849D01*
G37*
G36*
X140279649Y-102051849D02*
X140477832Y-102133939D01*
X140656201Y-102253122D01*
X140807878Y-102404799D01*
X140927061Y-102583168D01*
X141009151Y-102781351D01*
X141051000Y-102991741D01*
X141051000Y-103206259D01*
X141009151Y-103416649D01*
X140927061Y-103614832D01*
X140807878Y-103793201D01*
X140656201Y-103944878D01*
X140477832Y-104064061D01*
X140279649Y-104146151D01*
X140069259Y-104188000D01*
X139854741Y-104188000D01*
X139644351Y-104146151D01*
X139446168Y-104064061D01*
X139267799Y-103944878D01*
X139116122Y-103793201D01*
X138996939Y-103614832D01*
X138914849Y-103416649D01*
X138873000Y-103206259D01*
X138873000Y-102991741D01*
X138914849Y-102781351D01*
X138996939Y-102583168D01*
X139116122Y-102404799D01*
X139267799Y-102253122D01*
X139446168Y-102133939D01*
X139644351Y-102051849D01*
X139854741Y-102010000D01*
X140069259Y-102010000D01*
X140279649Y-102051849D01*
X140279649Y-102051849D01*
G37*
G36*
X166897000Y-101308600D02*
X163697000Y-101308600D01*
X163697000Y-98508600D01*
X166897000Y-98508600D01*
X166897000Y-101308600D01*
X166897000Y-101308600D01*
G37*
G36*
X172997000Y-101308600D02*
X169797000Y-101308600D01*
X169797000Y-98508600D01*
X172997000Y-98508600D01*
X172997000Y-101308600D01*
X172997000Y-101308600D01*
G37*
G36*
X129316000Y-101255000D02*
X125716000Y-101255000D01*
X125716000Y-99355000D01*
X129316000Y-99355000D01*
X129316000Y-101255000D01*
X129316000Y-101255000D01*
G37*
G36*
X157624500Y-101203500D02*
X154811500Y-101203500D01*
X154811500Y-99914500D01*
X157624500Y-99914500D01*
X157624500Y-101203500D01*
X157624500Y-101203500D01*
G37*
G36*
X131970500Y-101203500D02*
X130173500Y-101203500D01*
X130173500Y-99406500D01*
X131970500Y-99406500D01*
X131970500Y-101203500D01*
X131970500Y-101203500D01*
G37*
G36*
X135272500Y-101203500D02*
X133475500Y-101203500D01*
X133475500Y-99406500D01*
X135272500Y-99406500D01*
X135272500Y-101203500D01*
X135272500Y-101203500D01*
G37*
G36*
X150406500Y-101203500D02*
X147593500Y-101203500D01*
X147593500Y-99914500D01*
X150406500Y-99914500D01*
X150406500Y-101203500D01*
X150406500Y-101203500D01*
G37*
G36*
X161561500Y-101203500D02*
X158748500Y-101203500D01*
X158748500Y-99914500D01*
X161561500Y-99914500D01*
X161561500Y-101203500D01*
X161561500Y-101203500D01*
G37*
G36*
X152227000Y-101203500D02*
X151065000Y-101203500D01*
X151065000Y-99914500D01*
X152227000Y-99914500D01*
X152227000Y-101203500D01*
X152227000Y-101203500D01*
G37*
G36*
X153751000Y-101203500D02*
X152589000Y-101203500D01*
X152589000Y-99914500D01*
X153751000Y-99914500D01*
X153751000Y-101203500D01*
X153751000Y-101203500D01*
G37*
G36*
X147250000Y-100504600D02*
X144564000Y-100504600D01*
X144564000Y-98834600D01*
X147250000Y-98834600D01*
X147250000Y-100504600D01*
X147250000Y-100504600D01*
G37*
G36*
X140836500Y-99361600D02*
X138277500Y-99361600D01*
X138277500Y-95405600D01*
X140836500Y-95405600D01*
X140836500Y-99361600D01*
X140836500Y-99361600D01*
G37*
G36*
X154239000Y-98930600D02*
X151339000Y-98930600D01*
X151339000Y-94230600D01*
X154239000Y-94230600D01*
X154239000Y-98930600D01*
X154239000Y-98930600D01*
G37*
G36*
X136400000Y-98800000D02*
X133200000Y-98800000D01*
X133200000Y-95600000D01*
X136400000Y-95600000D01*
X136400000Y-98800000D01*
X136400000Y-98800000D01*
G37*
G36*
X126700000Y-98800000D02*
X124100000Y-98800000D01*
X124100000Y-95600000D01*
X126700000Y-95600000D01*
X126700000Y-98800000D01*
X126700000Y-98800000D01*
G37*
G36*
X147250000Y-98218600D02*
X144564000Y-98218600D01*
X144564000Y-96548600D01*
X147250000Y-96548600D01*
X147250000Y-98218600D01*
X147250000Y-98218600D01*
G37*
G36*
X160582000Y-97066600D02*
X158712000Y-97066600D01*
X158712000Y-95396600D01*
X160582000Y-95396600D01*
X160582000Y-97066600D01*
X160582000Y-97066600D01*
G37*
G36*
X147250000Y-95932600D02*
X144564000Y-95932600D01*
X144564000Y-94262600D01*
X147250000Y-94262600D01*
X147250000Y-95932600D01*
X147250000Y-95932600D01*
G37*
G36*
X133625888Y-92454470D02*
X133806274Y-92490350D01*
X133997362Y-92569502D01*
X134169336Y-92684411D01*
X134315589Y-92830664D01*
X134430498Y-93002638D01*
X134509650Y-93193726D01*
X134550000Y-93396584D01*
X134550000Y-93603416D01*
X134509650Y-93806274D01*
X134430498Y-93997362D01*
X134315589Y-94169336D01*
X134169336Y-94315589D01*
X133997362Y-94430498D01*
X133806274Y-94509650D01*
X133625888Y-94545530D01*
X133603417Y-94550000D01*
X133396583Y-94550000D01*
X133374112Y-94545530D01*
X133193726Y-94509650D01*
X133002638Y-94430498D01*
X132830664Y-94315589D01*
X132684411Y-94169336D01*
X132569502Y-93997362D01*
X132490350Y-93806274D01*
X132450000Y-93603416D01*
X132450000Y-93396584D01*
X132490350Y-93193726D01*
X132569502Y-93002638D01*
X132684411Y-92830664D01*
X132830664Y-92684411D01*
X133002638Y-92569502D01*
X133193726Y-92490350D01*
X133374112Y-92454470D01*
X133396583Y-92450000D01*
X133603417Y-92450000D01*
X133625888Y-92454470D01*
X133625888Y-92454470D01*
G37*
G36*
X126625888Y-92454470D02*
X126806274Y-92490350D01*
X126997362Y-92569502D01*
X127169336Y-92684411D01*
X127315589Y-92830664D01*
X127430498Y-93002638D01*
X127509650Y-93193726D01*
X127550000Y-93396584D01*
X127550000Y-93603416D01*
X127509650Y-93806274D01*
X127430498Y-93997362D01*
X127315589Y-94169336D01*
X127169336Y-94315589D01*
X126997362Y-94430498D01*
X126806274Y-94509650D01*
X126625888Y-94545530D01*
X126603417Y-94550000D01*
X126396583Y-94550000D01*
X126374112Y-94545530D01*
X126193726Y-94509650D01*
X126002638Y-94430498D01*
X125830664Y-94315589D01*
X125684411Y-94169336D01*
X125569502Y-93997362D01*
X125490350Y-93806274D01*
X125450000Y-93603416D01*
X125450000Y-93396584D01*
X125490350Y-93193726D01*
X125569502Y-93002638D01*
X125684411Y-92830664D01*
X125830664Y-92684411D01*
X126002638Y-92569502D01*
X126193726Y-92490350D01*
X126374112Y-92454470D01*
X126396583Y-92450000D01*
X126603417Y-92450000D01*
X126625888Y-92454470D01*
X126625888Y-92454470D01*
G37*
G36*
X160582000Y-92766600D02*
X158712000Y-92766600D01*
X158712000Y-91096600D01*
X160582000Y-91096600D01*
X160582000Y-92766600D01*
X160582000Y-92766600D01*
G37*
G36*
X128700000Y-91400000D02*
X126100000Y-91400000D01*
X126100000Y-88200000D01*
X128700000Y-88200000D01*
X128700000Y-91400000D01*
X128700000Y-91400000D01*
G37*
G36*
X154239000Y-90630600D02*
X151339000Y-90630600D01*
X151339000Y-85930600D01*
X154239000Y-85930600D01*
X154239000Y-90630600D01*
X154239000Y-90630600D01*
G37*
G36*
X147025000Y-90509600D02*
X143125000Y-90509600D01*
X143125000Y-88509600D01*
X147025000Y-88509600D01*
X147025000Y-90509600D01*
X147025000Y-90509600D01*
G37*
G36*
X141625000Y-90509600D02*
X137725000Y-90509600D01*
X137725000Y-88509600D01*
X141625000Y-88509600D01*
X141625000Y-90509600D01*
X141625000Y-90509600D01*
G37*
G36*
X166897000Y-89908600D02*
X163697000Y-89908600D01*
X163697000Y-87108600D01*
X166897000Y-87108600D01*
X166897000Y-89908600D01*
X166897000Y-89908600D01*
G37*
G36*
X172997000Y-89908600D02*
X169797000Y-89908600D01*
X169797000Y-87108600D01*
X172997000Y-87108600D01*
X172997000Y-89908600D01*
X172997000Y-89908600D01*
G37*
G36*
X160291500Y-89646100D02*
X159002500Y-89646100D01*
X159002500Y-86833100D01*
X160291500Y-86833100D01*
X160291500Y-89646100D01*
X160291500Y-89646100D01*
G37*
G36*
X137144500Y-88906500D02*
X135855500Y-88906500D01*
X135855500Y-86093500D01*
X137144500Y-86093500D01*
X137144500Y-88906500D01*
X137144500Y-88906500D01*
G37*
M02*
