G04 #@! TF.GenerationSoftware,KiCad,Pcbnew,(2018-02-15 revision 29b28de31)-makepkg*
G04 #@! TF.CreationDate,2019-09-05T06:32:13+03:00*
G04 #@! TF.ProjectId,ATM90E26_Featherwing,41544D39304532365F46656174686572,rev?*
G04 #@! TF.SameCoordinates,Original*
G04 #@! TF.FileFunction,Soldermask,Bot*
G04 #@! TF.FilePolarity,Negative*
%FSLAX46Y46*%
G04 Gerber Fmt 4.6, Leading zero omitted, Abs format (unit mm)*
G04 Created by KiCad (PCBNEW (2018-02-15 revision 29b28de31)-makepkg) date 09/05/19 06:32:13*
%MOMM*%
%LPD*%
G01*
G04 APERTURE LIST*
%ADD10C,0.100000*%
G04 APERTURE END LIST*
D10*
G36*
X145359649Y-122371849D02*
X145557832Y-122453939D01*
X145736201Y-122573122D01*
X145887878Y-122724799D01*
X146007061Y-122903168D01*
X146089151Y-123101351D01*
X146131000Y-123311741D01*
X146131000Y-123526259D01*
X146089151Y-123736649D01*
X146007061Y-123934832D01*
X145887878Y-124113201D01*
X145736201Y-124264878D01*
X145557832Y-124384061D01*
X145359649Y-124466151D01*
X145149259Y-124508000D01*
X144934741Y-124508000D01*
X144724351Y-124466151D01*
X144526168Y-124384061D01*
X144347799Y-124264878D01*
X144196122Y-124113201D01*
X144076939Y-123934832D01*
X143994849Y-123736649D01*
X143953000Y-123526259D01*
X143953000Y-123311741D01*
X143994849Y-123101351D01*
X144076939Y-122903168D01*
X144196122Y-122724799D01*
X144347799Y-122573122D01*
X144526168Y-122453939D01*
X144724351Y-122371849D01*
X144934741Y-122330000D01*
X145149259Y-122330000D01*
X145359649Y-122371849D01*
X145359649Y-122371849D01*
G37*
G36*
X158059649Y-122371849D02*
X158257832Y-122453939D01*
X158436201Y-122573122D01*
X158587878Y-122724799D01*
X158707061Y-122903168D01*
X158789151Y-123101351D01*
X158831000Y-123311741D01*
X158831000Y-123526259D01*
X158789151Y-123736649D01*
X158707061Y-123934832D01*
X158587878Y-124113201D01*
X158436201Y-124264878D01*
X158257832Y-124384061D01*
X158059649Y-124466151D01*
X157849259Y-124508000D01*
X157634741Y-124508000D01*
X157424351Y-124466151D01*
X157226168Y-124384061D01*
X157047799Y-124264878D01*
X156896122Y-124113201D01*
X156776939Y-123934832D01*
X156694849Y-123736649D01*
X156653000Y-123526259D01*
X156653000Y-123311741D01*
X156694849Y-123101351D01*
X156776939Y-122903168D01*
X156896122Y-122724799D01*
X157047799Y-122573122D01*
X157226168Y-122453939D01*
X157424351Y-122371849D01*
X157634741Y-122330000D01*
X157849259Y-122330000D01*
X158059649Y-122371849D01*
X158059649Y-122371849D01*
G37*
G36*
X140279649Y-122371849D02*
X140477832Y-122453939D01*
X140656201Y-122573122D01*
X140807878Y-122724799D01*
X140927061Y-122903168D01*
X141009151Y-123101351D01*
X141051000Y-123311741D01*
X141051000Y-123526259D01*
X141009151Y-123736649D01*
X140927061Y-123934832D01*
X140807878Y-124113201D01*
X140656201Y-124264878D01*
X140477832Y-124384061D01*
X140279649Y-124466151D01*
X140069259Y-124508000D01*
X139854741Y-124508000D01*
X139644351Y-124466151D01*
X139446168Y-124384061D01*
X139267799Y-124264878D01*
X139116122Y-124113201D01*
X138996939Y-123934832D01*
X138914849Y-123736649D01*
X138873000Y-123526259D01*
X138873000Y-123311741D01*
X138914849Y-123101351D01*
X138996939Y-122903168D01*
X139116122Y-122724799D01*
X139267799Y-122573122D01*
X139446168Y-122453939D01*
X139644351Y-122371849D01*
X139854741Y-122330000D01*
X140069259Y-122330000D01*
X140279649Y-122371849D01*
X140279649Y-122371849D01*
G37*
G36*
X142819649Y-122371849D02*
X143017832Y-122453939D01*
X143196201Y-122573122D01*
X143347878Y-122724799D01*
X143467061Y-122903168D01*
X143549151Y-123101351D01*
X143591000Y-123311741D01*
X143591000Y-123526259D01*
X143549151Y-123736649D01*
X143467061Y-123934832D01*
X143347878Y-124113201D01*
X143196201Y-124264878D01*
X143017832Y-124384061D01*
X142819649Y-124466151D01*
X142609259Y-124508000D01*
X142394741Y-124508000D01*
X142184351Y-124466151D01*
X141986168Y-124384061D01*
X141807799Y-124264878D01*
X141656122Y-124113201D01*
X141536939Y-123934832D01*
X141454849Y-123736649D01*
X141413000Y-123526259D01*
X141413000Y-123311741D01*
X141454849Y-123101351D01*
X141536939Y-122903168D01*
X141656122Y-122724799D01*
X141807799Y-122573122D01*
X141986168Y-122453939D01*
X142184351Y-122371849D01*
X142394741Y-122330000D01*
X142609259Y-122330000D01*
X142819649Y-122371849D01*
X142819649Y-122371849D01*
G37*
G36*
X147899649Y-122371849D02*
X148097832Y-122453939D01*
X148276201Y-122573122D01*
X148427878Y-122724799D01*
X148547061Y-122903168D01*
X148629151Y-123101351D01*
X148671000Y-123311741D01*
X148671000Y-123526259D01*
X148629151Y-123736649D01*
X148547061Y-123934832D01*
X148427878Y-124113201D01*
X148276201Y-124264878D01*
X148097832Y-124384061D01*
X147899649Y-124466151D01*
X147689259Y-124508000D01*
X147474741Y-124508000D01*
X147264351Y-124466151D01*
X147066168Y-124384061D01*
X146887799Y-124264878D01*
X146736122Y-124113201D01*
X146616939Y-123934832D01*
X146534849Y-123736649D01*
X146493000Y-123526259D01*
X146493000Y-123311741D01*
X146534849Y-123101351D01*
X146616939Y-122903168D01*
X146736122Y-122724799D01*
X146887799Y-122573122D01*
X147066168Y-122453939D01*
X147264351Y-122371849D01*
X147474741Y-122330000D01*
X147689259Y-122330000D01*
X147899649Y-122371849D01*
X147899649Y-122371849D01*
G37*
G36*
X150439649Y-122371849D02*
X150637832Y-122453939D01*
X150816201Y-122573122D01*
X150967878Y-122724799D01*
X151087061Y-122903168D01*
X151169151Y-123101351D01*
X151211000Y-123311741D01*
X151211000Y-123526259D01*
X151169151Y-123736649D01*
X151087061Y-123934832D01*
X150967878Y-124113201D01*
X150816201Y-124264878D01*
X150637832Y-124384061D01*
X150439649Y-124466151D01*
X150229259Y-124508000D01*
X150014741Y-124508000D01*
X149804351Y-124466151D01*
X149606168Y-124384061D01*
X149427799Y-124264878D01*
X149276122Y-124113201D01*
X149156939Y-123934832D01*
X149074849Y-123736649D01*
X149033000Y-123526259D01*
X149033000Y-123311741D01*
X149074849Y-123101351D01*
X149156939Y-122903168D01*
X149276122Y-122724799D01*
X149427799Y-122573122D01*
X149606168Y-122453939D01*
X149804351Y-122371849D01*
X150014741Y-122330000D01*
X150229259Y-122330000D01*
X150439649Y-122371849D01*
X150439649Y-122371849D01*
G37*
G36*
X152979649Y-122371849D02*
X153177832Y-122453939D01*
X153356201Y-122573122D01*
X153507878Y-122724799D01*
X153627061Y-122903168D01*
X153709151Y-123101351D01*
X153751000Y-123311741D01*
X153751000Y-123526259D01*
X153709151Y-123736649D01*
X153627061Y-123934832D01*
X153507878Y-124113201D01*
X153356201Y-124264878D01*
X153177832Y-124384061D01*
X152979649Y-124466151D01*
X152769259Y-124508000D01*
X152554741Y-124508000D01*
X152344351Y-124466151D01*
X152146168Y-124384061D01*
X151967799Y-124264878D01*
X151816122Y-124113201D01*
X151696939Y-123934832D01*
X151614849Y-123736649D01*
X151573000Y-123526259D01*
X151573000Y-123311741D01*
X151614849Y-123101351D01*
X151696939Y-122903168D01*
X151816122Y-122724799D01*
X151967799Y-122573122D01*
X152146168Y-122453939D01*
X152344351Y-122371849D01*
X152554741Y-122330000D01*
X152769259Y-122330000D01*
X152979649Y-122371849D01*
X152979649Y-122371849D01*
G37*
G36*
X155519649Y-122371849D02*
X155717832Y-122453939D01*
X155896201Y-122573122D01*
X156047878Y-122724799D01*
X156167061Y-122903168D01*
X156249151Y-123101351D01*
X156291000Y-123311741D01*
X156291000Y-123526259D01*
X156249151Y-123736649D01*
X156167061Y-123934832D01*
X156047878Y-124113201D01*
X155896201Y-124264878D01*
X155717832Y-124384061D01*
X155519649Y-124466151D01*
X155309259Y-124508000D01*
X155094741Y-124508000D01*
X154884351Y-124466151D01*
X154686168Y-124384061D01*
X154507799Y-124264878D01*
X154356122Y-124113201D01*
X154236939Y-123934832D01*
X154154849Y-123736649D01*
X154113000Y-123526259D01*
X154113000Y-123311741D01*
X154154849Y-123101351D01*
X154236939Y-122903168D01*
X154356122Y-122724799D01*
X154507799Y-122573122D01*
X154686168Y-122453939D01*
X154884351Y-122371849D01*
X155094741Y-122330000D01*
X155309259Y-122330000D01*
X155519649Y-122371849D01*
X155519649Y-122371849D01*
G37*
G36*
X163139649Y-122371849D02*
X163337832Y-122453939D01*
X163516201Y-122573122D01*
X163667878Y-122724799D01*
X163787061Y-122903168D01*
X163869151Y-123101351D01*
X163911000Y-123311741D01*
X163911000Y-123526259D01*
X163869151Y-123736649D01*
X163787061Y-123934832D01*
X163667878Y-124113201D01*
X163516201Y-124264878D01*
X163337832Y-124384061D01*
X163139649Y-124466151D01*
X162929259Y-124508000D01*
X162714741Y-124508000D01*
X162504351Y-124466151D01*
X162306168Y-124384061D01*
X162127799Y-124264878D01*
X161976122Y-124113201D01*
X161856939Y-123934832D01*
X161774849Y-123736649D01*
X161733000Y-123526259D01*
X161733000Y-123311741D01*
X161774849Y-123101351D01*
X161856939Y-122903168D01*
X161976122Y-122724799D01*
X162127799Y-122573122D01*
X162306168Y-122453939D01*
X162504351Y-122371849D01*
X162714741Y-122330000D01*
X162929259Y-122330000D01*
X163139649Y-122371849D01*
X163139649Y-122371849D01*
G37*
G36*
X130119649Y-122371849D02*
X130317832Y-122453939D01*
X130496201Y-122573122D01*
X130647878Y-122724799D01*
X130767061Y-122903168D01*
X130849151Y-123101351D01*
X130891000Y-123311741D01*
X130891000Y-123526259D01*
X130849151Y-123736649D01*
X130767061Y-123934832D01*
X130647878Y-124113201D01*
X130496201Y-124264878D01*
X130317832Y-124384061D01*
X130119649Y-124466151D01*
X129909259Y-124508000D01*
X129694741Y-124508000D01*
X129484351Y-124466151D01*
X129286168Y-124384061D01*
X129107799Y-124264878D01*
X128956122Y-124113201D01*
X128836939Y-123934832D01*
X128754849Y-123736649D01*
X128713000Y-123526259D01*
X128713000Y-123311741D01*
X128754849Y-123101351D01*
X128836939Y-122903168D01*
X128956122Y-122724799D01*
X129107799Y-122573122D01*
X129286168Y-122453939D01*
X129484351Y-122371849D01*
X129694741Y-122330000D01*
X129909259Y-122330000D01*
X130119649Y-122371849D01*
X130119649Y-122371849D01*
G37*
G36*
X132659649Y-122371849D02*
X132857832Y-122453939D01*
X133036201Y-122573122D01*
X133187878Y-122724799D01*
X133307061Y-122903168D01*
X133389151Y-123101351D01*
X133431000Y-123311741D01*
X133431000Y-123526259D01*
X133389151Y-123736649D01*
X133307061Y-123934832D01*
X133187878Y-124113201D01*
X133036201Y-124264878D01*
X132857832Y-124384061D01*
X132659649Y-124466151D01*
X132449259Y-124508000D01*
X132234741Y-124508000D01*
X132024351Y-124466151D01*
X131826168Y-124384061D01*
X131647799Y-124264878D01*
X131496122Y-124113201D01*
X131376939Y-123934832D01*
X131294849Y-123736649D01*
X131253000Y-123526259D01*
X131253000Y-123311741D01*
X131294849Y-123101351D01*
X131376939Y-122903168D01*
X131496122Y-122724799D01*
X131647799Y-122573122D01*
X131826168Y-122453939D01*
X132024351Y-122371849D01*
X132234741Y-122330000D01*
X132449259Y-122330000D01*
X132659649Y-122371849D01*
X132659649Y-122371849D01*
G37*
G36*
X135199649Y-122371849D02*
X135397832Y-122453939D01*
X135576201Y-122573122D01*
X135727878Y-122724799D01*
X135847061Y-122903168D01*
X135929151Y-123101351D01*
X135971000Y-123311741D01*
X135971000Y-123526259D01*
X135929151Y-123736649D01*
X135847061Y-123934832D01*
X135727878Y-124113201D01*
X135576201Y-124264878D01*
X135397832Y-124384061D01*
X135199649Y-124466151D01*
X134989259Y-124508000D01*
X134774741Y-124508000D01*
X134564351Y-124466151D01*
X134366168Y-124384061D01*
X134187799Y-124264878D01*
X134036122Y-124113201D01*
X133916939Y-123934832D01*
X133834849Y-123736649D01*
X133793000Y-123526259D01*
X133793000Y-123311741D01*
X133834849Y-123101351D01*
X133916939Y-122903168D01*
X134036122Y-122724799D01*
X134187799Y-122573122D01*
X134366168Y-122453939D01*
X134564351Y-122371849D01*
X134774741Y-122330000D01*
X134989259Y-122330000D01*
X135199649Y-122371849D01*
X135199649Y-122371849D01*
G37*
G36*
X137739649Y-122371849D02*
X137937832Y-122453939D01*
X138116201Y-122573122D01*
X138267878Y-122724799D01*
X138387061Y-122903168D01*
X138469151Y-123101351D01*
X138511000Y-123311741D01*
X138511000Y-123526259D01*
X138469151Y-123736649D01*
X138387061Y-123934832D01*
X138267878Y-124113201D01*
X138116201Y-124264878D01*
X137937832Y-124384061D01*
X137739649Y-124466151D01*
X137529259Y-124508000D01*
X137314741Y-124508000D01*
X137104351Y-124466151D01*
X136906168Y-124384061D01*
X136727799Y-124264878D01*
X136576122Y-124113201D01*
X136456939Y-123934832D01*
X136374849Y-123736649D01*
X136333000Y-123526259D01*
X136333000Y-123311741D01*
X136374849Y-123101351D01*
X136456939Y-122903168D01*
X136576122Y-122724799D01*
X136727799Y-122573122D01*
X136906168Y-122453939D01*
X137104351Y-122371849D01*
X137314741Y-122330000D01*
X137529259Y-122330000D01*
X137739649Y-122371849D01*
X137739649Y-122371849D01*
G37*
G36*
X168219649Y-122371849D02*
X168417832Y-122453939D01*
X168596201Y-122573122D01*
X168747878Y-122724799D01*
X168867061Y-122903168D01*
X168949151Y-123101351D01*
X168991000Y-123311741D01*
X168991000Y-123526259D01*
X168949151Y-123736649D01*
X168867061Y-123934832D01*
X168747878Y-124113201D01*
X168596201Y-124264878D01*
X168417832Y-124384061D01*
X168219649Y-124466151D01*
X168009259Y-124508000D01*
X167794741Y-124508000D01*
X167584351Y-124466151D01*
X167386168Y-124384061D01*
X167207799Y-124264878D01*
X167056122Y-124113201D01*
X166936939Y-123934832D01*
X166854849Y-123736649D01*
X166813000Y-123526259D01*
X166813000Y-123311741D01*
X166854849Y-123101351D01*
X166936939Y-122903168D01*
X167056122Y-122724799D01*
X167207799Y-122573122D01*
X167386168Y-122453939D01*
X167584351Y-122371849D01*
X167794741Y-122330000D01*
X168009259Y-122330000D01*
X168219649Y-122371849D01*
X168219649Y-122371849D01*
G37*
G36*
X165679649Y-122371849D02*
X165877832Y-122453939D01*
X166056201Y-122573122D01*
X166207878Y-122724799D01*
X166327061Y-122903168D01*
X166409151Y-123101351D01*
X166451000Y-123311741D01*
X166451000Y-123526259D01*
X166409151Y-123736649D01*
X166327061Y-123934832D01*
X166207878Y-124113201D01*
X166056201Y-124264878D01*
X165877832Y-124384061D01*
X165679649Y-124466151D01*
X165469259Y-124508000D01*
X165254741Y-124508000D01*
X165044351Y-124466151D01*
X164846168Y-124384061D01*
X164667799Y-124264878D01*
X164516122Y-124113201D01*
X164396939Y-123934832D01*
X164314849Y-123736649D01*
X164273000Y-123526259D01*
X164273000Y-123311741D01*
X164314849Y-123101351D01*
X164396939Y-122903168D01*
X164516122Y-122724799D01*
X164667799Y-122573122D01*
X164846168Y-122453939D01*
X165044351Y-122371849D01*
X165254741Y-122330000D01*
X165469259Y-122330000D01*
X165679649Y-122371849D01*
X165679649Y-122371849D01*
G37*
G36*
X160599649Y-122371849D02*
X160797832Y-122453939D01*
X160976201Y-122573122D01*
X161127878Y-122724799D01*
X161247061Y-122903168D01*
X161329151Y-123101351D01*
X161371000Y-123311741D01*
X161371000Y-123526259D01*
X161329151Y-123736649D01*
X161247061Y-123934832D01*
X161127878Y-124113201D01*
X160976201Y-124264878D01*
X160797832Y-124384061D01*
X160599649Y-124466151D01*
X160389259Y-124508000D01*
X160174741Y-124508000D01*
X159964351Y-124466151D01*
X159766168Y-124384061D01*
X159587799Y-124264878D01*
X159436122Y-124113201D01*
X159316939Y-123934832D01*
X159234849Y-123736649D01*
X159193000Y-123526259D01*
X159193000Y-123311741D01*
X159234849Y-123101351D01*
X159316939Y-122903168D01*
X159436122Y-122724799D01*
X159587799Y-122573122D01*
X159766168Y-122453939D01*
X159964351Y-122371849D01*
X160174741Y-122330000D01*
X160389259Y-122330000D01*
X160599649Y-122371849D01*
X160599649Y-122371849D01*
G37*
G36*
X126470445Y-120097929D02*
X126606006Y-120124894D01*
X126989091Y-120283573D01*
X127114696Y-120367500D01*
X127333862Y-120513942D01*
X127627058Y-120807138D01*
X127627060Y-120807141D01*
X127857427Y-121151909D01*
X128016106Y-121534994D01*
X128097000Y-121941676D01*
X128097000Y-122356324D01*
X128016106Y-122763006D01*
X127857427Y-123146091D01*
X127628612Y-123488536D01*
X127627058Y-123490862D01*
X127333862Y-123784058D01*
X127333859Y-123784060D01*
X126989091Y-124014427D01*
X126606006Y-124173106D01*
X126470445Y-124200071D01*
X126199326Y-124254000D01*
X125784674Y-124254000D01*
X125513555Y-124200071D01*
X125377994Y-124173106D01*
X124994909Y-124014427D01*
X124650141Y-123784060D01*
X124650138Y-123784058D01*
X124356942Y-123490862D01*
X124355388Y-123488536D01*
X124126573Y-123146091D01*
X123967894Y-122763006D01*
X123887000Y-122356324D01*
X123887000Y-121941676D01*
X123967894Y-121534994D01*
X124126573Y-121151909D01*
X124356940Y-120807141D01*
X124356942Y-120807138D01*
X124650138Y-120513942D01*
X124869304Y-120367500D01*
X124994909Y-120283573D01*
X125377994Y-120124894D01*
X125513555Y-120097929D01*
X125784674Y-120044000D01*
X126199326Y-120044000D01*
X126470445Y-120097929D01*
X126470445Y-120097929D01*
G37*
G36*
X150835000Y-121470000D02*
X149165000Y-121470000D01*
X149165000Y-118530000D01*
X150835000Y-118530000D01*
X150835000Y-121470000D01*
X150835000Y-121470000D01*
G37*
G36*
X142835000Y-121470000D02*
X141165000Y-121470000D01*
X141165000Y-118530000D01*
X142835000Y-118530000D01*
X142835000Y-121470000D01*
X142835000Y-121470000D01*
G37*
G36*
X156087000Y-121311500D02*
X154417000Y-121311500D01*
X154417000Y-119376500D01*
X156087000Y-119376500D01*
X156087000Y-121311500D01*
X156087000Y-121311500D01*
G37*
G36*
X158627000Y-121180300D02*
X156957000Y-121180300D01*
X156957000Y-118519700D01*
X158627000Y-118519700D01*
X158627000Y-121180300D01*
X158627000Y-121180300D01*
G37*
G36*
X160926000Y-121180300D02*
X159256000Y-121180300D01*
X159256000Y-118519700D01*
X160926000Y-118519700D01*
X160926000Y-121180300D01*
X160926000Y-121180300D01*
G37*
G36*
X173182000Y-119835000D02*
X170242000Y-119835000D01*
X170242000Y-118165000D01*
X173182000Y-118165000D01*
X173182000Y-119835000D01*
X173182000Y-119835000D01*
G37*
G36*
X127470000Y-117835000D02*
X124530000Y-117835000D01*
X124530000Y-116165000D01*
X127470000Y-116165000D01*
X127470000Y-117835000D01*
X127470000Y-117835000D01*
G37*
G36*
X173182000Y-117085000D02*
X170242000Y-117085000D01*
X170242000Y-115415000D01*
X173182000Y-115415000D01*
X173182000Y-117085000D01*
X173182000Y-117085000D01*
G37*
G36*
X149000100Y-116308200D02*
X146999900Y-116308200D01*
X146999900Y-111691800D01*
X149000100Y-111691800D01*
X149000100Y-116308200D01*
X149000100Y-116308200D01*
G37*
G36*
X127470000Y-114835000D02*
X124530000Y-114835000D01*
X124530000Y-113165000D01*
X127470000Y-113165000D01*
X127470000Y-114835000D01*
X127470000Y-114835000D01*
G37*
G36*
X173182000Y-114335000D02*
X170242000Y-114335000D01*
X170242000Y-112665000D01*
X173182000Y-112665000D01*
X173182000Y-114335000D01*
X173182000Y-114335000D01*
G37*
G36*
X127470000Y-111835000D02*
X124530000Y-111835000D01*
X124530000Y-110165000D01*
X127470000Y-110165000D01*
X127470000Y-111835000D01*
X127470000Y-111835000D01*
G37*
G36*
X173182000Y-111585000D02*
X170242000Y-111585000D01*
X170242000Y-109915000D01*
X173182000Y-109915000D01*
X173182000Y-111585000D01*
X173182000Y-111585000D01*
G37*
G36*
X149852100Y-110233200D02*
X145692900Y-110233200D01*
X145692900Y-105616800D01*
X149852100Y-105616800D01*
X149852100Y-110233200D01*
X149852100Y-110233200D01*
G37*
G36*
X127470000Y-108835000D02*
X124530000Y-108835000D01*
X124530000Y-107165000D01*
X127470000Y-107165000D01*
X127470000Y-108835000D01*
X127470000Y-108835000D01*
G37*
G36*
X173182000Y-108835000D02*
X170242000Y-108835000D01*
X170242000Y-107165000D01*
X173182000Y-107165000D01*
X173182000Y-108835000D01*
X173182000Y-108835000D01*
G37*
G36*
X157802300Y-106835000D02*
X155141700Y-106835000D01*
X155141700Y-105165000D01*
X157802300Y-105165000D01*
X157802300Y-106835000D01*
X157802300Y-106835000D01*
G37*
G36*
X126470445Y-102317929D02*
X126606006Y-102344894D01*
X126989091Y-102503573D01*
X127331536Y-102732388D01*
X127333862Y-102733942D01*
X127627058Y-103027138D01*
X127627060Y-103027141D01*
X127857427Y-103371909D01*
X128016106Y-103754994D01*
X128097000Y-104161676D01*
X128097000Y-104576324D01*
X128016106Y-104983006D01*
X127857427Y-105366091D01*
X127689908Y-105616800D01*
X127627058Y-105710862D01*
X127333862Y-106004058D01*
X127333859Y-106004060D01*
X126989091Y-106234427D01*
X126606006Y-106393106D01*
X126470445Y-106420071D01*
X126199326Y-106474000D01*
X125784674Y-106474000D01*
X125513555Y-106420071D01*
X125377994Y-106393106D01*
X124994909Y-106234427D01*
X124650141Y-106004060D01*
X124650138Y-106004058D01*
X124356942Y-105710862D01*
X124294092Y-105616800D01*
X124126573Y-105366091D01*
X123967894Y-104983006D01*
X123887000Y-104576324D01*
X123887000Y-104161676D01*
X123967894Y-103754994D01*
X124126573Y-103371909D01*
X124356940Y-103027141D01*
X124356942Y-103027138D01*
X124650138Y-102733942D01*
X124652464Y-102732388D01*
X124994909Y-102503573D01*
X125377994Y-102344894D01*
X125513555Y-102317929D01*
X125784674Y-102264000D01*
X126199326Y-102264000D01*
X126470445Y-102317929D01*
X126470445Y-102317929D01*
G37*
G36*
X160599649Y-102051849D02*
X160797832Y-102133939D01*
X160976201Y-102253122D01*
X161127878Y-102404799D01*
X161247061Y-102583168D01*
X161329151Y-102781351D01*
X161371000Y-102991741D01*
X161371000Y-103206259D01*
X161329151Y-103416649D01*
X161247061Y-103614832D01*
X161127878Y-103793201D01*
X160976201Y-103944878D01*
X160797832Y-104064061D01*
X160599649Y-104146151D01*
X160389259Y-104188000D01*
X160174741Y-104188000D01*
X159964351Y-104146151D01*
X159766168Y-104064061D01*
X159587799Y-103944878D01*
X159436122Y-103793201D01*
X159316939Y-103614832D01*
X159234849Y-103416649D01*
X159193000Y-103206259D01*
X159193000Y-102991741D01*
X159234849Y-102781351D01*
X159316939Y-102583168D01*
X159436122Y-102404799D01*
X159587799Y-102253122D01*
X159766168Y-102133939D01*
X159964351Y-102051849D01*
X160174741Y-102010000D01*
X160389259Y-102010000D01*
X160599649Y-102051849D01*
X160599649Y-102051849D01*
G37*
G36*
X145359649Y-102051849D02*
X145557832Y-102133939D01*
X145736201Y-102253122D01*
X145887878Y-102404799D01*
X146007061Y-102583168D01*
X146089151Y-102781351D01*
X146131000Y-102991741D01*
X146131000Y-103206259D01*
X146089151Y-103416649D01*
X146007061Y-103614832D01*
X145887878Y-103793201D01*
X145736201Y-103944878D01*
X145557832Y-104064061D01*
X145359649Y-104146151D01*
X145149259Y-104188000D01*
X144934741Y-104188000D01*
X144724351Y-104146151D01*
X144526168Y-104064061D01*
X144347799Y-103944878D01*
X144196122Y-103793201D01*
X144076939Y-103614832D01*
X143994849Y-103416649D01*
X143953000Y-103206259D01*
X143953000Y-102991741D01*
X143994849Y-102781351D01*
X144076939Y-102583168D01*
X144196122Y-102404799D01*
X144347799Y-102253122D01*
X144526168Y-102133939D01*
X144724351Y-102051849D01*
X144934741Y-102010000D01*
X145149259Y-102010000D01*
X145359649Y-102051849D01*
X145359649Y-102051849D01*
G37*
G36*
X140279649Y-102051849D02*
X140477832Y-102133939D01*
X140656201Y-102253122D01*
X140807878Y-102404799D01*
X140927061Y-102583168D01*
X141009151Y-102781351D01*
X141051000Y-102991741D01*
X141051000Y-103206259D01*
X141009151Y-103416649D01*
X140927061Y-103614832D01*
X140807878Y-103793201D01*
X140656201Y-103944878D01*
X140477832Y-104064061D01*
X140279649Y-104146151D01*
X140069259Y-104188000D01*
X139854741Y-104188000D01*
X139644351Y-104146151D01*
X139446168Y-104064061D01*
X139267799Y-103944878D01*
X139116122Y-103793201D01*
X138996939Y-103614832D01*
X138914849Y-103416649D01*
X138873000Y-103206259D01*
X138873000Y-102991741D01*
X138914849Y-102781351D01*
X138996939Y-102583168D01*
X139116122Y-102404799D01*
X139267799Y-102253122D01*
X139446168Y-102133939D01*
X139644351Y-102051849D01*
X139854741Y-102010000D01*
X140069259Y-102010000D01*
X140279649Y-102051849D01*
X140279649Y-102051849D01*
G37*
G36*
X142819649Y-102051849D02*
X143017832Y-102133939D01*
X143196201Y-102253122D01*
X143347878Y-102404799D01*
X143467061Y-102583168D01*
X143549151Y-102781351D01*
X143591000Y-102991741D01*
X143591000Y-103206259D01*
X143549151Y-103416649D01*
X143467061Y-103614832D01*
X143347878Y-103793201D01*
X143196201Y-103944878D01*
X143017832Y-104064061D01*
X142819649Y-104146151D01*
X142609259Y-104188000D01*
X142394741Y-104188000D01*
X142184351Y-104146151D01*
X141986168Y-104064061D01*
X141807799Y-103944878D01*
X141656122Y-103793201D01*
X141536939Y-103614832D01*
X141454849Y-103416649D01*
X141413000Y-103206259D01*
X141413000Y-102991741D01*
X141454849Y-102781351D01*
X141536939Y-102583168D01*
X141656122Y-102404799D01*
X141807799Y-102253122D01*
X141986168Y-102133939D01*
X142184351Y-102051849D01*
X142394741Y-102010000D01*
X142609259Y-102010000D01*
X142819649Y-102051849D01*
X142819649Y-102051849D01*
G37*
G36*
X147899649Y-102051849D02*
X148097832Y-102133939D01*
X148276201Y-102253122D01*
X148427878Y-102404799D01*
X148547061Y-102583168D01*
X148629151Y-102781351D01*
X148671000Y-102991741D01*
X148671000Y-103206259D01*
X148629151Y-103416649D01*
X148547061Y-103614832D01*
X148427878Y-103793201D01*
X148276201Y-103944878D01*
X148097832Y-104064061D01*
X147899649Y-104146151D01*
X147689259Y-104188000D01*
X147474741Y-104188000D01*
X147264351Y-104146151D01*
X147066168Y-104064061D01*
X146887799Y-103944878D01*
X146736122Y-103793201D01*
X146616939Y-103614832D01*
X146534849Y-103416649D01*
X146493000Y-103206259D01*
X146493000Y-102991741D01*
X146534849Y-102781351D01*
X146616939Y-102583168D01*
X146736122Y-102404799D01*
X146887799Y-102253122D01*
X147066168Y-102133939D01*
X147264351Y-102051849D01*
X147474741Y-102010000D01*
X147689259Y-102010000D01*
X147899649Y-102051849D01*
X147899649Y-102051849D01*
G37*
G36*
X150439649Y-102051849D02*
X150637832Y-102133939D01*
X150816201Y-102253122D01*
X150967878Y-102404799D01*
X151087061Y-102583168D01*
X151169151Y-102781351D01*
X151211000Y-102991741D01*
X151211000Y-103206259D01*
X151169151Y-103416649D01*
X151087061Y-103614832D01*
X150967878Y-103793201D01*
X150816201Y-103944878D01*
X150637832Y-104064061D01*
X150439649Y-104146151D01*
X150229259Y-104188000D01*
X150014741Y-104188000D01*
X149804351Y-104146151D01*
X149606168Y-104064061D01*
X149427799Y-103944878D01*
X149276122Y-103793201D01*
X149156939Y-103614832D01*
X149074849Y-103416649D01*
X149033000Y-103206259D01*
X149033000Y-102991741D01*
X149074849Y-102781351D01*
X149156939Y-102583168D01*
X149276122Y-102404799D01*
X149427799Y-102253122D01*
X149606168Y-102133939D01*
X149804351Y-102051849D01*
X150014741Y-102010000D01*
X150229259Y-102010000D01*
X150439649Y-102051849D01*
X150439649Y-102051849D01*
G37*
G36*
X152979649Y-102051849D02*
X153177832Y-102133939D01*
X153356201Y-102253122D01*
X153507878Y-102404799D01*
X153627061Y-102583168D01*
X153709151Y-102781351D01*
X153751000Y-102991741D01*
X153751000Y-103206259D01*
X153709151Y-103416649D01*
X153627061Y-103614832D01*
X153507878Y-103793201D01*
X153356201Y-103944878D01*
X153177832Y-104064061D01*
X152979649Y-104146151D01*
X152769259Y-104188000D01*
X152554741Y-104188000D01*
X152344351Y-104146151D01*
X152146168Y-104064061D01*
X151967799Y-103944878D01*
X151816122Y-103793201D01*
X151696939Y-103614832D01*
X151614849Y-103416649D01*
X151573000Y-103206259D01*
X151573000Y-102991741D01*
X151614849Y-102781351D01*
X151696939Y-102583168D01*
X151816122Y-102404799D01*
X151967799Y-102253122D01*
X152146168Y-102133939D01*
X152344351Y-102051849D01*
X152554741Y-102010000D01*
X152769259Y-102010000D01*
X152979649Y-102051849D01*
X152979649Y-102051849D01*
G37*
G36*
X155519649Y-102051849D02*
X155717832Y-102133939D01*
X155896201Y-102253122D01*
X156047878Y-102404799D01*
X156167061Y-102583168D01*
X156249151Y-102781351D01*
X156291000Y-102991741D01*
X156291000Y-103206259D01*
X156249151Y-103416649D01*
X156167061Y-103614832D01*
X156047878Y-103793201D01*
X155896201Y-103944878D01*
X155717832Y-104064061D01*
X155519649Y-104146151D01*
X155309259Y-104188000D01*
X155094741Y-104188000D01*
X154884351Y-104146151D01*
X154686168Y-104064061D01*
X154507799Y-103944878D01*
X154356122Y-103793201D01*
X154236939Y-103614832D01*
X154154849Y-103416649D01*
X154113000Y-103206259D01*
X154113000Y-102991741D01*
X154154849Y-102781351D01*
X154236939Y-102583168D01*
X154356122Y-102404799D01*
X154507799Y-102253122D01*
X154686168Y-102133939D01*
X154884351Y-102051849D01*
X155094741Y-102010000D01*
X155309259Y-102010000D01*
X155519649Y-102051849D01*
X155519649Y-102051849D01*
G37*
G36*
X158059649Y-102051849D02*
X158257832Y-102133939D01*
X158436201Y-102253122D01*
X158587878Y-102404799D01*
X158707061Y-102583168D01*
X158789151Y-102781351D01*
X158831000Y-102991741D01*
X158831000Y-103206259D01*
X158789151Y-103416649D01*
X158707061Y-103614832D01*
X158587878Y-103793201D01*
X158436201Y-103944878D01*
X158257832Y-104064061D01*
X158059649Y-104146151D01*
X157849259Y-104188000D01*
X157634741Y-104188000D01*
X157424351Y-104146151D01*
X157226168Y-104064061D01*
X157047799Y-103944878D01*
X156896122Y-103793201D01*
X156776939Y-103614832D01*
X156694849Y-103416649D01*
X156653000Y-103206259D01*
X156653000Y-102991741D01*
X156694849Y-102781351D01*
X156776939Y-102583168D01*
X156896122Y-102404799D01*
X157047799Y-102253122D01*
X157226168Y-102133939D01*
X157424351Y-102051849D01*
X157634741Y-102010000D01*
X157849259Y-102010000D01*
X158059649Y-102051849D01*
X158059649Y-102051849D01*
G37*
G36*
X163139649Y-102051849D02*
X163337832Y-102133939D01*
X163516201Y-102253122D01*
X163667878Y-102404799D01*
X163787061Y-102583168D01*
X163869151Y-102781351D01*
X163911000Y-102991741D01*
X163911000Y-103206259D01*
X163869151Y-103416649D01*
X163787061Y-103614832D01*
X163667878Y-103793201D01*
X163516201Y-103944878D01*
X163337832Y-104064061D01*
X163139649Y-104146151D01*
X162929259Y-104188000D01*
X162714741Y-104188000D01*
X162504351Y-104146151D01*
X162306168Y-104064061D01*
X162127799Y-103944878D01*
X161976122Y-103793201D01*
X161856939Y-103614832D01*
X161774849Y-103416649D01*
X161733000Y-103206259D01*
X161733000Y-102991741D01*
X161774849Y-102781351D01*
X161856939Y-102583168D01*
X161976122Y-102404799D01*
X162127799Y-102253122D01*
X162306168Y-102133939D01*
X162504351Y-102051849D01*
X162714741Y-102010000D01*
X162929259Y-102010000D01*
X163139649Y-102051849D01*
X163139649Y-102051849D01*
G37*
G36*
X165679649Y-102051849D02*
X165877832Y-102133939D01*
X166056201Y-102253122D01*
X166207878Y-102404799D01*
X166327061Y-102583168D01*
X166409151Y-102781351D01*
X166451000Y-102991741D01*
X166451000Y-103206259D01*
X166409151Y-103416649D01*
X166327061Y-103614832D01*
X166207878Y-103793201D01*
X166056201Y-103944878D01*
X165877832Y-104064061D01*
X165679649Y-104146151D01*
X165469259Y-104188000D01*
X165254741Y-104188000D01*
X165044351Y-104146151D01*
X164846168Y-104064061D01*
X164667799Y-103944878D01*
X164516122Y-103793201D01*
X164396939Y-103614832D01*
X164314849Y-103416649D01*
X164273000Y-103206259D01*
X164273000Y-102991741D01*
X164314849Y-102781351D01*
X164396939Y-102583168D01*
X164516122Y-102404799D01*
X164667799Y-102253122D01*
X164846168Y-102133939D01*
X165044351Y-102051849D01*
X165254741Y-102010000D01*
X165469259Y-102010000D01*
X165679649Y-102051849D01*
X165679649Y-102051849D01*
G37*
G36*
X168219649Y-102051849D02*
X168417832Y-102133939D01*
X168596201Y-102253122D01*
X168747878Y-102404799D01*
X168867061Y-102583168D01*
X168949151Y-102781351D01*
X168991000Y-102991741D01*
X168991000Y-103206259D01*
X168949151Y-103416649D01*
X168867061Y-103614832D01*
X168747878Y-103793201D01*
X168596201Y-103944878D01*
X168417832Y-104064061D01*
X168219649Y-104146151D01*
X168009259Y-104188000D01*
X167794741Y-104188000D01*
X167584351Y-104146151D01*
X167386168Y-104064061D01*
X167207799Y-103944878D01*
X167056122Y-103793201D01*
X166936939Y-103614832D01*
X166854849Y-103416649D01*
X166813000Y-103206259D01*
X166813000Y-102991741D01*
X166854849Y-102781351D01*
X166936939Y-102583168D01*
X167056122Y-102404799D01*
X167207799Y-102253122D01*
X167386168Y-102133939D01*
X167584351Y-102051849D01*
X167794741Y-102010000D01*
X168009259Y-102010000D01*
X168219649Y-102051849D01*
X168219649Y-102051849D01*
G37*
G36*
X146000000Y-98000000D02*
X139500000Y-98000000D01*
X139500000Y-91000000D01*
X146000000Y-91000000D01*
X146000000Y-98000000D01*
X146000000Y-98000000D01*
G37*
G36*
X126625888Y-92454470D02*
X126806274Y-92490350D01*
X126997362Y-92569502D01*
X127169336Y-92684411D01*
X127315589Y-92830664D01*
X127430498Y-93002638D01*
X127509650Y-93193726D01*
X127550000Y-93396584D01*
X127550000Y-93603416D01*
X127509650Y-93806274D01*
X127430498Y-93997362D01*
X127315589Y-94169336D01*
X127169336Y-94315589D01*
X126997362Y-94430498D01*
X126806274Y-94509650D01*
X126625888Y-94545530D01*
X126603417Y-94550000D01*
X126396583Y-94550000D01*
X126374112Y-94545530D01*
X126193726Y-94509650D01*
X126002638Y-94430498D01*
X125830664Y-94315589D01*
X125684411Y-94169336D01*
X125569502Y-93997362D01*
X125490350Y-93806274D01*
X125450000Y-93603416D01*
X125450000Y-93396584D01*
X125490350Y-93193726D01*
X125569502Y-93002638D01*
X125684411Y-92830664D01*
X125830664Y-92684411D01*
X126002638Y-92569502D01*
X126193726Y-92490350D01*
X126374112Y-92454470D01*
X126396583Y-92450000D01*
X126603417Y-92450000D01*
X126625888Y-92454470D01*
X126625888Y-92454470D01*
G37*
G36*
X133625888Y-92454470D02*
X133806274Y-92490350D01*
X133997362Y-92569502D01*
X134169336Y-92684411D01*
X134315589Y-92830664D01*
X134430498Y-93002638D01*
X134509650Y-93193726D01*
X134550000Y-93396584D01*
X134550000Y-93603416D01*
X134509650Y-93806274D01*
X134430498Y-93997362D01*
X134315589Y-94169336D01*
X134169336Y-94315589D01*
X133997362Y-94430498D01*
X133806274Y-94509650D01*
X133625888Y-94545530D01*
X133603417Y-94550000D01*
X133396583Y-94550000D01*
X133374112Y-94545530D01*
X133193726Y-94509650D01*
X133002638Y-94430498D01*
X132830664Y-94315589D01*
X132684411Y-94169336D01*
X132569502Y-93997362D01*
X132490350Y-93806274D01*
X132450000Y-93603416D01*
X132450000Y-93396584D01*
X132490350Y-93193726D01*
X132569502Y-93002638D01*
X132684411Y-92830664D01*
X132830664Y-92684411D01*
X133002638Y-92569502D01*
X133193726Y-92490350D01*
X133374112Y-92454470D01*
X133396583Y-92450000D01*
X133603417Y-92450000D01*
X133625888Y-92454470D01*
X133625888Y-92454470D01*
G37*
M02*
