G04 #@! TF.GenerationSoftware,KiCad,Pcbnew,(2018-02-15 revision 29b28de31)-makepkg*
G04 #@! TF.CreationDate,2018-11-16T08:15:48+03:00*
G04 #@! TF.ProjectId,ATM90E26_Featherwing,41544D39304532365F46656174686572,rev?*
G04 #@! TF.SameCoordinates,Original*
G04 #@! TF.FileFunction,Legend,Top*
G04 #@! TF.FilePolarity,Positive*
%FSLAX46Y46*%
G04 Gerber Fmt 4.6, Leading zero omitted, Abs format (unit mm)*
G04 Created by KiCad (PCBNEW (2018-02-15 revision 29b28de31)-makepkg) date 11/16/18 08:15:48*
%MOMM*%
%LPD*%
G01*
G04 APERTURE LIST*
%ADD10C,0.160000*%
%ADD11C,0.127000*%
%ADD12C,0.152400*%
%ADD13C,0.203200*%
%ADD14C,0.254000*%
%ADD15C,0.050800*%
%ADD16C,0.100000*%
%ADD17C,0.304800*%
%ADD18C,0.200000*%
%ADD19C,0.036195*%
G04 APERTURE END LIST*
D10*
X134883524Y-116131552D02*
X134847333Y-116203933D01*
X134847333Y-116312504D01*
X134883524Y-116421076D01*
X134955904Y-116493457D01*
X135028285Y-116529647D01*
X135173047Y-116565838D01*
X135281619Y-116565838D01*
X135426381Y-116529647D01*
X135498762Y-116493457D01*
X135571143Y-116421076D01*
X135607333Y-116312504D01*
X135607333Y-116240123D01*
X135571143Y-116131552D01*
X135534952Y-116095361D01*
X135281619Y-116095361D01*
X135281619Y-116240123D01*
X135607333Y-115335361D02*
X135245428Y-115588695D01*
X135607333Y-115769647D02*
X134847333Y-115769647D01*
X134847333Y-115480123D01*
X134883524Y-115407742D01*
X134919714Y-115371552D01*
X134992095Y-115335361D01*
X135100666Y-115335361D01*
X135173047Y-115371552D01*
X135209238Y-115407742D01*
X135245428Y-115480123D01*
X135245428Y-115769647D01*
X134847333Y-114864885D02*
X134847333Y-114720123D01*
X134883524Y-114647742D01*
X134955904Y-114575361D01*
X135100666Y-114539171D01*
X135354000Y-114539171D01*
X135498762Y-114575361D01*
X135571143Y-114647742D01*
X135607333Y-114720123D01*
X135607333Y-114864885D01*
X135571143Y-114937266D01*
X135498762Y-115009647D01*
X135354000Y-115045838D01*
X135100666Y-115045838D01*
X134955904Y-115009647D01*
X134883524Y-114937266D01*
X134847333Y-114864885D01*
X134847333Y-114322028D02*
X135607333Y-114068695D01*
X134847333Y-113815361D01*
X135209238Y-113562028D02*
X135209238Y-113308695D01*
X135607333Y-113200123D02*
X135607333Y-113562028D01*
X134847333Y-113562028D01*
X134847333Y-113200123D01*
X134847333Y-112295361D02*
X135462571Y-112295361D01*
X135534952Y-112259171D01*
X135571143Y-112222980D01*
X135607333Y-112150600D01*
X135607333Y-112005838D01*
X135571143Y-111933457D01*
X135534952Y-111897266D01*
X135462571Y-111861076D01*
X134847333Y-111861076D01*
X135390190Y-111535361D02*
X135390190Y-111173457D01*
X135607333Y-111607742D02*
X134847333Y-111354409D01*
X135607333Y-111101076D01*
X135607333Y-110413457D02*
X135245428Y-110666790D01*
X135607333Y-110847742D02*
X134847333Y-110847742D01*
X134847333Y-110558219D01*
X134883524Y-110485838D01*
X134919714Y-110449647D01*
X134992095Y-110413457D01*
X135100666Y-110413457D01*
X135173047Y-110449647D01*
X135209238Y-110485838D01*
X135245428Y-110558219D01*
X135245428Y-110847742D01*
X134847333Y-110196314D02*
X134847333Y-109762028D01*
X135607333Y-109979171D02*
X134847333Y-109979171D01*
X161299524Y-115242552D02*
X161263333Y-115314933D01*
X161263333Y-115423504D01*
X161299524Y-115532076D01*
X161371904Y-115604457D01*
X161444285Y-115640647D01*
X161589047Y-115676838D01*
X161697619Y-115676838D01*
X161842381Y-115640647D01*
X161914762Y-115604457D01*
X161987143Y-115532076D01*
X162023333Y-115423504D01*
X162023333Y-115351123D01*
X161987143Y-115242552D01*
X161950952Y-115206361D01*
X161697619Y-115206361D01*
X161697619Y-115351123D01*
X162023333Y-114446361D02*
X161661428Y-114699695D01*
X162023333Y-114880647D02*
X161263333Y-114880647D01*
X161263333Y-114591123D01*
X161299524Y-114518742D01*
X161335714Y-114482552D01*
X161408095Y-114446361D01*
X161516666Y-114446361D01*
X161589047Y-114482552D01*
X161625238Y-114518742D01*
X161661428Y-114591123D01*
X161661428Y-114880647D01*
X161263333Y-113975885D02*
X161263333Y-113831123D01*
X161299524Y-113758742D01*
X161371904Y-113686361D01*
X161516666Y-113650171D01*
X161770000Y-113650171D01*
X161914762Y-113686361D01*
X161987143Y-113758742D01*
X162023333Y-113831123D01*
X162023333Y-113975885D01*
X161987143Y-114048266D01*
X161914762Y-114120647D01*
X161770000Y-114156838D01*
X161516666Y-114156838D01*
X161371904Y-114120647D01*
X161299524Y-114048266D01*
X161263333Y-113975885D01*
X161263333Y-113433028D02*
X162023333Y-113179695D01*
X161263333Y-112926361D01*
X161625238Y-112673028D02*
X161625238Y-112419695D01*
X162023333Y-112311123D02*
X162023333Y-112673028D01*
X161263333Y-112673028D01*
X161263333Y-112311123D01*
X162023333Y-111406361D02*
X161263333Y-111406361D01*
X161335714Y-111080647D02*
X161299524Y-111044457D01*
X161263333Y-110972076D01*
X161263333Y-110791123D01*
X161299524Y-110718742D01*
X161335714Y-110682552D01*
X161408095Y-110646361D01*
X161480476Y-110646361D01*
X161589047Y-110682552D01*
X162023333Y-111116838D01*
X162023333Y-110646361D01*
X161950952Y-109886361D02*
X161987143Y-109922552D01*
X162023333Y-110031123D01*
X162023333Y-110103504D01*
X161987143Y-110212076D01*
X161914762Y-110284457D01*
X161842381Y-110320647D01*
X161697619Y-110356838D01*
X161589047Y-110356838D01*
X161444285Y-110320647D01*
X161371904Y-110284457D01*
X161299524Y-110212076D01*
X161263333Y-110103504D01*
X161263333Y-110031123D01*
X161299524Y-109922552D01*
X161335714Y-109886361D01*
D11*
X139962000Y-113005000D02*
X139962000Y-110211000D01*
X139962000Y-110211000D02*
X141232000Y-110211000D01*
X141232000Y-110211000D02*
X141232000Y-113005000D01*
X141232000Y-113005000D02*
X139962000Y-113005000D01*
X131580000Y-99416000D02*
X133866000Y-99416000D01*
X133866000Y-101194000D02*
X131580000Y-101194000D01*
X133104000Y-100305000D02*
X132342000Y-100940000D01*
X132342000Y-100940000D02*
X132342000Y-100813000D01*
X132342000Y-100813000D02*
X132342000Y-100686000D01*
X132342000Y-100686000D02*
X132342000Y-99670000D01*
X132342000Y-99670000D02*
X133104000Y-100305000D01*
X133104000Y-100305000D02*
X132342000Y-100813000D01*
X132342000Y-100813000D02*
X132469000Y-99797000D01*
X132469000Y-99797000D02*
X132977000Y-100305000D01*
X132977000Y-100305000D02*
X132342000Y-100686000D01*
X132342000Y-100686000D02*
X132469000Y-99924000D01*
X132469000Y-99924000D02*
X132850000Y-100305000D01*
X132850000Y-100305000D02*
X132469000Y-100559000D01*
X132469000Y-100559000D02*
X132469000Y-100432000D01*
X132469000Y-100432000D02*
X132469000Y-100051000D01*
X132469000Y-100051000D02*
X132596000Y-100178000D01*
X132596000Y-100178000D02*
X132723000Y-100305000D01*
X132723000Y-100305000D02*
X132469000Y-100432000D01*
X132469000Y-100432000D02*
X132596000Y-100178000D01*
X132596000Y-100178000D02*
X132596000Y-100305000D01*
X159520000Y-117196000D02*
X158250000Y-117196000D01*
X159520000Y-114402000D02*
X159520000Y-117196000D01*
X158250000Y-114402000D02*
X159520000Y-114402000D01*
X158250000Y-117196000D02*
X158250000Y-114402000D01*
X158250000Y-111227000D02*
X159520000Y-111227000D01*
X158250000Y-114021000D02*
X158250000Y-111227000D01*
X159520000Y-114021000D02*
X158250000Y-114021000D01*
X159520000Y-111227000D02*
X159520000Y-114021000D01*
X162822000Y-107925000D02*
X161552000Y-107925000D01*
X162822000Y-105131000D02*
X162822000Y-107925000D01*
X161552000Y-105131000D02*
X162822000Y-105131000D01*
X161552000Y-107925000D02*
X161552000Y-105131000D01*
X157996000Y-107925000D02*
X156726000Y-107925000D01*
X157996000Y-105131000D02*
X157996000Y-107925000D01*
X156726000Y-105131000D02*
X157996000Y-105131000D01*
X156726000Y-107925000D02*
X156726000Y-105131000D01*
X138819000Y-109830000D02*
X138819000Y-108560000D01*
X141613000Y-109830000D02*
X138819000Y-109830000D01*
X141613000Y-108560000D02*
X141613000Y-109830000D01*
X138819000Y-108560000D02*
X141613000Y-108560000D01*
X141613000Y-106782000D02*
X141613000Y-108052000D01*
X138819000Y-106782000D02*
X141613000Y-106782000D01*
X138819000Y-108052000D02*
X138819000Y-106782000D01*
X141613000Y-108052000D02*
X138819000Y-108052000D01*
X136914000Y-120244000D02*
X136914000Y-118974000D01*
X139708000Y-120244000D02*
X136914000Y-120244000D01*
X139708000Y-118974000D02*
X139708000Y-120244000D01*
X136914000Y-118974000D02*
X139708000Y-118974000D01*
X147556000Y-118415000D02*
X147556000Y-117145000D01*
X150350000Y-118415000D02*
X147556000Y-118415000D01*
X150350000Y-117145000D02*
X150350000Y-118415000D01*
X147556000Y-117145000D02*
X150350000Y-117145000D01*
X143899000Y-118415000D02*
X143899000Y-117145000D01*
X146693000Y-118415000D02*
X143899000Y-118415000D01*
X146693000Y-117145000D02*
X146693000Y-118415000D01*
X143899000Y-117145000D02*
X146693000Y-117145000D01*
X159012000Y-86842600D02*
X160282000Y-86842600D01*
X159012000Y-89636600D02*
X159012000Y-86842600D01*
X160282000Y-89636600D02*
X159012000Y-89636600D01*
X160282000Y-86842600D02*
X160282000Y-89636600D01*
X136279000Y-87350600D02*
X137549000Y-87350600D01*
X136279000Y-90144600D02*
X136279000Y-87350600D01*
X137549000Y-90144600D02*
X136279000Y-90144600D01*
X137549000Y-87350600D02*
X137549000Y-90144600D01*
X141232000Y-116307000D02*
X139962000Y-116307000D01*
X141232000Y-113513000D02*
X141232000Y-116307000D01*
X139962000Y-113513000D02*
X141232000Y-113513000D01*
X139962000Y-116307000D02*
X139962000Y-113513000D01*
D12*
X150507000Y-105519000D02*
X150507000Y-115919000D01*
X150507000Y-115919000D02*
X144657000Y-115919000D01*
X144657000Y-115919000D02*
X144657000Y-105519000D01*
X144657000Y-105519000D02*
X150507000Y-105519000D01*
X146091600Y-106494000D02*
G75*
G03X146091600Y-106494000I-459600J0D01*
G01*
D13*
X139454000Y-94106600D02*
X143010000Y-94106600D01*
X143010000Y-94106600D02*
X143010000Y-100660600D01*
X143010000Y-100660600D02*
X139454000Y-100660600D01*
X139454000Y-100660600D02*
X139454000Y-94106600D01*
X158647000Y-96381600D02*
X158197000Y-96381600D01*
X158197000Y-96381600D02*
X158197000Y-91781600D01*
X158197000Y-91781600D02*
X158647000Y-91781600D01*
X160647000Y-91781600D02*
X161097000Y-91781600D01*
X161097000Y-91781600D02*
X161097000Y-96381600D01*
X161097000Y-96381600D02*
X160647000Y-96381600D01*
X158647000Y-93081600D02*
X160647000Y-93081600D01*
D11*
X143645000Y-118212000D02*
X143645000Y-121006000D01*
X143645000Y-121006000D02*
X142375000Y-121006000D01*
X142375000Y-121006000D02*
X142375000Y-118212000D01*
X142375000Y-118212000D02*
X143645000Y-118212000D01*
X146693000Y-119736000D02*
X146693000Y-121006000D01*
X143899000Y-119736000D02*
X146693000Y-119736000D01*
X143899000Y-121006000D02*
X143899000Y-119736000D01*
X146693000Y-121006000D02*
X143899000Y-121006000D01*
X138819000Y-115164000D02*
X136025000Y-115164000D01*
X136025000Y-115164000D02*
X136025000Y-113894000D01*
X136025000Y-113894000D02*
X138819000Y-113894000D01*
X138819000Y-113894000D02*
X138819000Y-115164000D01*
X161298000Y-107925000D02*
X160028000Y-107925000D01*
X161298000Y-105131000D02*
X161298000Y-107925000D01*
X160028000Y-105131000D02*
X161298000Y-105131000D01*
X160028000Y-107925000D02*
X160028000Y-105131000D01*
X158377000Y-107925000D02*
X158377000Y-105131000D01*
X158377000Y-105131000D02*
X159647000Y-105131000D01*
X159647000Y-105131000D02*
X159647000Y-107925000D01*
X159647000Y-107925000D02*
X158377000Y-107925000D01*
X138819000Y-111354000D02*
X138819000Y-112624000D01*
X136025000Y-111354000D02*
X138819000Y-111354000D01*
X136025000Y-112624000D02*
X136025000Y-111354000D01*
X138819000Y-112624000D02*
X136025000Y-112624000D01*
X150630000Y-121006000D02*
X150630000Y-118212000D01*
X150630000Y-118212000D02*
X151900000Y-118212000D01*
X151900000Y-118212000D02*
X151900000Y-121006000D01*
X151900000Y-121006000D02*
X150630000Y-121006000D01*
X147556000Y-121006000D02*
X147556000Y-119736000D01*
X150350000Y-121006000D02*
X147556000Y-121006000D01*
X150350000Y-119736000D02*
X150350000Y-121006000D01*
X147556000Y-119736000D02*
X150350000Y-119736000D01*
X161552000Y-101194000D02*
X158758000Y-101194000D01*
X158758000Y-101194000D02*
X158758000Y-99924000D01*
X158758000Y-99924000D02*
X161552000Y-99924000D01*
X161552000Y-99924000D02*
X161552000Y-101194000D01*
X157615000Y-99924000D02*
X157615000Y-101194000D01*
X154821000Y-99924000D02*
X157615000Y-99924000D01*
X154821000Y-101194000D02*
X154821000Y-99924000D01*
X157615000Y-101194000D02*
X154821000Y-101194000D01*
X147201000Y-99924000D02*
X149995000Y-99924000D01*
X149995000Y-99924000D02*
X149995000Y-101194000D01*
X149995000Y-101194000D02*
X147201000Y-101194000D01*
X147201000Y-101194000D02*
X147201000Y-99924000D01*
X151074500Y-99924000D02*
X153741500Y-99924000D01*
X153741500Y-99924000D02*
X153741500Y-101194000D01*
X153741500Y-101194000D02*
X151074500Y-101194000D01*
X151074500Y-101194000D02*
X151074500Y-99924000D01*
X152281000Y-100178000D02*
X152281000Y-100940000D01*
X152281000Y-100940000D02*
X152408000Y-100749500D01*
X152408000Y-100749500D02*
X152535000Y-100559000D01*
X152535000Y-100559000D02*
X152408000Y-100368500D01*
X152408000Y-100368500D02*
X152281000Y-100178000D01*
X152344500Y-100305000D02*
X152344500Y-100813000D01*
X152408000Y-100368500D02*
X152408000Y-100749500D01*
D14*
X165592000Y-106651000D02*
X165592000Y-107751000D01*
X165592000Y-117751000D02*
X165592000Y-118851000D01*
X173292000Y-106651000D02*
X173292000Y-109351000D01*
X173292000Y-116151000D02*
X173292000Y-118851000D01*
X165592000Y-106651000D02*
X164092000Y-106651000D01*
X164092000Y-106651000D02*
X164092000Y-107751000D01*
X164092000Y-107751000D02*
X165592000Y-107751000D01*
X165592000Y-107751000D02*
X165592000Y-117751000D01*
X165592000Y-117751000D02*
X164092000Y-117751000D01*
X164092000Y-117751000D02*
X164092000Y-118851000D01*
X164092000Y-118851000D02*
X165592000Y-118851000D01*
X165592000Y-106651000D02*
X169557000Y-106651000D01*
X165592000Y-118851000D02*
X169557000Y-118851000D01*
X173292000Y-109351000D02*
X172292000Y-109351000D01*
X172292000Y-109351000D02*
X172292000Y-116151000D01*
X172292000Y-116151000D02*
X173292000Y-116151000D01*
X124777000Y-109859000D02*
X123777000Y-109859000D01*
X124777000Y-116659000D02*
X124777000Y-109859000D01*
X123777000Y-116659000D02*
X124777000Y-116659000D01*
X131477000Y-107159000D02*
X127512000Y-107159000D01*
X131477000Y-119359000D02*
X127512000Y-119359000D01*
X132977000Y-107159000D02*
X131477000Y-107159000D01*
X132977000Y-108259000D02*
X132977000Y-107159000D01*
X131477000Y-108259000D02*
X132977000Y-108259000D01*
X131477000Y-118259000D02*
X131477000Y-108259000D01*
X132977000Y-118259000D02*
X131477000Y-118259000D01*
X132977000Y-119359000D02*
X132977000Y-118259000D01*
X131477000Y-119359000D02*
X132977000Y-119359000D01*
X123777000Y-109859000D02*
X123777000Y-107159000D01*
X123777000Y-119359000D02*
X123777000Y-116659000D01*
X131477000Y-108259000D02*
X131477000Y-107159000D01*
X131477000Y-119359000D02*
X131477000Y-118259000D01*
D15*
X153169899Y-117577000D02*
G75*
G03X154059000Y-119257100I2032101J74D01*
G01*
D12*
X154059000Y-119863000D02*
X153043000Y-119863000D01*
D15*
X154059001Y-109038900D02*
G75*
G03X153170000Y-110719000I1142999J-1680053D01*
G01*
D12*
X154059000Y-108433000D02*
X153043000Y-108433000D01*
D15*
X156472000Y-110719000D02*
X156472000Y-117577000D01*
X157234000Y-110719000D02*
X157234000Y-117577000D01*
X153932000Y-117577000D02*
X153932000Y-110719000D01*
D12*
X157615000Y-108687000D02*
X157615000Y-119609000D01*
X157361000Y-108433000D02*
G75*
G02X157615000Y-108687000I0J-254000D01*
G01*
X157361000Y-108433000D02*
X156345000Y-108433000D01*
D15*
X156345000Y-110165400D02*
G75*
G02X156472000Y-110719000I-1143000J-553581D01*
G01*
X154059000Y-110165400D02*
G75*
G03X153932000Y-110719000I1143000J-553581D01*
G01*
X156344899Y-109039000D02*
G75*
G02X157234000Y-110719000I-1142899J-1680121D01*
G01*
X157234001Y-117577000D02*
G75*
G02X156345000Y-119257100I-2032001J-47D01*
G01*
X156472000Y-117577000D02*
G75*
G02X156345000Y-118130600I-1270000J-19D01*
G01*
X153932000Y-117577000D02*
G75*
G03X154059000Y-118130600I1270000J-19D01*
G01*
D12*
X157361000Y-119863000D02*
X156345000Y-119863000D01*
X157615000Y-119609000D02*
G75*
G02X157361000Y-119863000I-254000J0D01*
G01*
D15*
X153170000Y-117577000D02*
X153170000Y-110719000D01*
D12*
X152789000Y-108687000D02*
X152789000Y-119609000D01*
X153043000Y-108433000D02*
G75*
G03X152789000Y-108687000I0J-254000D01*
G01*
X152789000Y-119609000D02*
G75*
G03X153043000Y-119863000I254000J0D01*
G01*
X154567000Y-114402000D02*
X155837000Y-114402000D01*
X155837000Y-114402000D02*
X155837000Y-113894000D01*
X155837000Y-113894000D02*
X154567000Y-113894000D01*
X154567000Y-113894000D02*
X154567000Y-114402000D01*
X154567000Y-114783000D02*
X155202000Y-114783000D01*
X155202000Y-114783000D02*
X155837000Y-114783000D01*
D15*
X155202000Y-114783000D02*
X155202000Y-115164000D01*
D12*
X154567000Y-113513000D02*
X155202000Y-113513000D01*
X155202000Y-113513000D02*
X155837000Y-113513000D01*
D15*
X155202000Y-113513000D02*
X155202000Y-113132000D01*
D16*
X125992000Y-124689000D02*
X171712000Y-124689000D01*
X174252000Y-122149000D02*
G75*
G02X171712000Y-124689000I-2540000J0D01*
G01*
X174252000Y-122149000D02*
X174252000Y-104369000D01*
X171712000Y-101829000D02*
G75*
G02X174252000Y-104369000I0J-2540000D01*
G01*
X171712000Y-101829000D02*
X125992000Y-101829000D01*
X123452000Y-104369000D02*
G75*
G02X125992000Y-101829000I2540000J0D01*
G01*
X123452000Y-104369000D02*
X123452000Y-110973000D01*
X123452000Y-110973000D02*
X123960000Y-111481000D01*
X123960000Y-111481000D02*
X123960000Y-115037000D01*
X123960000Y-115037000D02*
X123452000Y-115545000D01*
X123452000Y-115545000D02*
X123452000Y-122149000D01*
X125992000Y-124689000D02*
G75*
G02X123452000Y-122149000I0J2540000D01*
G01*
D17*
X175347000Y-98708600D02*
X173337000Y-98708600D01*
X173337000Y-98708600D02*
X161597000Y-98708600D01*
X161597000Y-98708600D02*
X161597000Y-89708600D01*
X161597000Y-89708600D02*
X173337000Y-89708600D01*
X173337000Y-89708600D02*
X175347000Y-89708600D01*
D13*
X173337000Y-98208600D02*
X162997000Y-98208600D01*
X162997000Y-98208600D02*
X162997000Y-90208600D01*
X162997000Y-90208600D02*
X173337000Y-90208600D01*
D17*
X173337000Y-98708600D02*
X173337000Y-97268600D01*
X173337000Y-91148600D02*
X173337000Y-89708600D01*
X173337000Y-97268600D02*
X168457000Y-97268600D01*
X173337000Y-91148600D02*
X168457000Y-91148600D01*
X168457002Y-91148600D02*
G75*
G03X168457000Y-97268600I-1J-3060000D01*
G01*
X176397000Y-97658600D02*
X176397000Y-90758600D01*
X175347000Y-98708600D02*
G75*
G03X176397000Y-97658600I0J1050000D01*
G01*
X175347000Y-89708600D02*
G75*
G02X176397000Y-90758600I0J-1050000D01*
G01*
D13*
X175347000Y-98708600D02*
X175347000Y-89708600D01*
D11*
X141041500Y-118529500D02*
X136850500Y-118529500D01*
X136850500Y-118529500D02*
X136850500Y-116878500D01*
X136850500Y-116878500D02*
X141041500Y-116878500D01*
X141041500Y-116878500D02*
X141041500Y-118529500D01*
X139390500Y-117704000D02*
X138882500Y-117704000D01*
X139136500Y-117450000D02*
X139136500Y-117958000D01*
X139517500Y-105258000D02*
X139517500Y-105766000D01*
X139771500Y-105512000D02*
X139263500Y-105512000D01*
X141422500Y-104686500D02*
X141422500Y-106337500D01*
X137231500Y-104686500D02*
X141422500Y-104686500D01*
X137231500Y-106337500D02*
X137231500Y-104686500D01*
X141422500Y-106337500D02*
X137231500Y-106337500D01*
X121674000Y-95478600D02*
X123579000Y-95478600D01*
X123579000Y-95478600D02*
X123579000Y-96113600D01*
X123579000Y-96113600D02*
X135644000Y-96113600D01*
X135644000Y-96113600D02*
X135644000Y-89763600D01*
X135644000Y-89763600D02*
X123579000Y-89763600D01*
X123579000Y-89763600D02*
X123579000Y-90398600D01*
X123579000Y-90398600D02*
X121674000Y-90398600D01*
X121674000Y-90398600D02*
X121674000Y-95478600D01*
D13*
X139975000Y-86209600D02*
X145675000Y-86209600D01*
X145675000Y-86209600D02*
X145675000Y-88409600D01*
X145675000Y-90609600D02*
X145675000Y-92809600D01*
X145675000Y-92809600D02*
X139975000Y-92809600D01*
X139075000Y-91909600D02*
X139075000Y-90609600D01*
X139075000Y-88409600D02*
X139075000Y-87109600D01*
X139075000Y-87109600D02*
X139975000Y-86209600D01*
X139975000Y-92809600D02*
X139075000Y-91909600D01*
X139425002Y-88559601D02*
G75*
G02X145325000Y-88609600I2942160J-949999D01*
G01*
X139424998Y-90409601D02*
G75*
G03X145325000Y-90459600I2957840J900001D01*
G01*
X157939000Y-86630600D02*
X157939000Y-96780600D01*
X156489000Y-98230600D02*
X154239000Y-98230600D01*
X151339000Y-98230600D02*
X149089000Y-98230600D01*
X147639000Y-96780600D02*
X147639000Y-86630600D01*
X147639000Y-86630600D02*
X151339000Y-86630600D01*
X154239000Y-86630600D02*
X157939000Y-86630600D01*
X156489000Y-98230600D02*
X157939000Y-96780600D01*
X149089000Y-98230600D02*
X147639000Y-96780600D01*
X151389000Y-97130600D02*
G75*
G02X151389000Y-87730600I1400000J4700000D01*
G01*
X154189000Y-97130600D02*
G75*
G03X154189000Y-87730600I-1400000J4700000D01*
G01*
D11*
X129316000Y-99405000D02*
X129316000Y-101205000D01*
X129316000Y-101205000D02*
X125716000Y-101205000D01*
X125716000Y-101205000D02*
X125716000Y-99405000D01*
X125716000Y-99405000D02*
X129316000Y-99405000D01*
D18*
X142285714Y-112044285D02*
X142323809Y-112082380D01*
X142361904Y-112196666D01*
X142361904Y-112272857D01*
X142323809Y-112387142D01*
X142247619Y-112463333D01*
X142171428Y-112501428D01*
X142019047Y-112539523D01*
X141904761Y-112539523D01*
X141752380Y-112501428D01*
X141676190Y-112463333D01*
X141600000Y-112387142D01*
X141561904Y-112272857D01*
X141561904Y-112196666D01*
X141600000Y-112082380D01*
X141638095Y-112044285D01*
X141561904Y-111777619D02*
X141561904Y-111244285D01*
X142361904Y-111587142D01*
D19*
X131943705Y-100922764D02*
X131943705Y-100560814D01*
X132029883Y-100560814D01*
X132081591Y-100578050D01*
X132116062Y-100612521D01*
X132133298Y-100646992D01*
X132150533Y-100715935D01*
X132150533Y-100767642D01*
X132133298Y-100836585D01*
X132116062Y-100871057D01*
X132081591Y-100905528D01*
X132029883Y-100922764D01*
X131943705Y-100922764D01*
X132288419Y-100595285D02*
X132305655Y-100578050D01*
X132340126Y-100560814D01*
X132426305Y-100560814D01*
X132460776Y-100578050D01*
X132478012Y-100595285D01*
X132495248Y-100629757D01*
X132495248Y-100664228D01*
X132478012Y-100715935D01*
X132271183Y-100922764D01*
X132495248Y-100922764D01*
D18*
X160014285Y-115093809D02*
X159976190Y-115055714D01*
X159938095Y-114941428D01*
X159938095Y-114865238D01*
X159976190Y-114750952D01*
X160052380Y-114674761D01*
X160128571Y-114636666D01*
X160280952Y-114598571D01*
X160395238Y-114598571D01*
X160547619Y-114636666D01*
X160623809Y-114674761D01*
X160700000Y-114750952D01*
X160738095Y-114865238D01*
X160738095Y-114941428D01*
X160700000Y-115055714D01*
X160661904Y-115093809D01*
X159938095Y-115855714D02*
X159938095Y-115398571D01*
X159938095Y-115627142D02*
X160738095Y-115627142D01*
X160623809Y-115550952D01*
X160547619Y-115474761D01*
X160509523Y-115398571D01*
X159938095Y-116617619D02*
X159938095Y-116160476D01*
X159938095Y-116389047D02*
X160738095Y-116389047D01*
X160623809Y-116312857D01*
X160547619Y-116236666D01*
X160509523Y-116160476D01*
X160685714Y-113206190D02*
X160723809Y-113244285D01*
X160761904Y-113358571D01*
X160761904Y-113434761D01*
X160723809Y-113549047D01*
X160647619Y-113625238D01*
X160571428Y-113663333D01*
X160419047Y-113701428D01*
X160304761Y-113701428D01*
X160152380Y-113663333D01*
X160076190Y-113625238D01*
X160000000Y-113549047D01*
X159961904Y-113434761D01*
X159961904Y-113358571D01*
X160000000Y-113244285D01*
X160038095Y-113206190D01*
X160761904Y-112444285D02*
X160761904Y-112901428D01*
X160761904Y-112672857D02*
X159961904Y-112672857D01*
X160076190Y-112749047D01*
X160152380Y-112825238D01*
X160190476Y-112901428D01*
X160038095Y-112139523D02*
X160000000Y-112101428D01*
X159961904Y-112025238D01*
X159961904Y-111834761D01*
X160000000Y-111758571D01*
X160038095Y-111720476D01*
X160114285Y-111682380D01*
X160190476Y-111682380D01*
X160304761Y-111720476D01*
X160761904Y-112177619D01*
X160761904Y-111682380D01*
X163214285Y-105455714D02*
X163176190Y-105417619D01*
X163138095Y-105303333D01*
X163138095Y-105227142D01*
X163176190Y-105112857D01*
X163252380Y-105036666D01*
X163328571Y-104998571D01*
X163480952Y-104960476D01*
X163595238Y-104960476D01*
X163747619Y-104998571D01*
X163823809Y-105036666D01*
X163900000Y-105112857D01*
X163938095Y-105227142D01*
X163938095Y-105303333D01*
X163900000Y-105417619D01*
X163861904Y-105455714D01*
X163671428Y-106141428D02*
X163138095Y-106141428D01*
X163976190Y-105950952D02*
X163404761Y-105760476D01*
X163404761Y-106255714D01*
X155614285Y-105355714D02*
X155576190Y-105317619D01*
X155538095Y-105203333D01*
X155538095Y-105127142D01*
X155576190Y-105012857D01*
X155652380Y-104936666D01*
X155728571Y-104898571D01*
X155880952Y-104860476D01*
X155995238Y-104860476D01*
X156147619Y-104898571D01*
X156223809Y-104936666D01*
X156300000Y-105012857D01*
X156338095Y-105127142D01*
X156338095Y-105203333D01*
X156300000Y-105317619D01*
X156261904Y-105355714D01*
X156338095Y-106079523D02*
X156338095Y-105698571D01*
X155957142Y-105660476D01*
X155995238Y-105698571D01*
X156033333Y-105774761D01*
X156033333Y-105965238D01*
X155995238Y-106041428D01*
X155957142Y-106079523D01*
X155880952Y-106117619D01*
X155690476Y-106117619D01*
X155614285Y-106079523D01*
X155576190Y-106041428D01*
X155538095Y-105965238D01*
X155538095Y-105774761D01*
X155576190Y-105698571D01*
X155614285Y-105660476D01*
X137655714Y-109385714D02*
X137617619Y-109423809D01*
X137503333Y-109461904D01*
X137427142Y-109461904D01*
X137312857Y-109423809D01*
X137236666Y-109347619D01*
X137198571Y-109271428D01*
X137160476Y-109119047D01*
X137160476Y-109004761D01*
X137198571Y-108852380D01*
X137236666Y-108776190D01*
X137312857Y-108700000D01*
X137427142Y-108661904D01*
X137503333Y-108661904D01*
X137617619Y-108700000D01*
X137655714Y-108738095D01*
X138341428Y-108661904D02*
X138189047Y-108661904D01*
X138112857Y-108700000D01*
X138074761Y-108738095D01*
X137998571Y-108852380D01*
X137960476Y-109004761D01*
X137960476Y-109309523D01*
X137998571Y-109385714D01*
X138036666Y-109423809D01*
X138112857Y-109461904D01*
X138265238Y-109461904D01*
X138341428Y-109423809D01*
X138379523Y-109385714D01*
X138417619Y-109309523D01*
X138417619Y-109119047D01*
X138379523Y-109042857D01*
X138341428Y-109004761D01*
X138265238Y-108966666D01*
X138112857Y-108966666D01*
X138036666Y-109004761D01*
X137998571Y-109042857D01*
X137960476Y-109119047D01*
X137655714Y-107785714D02*
X137617619Y-107823809D01*
X137503333Y-107861904D01*
X137427142Y-107861904D01*
X137312857Y-107823809D01*
X137236666Y-107747619D01*
X137198571Y-107671428D01*
X137160476Y-107519047D01*
X137160476Y-107404761D01*
X137198571Y-107252380D01*
X137236666Y-107176190D01*
X137312857Y-107100000D01*
X137427142Y-107061904D01*
X137503333Y-107061904D01*
X137617619Y-107100000D01*
X137655714Y-107138095D01*
X138036666Y-107861904D02*
X138189047Y-107861904D01*
X138265238Y-107823809D01*
X138303333Y-107785714D01*
X138379523Y-107671428D01*
X138417619Y-107519047D01*
X138417619Y-107214285D01*
X138379523Y-107138095D01*
X138341428Y-107100000D01*
X138265238Y-107061904D01*
X138112857Y-107061904D01*
X138036666Y-107100000D01*
X137998571Y-107138095D01*
X137960476Y-107214285D01*
X137960476Y-107404761D01*
X137998571Y-107480952D01*
X138036666Y-107519047D01*
X138112857Y-107557142D01*
X138265238Y-107557142D01*
X138341428Y-107519047D01*
X138379523Y-107480952D01*
X138417619Y-107404761D01*
X140885714Y-119844285D02*
X140923809Y-119882380D01*
X140961904Y-119996666D01*
X140961904Y-120072857D01*
X140923809Y-120187142D01*
X140847619Y-120263333D01*
X140771428Y-120301428D01*
X140619047Y-120339523D01*
X140504761Y-120339523D01*
X140352380Y-120301428D01*
X140276190Y-120263333D01*
X140200000Y-120187142D01*
X140161904Y-120072857D01*
X140161904Y-119996666D01*
X140200000Y-119882380D01*
X140238095Y-119844285D01*
X140238095Y-119539523D02*
X140200000Y-119501428D01*
X140161904Y-119425238D01*
X140161904Y-119234761D01*
X140200000Y-119158571D01*
X140238095Y-119120476D01*
X140314285Y-119082380D01*
X140390476Y-119082380D01*
X140504761Y-119120476D01*
X140961904Y-119577619D01*
X140961904Y-119082380D01*
X148293809Y-119385714D02*
X148255714Y-119423809D01*
X148141428Y-119461904D01*
X148065238Y-119461904D01*
X147950952Y-119423809D01*
X147874761Y-119347619D01*
X147836666Y-119271428D01*
X147798571Y-119119047D01*
X147798571Y-119004761D01*
X147836666Y-118852380D01*
X147874761Y-118776190D01*
X147950952Y-118700000D01*
X148065238Y-118661904D01*
X148141428Y-118661904D01*
X148255714Y-118700000D01*
X148293809Y-118738095D01*
X149055714Y-119461904D02*
X148598571Y-119461904D01*
X148827142Y-119461904D02*
X148827142Y-118661904D01*
X148750952Y-118776190D01*
X148674761Y-118852380D01*
X148598571Y-118890476D01*
X149322380Y-118661904D02*
X149817619Y-118661904D01*
X149550952Y-118966666D01*
X149665238Y-118966666D01*
X149741428Y-119004761D01*
X149779523Y-119042857D01*
X149817619Y-119119047D01*
X149817619Y-119309523D01*
X149779523Y-119385714D01*
X149741428Y-119423809D01*
X149665238Y-119461904D01*
X149436666Y-119461904D01*
X149360476Y-119423809D01*
X149322380Y-119385714D01*
X144693809Y-119385714D02*
X144655714Y-119423809D01*
X144541428Y-119461904D01*
X144465238Y-119461904D01*
X144350952Y-119423809D01*
X144274761Y-119347619D01*
X144236666Y-119271428D01*
X144198571Y-119119047D01*
X144198571Y-119004761D01*
X144236666Y-118852380D01*
X144274761Y-118776190D01*
X144350952Y-118700000D01*
X144465238Y-118661904D01*
X144541428Y-118661904D01*
X144655714Y-118700000D01*
X144693809Y-118738095D01*
X145455714Y-119461904D02*
X144998571Y-119461904D01*
X145227142Y-119461904D02*
X145227142Y-118661904D01*
X145150952Y-118776190D01*
X145074761Y-118852380D01*
X144998571Y-118890476D01*
X145950952Y-118661904D02*
X146027142Y-118661904D01*
X146103333Y-118700000D01*
X146141428Y-118738095D01*
X146179523Y-118814285D01*
X146217619Y-118966666D01*
X146217619Y-119157142D01*
X146179523Y-119309523D01*
X146141428Y-119385714D01*
X146103333Y-119423809D01*
X146027142Y-119461904D01*
X145950952Y-119461904D01*
X145874761Y-119423809D01*
X145836666Y-119385714D01*
X145798571Y-119309523D01*
X145760476Y-119157142D01*
X145760476Y-118966666D01*
X145798571Y-118814285D01*
X145836666Y-118738095D01*
X145874761Y-118700000D01*
X145950952Y-118661904D01*
X161285714Y-88906190D02*
X161323809Y-88944285D01*
X161361904Y-89058571D01*
X161361904Y-89134761D01*
X161323809Y-89249047D01*
X161247619Y-89325238D01*
X161171428Y-89363333D01*
X161019047Y-89401428D01*
X160904761Y-89401428D01*
X160752380Y-89363333D01*
X160676190Y-89325238D01*
X160600000Y-89249047D01*
X160561904Y-89134761D01*
X160561904Y-89058571D01*
X160600000Y-88944285D01*
X160638095Y-88906190D01*
X161361904Y-88144285D02*
X161361904Y-88601428D01*
X161361904Y-88372857D02*
X160561904Y-88372857D01*
X160676190Y-88449047D01*
X160752380Y-88525238D01*
X160790476Y-88601428D01*
X160561904Y-87458571D02*
X160561904Y-87610952D01*
X160600000Y-87687142D01*
X160638095Y-87725238D01*
X160752380Y-87801428D01*
X160904761Y-87839523D01*
X161209523Y-87839523D01*
X161285714Y-87801428D01*
X161323809Y-87763333D01*
X161361904Y-87687142D01*
X161361904Y-87534761D01*
X161323809Y-87458571D01*
X161285714Y-87420476D01*
X161209523Y-87382380D01*
X161019047Y-87382380D01*
X160942857Y-87420476D01*
X160904761Y-87458571D01*
X160866666Y-87534761D01*
X160866666Y-87687142D01*
X160904761Y-87763333D01*
X160942857Y-87801428D01*
X161019047Y-87839523D01*
X136093809Y-86585714D02*
X136055714Y-86623809D01*
X135941428Y-86661904D01*
X135865238Y-86661904D01*
X135750952Y-86623809D01*
X135674761Y-86547619D01*
X135636666Y-86471428D01*
X135598571Y-86319047D01*
X135598571Y-86204761D01*
X135636666Y-86052380D01*
X135674761Y-85976190D01*
X135750952Y-85900000D01*
X135865238Y-85861904D01*
X135941428Y-85861904D01*
X136055714Y-85900000D01*
X136093809Y-85938095D01*
X136855714Y-86661904D02*
X136398571Y-86661904D01*
X136627142Y-86661904D02*
X136627142Y-85861904D01*
X136550952Y-85976190D01*
X136474761Y-86052380D01*
X136398571Y-86090476D01*
X137122380Y-85861904D02*
X137655714Y-85861904D01*
X137312857Y-86661904D01*
X141714285Y-114655714D02*
X141676190Y-114617619D01*
X141638095Y-114503333D01*
X141638095Y-114427142D01*
X141676190Y-114312857D01*
X141752380Y-114236666D01*
X141828571Y-114198571D01*
X141980952Y-114160476D01*
X142095238Y-114160476D01*
X142247619Y-114198571D01*
X142323809Y-114236666D01*
X142400000Y-114312857D01*
X142438095Y-114427142D01*
X142438095Y-114503333D01*
X142400000Y-114617619D01*
X142361904Y-114655714D01*
X142438095Y-114922380D02*
X142438095Y-115417619D01*
X142133333Y-115150952D01*
X142133333Y-115265238D01*
X142095238Y-115341428D01*
X142057142Y-115379523D01*
X141980952Y-115417619D01*
X141790476Y-115417619D01*
X141714285Y-115379523D01*
X141676190Y-115341428D01*
X141638095Y-115265238D01*
X141638095Y-115036666D01*
X141676190Y-114960476D01*
X141714285Y-114922380D01*
X143060476Y-104561904D02*
X143060476Y-105209523D01*
X143098571Y-105285714D01*
X143136666Y-105323809D01*
X143212857Y-105361904D01*
X143365238Y-105361904D01*
X143441428Y-105323809D01*
X143479523Y-105285714D01*
X143517619Y-105209523D01*
X143517619Y-104561904D01*
X144317619Y-105361904D02*
X143860476Y-105361904D01*
X144089047Y-105361904D02*
X144089047Y-104561904D01*
X144012857Y-104676190D01*
X143936666Y-104752380D01*
X143860476Y-104790476D01*
X136960476Y-100461904D02*
X136960476Y-101109523D01*
X136998571Y-101185714D01*
X137036666Y-101223809D01*
X137112857Y-101261904D01*
X137265238Y-101261904D01*
X137341428Y-101223809D01*
X137379523Y-101185714D01*
X137417619Y-101109523D01*
X137417619Y-100461904D01*
X137760476Y-100538095D02*
X137798571Y-100500000D01*
X137874761Y-100461904D01*
X138065238Y-100461904D01*
X138141428Y-100500000D01*
X138179523Y-100538095D01*
X138217619Y-100614285D01*
X138217619Y-100690476D01*
X138179523Y-100804761D01*
X137722380Y-101261904D01*
X138217619Y-101261904D01*
X159198571Y-97961904D02*
X159198571Y-97161904D01*
X159389047Y-97161904D01*
X159503333Y-97200000D01*
X159579523Y-97276190D01*
X159617619Y-97352380D01*
X159655714Y-97504761D01*
X159655714Y-97619047D01*
X159617619Y-97771428D01*
X159579523Y-97847619D01*
X159503333Y-97923809D01*
X159389047Y-97961904D01*
X159198571Y-97961904D01*
X160417619Y-97961904D02*
X159960476Y-97961904D01*
X160189047Y-97961904D02*
X160189047Y-97161904D01*
X160112857Y-97276190D01*
X160036666Y-97352380D01*
X159960476Y-97390476D01*
X142538095Y-117055714D02*
X142919047Y-116789047D01*
X142538095Y-116598571D02*
X143338095Y-116598571D01*
X143338095Y-116903333D01*
X143300000Y-116979523D01*
X143261904Y-117017619D01*
X143185714Y-117055714D01*
X143071428Y-117055714D01*
X142995238Y-117017619D01*
X142957142Y-116979523D01*
X142919047Y-116903333D01*
X142919047Y-116598571D01*
X143338095Y-117322380D02*
X143338095Y-117855714D01*
X142538095Y-117512857D01*
X144955714Y-122261904D02*
X144689047Y-121880952D01*
X144498571Y-122261904D02*
X144498571Y-121461904D01*
X144803333Y-121461904D01*
X144879523Y-121500000D01*
X144917619Y-121538095D01*
X144955714Y-121614285D01*
X144955714Y-121728571D01*
X144917619Y-121804761D01*
X144879523Y-121842857D01*
X144803333Y-121880952D01*
X144498571Y-121880952D01*
X145641428Y-121461904D02*
X145489047Y-121461904D01*
X145412857Y-121500000D01*
X145374761Y-121538095D01*
X145298571Y-121652380D01*
X145260476Y-121804761D01*
X145260476Y-122109523D01*
X145298571Y-122185714D01*
X145336666Y-122223809D01*
X145412857Y-122261904D01*
X145565238Y-122261904D01*
X145641428Y-122223809D01*
X145679523Y-122185714D01*
X145717619Y-122109523D01*
X145717619Y-121919047D01*
X145679523Y-121842857D01*
X145641428Y-121804761D01*
X145565238Y-121766666D01*
X145412857Y-121766666D01*
X145336666Y-121804761D01*
X145298571Y-121842857D01*
X145260476Y-121919047D01*
X136455714Y-116261904D02*
X136189047Y-115880952D01*
X135998571Y-116261904D02*
X135998571Y-115461904D01*
X136303333Y-115461904D01*
X136379523Y-115500000D01*
X136417619Y-115538095D01*
X136455714Y-115614285D01*
X136455714Y-115728571D01*
X136417619Y-115804761D01*
X136379523Y-115842857D01*
X136303333Y-115880952D01*
X135998571Y-115880952D01*
X137217619Y-116261904D02*
X136760476Y-116261904D01*
X136989047Y-116261904D02*
X136989047Y-115461904D01*
X136912857Y-115576190D01*
X136836666Y-115652380D01*
X136760476Y-115690476D01*
X161261904Y-109544285D02*
X160880952Y-109810952D01*
X161261904Y-110001428D02*
X160461904Y-110001428D01*
X160461904Y-109696666D01*
X160500000Y-109620476D01*
X160538095Y-109582380D01*
X160614285Y-109544285D01*
X160728571Y-109544285D01*
X160804761Y-109582380D01*
X160842857Y-109620476D01*
X160880952Y-109696666D01*
X160880952Y-110001428D01*
X160538095Y-109239523D02*
X160500000Y-109201428D01*
X160461904Y-109125238D01*
X160461904Y-108934761D01*
X160500000Y-108858571D01*
X160538095Y-108820476D01*
X160614285Y-108782380D01*
X160690476Y-108782380D01*
X160804761Y-108820476D01*
X161261904Y-109277619D01*
X161261904Y-108782380D01*
X159761904Y-109544285D02*
X159380952Y-109810952D01*
X159761904Y-110001428D02*
X158961904Y-110001428D01*
X158961904Y-109696666D01*
X159000000Y-109620476D01*
X159038095Y-109582380D01*
X159114285Y-109544285D01*
X159228571Y-109544285D01*
X159304761Y-109582380D01*
X159342857Y-109620476D01*
X159380952Y-109696666D01*
X159380952Y-110001428D01*
X158961904Y-109277619D02*
X158961904Y-108782380D01*
X159266666Y-109049047D01*
X159266666Y-108934761D01*
X159304761Y-108858571D01*
X159342857Y-108820476D01*
X159419047Y-108782380D01*
X159609523Y-108782380D01*
X159685714Y-108820476D01*
X159723809Y-108858571D01*
X159761904Y-108934761D01*
X159761904Y-109163333D01*
X159723809Y-109239523D01*
X159685714Y-109277619D01*
X136455714Y-110761904D02*
X136189047Y-110380952D01*
X135998571Y-110761904D02*
X135998571Y-109961904D01*
X136303333Y-109961904D01*
X136379523Y-110000000D01*
X136417619Y-110038095D01*
X136455714Y-110114285D01*
X136455714Y-110228571D01*
X136417619Y-110304761D01*
X136379523Y-110342857D01*
X136303333Y-110380952D01*
X135998571Y-110380952D01*
X137179523Y-109961904D02*
X136798571Y-109961904D01*
X136760476Y-110342857D01*
X136798571Y-110304761D01*
X136874761Y-110266666D01*
X137065238Y-110266666D01*
X137141428Y-110304761D01*
X137179523Y-110342857D01*
X137217619Y-110419047D01*
X137217619Y-110609523D01*
X137179523Y-110685714D01*
X137141428Y-110723809D01*
X137065238Y-110761904D01*
X136874761Y-110761904D01*
X136798571Y-110723809D01*
X136760476Y-110685714D01*
X151761904Y-117344285D02*
X151380952Y-117610952D01*
X151761904Y-117801428D02*
X150961904Y-117801428D01*
X150961904Y-117496666D01*
X151000000Y-117420476D01*
X151038095Y-117382380D01*
X151114285Y-117344285D01*
X151228571Y-117344285D01*
X151304761Y-117382380D01*
X151342857Y-117420476D01*
X151380952Y-117496666D01*
X151380952Y-117801428D01*
X151304761Y-116887142D02*
X151266666Y-116963333D01*
X151228571Y-117001428D01*
X151152380Y-117039523D01*
X151114285Y-117039523D01*
X151038095Y-117001428D01*
X151000000Y-116963333D01*
X150961904Y-116887142D01*
X150961904Y-116734761D01*
X151000000Y-116658571D01*
X151038095Y-116620476D01*
X151114285Y-116582380D01*
X151152380Y-116582380D01*
X151228571Y-116620476D01*
X151266666Y-116658571D01*
X151304761Y-116734761D01*
X151304761Y-116887142D01*
X151342857Y-116963333D01*
X151380952Y-117001428D01*
X151457142Y-117039523D01*
X151609523Y-117039523D01*
X151685714Y-117001428D01*
X151723809Y-116963333D01*
X151761904Y-116887142D01*
X151761904Y-116734761D01*
X151723809Y-116658571D01*
X151685714Y-116620476D01*
X151609523Y-116582380D01*
X151457142Y-116582380D01*
X151380952Y-116620476D01*
X151342857Y-116658571D01*
X151304761Y-116734761D01*
X148455714Y-122261904D02*
X148189047Y-121880952D01*
X147998571Y-122261904D02*
X147998571Y-121461904D01*
X148303333Y-121461904D01*
X148379523Y-121500000D01*
X148417619Y-121538095D01*
X148455714Y-121614285D01*
X148455714Y-121728571D01*
X148417619Y-121804761D01*
X148379523Y-121842857D01*
X148303333Y-121880952D01*
X147998571Y-121880952D01*
X148836666Y-122261904D02*
X148989047Y-122261904D01*
X149065238Y-122223809D01*
X149103333Y-122185714D01*
X149179523Y-122071428D01*
X149217619Y-121919047D01*
X149217619Y-121614285D01*
X149179523Y-121538095D01*
X149141428Y-121500000D01*
X149065238Y-121461904D01*
X148912857Y-121461904D01*
X148836666Y-121500000D01*
X148798571Y-121538095D01*
X148760476Y-121614285D01*
X148760476Y-121804761D01*
X148798571Y-121880952D01*
X148836666Y-121919047D01*
X148912857Y-121957142D01*
X149065238Y-121957142D01*
X149141428Y-121919047D01*
X149179523Y-121880952D01*
X149217619Y-121804761D01*
X159194285Y-99762304D02*
X158927618Y-99381352D01*
X158737142Y-99762304D02*
X158737142Y-98962304D01*
X159041904Y-98962304D01*
X159118095Y-99000400D01*
X159156190Y-99038495D01*
X159194285Y-99114685D01*
X159194285Y-99228971D01*
X159156190Y-99305161D01*
X159118095Y-99343257D01*
X159041904Y-99381352D01*
X158737142Y-99381352D01*
X159956190Y-99762304D02*
X159499047Y-99762304D01*
X159727618Y-99762304D02*
X159727618Y-98962304D01*
X159651428Y-99076590D01*
X159575237Y-99152780D01*
X159499047Y-99190876D01*
X160451428Y-98962304D02*
X160527618Y-98962304D01*
X160603809Y-99000400D01*
X160641904Y-99038495D01*
X160679999Y-99114685D01*
X160718095Y-99267066D01*
X160718095Y-99457542D01*
X160679999Y-99609923D01*
X160641904Y-99686114D01*
X160603809Y-99724209D01*
X160527618Y-99762304D01*
X160451428Y-99762304D01*
X160375237Y-99724209D01*
X160337142Y-99686114D01*
X160299047Y-99609923D01*
X160260952Y-99457542D01*
X160260952Y-99267066D01*
X160299047Y-99114685D01*
X160337142Y-99038495D01*
X160375237Y-99000400D01*
X160451428Y-98962304D01*
X155194285Y-99762304D02*
X154927618Y-99381352D01*
X154737142Y-99762304D02*
X154737142Y-98962304D01*
X155041904Y-98962304D01*
X155118095Y-99000400D01*
X155156190Y-99038495D01*
X155194285Y-99114685D01*
X155194285Y-99228971D01*
X155156190Y-99305161D01*
X155118095Y-99343257D01*
X155041904Y-99381352D01*
X154737142Y-99381352D01*
X155956190Y-99762304D02*
X155499047Y-99762304D01*
X155727618Y-99762304D02*
X155727618Y-98962304D01*
X155651428Y-99076590D01*
X155575237Y-99152780D01*
X155499047Y-99190876D01*
X156718095Y-99762304D02*
X156260952Y-99762304D01*
X156489523Y-99762304D02*
X156489523Y-98962304D01*
X156413333Y-99076590D01*
X156337142Y-99152780D01*
X156260952Y-99190876D01*
X147194285Y-99762304D02*
X146927618Y-99381352D01*
X146737142Y-99762304D02*
X146737142Y-98962304D01*
X147041904Y-98962304D01*
X147118095Y-99000400D01*
X147156190Y-99038495D01*
X147194285Y-99114685D01*
X147194285Y-99228971D01*
X147156190Y-99305161D01*
X147118095Y-99343257D01*
X147041904Y-99381352D01*
X146737142Y-99381352D01*
X147956190Y-99762304D02*
X147499047Y-99762304D01*
X147727618Y-99762304D02*
X147727618Y-98962304D01*
X147651428Y-99076590D01*
X147575237Y-99152780D01*
X147499047Y-99190876D01*
X148222856Y-98962304D02*
X148718095Y-98962304D01*
X148451428Y-99267066D01*
X148565714Y-99267066D01*
X148641904Y-99305161D01*
X148679999Y-99343257D01*
X148718095Y-99419447D01*
X148718095Y-99609923D01*
X148679999Y-99686114D01*
X148641904Y-99724209D01*
X148565714Y-99762304D01*
X148337142Y-99762304D01*
X148260952Y-99724209D01*
X148222856Y-99686114D01*
X150784761Y-99762304D02*
X150784761Y-98962304D01*
X151089523Y-98962304D01*
X151165714Y-99000400D01*
X151203809Y-99038495D01*
X151241904Y-99114685D01*
X151241904Y-99228971D01*
X151203809Y-99305161D01*
X151165714Y-99343257D01*
X151089523Y-99381352D01*
X150784761Y-99381352D01*
X151508571Y-98962304D02*
X151699047Y-99762304D01*
X151851428Y-99190876D01*
X152003809Y-99762304D01*
X152194285Y-98962304D01*
X152956190Y-99762304D02*
X152689523Y-99381352D01*
X152499047Y-99762304D02*
X152499047Y-98962304D01*
X152803809Y-98962304D01*
X152879999Y-99000400D01*
X152918095Y-99038495D01*
X152956190Y-99114685D01*
X152956190Y-99228971D01*
X152918095Y-99305161D01*
X152879999Y-99343257D01*
X152803809Y-99381352D01*
X152499047Y-99381352D01*
X153718095Y-99762304D02*
X153260952Y-99762304D01*
X153489523Y-99762304D02*
X153489523Y-98962304D01*
X153413333Y-99076590D01*
X153337142Y-99152780D01*
X153260952Y-99190876D01*
X168049047Y-119661904D02*
X168049047Y-120233333D01*
X168010952Y-120347619D01*
X167934761Y-120423809D01*
X167820476Y-120461904D01*
X167744285Y-120461904D01*
X168353809Y-119661904D02*
X168849047Y-119661904D01*
X168582380Y-119966666D01*
X168696666Y-119966666D01*
X168772857Y-120004761D01*
X168810952Y-120042857D01*
X168849047Y-120119047D01*
X168849047Y-120309523D01*
X168810952Y-120385714D01*
X168772857Y-120423809D01*
X168696666Y-120461904D01*
X168468095Y-120461904D01*
X168391904Y-120423809D01*
X168353809Y-120385714D01*
X129649047Y-119861904D02*
X129649047Y-120433333D01*
X129610952Y-120547619D01*
X129534761Y-120623809D01*
X129420476Y-120661904D01*
X129344285Y-120661904D01*
X129991904Y-119938095D02*
X130030000Y-119900000D01*
X130106190Y-119861904D01*
X130296666Y-119861904D01*
X130372857Y-119900000D01*
X130410952Y-119938095D01*
X130449047Y-120014285D01*
X130449047Y-120090476D01*
X130410952Y-120204761D01*
X129953809Y-120661904D01*
X130449047Y-120661904D01*
X152993809Y-106338095D02*
X152917619Y-106300000D01*
X152841428Y-106223809D01*
X152727142Y-106109523D01*
X152650952Y-106071428D01*
X152574761Y-106071428D01*
X152612857Y-106261904D02*
X152536666Y-106223809D01*
X152460476Y-106147619D01*
X152422380Y-105995238D01*
X152422380Y-105728571D01*
X152460476Y-105576190D01*
X152536666Y-105500000D01*
X152612857Y-105461904D01*
X152765238Y-105461904D01*
X152841428Y-105500000D01*
X152917619Y-105576190D01*
X152955714Y-105728571D01*
X152955714Y-105995238D01*
X152917619Y-106147619D01*
X152841428Y-106223809D01*
X152765238Y-106261904D01*
X152612857Y-106261904D01*
X153717619Y-106261904D02*
X153260476Y-106261904D01*
X153489047Y-106261904D02*
X153489047Y-105461904D01*
X153412857Y-105576190D01*
X153336666Y-105652380D01*
X153260476Y-105690476D01*
X167918095Y-99961904D02*
X167918095Y-100533333D01*
X167879999Y-100647619D01*
X167803809Y-100723809D01*
X167689523Y-100761904D01*
X167613333Y-100761904D01*
X168641904Y-100228571D02*
X168641904Y-100761904D01*
X168451428Y-99923809D02*
X168260952Y-100495238D01*
X168756190Y-100495238D01*
X141985714Y-117722380D02*
X142023809Y-117760476D01*
X142061904Y-117874761D01*
X142061904Y-117950952D01*
X142023809Y-118065238D01*
X141947619Y-118141428D01*
X141871428Y-118179523D01*
X141719047Y-118217619D01*
X141604761Y-118217619D01*
X141452380Y-118179523D01*
X141376190Y-118141428D01*
X141300000Y-118065238D01*
X141261904Y-117950952D01*
X141261904Y-117874761D01*
X141300000Y-117760476D01*
X141338095Y-117722380D01*
X142061904Y-116960476D02*
X142061904Y-117417619D01*
X142061904Y-117189047D02*
X141261904Y-117189047D01*
X141376190Y-117265238D01*
X141452380Y-117341428D01*
X141490476Y-117417619D01*
X135777619Y-105885714D02*
X135739523Y-105923809D01*
X135625238Y-105961904D01*
X135549047Y-105961904D01*
X135434761Y-105923809D01*
X135358571Y-105847619D01*
X135320476Y-105771428D01*
X135282380Y-105619047D01*
X135282380Y-105504761D01*
X135320476Y-105352380D01*
X135358571Y-105276190D01*
X135434761Y-105200000D01*
X135549047Y-105161904D01*
X135625238Y-105161904D01*
X135739523Y-105200000D01*
X135777619Y-105238095D01*
X136234761Y-105504761D02*
X136158571Y-105466666D01*
X136120476Y-105428571D01*
X136082380Y-105352380D01*
X136082380Y-105314285D01*
X136120476Y-105238095D01*
X136158571Y-105200000D01*
X136234761Y-105161904D01*
X136387142Y-105161904D01*
X136463333Y-105200000D01*
X136501428Y-105238095D01*
X136539523Y-105314285D01*
X136539523Y-105352380D01*
X136501428Y-105428571D01*
X136463333Y-105466666D01*
X136387142Y-105504761D01*
X136234761Y-105504761D01*
X136158571Y-105542857D01*
X136120476Y-105580952D01*
X136082380Y-105657142D01*
X136082380Y-105809523D01*
X136120476Y-105885714D01*
X136158571Y-105923809D01*
X136234761Y-105961904D01*
X136387142Y-105961904D01*
X136463333Y-105923809D01*
X136501428Y-105885714D01*
X136539523Y-105809523D01*
X136539523Y-105657142D01*
X136501428Y-105580952D01*
X136463333Y-105542857D01*
X136387142Y-105504761D01*
X129417619Y-87861904D02*
X129417619Y-88433333D01*
X129379523Y-88547619D01*
X129303333Y-88623809D01*
X129189047Y-88661904D01*
X129112857Y-88661904D01*
X130217619Y-88661904D02*
X129760476Y-88661904D01*
X129989047Y-88661904D02*
X129989047Y-87861904D01*
X129912857Y-87976190D01*
X129836666Y-88052380D01*
X129760476Y-88090476D01*
X146885714Y-87722380D02*
X146923809Y-87760476D01*
X146961904Y-87874761D01*
X146961904Y-87950952D01*
X146923809Y-88065238D01*
X146847619Y-88141428D01*
X146771428Y-88179523D01*
X146619047Y-88217619D01*
X146504761Y-88217619D01*
X146352380Y-88179523D01*
X146276190Y-88141428D01*
X146200000Y-88065238D01*
X146161904Y-87950952D01*
X146161904Y-87874761D01*
X146200000Y-87760476D01*
X146238095Y-87722380D01*
X146961904Y-86960476D02*
X146961904Y-87417619D01*
X146961904Y-87189047D02*
X146161904Y-87189047D01*
X146276190Y-87265238D01*
X146352380Y-87341428D01*
X146390476Y-87417619D01*
X146161904Y-86236666D02*
X146161904Y-86617619D01*
X146542857Y-86655714D01*
X146504761Y-86617619D01*
X146466666Y-86541428D01*
X146466666Y-86350952D01*
X146504761Y-86274761D01*
X146542857Y-86236666D01*
X146619047Y-86198571D01*
X146809523Y-86198571D01*
X146885714Y-86236666D01*
X146923809Y-86274761D01*
X146961904Y-86350952D01*
X146961904Y-86541428D01*
X146923809Y-86617619D01*
X146885714Y-86655714D01*
X155777619Y-86385714D02*
X155739523Y-86423809D01*
X155625238Y-86461904D01*
X155549047Y-86461904D01*
X155434761Y-86423809D01*
X155358571Y-86347619D01*
X155320476Y-86271428D01*
X155282380Y-86119047D01*
X155282380Y-86004761D01*
X155320476Y-85852380D01*
X155358571Y-85776190D01*
X155434761Y-85700000D01*
X155549047Y-85661904D01*
X155625238Y-85661904D01*
X155739523Y-85700000D01*
X155777619Y-85738095D01*
X156539523Y-86461904D02*
X156082380Y-86461904D01*
X156310952Y-86461904D02*
X156310952Y-85661904D01*
X156234761Y-85776190D01*
X156158571Y-85852380D01*
X156082380Y-85890476D01*
X157225238Y-85928571D02*
X157225238Y-86461904D01*
X157034761Y-85623809D02*
X156844285Y-86195238D01*
X157339523Y-86195238D01*
X128777619Y-102961904D02*
X128510952Y-102580952D01*
X128320476Y-102961904D02*
X128320476Y-102161904D01*
X128625238Y-102161904D01*
X128701428Y-102200000D01*
X128739523Y-102238095D01*
X128777619Y-102314285D01*
X128777619Y-102428571D01*
X128739523Y-102504761D01*
X128701428Y-102542857D01*
X128625238Y-102580952D01*
X128320476Y-102580952D01*
X129539523Y-102961904D02*
X129082380Y-102961904D01*
X129310952Y-102961904D02*
X129310952Y-102161904D01*
X129234761Y-102276190D01*
X129158571Y-102352380D01*
X129082380Y-102390476D01*
X129844285Y-102238095D02*
X129882380Y-102200000D01*
X129958571Y-102161904D01*
X130149047Y-102161904D01*
X130225238Y-102200000D01*
X130263333Y-102238095D01*
X130301428Y-102314285D01*
X130301428Y-102390476D01*
X130263333Y-102504761D01*
X129806190Y-102961904D01*
X130301428Y-102961904D01*
M02*
