M48
INCH,TZ
T1C0.0157
T2C0.0394
T3C0.0984
T4C0.0500
T5C0.0630
T6C0.0709
T7C0.1000
%
G90
G05
T1
X50394Y-36220
X50394Y-37008
X50727Y-45771
X51382Y-44984
X53903Y-35700
X53996Y-40999
X54331Y-37402
X54331Y-39370
X54921Y-37402
X54921Y-39370
X55315Y-41935
X55709Y-37402
X55709Y-39370
X55892Y-42641
X56102Y-43504
X56161Y-41806
X56472Y-47811
X57217Y-44742
X57709Y-43596
X58977Y-47981
X59028Y-43974
X59346Y-41483
X59428Y-46339
X59917Y-46335
X60039Y-41732
X60151Y-42116
X60243Y-44117
X60244Y-45844
X60286Y-42465
X60886Y-41654
X60898Y-44753
X61290Y-45259
X61730Y-42873
X62052Y-45249
X62472Y-43227
X63205Y-45067
X63210Y-44648
X63299Y-43503
X63818Y-45178
X64961Y-36417
X64961Y-37402
X65103Y-42771
X65517Y-43206
X65530Y-43661
X65807Y-48018
X66929Y-36417
X66929Y-37402
T2
X51103Y-48590
X52103Y-48590
X53103Y-48590
X54103Y-48590
X55103Y-40590
X55103Y-48590
X56103Y-40590
X56103Y-48590
X57103Y-40590
X57103Y-48590
X58103Y-40590
X58103Y-48590
X59103Y-40590
X59103Y-48590
X60103Y-40590
X60103Y-48590
X61103Y-40590
X61103Y-48590
X62103Y-40590
X62103Y-48590
X63103Y-40590
X63103Y-48590
X64103Y-40590
X64103Y-48590
X65103Y-40590
X65103Y-48590
X66103Y-40590
X66103Y-48590
T3
X49603Y-41090
X49603Y-48090
T4
X52853Y-36590
T5
X67479Y-37090
T6
X65707Y-37090
T7
X67603Y-41090
X67603Y-48090
T0
M30
