G04 #@! TF.GenerationSoftware,KiCad,Pcbnew,(2018-02-15 revision 29b28de31)-makepkg*
G04 #@! TF.CreationDate,2018-11-16T08:15:48+03:00*
G04 #@! TF.ProjectId,ATM90E26_Featherwing,41544D39304532365F46656174686572,rev?*
G04 #@! TF.SameCoordinates,Original*
G04 #@! TF.FileFunction,Copper,L2,Bot,Signal*
G04 #@! TF.FilePolarity,Positive*
%FSLAX46Y46*%
G04 Gerber Fmt 4.6, Leading zero omitted, Abs format (unit mm)*
G04 Created by KiCad (PCBNEW (2018-02-15 revision 29b28de31)-makepkg) date 11/16/18 08:15:48*
%MOMM*%
%LPD*%
G01*
G04 APERTURE LIST*
%ADD10C,0.010000*%
%ADD11R,2.540000X1.270000*%
%ADD12R,1.270000X2.540000*%
%ADD13R,1.600200X1.168400*%
%ADD14R,0.635000X1.270000*%
%ADD15C,3.810000*%
%ADD16C,1.778000*%
%ADD17R,1.270000X0.635000*%
%ADD18C,0.800000*%
%ADD19C,0.400000*%
%ADD20C,0.250000*%
%ADD21C,0.254000*%
G04 APERTURE END LIST*
D10*
G36*
X139242348Y-97603910D02*
X139242778Y-97682454D01*
X139243942Y-97739298D01*
X139246207Y-97778105D01*
X139249940Y-97802538D01*
X139255506Y-97816262D01*
X139263273Y-97822940D01*
X139273605Y-97826236D01*
X139274943Y-97826556D01*
X139299079Y-97831562D01*
X139346701Y-97840829D01*
X139412741Y-97853392D01*
X139492128Y-97868287D01*
X139579796Y-97884551D01*
X139582875Y-97885119D01*
X139668789Y-97901410D01*
X139744696Y-97916652D01*
X139806045Y-97929861D01*
X139848282Y-97940054D01*
X139866855Y-97946248D01*
X139867184Y-97946543D01*
X139876253Y-97964788D01*
X139891367Y-98002405D01*
X139909262Y-98051271D01*
X139909358Y-98051543D01*
X139932493Y-98113093D01*
X139961965Y-98185657D01*
X139991597Y-98254057D01*
X139993062Y-98257294D01*
X140043626Y-98368702D01*
X139875160Y-98615399D01*
X139823803Y-98691077D01*
X139777889Y-98759631D01*
X139740030Y-98817088D01*
X139712837Y-98859476D01*
X139698921Y-98882825D01*
X139697889Y-98885042D01*
X139702484Y-98902010D01*
X139724655Y-98933701D01*
X139765447Y-98981352D01*
X139825905Y-99046198D01*
X139890227Y-99112397D01*
X139953612Y-99176214D01*
X140011451Y-99233329D01*
X140060175Y-99280305D01*
X140096210Y-99313703D01*
X140115984Y-99330085D01*
X140117002Y-99330694D01*
X140130572Y-99332505D01*
X140152733Y-99325683D01*
X140186478Y-99308540D01*
X140234800Y-99279393D01*
X140300692Y-99236555D01*
X140385517Y-99179448D01*
X140460177Y-99128766D01*
X140527140Y-99083461D01*
X140582516Y-99046150D01*
X140622420Y-99019452D01*
X140642962Y-99005985D01*
X140644356Y-99005137D01*
X140664038Y-99006781D01*
X140702293Y-99019245D01*
X140751889Y-99040048D01*
X140767728Y-99047462D01*
X140838290Y-99079814D01*
X140918353Y-99114328D01*
X140987629Y-99142365D01*
X141039045Y-99162568D01*
X141078119Y-99178615D01*
X141098541Y-99187888D01*
X141100114Y-99189041D01*
X141102721Y-99206096D01*
X141109863Y-99246298D01*
X141120523Y-99304302D01*
X141133685Y-99374763D01*
X141148333Y-99452335D01*
X141163449Y-99531672D01*
X141178018Y-99607431D01*
X141191022Y-99674264D01*
X141201445Y-99726828D01*
X141208270Y-99759776D01*
X141210199Y-99767857D01*
X141214962Y-99776205D01*
X141225718Y-99782506D01*
X141246098Y-99787045D01*
X141279734Y-99790104D01*
X141330255Y-99791967D01*
X141401292Y-99792918D01*
X141496476Y-99793240D01*
X141535492Y-99793257D01*
X141852799Y-99793257D01*
X141867839Y-99717057D01*
X141875995Y-99674663D01*
X141887899Y-99611400D01*
X141902116Y-99534962D01*
X141917210Y-99453043D01*
X141921355Y-99430400D01*
X141936053Y-99354806D01*
X141950505Y-99288953D01*
X141963375Y-99238366D01*
X141973322Y-99208574D01*
X141976287Y-99203612D01*
X141997283Y-99191426D01*
X142037967Y-99173953D01*
X142090322Y-99154577D01*
X142101600Y-99150734D01*
X142171523Y-99125339D01*
X142250418Y-99093817D01*
X142321266Y-99062969D01*
X142321595Y-99062817D01*
X142432733Y-99011447D01*
X142681253Y-99180399D01*
X142929772Y-99349352D01*
X143147058Y-99132429D01*
X143211726Y-99066819D01*
X143268733Y-99006979D01*
X143315033Y-98956267D01*
X143347584Y-98918046D01*
X143363343Y-98895675D01*
X143364343Y-98892466D01*
X143356469Y-98873626D01*
X143334578Y-98835180D01*
X143301267Y-98781330D01*
X143259131Y-98716276D01*
X143211943Y-98645940D01*
X143163810Y-98574555D01*
X143121928Y-98510908D01*
X143088871Y-98459041D01*
X143067218Y-98422995D01*
X143059543Y-98406867D01*
X143066037Y-98387189D01*
X143083150Y-98349875D01*
X143107326Y-98302621D01*
X143110013Y-98297612D01*
X143141927Y-98233977D01*
X143157579Y-98190341D01*
X143157745Y-98163202D01*
X143143204Y-98149057D01*
X143143000Y-98148975D01*
X143125779Y-98141905D01*
X143084899Y-98125042D01*
X143023525Y-98099695D01*
X142944819Y-98067171D01*
X142851947Y-98028778D01*
X142748072Y-97985822D01*
X142647502Y-97944222D01*
X142536516Y-97898504D01*
X142433703Y-97856526D01*
X142342215Y-97819548D01*
X142265201Y-97788827D01*
X142205815Y-97765622D01*
X142167209Y-97751190D01*
X142152800Y-97746743D01*
X142136272Y-97757896D01*
X142109930Y-97787069D01*
X142080887Y-97825971D01*
X141989039Y-97936757D01*
X141883759Y-98023351D01*
X141767266Y-98084716D01*
X141641776Y-98119815D01*
X141509507Y-98127608D01*
X141448457Y-98121943D01*
X141321795Y-98091078D01*
X141209941Y-98037920D01*
X141114001Y-97965767D01*
X141035076Y-97877917D01*
X140974270Y-97777665D01*
X140932687Y-97668310D01*
X140911428Y-97553147D01*
X140911599Y-97435475D01*
X140934301Y-97318590D01*
X140980638Y-97205789D01*
X141051713Y-97100369D01*
X141091911Y-97056368D01*
X141195129Y-96971979D01*
X141307925Y-96913222D01*
X141427010Y-96879704D01*
X141549095Y-96871035D01*
X141670893Y-96886823D01*
X141789116Y-96926678D01*
X141900475Y-96990207D01*
X142001684Y-97077021D01*
X142080887Y-97174029D01*
X142111162Y-97214437D01*
X142137219Y-97242982D01*
X142152825Y-97253257D01*
X142169843Y-97247877D01*
X142210500Y-97232575D01*
X142271642Y-97208612D01*
X142350119Y-97177244D01*
X142442780Y-97139732D01*
X142546472Y-97097333D01*
X142647526Y-97055663D01*
X142758607Y-97009690D01*
X142861541Y-96967107D01*
X142953165Y-96929221D01*
X143030316Y-96897340D01*
X143089831Y-96872771D01*
X143128544Y-96856820D01*
X143143000Y-96850910D01*
X143157685Y-96836948D01*
X143157642Y-96809940D01*
X143142099Y-96766413D01*
X143110284Y-96702890D01*
X143110013Y-96702388D01*
X143085323Y-96654560D01*
X143067338Y-96615897D01*
X143059614Y-96594095D01*
X143059543Y-96593133D01*
X143067378Y-96576721D01*
X143089165Y-96540487D01*
X143122328Y-96488474D01*
X143164291Y-96424725D01*
X143211943Y-96354060D01*
X143260191Y-96282116D01*
X143302151Y-96217274D01*
X143335227Y-96163735D01*
X143356821Y-96125697D01*
X143364343Y-96107533D01*
X143354457Y-96090808D01*
X143326826Y-96057180D01*
X143284495Y-96010010D01*
X143230505Y-95952658D01*
X143167899Y-95888484D01*
X143146983Y-95867497D01*
X142929623Y-95650499D01*
X142687220Y-95815668D01*
X142612781Y-95865864D01*
X142545972Y-95909919D01*
X142490665Y-95945362D01*
X142450729Y-95969719D01*
X142430036Y-95980522D01*
X142428563Y-95980838D01*
X142409058Y-95975143D01*
X142369822Y-95959826D01*
X142317430Y-95937537D01*
X142282355Y-95921893D01*
X142215201Y-95892641D01*
X142147358Y-95865094D01*
X142090034Y-95843737D01*
X142072572Y-95837935D01*
X142025938Y-95821452D01*
X141989905Y-95805340D01*
X141976287Y-95796490D01*
X141967952Y-95776960D01*
X141956137Y-95734334D01*
X141942181Y-95674145D01*
X141927422Y-95601922D01*
X141921355Y-95569600D01*
X141906273Y-95487522D01*
X141891669Y-95408795D01*
X141878980Y-95341109D01*
X141869642Y-95292160D01*
X141867839Y-95282943D01*
X141852799Y-95206743D01*
X141535492Y-95206743D01*
X141431154Y-95206914D01*
X141352213Y-95207616D01*
X141295038Y-95209134D01*
X141255999Y-95211749D01*
X141231465Y-95215746D01*
X141217805Y-95221409D01*
X141211389Y-95229020D01*
X141210199Y-95232143D01*
X141205980Y-95250978D01*
X141197562Y-95292588D01*
X141185961Y-95351630D01*
X141172195Y-95422757D01*
X141157280Y-95500625D01*
X141142232Y-95579887D01*
X141128069Y-95655198D01*
X141115806Y-95721213D01*
X141106461Y-95772587D01*
X141101050Y-95803975D01*
X141100114Y-95810959D01*
X141087596Y-95817285D01*
X141054246Y-95831290D01*
X141006377Y-95850355D01*
X140987629Y-95857634D01*
X140915195Y-95886996D01*
X140835170Y-95921571D01*
X140767728Y-95952537D01*
X140716159Y-95975323D01*
X140673785Y-95990482D01*
X140647834Y-95995542D01*
X140644356Y-95994736D01*
X140627936Y-95984041D01*
X140591417Y-95959620D01*
X140538687Y-95924095D01*
X140473635Y-95880087D01*
X140400151Y-95830217D01*
X140385645Y-95820356D01*
X140299704Y-95762492D01*
X140234261Y-95719956D01*
X140186304Y-95691054D01*
X140152820Y-95674090D01*
X140130795Y-95667367D01*
X140117217Y-95669190D01*
X140117131Y-95669236D01*
X140099297Y-95683586D01*
X140064817Y-95715323D01*
X140017268Y-95761010D01*
X139960222Y-95817204D01*
X139897255Y-95880468D01*
X139890227Y-95887602D01*
X139813020Y-95967330D01*
X139756330Y-96028857D01*
X139719110Y-96073421D01*
X139700315Y-96102257D01*
X139697889Y-96114958D01*
X139708471Y-96133494D01*
X139732916Y-96171961D01*
X139768612Y-96226386D01*
X139812947Y-96292798D01*
X139863311Y-96367225D01*
X139875160Y-96384601D01*
X140043626Y-96631297D01*
X139993062Y-96742706D01*
X139963595Y-96810457D01*
X139933959Y-96883183D01*
X139910330Y-96945703D01*
X139909358Y-96948457D01*
X139891457Y-96997360D01*
X139876320Y-97035057D01*
X139867210Y-97053425D01*
X139867184Y-97053456D01*
X139850717Y-97059285D01*
X139810219Y-97069192D01*
X139750242Y-97082195D01*
X139675340Y-97097309D01*
X139590064Y-97113552D01*
X139582875Y-97114881D01*
X139495014Y-97131175D01*
X139415260Y-97146133D01*
X139348681Y-97158791D01*
X139300347Y-97168186D01*
X139275325Y-97173354D01*
X139274943Y-97173444D01*
X139264299Y-97176589D01*
X139256262Y-97182704D01*
X139250467Y-97195453D01*
X139246547Y-97218500D01*
X139244135Y-97255509D01*
X139242865Y-97310144D01*
X139242371Y-97386067D01*
X139242286Y-97486944D01*
X139242286Y-97500000D01*
X139242348Y-97603910D01*
X139242348Y-97603910D01*
G37*
X139242348Y-97603910D02*
X139242778Y-97682454D01*
X139243942Y-97739298D01*
X139246207Y-97778105D01*
X139249940Y-97802538D01*
X139255506Y-97816262D01*
X139263273Y-97822940D01*
X139273605Y-97826236D01*
X139274943Y-97826556D01*
X139299079Y-97831562D01*
X139346701Y-97840829D01*
X139412741Y-97853392D01*
X139492128Y-97868287D01*
X139579796Y-97884551D01*
X139582875Y-97885119D01*
X139668789Y-97901410D01*
X139744696Y-97916652D01*
X139806045Y-97929861D01*
X139848282Y-97940054D01*
X139866855Y-97946248D01*
X139867184Y-97946543D01*
X139876253Y-97964788D01*
X139891367Y-98002405D01*
X139909262Y-98051271D01*
X139909358Y-98051543D01*
X139932493Y-98113093D01*
X139961965Y-98185657D01*
X139991597Y-98254057D01*
X139993062Y-98257294D01*
X140043626Y-98368702D01*
X139875160Y-98615399D01*
X139823803Y-98691077D01*
X139777889Y-98759631D01*
X139740030Y-98817088D01*
X139712837Y-98859476D01*
X139698921Y-98882825D01*
X139697889Y-98885042D01*
X139702484Y-98902010D01*
X139724655Y-98933701D01*
X139765447Y-98981352D01*
X139825905Y-99046198D01*
X139890227Y-99112397D01*
X139953612Y-99176214D01*
X140011451Y-99233329D01*
X140060175Y-99280305D01*
X140096210Y-99313703D01*
X140115984Y-99330085D01*
X140117002Y-99330694D01*
X140130572Y-99332505D01*
X140152733Y-99325683D01*
X140186478Y-99308540D01*
X140234800Y-99279393D01*
X140300692Y-99236555D01*
X140385517Y-99179448D01*
X140460177Y-99128766D01*
X140527140Y-99083461D01*
X140582516Y-99046150D01*
X140622420Y-99019452D01*
X140642962Y-99005985D01*
X140644356Y-99005137D01*
X140664038Y-99006781D01*
X140702293Y-99019245D01*
X140751889Y-99040048D01*
X140767728Y-99047462D01*
X140838290Y-99079814D01*
X140918353Y-99114328D01*
X140987629Y-99142365D01*
X141039045Y-99162568D01*
X141078119Y-99178615D01*
X141098541Y-99187888D01*
X141100114Y-99189041D01*
X141102721Y-99206096D01*
X141109863Y-99246298D01*
X141120523Y-99304302D01*
X141133685Y-99374763D01*
X141148333Y-99452335D01*
X141163449Y-99531672D01*
X141178018Y-99607431D01*
X141191022Y-99674264D01*
X141201445Y-99726828D01*
X141208270Y-99759776D01*
X141210199Y-99767857D01*
X141214962Y-99776205D01*
X141225718Y-99782506D01*
X141246098Y-99787045D01*
X141279734Y-99790104D01*
X141330255Y-99791967D01*
X141401292Y-99792918D01*
X141496476Y-99793240D01*
X141535492Y-99793257D01*
X141852799Y-99793257D01*
X141867839Y-99717057D01*
X141875995Y-99674663D01*
X141887899Y-99611400D01*
X141902116Y-99534962D01*
X141917210Y-99453043D01*
X141921355Y-99430400D01*
X141936053Y-99354806D01*
X141950505Y-99288953D01*
X141963375Y-99238366D01*
X141973322Y-99208574D01*
X141976287Y-99203612D01*
X141997283Y-99191426D01*
X142037967Y-99173953D01*
X142090322Y-99154577D01*
X142101600Y-99150734D01*
X142171523Y-99125339D01*
X142250418Y-99093817D01*
X142321266Y-99062969D01*
X142321595Y-99062817D01*
X142432733Y-99011447D01*
X142681253Y-99180399D01*
X142929772Y-99349352D01*
X143147058Y-99132429D01*
X143211726Y-99066819D01*
X143268733Y-99006979D01*
X143315033Y-98956267D01*
X143347584Y-98918046D01*
X143363343Y-98895675D01*
X143364343Y-98892466D01*
X143356469Y-98873626D01*
X143334578Y-98835180D01*
X143301267Y-98781330D01*
X143259131Y-98716276D01*
X143211943Y-98645940D01*
X143163810Y-98574555D01*
X143121928Y-98510908D01*
X143088871Y-98459041D01*
X143067218Y-98422995D01*
X143059543Y-98406867D01*
X143066037Y-98387189D01*
X143083150Y-98349875D01*
X143107326Y-98302621D01*
X143110013Y-98297612D01*
X143141927Y-98233977D01*
X143157579Y-98190341D01*
X143157745Y-98163202D01*
X143143204Y-98149057D01*
X143143000Y-98148975D01*
X143125779Y-98141905D01*
X143084899Y-98125042D01*
X143023525Y-98099695D01*
X142944819Y-98067171D01*
X142851947Y-98028778D01*
X142748072Y-97985822D01*
X142647502Y-97944222D01*
X142536516Y-97898504D01*
X142433703Y-97856526D01*
X142342215Y-97819548D01*
X142265201Y-97788827D01*
X142205815Y-97765622D01*
X142167209Y-97751190D01*
X142152800Y-97746743D01*
X142136272Y-97757896D01*
X142109930Y-97787069D01*
X142080887Y-97825971D01*
X141989039Y-97936757D01*
X141883759Y-98023351D01*
X141767266Y-98084716D01*
X141641776Y-98119815D01*
X141509507Y-98127608D01*
X141448457Y-98121943D01*
X141321795Y-98091078D01*
X141209941Y-98037920D01*
X141114001Y-97965767D01*
X141035076Y-97877917D01*
X140974270Y-97777665D01*
X140932687Y-97668310D01*
X140911428Y-97553147D01*
X140911599Y-97435475D01*
X140934301Y-97318590D01*
X140980638Y-97205789D01*
X141051713Y-97100369D01*
X141091911Y-97056368D01*
X141195129Y-96971979D01*
X141307925Y-96913222D01*
X141427010Y-96879704D01*
X141549095Y-96871035D01*
X141670893Y-96886823D01*
X141789116Y-96926678D01*
X141900475Y-96990207D01*
X142001684Y-97077021D01*
X142080887Y-97174029D01*
X142111162Y-97214437D01*
X142137219Y-97242982D01*
X142152825Y-97253257D01*
X142169843Y-97247877D01*
X142210500Y-97232575D01*
X142271642Y-97208612D01*
X142350119Y-97177244D01*
X142442780Y-97139732D01*
X142546472Y-97097333D01*
X142647526Y-97055663D01*
X142758607Y-97009690D01*
X142861541Y-96967107D01*
X142953165Y-96929221D01*
X143030316Y-96897340D01*
X143089831Y-96872771D01*
X143128544Y-96856820D01*
X143143000Y-96850910D01*
X143157685Y-96836948D01*
X143157642Y-96809940D01*
X143142099Y-96766413D01*
X143110284Y-96702890D01*
X143110013Y-96702388D01*
X143085323Y-96654560D01*
X143067338Y-96615897D01*
X143059614Y-96594095D01*
X143059543Y-96593133D01*
X143067378Y-96576721D01*
X143089165Y-96540487D01*
X143122328Y-96488474D01*
X143164291Y-96424725D01*
X143211943Y-96354060D01*
X143260191Y-96282116D01*
X143302151Y-96217274D01*
X143335227Y-96163735D01*
X143356821Y-96125697D01*
X143364343Y-96107533D01*
X143354457Y-96090808D01*
X143326826Y-96057180D01*
X143284495Y-96010010D01*
X143230505Y-95952658D01*
X143167899Y-95888484D01*
X143146983Y-95867497D01*
X142929623Y-95650499D01*
X142687220Y-95815668D01*
X142612781Y-95865864D01*
X142545972Y-95909919D01*
X142490665Y-95945362D01*
X142450729Y-95969719D01*
X142430036Y-95980522D01*
X142428563Y-95980838D01*
X142409058Y-95975143D01*
X142369822Y-95959826D01*
X142317430Y-95937537D01*
X142282355Y-95921893D01*
X142215201Y-95892641D01*
X142147358Y-95865094D01*
X142090034Y-95843737D01*
X142072572Y-95837935D01*
X142025938Y-95821452D01*
X141989905Y-95805340D01*
X141976287Y-95796490D01*
X141967952Y-95776960D01*
X141956137Y-95734334D01*
X141942181Y-95674145D01*
X141927422Y-95601922D01*
X141921355Y-95569600D01*
X141906273Y-95487522D01*
X141891669Y-95408795D01*
X141878980Y-95341109D01*
X141869642Y-95292160D01*
X141867839Y-95282943D01*
X141852799Y-95206743D01*
X141535492Y-95206743D01*
X141431154Y-95206914D01*
X141352213Y-95207616D01*
X141295038Y-95209134D01*
X141255999Y-95211749D01*
X141231465Y-95215746D01*
X141217805Y-95221409D01*
X141211389Y-95229020D01*
X141210199Y-95232143D01*
X141205980Y-95250978D01*
X141197562Y-95292588D01*
X141185961Y-95351630D01*
X141172195Y-95422757D01*
X141157280Y-95500625D01*
X141142232Y-95579887D01*
X141128069Y-95655198D01*
X141115806Y-95721213D01*
X141106461Y-95772587D01*
X141101050Y-95803975D01*
X141100114Y-95810959D01*
X141087596Y-95817285D01*
X141054246Y-95831290D01*
X141006377Y-95850355D01*
X140987629Y-95857634D01*
X140915195Y-95886996D01*
X140835170Y-95921571D01*
X140767728Y-95952537D01*
X140716159Y-95975323D01*
X140673785Y-95990482D01*
X140647834Y-95995542D01*
X140644356Y-95994736D01*
X140627936Y-95984041D01*
X140591417Y-95959620D01*
X140538687Y-95924095D01*
X140473635Y-95880087D01*
X140400151Y-95830217D01*
X140385645Y-95820356D01*
X140299704Y-95762492D01*
X140234261Y-95719956D01*
X140186304Y-95691054D01*
X140152820Y-95674090D01*
X140130795Y-95667367D01*
X140117217Y-95669190D01*
X140117131Y-95669236D01*
X140099297Y-95683586D01*
X140064817Y-95715323D01*
X140017268Y-95761010D01*
X139960222Y-95817204D01*
X139897255Y-95880468D01*
X139890227Y-95887602D01*
X139813020Y-95967330D01*
X139756330Y-96028857D01*
X139719110Y-96073421D01*
X139700315Y-96102257D01*
X139697889Y-96114958D01*
X139708471Y-96133494D01*
X139732916Y-96171961D01*
X139768612Y-96226386D01*
X139812947Y-96292798D01*
X139863311Y-96367225D01*
X139875160Y-96384601D01*
X140043626Y-96631297D01*
X139993062Y-96742706D01*
X139963595Y-96810457D01*
X139933959Y-96883183D01*
X139910330Y-96945703D01*
X139909358Y-96948457D01*
X139891457Y-96997360D01*
X139876320Y-97035057D01*
X139867210Y-97053425D01*
X139867184Y-97053456D01*
X139850717Y-97059285D01*
X139810219Y-97069192D01*
X139750242Y-97082195D01*
X139675340Y-97097309D01*
X139590064Y-97113552D01*
X139582875Y-97114881D01*
X139495014Y-97131175D01*
X139415260Y-97146133D01*
X139348681Y-97158791D01*
X139300347Y-97168186D01*
X139275325Y-97173354D01*
X139274943Y-97173444D01*
X139264299Y-97176589D01*
X139256262Y-97182704D01*
X139250467Y-97195453D01*
X139246547Y-97218500D01*
X139244135Y-97255509D01*
X139242865Y-97310144D01*
X139242371Y-97386067D01*
X139242286Y-97486944D01*
X139242286Y-97500000D01*
X139242348Y-97603910D01*
G36*
X143966966Y-100653595D02*
X144004497Y-100711021D01*
X144038096Y-100738719D01*
X144099064Y-100760662D01*
X144147308Y-100762405D01*
X144211816Y-100758457D01*
X144276934Y-100609686D01*
X144310202Y-100537349D01*
X144336964Y-100490084D01*
X144360144Y-100465507D01*
X144382667Y-100461237D01*
X144407455Y-100474889D01*
X144423886Y-100489943D01*
X144450235Y-100533746D01*
X144452081Y-100581389D01*
X144431546Y-100625145D01*
X144390752Y-100657289D01*
X144376347Y-100663038D01*
X144331356Y-100690576D01*
X144312182Y-100722258D01*
X144295779Y-100765714D01*
X144357966Y-100765714D01*
X144400283Y-100761872D01*
X144435969Y-100746823D01*
X144476943Y-100715280D01*
X144482267Y-100710592D01*
X144518720Y-100675506D01*
X144538283Y-100645347D01*
X144547283Y-100607615D01*
X144550230Y-100576335D01*
X144550965Y-100520385D01*
X144541660Y-100480555D01*
X144527846Y-100455708D01*
X144497467Y-100416656D01*
X144464613Y-100389625D01*
X144423294Y-100372517D01*
X144367521Y-100363238D01*
X144291305Y-100359693D01*
X144252622Y-100359410D01*
X144206247Y-100360372D01*
X144206247Y-100448007D01*
X144231126Y-100449023D01*
X144235200Y-100451556D01*
X144229665Y-100468274D01*
X144215017Y-100504249D01*
X144194190Y-100552331D01*
X144189714Y-100562386D01*
X144158814Y-100623152D01*
X144131657Y-100656632D01*
X144106220Y-100663990D01*
X144080481Y-100646391D01*
X144069109Y-100631856D01*
X144046364Y-100579410D01*
X144050122Y-100530322D01*
X144077884Y-100489227D01*
X144127152Y-100460758D01*
X144166257Y-100451631D01*
X144206247Y-100448007D01*
X144206247Y-100360372D01*
X144162249Y-100361285D01*
X144095384Y-100368196D01*
X144046695Y-100381884D01*
X144010849Y-100404096D01*
X143982513Y-100436574D01*
X143973355Y-100450733D01*
X143949507Y-100515053D01*
X143948006Y-100585473D01*
X143966966Y-100653595D01*
X143966966Y-100653595D01*
G37*
X143966966Y-100653595D02*
X144004497Y-100711021D01*
X144038096Y-100738719D01*
X144099064Y-100760662D01*
X144147308Y-100762405D01*
X144211816Y-100758457D01*
X144276934Y-100609686D01*
X144310202Y-100537349D01*
X144336964Y-100490084D01*
X144360144Y-100465507D01*
X144382667Y-100461237D01*
X144407455Y-100474889D01*
X144423886Y-100489943D01*
X144450235Y-100533746D01*
X144452081Y-100581389D01*
X144431546Y-100625145D01*
X144390752Y-100657289D01*
X144376347Y-100663038D01*
X144331356Y-100690576D01*
X144312182Y-100722258D01*
X144295779Y-100765714D01*
X144357966Y-100765714D01*
X144400283Y-100761872D01*
X144435969Y-100746823D01*
X144476943Y-100715280D01*
X144482267Y-100710592D01*
X144518720Y-100675506D01*
X144538283Y-100645347D01*
X144547283Y-100607615D01*
X144550230Y-100576335D01*
X144550965Y-100520385D01*
X144541660Y-100480555D01*
X144527846Y-100455708D01*
X144497467Y-100416656D01*
X144464613Y-100389625D01*
X144423294Y-100372517D01*
X144367521Y-100363238D01*
X144291305Y-100359693D01*
X144252622Y-100359410D01*
X144206247Y-100360372D01*
X144206247Y-100448007D01*
X144231126Y-100449023D01*
X144235200Y-100451556D01*
X144229665Y-100468274D01*
X144215017Y-100504249D01*
X144194190Y-100552331D01*
X144189714Y-100562386D01*
X144158814Y-100623152D01*
X144131657Y-100656632D01*
X144106220Y-100663990D01*
X144080481Y-100646391D01*
X144069109Y-100631856D01*
X144046364Y-100579410D01*
X144050122Y-100530322D01*
X144077884Y-100489227D01*
X144127152Y-100460758D01*
X144166257Y-100451631D01*
X144206247Y-100448007D01*
X144206247Y-100360372D01*
X144162249Y-100361285D01*
X144095384Y-100368196D01*
X144046695Y-100381884D01*
X144010849Y-100404096D01*
X143982513Y-100436574D01*
X143973355Y-100450733D01*
X143949507Y-100515053D01*
X143948006Y-100585473D01*
X143966966Y-100653595D01*
G36*
X143958752Y-100152600D02*
X143966334Y-100169948D01*
X143999128Y-100211356D01*
X144046547Y-100246765D01*
X144097151Y-100268664D01*
X144122098Y-100272229D01*
X144156927Y-100260279D01*
X144175357Y-100234067D01*
X144186516Y-100205964D01*
X144188572Y-100193095D01*
X144173649Y-100186829D01*
X144141175Y-100174456D01*
X144126502Y-100169028D01*
X144075744Y-100138590D01*
X144050427Y-100094520D01*
X144051206Y-100038010D01*
X144052203Y-100033825D01*
X144066507Y-100003655D01*
X144094393Y-99981476D01*
X144139287Y-99966327D01*
X144204615Y-99957250D01*
X144293804Y-99953286D01*
X144341261Y-99952914D01*
X144416071Y-99952730D01*
X144467069Y-99951522D01*
X144499471Y-99948309D01*
X144518495Y-99942109D01*
X144529356Y-99931940D01*
X144537272Y-99916819D01*
X144537670Y-99915946D01*
X144549981Y-99886828D01*
X144554514Y-99872403D01*
X144540809Y-99870186D01*
X144502925Y-99868289D01*
X144445715Y-99866847D01*
X144374027Y-99865998D01*
X144321565Y-99865829D01*
X144220047Y-99866692D01*
X144143032Y-99870070D01*
X144086023Y-99877142D01*
X144044526Y-99889088D01*
X144014043Y-99907090D01*
X143990080Y-99932327D01*
X143973355Y-99957247D01*
X143951097Y-100017171D01*
X143946076Y-100086911D01*
X143958752Y-100152600D01*
X143958752Y-100152600D01*
G37*
X143958752Y-100152600D02*
X143966334Y-100169948D01*
X143999128Y-100211356D01*
X144046547Y-100246765D01*
X144097151Y-100268664D01*
X144122098Y-100272229D01*
X144156927Y-100260279D01*
X144175357Y-100234067D01*
X144186516Y-100205964D01*
X144188572Y-100193095D01*
X144173649Y-100186829D01*
X144141175Y-100174456D01*
X144126502Y-100169028D01*
X144075744Y-100138590D01*
X144050427Y-100094520D01*
X144051206Y-100038010D01*
X144052203Y-100033825D01*
X144066507Y-100003655D01*
X144094393Y-99981476D01*
X144139287Y-99966327D01*
X144204615Y-99957250D01*
X144293804Y-99953286D01*
X144341261Y-99952914D01*
X144416071Y-99952730D01*
X144467069Y-99951522D01*
X144499471Y-99948309D01*
X144518495Y-99942109D01*
X144529356Y-99931940D01*
X144537272Y-99916819D01*
X144537670Y-99915946D01*
X144549981Y-99886828D01*
X144554514Y-99872403D01*
X144540809Y-99870186D01*
X144502925Y-99868289D01*
X144445715Y-99866847D01*
X144374027Y-99865998D01*
X144321565Y-99865829D01*
X144220047Y-99866692D01*
X144143032Y-99870070D01*
X144086023Y-99877142D01*
X144044526Y-99889088D01*
X144014043Y-99907090D01*
X143990080Y-99932327D01*
X143973355Y-99957247D01*
X143951097Y-100017171D01*
X143946076Y-100086911D01*
X143958752Y-100152600D01*
G36*
X143956335Y-99644876D02*
X143975344Y-99686667D01*
X143998378Y-99719469D01*
X144024133Y-99743503D01*
X144057358Y-99760097D01*
X144102800Y-99770577D01*
X144165207Y-99776271D01*
X144249327Y-99778507D01*
X144304721Y-99778743D01*
X144520826Y-99778743D01*
X144537670Y-99741774D01*
X144549981Y-99712656D01*
X144554514Y-99698231D01*
X144541025Y-99695472D01*
X144504653Y-99693282D01*
X144451542Y-99691942D01*
X144409372Y-99691657D01*
X144348447Y-99690434D01*
X144300115Y-99687136D01*
X144270518Y-99682321D01*
X144264229Y-99678496D01*
X144270652Y-99652783D01*
X144287125Y-99612418D01*
X144309458Y-99565679D01*
X144333457Y-99520845D01*
X144354930Y-99486193D01*
X144369685Y-99470002D01*
X144369845Y-99469938D01*
X144397152Y-99471330D01*
X144423219Y-99483818D01*
X144444392Y-99505743D01*
X144451474Y-99537743D01*
X144450649Y-99565092D01*
X144450042Y-99603826D01*
X144459116Y-99624158D01*
X144483092Y-99636369D01*
X144487613Y-99637909D01*
X144521806Y-99643203D01*
X144542568Y-99629047D01*
X144552462Y-99592148D01*
X144554292Y-99552289D01*
X144540727Y-99480562D01*
X144521355Y-99443432D01*
X144475845Y-99397576D01*
X144419983Y-99373256D01*
X144360957Y-99371073D01*
X144305953Y-99391629D01*
X144271486Y-99422549D01*
X144252189Y-99453420D01*
X144227759Y-99501942D01*
X144202985Y-99558485D01*
X144199199Y-99567910D01*
X144171791Y-99630019D01*
X144147634Y-99665822D01*
X144123619Y-99677337D01*
X144096635Y-99666580D01*
X144075543Y-99648114D01*
X144049572Y-99604469D01*
X144047624Y-99556446D01*
X144067637Y-99512406D01*
X144107551Y-99480709D01*
X144117848Y-99476549D01*
X144155724Y-99452327D01*
X144183842Y-99416965D01*
X144206917Y-99372343D01*
X144141485Y-99372343D01*
X144101506Y-99374969D01*
X144069997Y-99386230D01*
X144036378Y-99411199D01*
X144010484Y-99435169D01*
X143973817Y-99472441D01*
X143954121Y-99501401D01*
X143946220Y-99532505D01*
X143944914Y-99567713D01*
X143956335Y-99644876D01*
X143956335Y-99644876D01*
G37*
X143956335Y-99644876D02*
X143975344Y-99686667D01*
X143998378Y-99719469D01*
X144024133Y-99743503D01*
X144057358Y-99760097D01*
X144102800Y-99770577D01*
X144165207Y-99776271D01*
X144249327Y-99778507D01*
X144304721Y-99778743D01*
X144520826Y-99778743D01*
X144537670Y-99741774D01*
X144549981Y-99712656D01*
X144554514Y-99698231D01*
X144541025Y-99695472D01*
X144504653Y-99693282D01*
X144451542Y-99691942D01*
X144409372Y-99691657D01*
X144348447Y-99690434D01*
X144300115Y-99687136D01*
X144270518Y-99682321D01*
X144264229Y-99678496D01*
X144270652Y-99652783D01*
X144287125Y-99612418D01*
X144309458Y-99565679D01*
X144333457Y-99520845D01*
X144354930Y-99486193D01*
X144369685Y-99470002D01*
X144369845Y-99469938D01*
X144397152Y-99471330D01*
X144423219Y-99483818D01*
X144444392Y-99505743D01*
X144451474Y-99537743D01*
X144450649Y-99565092D01*
X144450042Y-99603826D01*
X144459116Y-99624158D01*
X144483092Y-99636369D01*
X144487613Y-99637909D01*
X144521806Y-99643203D01*
X144542568Y-99629047D01*
X144552462Y-99592148D01*
X144554292Y-99552289D01*
X144540727Y-99480562D01*
X144521355Y-99443432D01*
X144475845Y-99397576D01*
X144419983Y-99373256D01*
X144360957Y-99371073D01*
X144305953Y-99391629D01*
X144271486Y-99422549D01*
X144252189Y-99453420D01*
X144227759Y-99501942D01*
X144202985Y-99558485D01*
X144199199Y-99567910D01*
X144171791Y-99630019D01*
X144147634Y-99665822D01*
X144123619Y-99677337D01*
X144096635Y-99666580D01*
X144075543Y-99648114D01*
X144049572Y-99604469D01*
X144047624Y-99556446D01*
X144067637Y-99512406D01*
X144107551Y-99480709D01*
X144117848Y-99476549D01*
X144155724Y-99452327D01*
X144183842Y-99416965D01*
X144206917Y-99372343D01*
X144141485Y-99372343D01*
X144101506Y-99374969D01*
X144069997Y-99386230D01*
X144036378Y-99411199D01*
X144010484Y-99435169D01*
X143973817Y-99472441D01*
X143954121Y-99501401D01*
X143946220Y-99532505D01*
X143944914Y-99567713D01*
X143956335Y-99644876D01*
G36*
X143958663Y-99279833D02*
X143996850Y-99282048D01*
X144054886Y-99283784D01*
X144128180Y-99284899D01*
X144205055Y-99285257D01*
X144465196Y-99285257D01*
X144511127Y-99239326D01*
X144539429Y-99207675D01*
X144550893Y-99179890D01*
X144550168Y-99141915D01*
X144548321Y-99126840D01*
X144542948Y-99079726D01*
X144539869Y-99040756D01*
X144539585Y-99031257D01*
X144541445Y-98999233D01*
X144546114Y-98953432D01*
X144548321Y-98935674D01*
X144551735Y-98892057D01*
X144544320Y-98862745D01*
X144521427Y-98833680D01*
X144511127Y-98823188D01*
X144465196Y-98777257D01*
X143978602Y-98777257D01*
X143961758Y-98814226D01*
X143949282Y-98846059D01*
X143944914Y-98864683D01*
X143958718Y-98869458D01*
X143997286Y-98873921D01*
X144056356Y-98877775D01*
X144131663Y-98880722D01*
X144195286Y-98882143D01*
X144445657Y-98886114D01*
X144450556Y-98920759D01*
X144447131Y-98952268D01*
X144436041Y-98967708D01*
X144415308Y-98972023D01*
X144371145Y-98975708D01*
X144309146Y-98978469D01*
X144234909Y-98980012D01*
X144196706Y-98980235D01*
X143976783Y-98980457D01*
X143960849Y-99026166D01*
X143950015Y-99058518D01*
X143944962Y-99076115D01*
X143944914Y-99076623D01*
X143958648Y-99078388D01*
X143996730Y-99080329D01*
X144054482Y-99082282D01*
X144127227Y-99084084D01*
X144195286Y-99085343D01*
X144445657Y-99089314D01*
X144445657Y-99176400D01*
X144217240Y-99180396D01*
X143988822Y-99184392D01*
X143966868Y-99226847D01*
X143951793Y-99258192D01*
X143944951Y-99276744D01*
X143944914Y-99277279D01*
X143958663Y-99279833D01*
X143958663Y-99279833D01*
G37*
X143958663Y-99279833D02*
X143996850Y-99282048D01*
X144054886Y-99283784D01*
X144128180Y-99284899D01*
X144205055Y-99285257D01*
X144465196Y-99285257D01*
X144511127Y-99239326D01*
X144539429Y-99207675D01*
X144550893Y-99179890D01*
X144550168Y-99141915D01*
X144548321Y-99126840D01*
X144542948Y-99079726D01*
X144539869Y-99040756D01*
X144539585Y-99031257D01*
X144541445Y-98999233D01*
X144546114Y-98953432D01*
X144548321Y-98935674D01*
X144551735Y-98892057D01*
X144544320Y-98862745D01*
X144521427Y-98833680D01*
X144511127Y-98823188D01*
X144465196Y-98777257D01*
X143978602Y-98777257D01*
X143961758Y-98814226D01*
X143949282Y-98846059D01*
X143944914Y-98864683D01*
X143958718Y-98869458D01*
X143997286Y-98873921D01*
X144056356Y-98877775D01*
X144131663Y-98880722D01*
X144195286Y-98882143D01*
X144445657Y-98886114D01*
X144450556Y-98920759D01*
X144447131Y-98952268D01*
X144436041Y-98967708D01*
X144415308Y-98972023D01*
X144371145Y-98975708D01*
X144309146Y-98978469D01*
X144234909Y-98980012D01*
X144196706Y-98980235D01*
X143976783Y-98980457D01*
X143960849Y-99026166D01*
X143950015Y-99058518D01*
X143944962Y-99076115D01*
X143944914Y-99076623D01*
X143958648Y-99078388D01*
X143996730Y-99080329D01*
X144054482Y-99082282D01*
X144127227Y-99084084D01*
X144195286Y-99085343D01*
X144445657Y-99089314D01*
X144445657Y-99176400D01*
X144217240Y-99180396D01*
X143988822Y-99184392D01*
X143966868Y-99226847D01*
X143951793Y-99258192D01*
X143944951Y-99276744D01*
X143944914Y-99277279D01*
X143958663Y-99279833D01*
G36*
X144065358Y-98690117D02*
X144173837Y-98689933D01*
X144257287Y-98689219D01*
X144319704Y-98687675D01*
X144365085Y-98685001D01*
X144397429Y-98680894D01*
X144420733Y-98675055D01*
X144438995Y-98667182D01*
X144449418Y-98661221D01*
X144505945Y-98611855D01*
X144541377Y-98549264D01*
X144554090Y-98480013D01*
X144542463Y-98410668D01*
X144521568Y-98369375D01*
X144485422Y-98326025D01*
X144441276Y-98296481D01*
X144383462Y-98278655D01*
X144306313Y-98270463D01*
X144249714Y-98269302D01*
X144245647Y-98269458D01*
X144245647Y-98370857D01*
X144310550Y-98371476D01*
X144353514Y-98374314D01*
X144381622Y-98380840D01*
X144401953Y-98392523D01*
X144417288Y-98406483D01*
X144446890Y-98453365D01*
X144449419Y-98503701D01*
X144424705Y-98551276D01*
X144421356Y-98554979D01*
X144403935Y-98570783D01*
X144383209Y-98580693D01*
X144352362Y-98586058D01*
X144304577Y-98588228D01*
X144251748Y-98588571D01*
X144185381Y-98587827D01*
X144141106Y-98584748D01*
X144112009Y-98578061D01*
X144091173Y-98566496D01*
X144080107Y-98557013D01*
X144052198Y-98512960D01*
X144048843Y-98462224D01*
X144070159Y-98413796D01*
X144078073Y-98404450D01*
X144095647Y-98388540D01*
X144116587Y-98378610D01*
X144147782Y-98373278D01*
X144196122Y-98371163D01*
X144245647Y-98370857D01*
X144245647Y-98269458D01*
X144158568Y-98272810D01*
X144090086Y-98284726D01*
X144038600Y-98307135D01*
X143998443Y-98342124D01*
X143977861Y-98369375D01*
X143955625Y-98418907D01*
X143945304Y-98476316D01*
X143948067Y-98529682D01*
X143959212Y-98559543D01*
X143962383Y-98571261D01*
X143950557Y-98579037D01*
X143918866Y-98584465D01*
X143870593Y-98588571D01*
X143816829Y-98593067D01*
X143784482Y-98599313D01*
X143765985Y-98610676D01*
X143753770Y-98630528D01*
X143748362Y-98643000D01*
X143728601Y-98690171D01*
X144065358Y-98690117D01*
X144065358Y-98690117D01*
G37*
X144065358Y-98690117D02*
X144173837Y-98689933D01*
X144257287Y-98689219D01*
X144319704Y-98687675D01*
X144365085Y-98685001D01*
X144397429Y-98680894D01*
X144420733Y-98675055D01*
X144438995Y-98667182D01*
X144449418Y-98661221D01*
X144505945Y-98611855D01*
X144541377Y-98549264D01*
X144554090Y-98480013D01*
X144542463Y-98410668D01*
X144521568Y-98369375D01*
X144485422Y-98326025D01*
X144441276Y-98296481D01*
X144383462Y-98278655D01*
X144306313Y-98270463D01*
X144249714Y-98269302D01*
X144245647Y-98269458D01*
X144245647Y-98370857D01*
X144310550Y-98371476D01*
X144353514Y-98374314D01*
X144381622Y-98380840D01*
X144401953Y-98392523D01*
X144417288Y-98406483D01*
X144446890Y-98453365D01*
X144449419Y-98503701D01*
X144424705Y-98551276D01*
X144421356Y-98554979D01*
X144403935Y-98570783D01*
X144383209Y-98580693D01*
X144352362Y-98586058D01*
X144304577Y-98588228D01*
X144251748Y-98588571D01*
X144185381Y-98587827D01*
X144141106Y-98584748D01*
X144112009Y-98578061D01*
X144091173Y-98566496D01*
X144080107Y-98557013D01*
X144052198Y-98512960D01*
X144048843Y-98462224D01*
X144070159Y-98413796D01*
X144078073Y-98404450D01*
X144095647Y-98388540D01*
X144116587Y-98378610D01*
X144147782Y-98373278D01*
X144196122Y-98371163D01*
X144245647Y-98370857D01*
X144245647Y-98269458D01*
X144158568Y-98272810D01*
X144090086Y-98284726D01*
X144038600Y-98307135D01*
X143998443Y-98342124D01*
X143977861Y-98369375D01*
X143955625Y-98418907D01*
X143945304Y-98476316D01*
X143948067Y-98529682D01*
X143959212Y-98559543D01*
X143962383Y-98571261D01*
X143950557Y-98579037D01*
X143918866Y-98584465D01*
X143870593Y-98588571D01*
X143816829Y-98593067D01*
X143784482Y-98599313D01*
X143765985Y-98610676D01*
X143753770Y-98630528D01*
X143748362Y-98643000D01*
X143728601Y-98690171D01*
X144065358Y-98690117D01*
G36*
X143949755Y-98029926D02*
X143974084Y-98095858D01*
X144017117Y-98149273D01*
X144047409Y-98170164D01*
X144102994Y-98192939D01*
X144143186Y-98192466D01*
X144170217Y-98168562D01*
X144174813Y-98159717D01*
X144189144Y-98121530D01*
X144185472Y-98102028D01*
X144161407Y-98095422D01*
X144148114Y-98095086D01*
X144099210Y-98082992D01*
X144064999Y-98051471D01*
X144048476Y-98007659D01*
X144052634Y-97958695D01*
X144074227Y-97918894D01*
X144086544Y-97905450D01*
X144101487Y-97895921D01*
X144124075Y-97889485D01*
X144159328Y-97885317D01*
X144212266Y-97882597D01*
X144287907Y-97880502D01*
X144311857Y-97879960D01*
X144393790Y-97877981D01*
X144451455Y-97875731D01*
X144489608Y-97872357D01*
X144513004Y-97867006D01*
X144526398Y-97858824D01*
X144534545Y-97846959D01*
X144538144Y-97839362D01*
X144550452Y-97807102D01*
X144554514Y-97788111D01*
X144540948Y-97781836D01*
X144499934Y-97778006D01*
X144430999Y-97776600D01*
X144333669Y-97777598D01*
X144318657Y-97777908D01*
X144229859Y-97780101D01*
X144165019Y-97782693D01*
X144119067Y-97786382D01*
X144086935Y-97791864D01*
X144063553Y-97799835D01*
X144043852Y-97810993D01*
X144035410Y-97816830D01*
X143998057Y-97850296D01*
X143969003Y-97887727D01*
X143966467Y-97892309D01*
X143946443Y-97959426D01*
X143949755Y-98029926D01*
X143949755Y-98029926D01*
G37*
X143949755Y-98029926D02*
X143974084Y-98095858D01*
X144017117Y-98149273D01*
X144047409Y-98170164D01*
X144102994Y-98192939D01*
X144143186Y-98192466D01*
X144170217Y-98168562D01*
X144174813Y-98159717D01*
X144189144Y-98121530D01*
X144185472Y-98102028D01*
X144161407Y-98095422D01*
X144148114Y-98095086D01*
X144099210Y-98082992D01*
X144064999Y-98051471D01*
X144048476Y-98007659D01*
X144052634Y-97958695D01*
X144074227Y-97918894D01*
X144086544Y-97905450D01*
X144101487Y-97895921D01*
X144124075Y-97889485D01*
X144159328Y-97885317D01*
X144212266Y-97882597D01*
X144287907Y-97880502D01*
X144311857Y-97879960D01*
X144393790Y-97877981D01*
X144451455Y-97875731D01*
X144489608Y-97872357D01*
X144513004Y-97867006D01*
X144526398Y-97858824D01*
X144534545Y-97846959D01*
X144538144Y-97839362D01*
X144550452Y-97807102D01*
X144554514Y-97788111D01*
X144540948Y-97781836D01*
X144499934Y-97778006D01*
X144430999Y-97776600D01*
X144333669Y-97777598D01*
X144318657Y-97777908D01*
X144229859Y-97780101D01*
X144165019Y-97782693D01*
X144119067Y-97786382D01*
X144086935Y-97791864D01*
X144063553Y-97799835D01*
X144043852Y-97810993D01*
X144035410Y-97816830D01*
X143998057Y-97850296D01*
X143969003Y-97887727D01*
X143966467Y-97892309D01*
X143946443Y-97959426D01*
X143949755Y-98029926D01*
G36*
X143950968Y-97539744D02*
X143972087Y-97596616D01*
X143972493Y-97597267D01*
X143998380Y-97632440D01*
X144028633Y-97658407D01*
X144068058Y-97676670D01*
X144121462Y-97688732D01*
X144193651Y-97696096D01*
X144289432Y-97700264D01*
X144303078Y-97700629D01*
X144508842Y-97705876D01*
X144531678Y-97661716D01*
X144547110Y-97629763D01*
X144554423Y-97610470D01*
X144554514Y-97609578D01*
X144541022Y-97606239D01*
X144504626Y-97603587D01*
X144451452Y-97601956D01*
X144408393Y-97601600D01*
X144338641Y-97601592D01*
X144294837Y-97598403D01*
X144273944Y-97587288D01*
X144272925Y-97563501D01*
X144288741Y-97522296D01*
X144317815Y-97460086D01*
X144341963Y-97414341D01*
X144362913Y-97390813D01*
X144385747Y-97383896D01*
X144386877Y-97383886D01*
X144426212Y-97395299D01*
X144447462Y-97429092D01*
X144450539Y-97480809D01*
X144450006Y-97518061D01*
X144460735Y-97537703D01*
X144486505Y-97549952D01*
X144519337Y-97557002D01*
X144537966Y-97546842D01*
X144540632Y-97543017D01*
X144551340Y-97507001D01*
X144552856Y-97456566D01*
X144545759Y-97404626D01*
X144532788Y-97367822D01*
X144489585Y-97316938D01*
X144429446Y-97288014D01*
X144382462Y-97282286D01*
X144340082Y-97286657D01*
X144305488Y-97302475D01*
X144274763Y-97333797D01*
X144243990Y-97384678D01*
X144209252Y-97459176D01*
X144207288Y-97463714D01*
X144176287Y-97530821D01*
X144150862Y-97572232D01*
X144128014Y-97589981D01*
X144104745Y-97586107D01*
X144078056Y-97562643D01*
X144071914Y-97555627D01*
X144048100Y-97508630D01*
X144049103Y-97459933D01*
X144072451Y-97417522D01*
X144115675Y-97389384D01*
X144124160Y-97386769D01*
X144165308Y-97361308D01*
X144185128Y-97329001D01*
X144204770Y-97282286D01*
X144153950Y-97282286D01*
X144080082Y-97296496D01*
X144012327Y-97338675D01*
X143989661Y-97360624D01*
X143960569Y-97410517D01*
X143947400Y-97473967D01*
X143950968Y-97539744D01*
X143950968Y-97539744D01*
G37*
X143950968Y-97539744D02*
X143972087Y-97596616D01*
X143972493Y-97597267D01*
X143998380Y-97632440D01*
X144028633Y-97658407D01*
X144068058Y-97676670D01*
X144121462Y-97688732D01*
X144193651Y-97696096D01*
X144289432Y-97700264D01*
X144303078Y-97700629D01*
X144508842Y-97705876D01*
X144531678Y-97661716D01*
X144547110Y-97629763D01*
X144554423Y-97610470D01*
X144554514Y-97609578D01*
X144541022Y-97606239D01*
X144504626Y-97603587D01*
X144451452Y-97601956D01*
X144408393Y-97601600D01*
X144338641Y-97601592D01*
X144294837Y-97598403D01*
X144273944Y-97587288D01*
X144272925Y-97563501D01*
X144288741Y-97522296D01*
X144317815Y-97460086D01*
X144341963Y-97414341D01*
X144362913Y-97390813D01*
X144385747Y-97383896D01*
X144386877Y-97383886D01*
X144426212Y-97395299D01*
X144447462Y-97429092D01*
X144450539Y-97480809D01*
X144450006Y-97518061D01*
X144460735Y-97537703D01*
X144486505Y-97549952D01*
X144519337Y-97557002D01*
X144537966Y-97546842D01*
X144540632Y-97543017D01*
X144551340Y-97507001D01*
X144552856Y-97456566D01*
X144545759Y-97404626D01*
X144532788Y-97367822D01*
X144489585Y-97316938D01*
X144429446Y-97288014D01*
X144382462Y-97282286D01*
X144340082Y-97286657D01*
X144305488Y-97302475D01*
X144274763Y-97333797D01*
X144243990Y-97384678D01*
X144209252Y-97459176D01*
X144207288Y-97463714D01*
X144176287Y-97530821D01*
X144150862Y-97572232D01*
X144128014Y-97589981D01*
X144104745Y-97586107D01*
X144078056Y-97562643D01*
X144071914Y-97555627D01*
X144048100Y-97508630D01*
X144049103Y-97459933D01*
X144072451Y-97417522D01*
X144115675Y-97389384D01*
X144124160Y-97386769D01*
X144165308Y-97361308D01*
X144185128Y-97329001D01*
X144204770Y-97282286D01*
X144153950Y-97282286D01*
X144080082Y-97296496D01*
X144012327Y-97338675D01*
X143989661Y-97360624D01*
X143960569Y-97410517D01*
X143947400Y-97473967D01*
X143950968Y-97539744D01*
G36*
X143851289Y-96875886D02*
X143910613Y-96880139D01*
X143945572Y-96885025D01*
X143960820Y-96891795D01*
X143961015Y-96901702D01*
X143959195Y-96904914D01*
X143946015Y-96947644D01*
X143946785Y-97003227D01*
X143960333Y-97059737D01*
X143977861Y-97095082D01*
X144005861Y-97131321D01*
X144037549Y-97157813D01*
X144077813Y-97175999D01*
X144131543Y-97187322D01*
X144203626Y-97193222D01*
X144298951Y-97195143D01*
X144317237Y-97195177D01*
X144522646Y-97195200D01*
X144538580Y-97149491D01*
X144549420Y-97117027D01*
X144554468Y-97099215D01*
X144554514Y-97098691D01*
X144540828Y-97096937D01*
X144503076Y-97095444D01*
X144446224Y-97094326D01*
X144375234Y-97093697D01*
X144332073Y-97093600D01*
X144246973Y-97093398D01*
X144185981Y-97092358D01*
X144144177Y-97089831D01*
X144116642Y-97085164D01*
X144098456Y-97077707D01*
X144084698Y-97066811D01*
X144078073Y-97060007D01*
X144051375Y-97013272D01*
X144049375Y-96962272D01*
X144071955Y-96916001D01*
X144080107Y-96907444D01*
X144095436Y-96894893D01*
X144113618Y-96886188D01*
X144139909Y-96880631D01*
X144179562Y-96877526D01*
X144237832Y-96876176D01*
X144318173Y-96875886D01*
X144522646Y-96875886D01*
X144538580Y-96830177D01*
X144549420Y-96797713D01*
X144554468Y-96779901D01*
X144554514Y-96779377D01*
X144540623Y-96778037D01*
X144501439Y-96776828D01*
X144440700Y-96775801D01*
X144362141Y-96775002D01*
X144269498Y-96774481D01*
X144166509Y-96774286D01*
X143769342Y-96774286D01*
X143749444Y-96821457D01*
X143729547Y-96868629D01*
X143851289Y-96875886D01*
X143851289Y-96875886D01*
G37*
X143851289Y-96875886D02*
X143910613Y-96880139D01*
X143945572Y-96885025D01*
X143960820Y-96891795D01*
X143961015Y-96901702D01*
X143959195Y-96904914D01*
X143946015Y-96947644D01*
X143946785Y-97003227D01*
X143960333Y-97059737D01*
X143977861Y-97095082D01*
X144005861Y-97131321D01*
X144037549Y-97157813D01*
X144077813Y-97175999D01*
X144131543Y-97187322D01*
X144203626Y-97193222D01*
X144298951Y-97195143D01*
X144317237Y-97195177D01*
X144522646Y-97195200D01*
X144538580Y-97149491D01*
X144549420Y-97117027D01*
X144554468Y-97099215D01*
X144554514Y-97098691D01*
X144540828Y-97096937D01*
X144503076Y-97095444D01*
X144446224Y-97094326D01*
X144375234Y-97093697D01*
X144332073Y-97093600D01*
X144246973Y-97093398D01*
X144185981Y-97092358D01*
X144144177Y-97089831D01*
X144116642Y-97085164D01*
X144098456Y-97077707D01*
X144084698Y-97066811D01*
X144078073Y-97060007D01*
X144051375Y-97013272D01*
X144049375Y-96962272D01*
X144071955Y-96916001D01*
X144080107Y-96907444D01*
X144095436Y-96894893D01*
X144113618Y-96886188D01*
X144139909Y-96880631D01*
X144179562Y-96877526D01*
X144237832Y-96876176D01*
X144318173Y-96875886D01*
X144522646Y-96875886D01*
X144538580Y-96830177D01*
X144549420Y-96797713D01*
X144554468Y-96779901D01*
X144554514Y-96779377D01*
X144540623Y-96778037D01*
X144501439Y-96776828D01*
X144440700Y-96775801D01*
X144362141Y-96775002D01*
X144269498Y-96774481D01*
X144166509Y-96774286D01*
X143769342Y-96774286D01*
X143749444Y-96821457D01*
X143729547Y-96868629D01*
X143851289Y-96875886D01*
G36*
X143931239Y-95668303D02*
X143969735Y-95725527D01*
X144025335Y-95769749D01*
X144096086Y-95796167D01*
X144148162Y-95801510D01*
X144169893Y-95800903D01*
X144186531Y-95795822D01*
X144201437Y-95781855D01*
X144217973Y-95754589D01*
X144239498Y-95709612D01*
X144269374Y-95642511D01*
X144269524Y-95642171D01*
X144297813Y-95580407D01*
X144322933Y-95529759D01*
X144342179Y-95495404D01*
X144352848Y-95482518D01*
X144352934Y-95482514D01*
X144376166Y-95493872D01*
X144401774Y-95520431D01*
X144420221Y-95550923D01*
X144423886Y-95566370D01*
X144411212Y-95608515D01*
X144379471Y-95644808D01*
X144344572Y-95662517D01*
X144318845Y-95679552D01*
X144289546Y-95712922D01*
X144264235Y-95752149D01*
X144250471Y-95786756D01*
X144249714Y-95793993D01*
X144262160Y-95802139D01*
X144293972Y-95802630D01*
X144336866Y-95796643D01*
X144382558Y-95785357D01*
X144422761Y-95769950D01*
X144424322Y-95769171D01*
X144489062Y-95722804D01*
X144533097Y-95662711D01*
X144554711Y-95594465D01*
X144552185Y-95523638D01*
X144523804Y-95455804D01*
X144521808Y-95452788D01*
X144473448Y-95399427D01*
X144410352Y-95364340D01*
X144327387Y-95344922D01*
X144304078Y-95342316D01*
X144194055Y-95337701D01*
X144142748Y-95343233D01*
X144142748Y-95482514D01*
X144174753Y-95484324D01*
X144184093Y-95494222D01*
X144177105Y-95518898D01*
X144160587Y-95557795D01*
X144139881Y-95601275D01*
X144139333Y-95602356D01*
X144119949Y-95639209D01*
X144107013Y-95654000D01*
X144093451Y-95650353D01*
X144075632Y-95634995D01*
X144049845Y-95595923D01*
X144047950Y-95553846D01*
X144066717Y-95516103D01*
X144102915Y-95490034D01*
X144142748Y-95482514D01*
X144142748Y-95343233D01*
X144106027Y-95347194D01*
X144036212Y-95371550D01*
X143987302Y-95405456D01*
X143937878Y-95466653D01*
X143913359Y-95534063D01*
X143911797Y-95602880D01*
X143931239Y-95668303D01*
X143931239Y-95668303D01*
G37*
X143931239Y-95668303D02*
X143969735Y-95725527D01*
X144025335Y-95769749D01*
X144096086Y-95796167D01*
X144148162Y-95801510D01*
X144169893Y-95800903D01*
X144186531Y-95795822D01*
X144201437Y-95781855D01*
X144217973Y-95754589D01*
X144239498Y-95709612D01*
X144269374Y-95642511D01*
X144269524Y-95642171D01*
X144297813Y-95580407D01*
X144322933Y-95529759D01*
X144342179Y-95495404D01*
X144352848Y-95482518D01*
X144352934Y-95482514D01*
X144376166Y-95493872D01*
X144401774Y-95520431D01*
X144420221Y-95550923D01*
X144423886Y-95566370D01*
X144411212Y-95608515D01*
X144379471Y-95644808D01*
X144344572Y-95662517D01*
X144318845Y-95679552D01*
X144289546Y-95712922D01*
X144264235Y-95752149D01*
X144250471Y-95786756D01*
X144249714Y-95793993D01*
X144262160Y-95802139D01*
X144293972Y-95802630D01*
X144336866Y-95796643D01*
X144382558Y-95785357D01*
X144422761Y-95769950D01*
X144424322Y-95769171D01*
X144489062Y-95722804D01*
X144533097Y-95662711D01*
X144554711Y-95594465D01*
X144552185Y-95523638D01*
X144523804Y-95455804D01*
X144521808Y-95452788D01*
X144473448Y-95399427D01*
X144410352Y-95364340D01*
X144327387Y-95344922D01*
X144304078Y-95342316D01*
X144194055Y-95337701D01*
X144142748Y-95343233D01*
X144142748Y-95482514D01*
X144174753Y-95484324D01*
X144184093Y-95494222D01*
X144177105Y-95518898D01*
X144160587Y-95557795D01*
X144139881Y-95601275D01*
X144139333Y-95602356D01*
X144119949Y-95639209D01*
X144107013Y-95654000D01*
X144093451Y-95650353D01*
X144075632Y-95634995D01*
X144049845Y-95595923D01*
X144047950Y-95553846D01*
X144066717Y-95516103D01*
X144102915Y-95490034D01*
X144142748Y-95482514D01*
X144142748Y-95343233D01*
X144106027Y-95347194D01*
X144036212Y-95371550D01*
X143987302Y-95405456D01*
X143937878Y-95466653D01*
X143913359Y-95534063D01*
X143911797Y-95602880D01*
X143931239Y-95668303D01*
G36*
X143921962Y-94541115D02*
X143957733Y-94609145D01*
X144015301Y-94659351D01*
X144052312Y-94677185D01*
X144107882Y-94691063D01*
X144178096Y-94698167D01*
X144254727Y-94698840D01*
X144329552Y-94693427D01*
X144394342Y-94682270D01*
X144440873Y-94665714D01*
X144448887Y-94660626D01*
X144508707Y-94600355D01*
X144544535Y-94528769D01*
X144555020Y-94451092D01*
X144538810Y-94372548D01*
X144529092Y-94350689D01*
X144499143Y-94308122D01*
X144459433Y-94270763D01*
X144454397Y-94267232D01*
X144430124Y-94252881D01*
X144404178Y-94243394D01*
X144370022Y-94237790D01*
X144321119Y-94235086D01*
X144250935Y-94234299D01*
X144235200Y-94234286D01*
X144230192Y-94234322D01*
X144230192Y-94379429D01*
X144296430Y-94380273D01*
X144340386Y-94383596D01*
X144368779Y-94390583D01*
X144388325Y-94402416D01*
X144394857Y-94408457D01*
X144419680Y-94443186D01*
X144418548Y-94476903D01*
X144397016Y-94510995D01*
X144374029Y-94531329D01*
X144340478Y-94543371D01*
X144287569Y-94550134D01*
X144281399Y-94550598D01*
X144185513Y-94551752D01*
X144114299Y-94539688D01*
X144068194Y-94514570D01*
X144047635Y-94476560D01*
X144046514Y-94462992D01*
X144052152Y-94427364D01*
X144071686Y-94402994D01*
X144109042Y-94388093D01*
X144168150Y-94380875D01*
X144230192Y-94379429D01*
X144230192Y-94234322D01*
X144160413Y-94234826D01*
X144108159Y-94237096D01*
X144071949Y-94242068D01*
X144045299Y-94250713D01*
X144021722Y-94264005D01*
X144017338Y-94266943D01*
X143958249Y-94316313D01*
X143923947Y-94370109D01*
X143910331Y-94435602D01*
X143909665Y-94457842D01*
X143921962Y-94541115D01*
X143921962Y-94541115D01*
G37*
X143921962Y-94541115D02*
X143957733Y-94609145D01*
X144015301Y-94659351D01*
X144052312Y-94677185D01*
X144107882Y-94691063D01*
X144178096Y-94698167D01*
X144254727Y-94698840D01*
X144329552Y-94693427D01*
X144394342Y-94682270D01*
X144440873Y-94665714D01*
X144448887Y-94660626D01*
X144508707Y-94600355D01*
X144544535Y-94528769D01*
X144555020Y-94451092D01*
X144538810Y-94372548D01*
X144529092Y-94350689D01*
X144499143Y-94308122D01*
X144459433Y-94270763D01*
X144454397Y-94267232D01*
X144430124Y-94252881D01*
X144404178Y-94243394D01*
X144370022Y-94237790D01*
X144321119Y-94235086D01*
X144250935Y-94234299D01*
X144235200Y-94234286D01*
X144230192Y-94234322D01*
X144230192Y-94379429D01*
X144296430Y-94380273D01*
X144340386Y-94383596D01*
X144368779Y-94390583D01*
X144388325Y-94402416D01*
X144394857Y-94408457D01*
X144419680Y-94443186D01*
X144418548Y-94476903D01*
X144397016Y-94510995D01*
X144374029Y-94531329D01*
X144340478Y-94543371D01*
X144287569Y-94550134D01*
X144281399Y-94550598D01*
X144185513Y-94551752D01*
X144114299Y-94539688D01*
X144068194Y-94514570D01*
X144047635Y-94476560D01*
X144046514Y-94462992D01*
X144052152Y-94427364D01*
X144071686Y-94402994D01*
X144109042Y-94388093D01*
X144168150Y-94380875D01*
X144230192Y-94379429D01*
X144230192Y-94234322D01*
X144160413Y-94234826D01*
X144108159Y-94237096D01*
X144071949Y-94242068D01*
X144045299Y-94250713D01*
X144021722Y-94264005D01*
X144017338Y-94266943D01*
X143958249Y-94316313D01*
X143923947Y-94370109D01*
X143910331Y-94435602D01*
X143909665Y-94457842D01*
X143921962Y-94541115D01*
G36*
X143927780Y-96216093D02*
X143954723Y-96262672D01*
X143981466Y-96295057D01*
X144009484Y-96318742D01*
X144043748Y-96335059D01*
X144089227Y-96345339D01*
X144150892Y-96350914D01*
X144233711Y-96353116D01*
X144293246Y-96353371D01*
X144512391Y-96353371D01*
X144540044Y-96291686D01*
X144567697Y-96230000D01*
X144327670Y-96222743D01*
X144238028Y-96219744D01*
X144172962Y-96216598D01*
X144128026Y-96212701D01*
X144098770Y-96207447D01*
X144080748Y-96200231D01*
X144069511Y-96190450D01*
X144067079Y-96187312D01*
X144048083Y-96139761D01*
X144055600Y-96091697D01*
X144075543Y-96063086D01*
X144089675Y-96051447D01*
X144108220Y-96043391D01*
X144136334Y-96038271D01*
X144179173Y-96035441D01*
X144241895Y-96034256D01*
X144307261Y-96034057D01*
X144389268Y-96034018D01*
X144447316Y-96032614D01*
X144486465Y-96027914D01*
X144511780Y-96017987D01*
X144528323Y-96000903D01*
X144541156Y-95974732D01*
X144554491Y-95939775D01*
X144569007Y-95901596D01*
X144311389Y-95906141D01*
X144218519Y-95907971D01*
X144149889Y-95910112D01*
X144100711Y-95913181D01*
X144066198Y-95917794D01*
X144041562Y-95924568D01*
X144022016Y-95934119D01*
X144004770Y-95945634D01*
X143949680Y-96001190D01*
X143917822Y-96068980D01*
X143910191Y-96142713D01*
X143927780Y-96216093D01*
X143927780Y-96216093D01*
G37*
X143927780Y-96216093D02*
X143954723Y-96262672D01*
X143981466Y-96295057D01*
X144009484Y-96318742D01*
X144043748Y-96335059D01*
X144089227Y-96345339D01*
X144150892Y-96350914D01*
X144233711Y-96353116D01*
X144293246Y-96353371D01*
X144512391Y-96353371D01*
X144540044Y-96291686D01*
X144567697Y-96230000D01*
X144327670Y-96222743D01*
X144238028Y-96219744D01*
X144172962Y-96216598D01*
X144128026Y-96212701D01*
X144098770Y-96207447D01*
X144080748Y-96200231D01*
X144069511Y-96190450D01*
X144067079Y-96187312D01*
X144048083Y-96139761D01*
X144055600Y-96091697D01*
X144075543Y-96063086D01*
X144089675Y-96051447D01*
X144108220Y-96043391D01*
X144136334Y-96038271D01*
X144179173Y-96035441D01*
X144241895Y-96034256D01*
X144307261Y-96034057D01*
X144389268Y-96034018D01*
X144447316Y-96032614D01*
X144486465Y-96027914D01*
X144511780Y-96017987D01*
X144528323Y-96000903D01*
X144541156Y-95974732D01*
X144554491Y-95939775D01*
X144569007Y-95901596D01*
X144311389Y-95906141D01*
X144218519Y-95907971D01*
X144149889Y-95910112D01*
X144100711Y-95913181D01*
X144066198Y-95917794D01*
X144041562Y-95924568D01*
X144022016Y-95934119D01*
X144004770Y-95945634D01*
X143949680Y-96001190D01*
X143917822Y-96068980D01*
X143910191Y-96142713D01*
X143927780Y-96216093D01*
G36*
X143919918Y-95099744D02*
X143947568Y-95155201D01*
X143998480Y-95204148D01*
X144017338Y-95217629D01*
X144042015Y-95232314D01*
X144068816Y-95241842D01*
X144104587Y-95247293D01*
X144156169Y-95249747D01*
X144224267Y-95250286D01*
X144317588Y-95247852D01*
X144387657Y-95239394D01*
X144439931Y-95223174D01*
X144479869Y-95197454D01*
X144512929Y-95160497D01*
X144514886Y-95157782D01*
X144534908Y-95121360D01*
X144544815Y-95077502D01*
X144547257Y-95021724D01*
X144547257Y-94931048D01*
X144635283Y-94931010D01*
X144684308Y-94930166D01*
X144713065Y-94925024D01*
X144730311Y-94911587D01*
X144744808Y-94885858D01*
X144747769Y-94879679D01*
X144761648Y-94850764D01*
X144770414Y-94828376D01*
X144771171Y-94811729D01*
X144761023Y-94800036D01*
X144737073Y-94792510D01*
X144696426Y-94788366D01*
X144636186Y-94786815D01*
X144553455Y-94787071D01*
X144445339Y-94788349D01*
X144413000Y-94788748D01*
X144301524Y-94790185D01*
X144228603Y-94791472D01*
X144228603Y-94930971D01*
X144290499Y-94931755D01*
X144330997Y-94935240D01*
X144357708Y-94943124D01*
X144378244Y-94957105D01*
X144388260Y-94966597D01*
X144417567Y-95005404D01*
X144419952Y-95039763D01*
X144395750Y-95075216D01*
X144394857Y-95076114D01*
X144376153Y-95090539D01*
X144350732Y-95099313D01*
X144311584Y-95103739D01*
X144251697Y-95105118D01*
X144238430Y-95105143D01*
X144155901Y-95101812D01*
X144098691Y-95090969D01*
X144063766Y-95071340D01*
X144048094Y-95041650D01*
X144046514Y-95024491D01*
X144053926Y-94983766D01*
X144078330Y-94955832D01*
X144122980Y-94939017D01*
X144191130Y-94931650D01*
X144228603Y-94930971D01*
X144228603Y-94791472D01*
X144215245Y-94791708D01*
X144150333Y-94793677D01*
X144102958Y-94796450D01*
X144069290Y-94800388D01*
X144045498Y-94805849D01*
X144027753Y-94813192D01*
X144012224Y-94822777D01*
X144006381Y-94826887D01*
X143951185Y-94881405D01*
X143919890Y-94950336D01*
X143911165Y-95030072D01*
X143919918Y-95099744D01*
X143919918Y-95099744D01*
G37*
X143919918Y-95099744D02*
X143947568Y-95155201D01*
X143998480Y-95204148D01*
X144017338Y-95217629D01*
X144042015Y-95232314D01*
X144068816Y-95241842D01*
X144104587Y-95247293D01*
X144156169Y-95249747D01*
X144224267Y-95250286D01*
X144317588Y-95247852D01*
X144387657Y-95239394D01*
X144439931Y-95223174D01*
X144479869Y-95197454D01*
X144512929Y-95160497D01*
X144514886Y-95157782D01*
X144534908Y-95121360D01*
X144544815Y-95077502D01*
X144547257Y-95021724D01*
X144547257Y-94931048D01*
X144635283Y-94931010D01*
X144684308Y-94930166D01*
X144713065Y-94925024D01*
X144730311Y-94911587D01*
X144744808Y-94885858D01*
X144747769Y-94879679D01*
X144761648Y-94850764D01*
X144770414Y-94828376D01*
X144771171Y-94811729D01*
X144761023Y-94800036D01*
X144737073Y-94792510D01*
X144696426Y-94788366D01*
X144636186Y-94786815D01*
X144553455Y-94787071D01*
X144445339Y-94788349D01*
X144413000Y-94788748D01*
X144301524Y-94790185D01*
X144228603Y-94791472D01*
X144228603Y-94930971D01*
X144290499Y-94931755D01*
X144330997Y-94935240D01*
X144357708Y-94943124D01*
X144378244Y-94957105D01*
X144388260Y-94966597D01*
X144417567Y-95005404D01*
X144419952Y-95039763D01*
X144395750Y-95075216D01*
X144394857Y-95076114D01*
X144376153Y-95090539D01*
X144350732Y-95099313D01*
X144311584Y-95103739D01*
X144251697Y-95105118D01*
X144238430Y-95105143D01*
X144155901Y-95101812D01*
X144098691Y-95090969D01*
X144063766Y-95071340D01*
X144048094Y-95041650D01*
X144046514Y-95024491D01*
X144053926Y-94983766D01*
X144078330Y-94955832D01*
X144122980Y-94939017D01*
X144191130Y-94931650D01*
X144228603Y-94930971D01*
X144228603Y-94791472D01*
X144215245Y-94791708D01*
X144150333Y-94793677D01*
X144102958Y-94796450D01*
X144069290Y-94800388D01*
X144045498Y-94805849D01*
X144027753Y-94813192D01*
X144012224Y-94822777D01*
X144006381Y-94826887D01*
X143951185Y-94881405D01*
X143919890Y-94950336D01*
X143911165Y-95030072D01*
X143919918Y-95099744D01*
D11*
X171712000Y-113500000D03*
X171712000Y-110750000D03*
X171712000Y-119000000D03*
X126000000Y-108000000D03*
X126000000Y-117000000D03*
X126000000Y-114000000D03*
X126000000Y-111000000D03*
D12*
X142000000Y-120000000D03*
D11*
X171712000Y-108000000D03*
D12*
X150000000Y-120000000D03*
D11*
X171712000Y-116250000D03*
D13*
X148000000Y-115524000D03*
X148000000Y-114000000D03*
X148000000Y-112476000D03*
X148852000Y-109449000D03*
X148852000Y-107925000D03*
X148852000Y-106401000D03*
X146693000Y-109449000D03*
X146693000Y-107925000D03*
X146693000Y-106401000D03*
D14*
X157284800Y-106000000D03*
X156472000Y-106000000D03*
X155659200Y-106000000D03*
D15*
X125992000Y-104369000D03*
X125992000Y-122149000D03*
D16*
X139962000Y-103099000D03*
X142502000Y-103099000D03*
X145042000Y-103099000D03*
X147582000Y-103099000D03*
X150122000Y-103099000D03*
X152662000Y-103099000D03*
X155202000Y-103099000D03*
X157742000Y-103099000D03*
X160282000Y-103099000D03*
X162822000Y-103099000D03*
X165362000Y-103099000D03*
X167902000Y-103099000D03*
X139962000Y-123419000D03*
X142502000Y-123419000D03*
X145042000Y-123419000D03*
X147582000Y-123419000D03*
X150122000Y-123419000D03*
X152662000Y-123419000D03*
X155202000Y-123419000D03*
X157742000Y-123419000D03*
X160282000Y-123419000D03*
X162822000Y-123419000D03*
X165362000Y-123419000D03*
X167902000Y-123419000D03*
X137422000Y-123419000D03*
X134882000Y-123419000D03*
X132342000Y-123419000D03*
X129802000Y-123419000D03*
D17*
X160091000Y-120662800D03*
X160091000Y-119850000D03*
X160091000Y-119037200D03*
X157792000Y-119037200D03*
X157792000Y-119850000D03*
X157792000Y-120662800D03*
X155252000Y-120794000D03*
X155252000Y-119894000D03*
D18*
X141965553Y-108308796D03*
X142500000Y-110500000D03*
X128000000Y-94000000D03*
X128000000Y-92000000D03*
X170000000Y-95000000D03*
X170000000Y-92500000D03*
X165000000Y-95000000D03*
X165000000Y-92500000D03*
X157612400Y-114932100D03*
X150947000Y-117701300D03*
X140499988Y-106515700D03*
X146579900Y-110733700D03*
X160779200Y-110497200D03*
X155677100Y-114958600D03*
X154681300Y-113671800D03*
X154650034Y-105802013D03*
X143438700Y-121438700D03*
X149802200Y-121870900D03*
X152784287Y-106975601D03*
X130510600Y-114259000D03*
X158679900Y-109796900D03*
X160554100Y-113405700D03*
X153127625Y-107861402D03*
X128846800Y-116259000D03*
X166447100Y-110900100D03*
X162097800Y-114751000D03*
X166414400Y-109744300D03*
X165362000Y-108637700D03*
X152500000Y-106000000D03*
X142650000Y-106188051D03*
X156794800Y-108896300D03*
X160540000Y-114470200D03*
X153020900Y-116444600D03*
X150738480Y-105368008D03*
X152189900Y-117691900D03*
X137150500Y-104138700D03*
X145331600Y-113644000D03*
X167150300Y-121966400D03*
X153017800Y-112058400D03*
X149931900Y-111694000D03*
X138000000Y-95000000D03*
X139500000Y-95000000D03*
X141500000Y-95000000D03*
X141500000Y-100000000D03*
X139500000Y-100000000D03*
X138000000Y-100000000D03*
X136914000Y-90678000D03*
D19*
X141565554Y-105752386D02*
X141565554Y-107908797D01*
X141565554Y-107908797D02*
X141965553Y-108308796D01*
X143485298Y-105288023D02*
X142029917Y-105288023D01*
X142029917Y-105288023D02*
X141565554Y-105752386D01*
X144598275Y-106401000D02*
X143485298Y-105288023D01*
X146693000Y-106401000D02*
X144598275Y-106401000D01*
X142500000Y-111065685D02*
X142500000Y-110500000D01*
X142500000Y-115172000D02*
X142500000Y-111065685D01*
X142148000Y-115524000D02*
X142500000Y-115172000D01*
X148852000Y-106401000D02*
X146693000Y-106401000D01*
X148000000Y-115524000D02*
X149300400Y-115524000D01*
X137422000Y-120250000D02*
X142148000Y-115524000D01*
X137422000Y-123419000D02*
X137422000Y-120250000D01*
X142148000Y-115524000D02*
X148000000Y-115524000D01*
X153373500Y-115524000D02*
X150947000Y-115524000D01*
X153708500Y-115859000D02*
X153373500Y-115524000D01*
X156685500Y-115859000D02*
X153708500Y-115859000D01*
X157612400Y-114932100D02*
X156685500Y-115859000D01*
X150947000Y-115524000D02*
X149300400Y-115524000D01*
X150947000Y-115524000D02*
X150947000Y-117701300D01*
X142067998Y-109599998D02*
X141924753Y-109599998D01*
X140499988Y-108175233D02*
X140499988Y-107081385D01*
X141924753Y-109599998D02*
X140499988Y-108175233D01*
X140499988Y-107081385D02*
X140499988Y-106515700D01*
X145759498Y-109599998D02*
X142067998Y-109599998D01*
X142067998Y-109599998D02*
X132342000Y-119325996D01*
X132342000Y-122161765D02*
X132342000Y-123419000D01*
X132342000Y-119325996D02*
X132342000Y-122161765D01*
X146693000Y-110533500D02*
X145759498Y-109599998D01*
X148000000Y-112476000D02*
X148000000Y-111391500D01*
X148852000Y-109449000D02*
X150152400Y-109449000D01*
X160579100Y-110697300D02*
X160779200Y-110497200D01*
X151400700Y-110697300D02*
X160579100Y-110697300D01*
X150152400Y-109449000D02*
X151400700Y-110697300D01*
X146693000Y-109449000D02*
X146693000Y-109991200D01*
X146693000Y-109991200D02*
X146693000Y-110533500D01*
X147009400Y-109991200D02*
X147551600Y-109449000D01*
X146693000Y-109991200D02*
X147009400Y-109991200D01*
X148852000Y-109449000D02*
X147551600Y-109449000D01*
X146693000Y-110733700D02*
X146693000Y-110533500D01*
X147350800Y-111391500D02*
X146693000Y-110733700D01*
X148000000Y-111391500D02*
X147350800Y-111391500D01*
X146693000Y-110733700D02*
X146579900Y-110733700D01*
D20*
X157962200Y-112673500D02*
X155677100Y-114958600D01*
X163464700Y-112673500D02*
X157962200Y-112673500D01*
X167041200Y-116250000D02*
X163464700Y-112673500D01*
X171712000Y-116250000D02*
X167041200Y-116250000D01*
X171712000Y-113500000D02*
X170116700Y-113500000D01*
X156129900Y-112223200D02*
X154681300Y-113671800D01*
X163844100Y-112223200D02*
X156129900Y-112223200D01*
X165120900Y-113500000D02*
X163844100Y-112223200D01*
X170116700Y-113500000D02*
X165120900Y-113500000D01*
X133342000Y-101293000D02*
X152635900Y-101293000D01*
X153932000Y-102589100D02*
X153932000Y-104518294D01*
X156472000Y-106885000D02*
X156396700Y-106960300D01*
X156396700Y-106960300D02*
X155242636Y-106960300D01*
X154650034Y-105236328D02*
X154650034Y-105802013D01*
X155242636Y-106960300D02*
X154650034Y-106367698D01*
X156472000Y-106000000D02*
X156472000Y-106885000D01*
X152635900Y-101293000D02*
X153932000Y-102589100D01*
X153932000Y-104518294D02*
X154650034Y-105236328D01*
X126000000Y-108000000D02*
X126635000Y-108000000D01*
X126635000Y-108000000D02*
X133342000Y-101293000D01*
X154650034Y-106367698D02*
X154650034Y-105802013D01*
X155659200Y-106000000D02*
X155659200Y-105039700D01*
X155202000Y-104582500D02*
X155659200Y-105039700D01*
X155202000Y-103099000D02*
X155202000Y-104582500D01*
X157742000Y-104582500D02*
X157284800Y-105039700D01*
X157742000Y-103099000D02*
X157742000Y-104582500D01*
X157284800Y-106000000D02*
X157284800Y-105039700D01*
X142000000Y-120000000D02*
X142960300Y-120000000D01*
X142960300Y-120960300D02*
X143438700Y-121438700D01*
X142960300Y-120000000D02*
X142960300Y-120960300D01*
X149802200Y-121793100D02*
X149802200Y-121870900D01*
X150000000Y-121595300D02*
X149802200Y-121793100D01*
X150000000Y-120000000D02*
X150000000Y-121595300D01*
X151780492Y-105324998D02*
X152824002Y-105324998D01*
X150414479Y-106043009D02*
X151062481Y-106043009D01*
X140106588Y-104663012D02*
X144095590Y-104663012D01*
X144095590Y-104663012D02*
X144824377Y-105391799D01*
X144824377Y-105391799D02*
X149992101Y-105391799D01*
X150063479Y-105463177D02*
X150063479Y-105692009D01*
X130510600Y-114259000D02*
X140106588Y-104663012D01*
X153175002Y-105675998D02*
X153175002Y-106324002D01*
X153175002Y-106324002D02*
X152209904Y-107289100D01*
X152209904Y-107289100D02*
X152051200Y-107289100D01*
X149992101Y-105391799D02*
X150063479Y-105463177D01*
X152824002Y-105324998D02*
X153175002Y-105675998D01*
X151062481Y-106043009D02*
X151780492Y-105324998D01*
X150063479Y-105692009D02*
X150414479Y-106043009D01*
X152384288Y-107375600D02*
X152784287Y-106975601D01*
X152051200Y-107289100D02*
X152137700Y-107375600D01*
X152137700Y-107375600D02*
X152384288Y-107375600D01*
X126000000Y-114000000D02*
X127595300Y-114000000D01*
X157792000Y-119850000D02*
X158752300Y-119850000D01*
X158752300Y-115207500D02*
X160554100Y-113405700D01*
X158752300Y-119850000D02*
X158752300Y-115207500D01*
X130251600Y-114000000D02*
X130510600Y-114259000D01*
X127595300Y-114000000D02*
X130251600Y-114000000D01*
X152051200Y-107784600D02*
X152051200Y-107289100D01*
X154338600Y-110072000D02*
X152051200Y-107784600D01*
X158404800Y-110072000D02*
X154338600Y-110072000D01*
X158679900Y-109796900D02*
X158404800Y-110072000D01*
X153575013Y-107320487D02*
X153575013Y-105510309D01*
X124404600Y-116039600D02*
X125365000Y-117000000D01*
X153127625Y-107767875D02*
X153127625Y-107861402D01*
X148047800Y-101776800D02*
X134929700Y-101776800D01*
X152459304Y-104394600D02*
X149661000Y-104394600D01*
X148852100Y-103585700D02*
X148852100Y-102581100D01*
X134929700Y-101776800D02*
X127591000Y-109115500D01*
X125500600Y-109115500D02*
X124404600Y-110211500D01*
X124404600Y-110211500D02*
X124404600Y-116039600D01*
X127591000Y-109115500D02*
X125500600Y-109115500D01*
X148852100Y-102581100D02*
X148047800Y-101776800D01*
X149661000Y-104394600D02*
X148852100Y-103585700D01*
X153575013Y-105510309D02*
X152459304Y-104394600D01*
X153273700Y-107621800D02*
X153575013Y-107320487D01*
X125365000Y-117000000D02*
X126000000Y-117000000D01*
X153273700Y-107621800D02*
X153127625Y-107767875D01*
X126000000Y-117000000D02*
X127595300Y-117000000D01*
X162097800Y-118803500D02*
X161051300Y-119850000D01*
X162097800Y-114751000D02*
X162097800Y-118803500D01*
X160091000Y-119850000D02*
X161051300Y-119850000D01*
X128336300Y-116259000D02*
X128846800Y-116259000D01*
X127595300Y-117000000D02*
X128336300Y-116259000D01*
X155273600Y-109621700D02*
X153273700Y-107621800D01*
X157629700Y-109621700D02*
X155273600Y-109621700D01*
X158179800Y-109071600D02*
X157629700Y-109621700D01*
X164618600Y-109071600D02*
X158179800Y-109071600D01*
X166447100Y-110900100D02*
X164618600Y-109071600D01*
X166414400Y-104586600D02*
X166414400Y-109744300D01*
X167902000Y-103099000D02*
X166414400Y-104586600D01*
X165362000Y-103099000D02*
X165362000Y-108637700D01*
X150575000Y-107925000D02*
X152500000Y-106000000D01*
X148852000Y-107925000D02*
X150575000Y-107925000D01*
X146693000Y-107925000D02*
X144386949Y-107925000D01*
X144386949Y-107925000D02*
X143049999Y-106588050D01*
X143049999Y-106588050D02*
X142650000Y-106188051D01*
X160091000Y-123228000D02*
X160091000Y-120662800D01*
X160282000Y-123419000D02*
X160091000Y-123228000D01*
X157792000Y-123369000D02*
X157792000Y-120662800D01*
X157742000Y-123419000D02*
X157792000Y-123369000D01*
X155252000Y-123369000D02*
X155252000Y-120794000D01*
X155202000Y-123419000D02*
X155252000Y-123369000D01*
X153975024Y-106642209D02*
X156229115Y-108896300D01*
X156229115Y-108896300D02*
X156794800Y-108896300D01*
X152662000Y-104031596D02*
X153975024Y-105344620D01*
X153975024Y-105344620D02*
X153975024Y-106642209D01*
X152662000Y-103099000D02*
X152662000Y-104031596D01*
X160091000Y-114919200D02*
X160540000Y-114470200D01*
X160091000Y-119037200D02*
X160091000Y-114919200D01*
X157792000Y-119037200D02*
X157792000Y-118394400D01*
X154970700Y-118394400D02*
X153020900Y-116444600D01*
X157792000Y-118394400D02*
X154970700Y-118394400D01*
X150287672Y-104917200D02*
X150338481Y-104968009D01*
X144344606Y-104263001D02*
X144998805Y-104917200D01*
X137150500Y-104917200D02*
X137804699Y-104263001D01*
X150338481Y-104968009D02*
X150738480Y-105368008D01*
X144998805Y-104917200D02*
X150287672Y-104917200D01*
X137804699Y-104263001D02*
X144344606Y-104263001D01*
X131067700Y-111000000D02*
X137150500Y-104917200D01*
X126000000Y-111000000D02*
X131067700Y-111000000D01*
X137150500Y-104917200D02*
X137150500Y-104138700D01*
X154291700Y-119793700D02*
X152189900Y-117691900D01*
X154291700Y-119894000D02*
X154291700Y-119793700D01*
X155252000Y-119894000D02*
X154291700Y-119894000D01*
X148000000Y-114000000D02*
X146874600Y-114000000D01*
X146518600Y-113644000D02*
X145331600Y-113644000D01*
X146874600Y-114000000D02*
X146518600Y-113644000D01*
X171712000Y-119000000D02*
X170116700Y-119000000D01*
X170116700Y-119000000D02*
X167150300Y-121966400D01*
X171253400Y-112168900D02*
X171712000Y-111710300D01*
X164426700Y-112168900D02*
X171253400Y-112168900D01*
X164030700Y-111772900D02*
X164426700Y-112168900D01*
X153303300Y-111772900D02*
X164030700Y-111772900D01*
X153017800Y-112058400D02*
X153303300Y-111772900D01*
X171712000Y-110750000D02*
X171712000Y-111710300D01*
X171712000Y-108000000D02*
X171712000Y-108960300D01*
X150303300Y-111322600D02*
X149931900Y-111694000D01*
X164217300Y-111322600D02*
X150303300Y-111322600D01*
X164558700Y-111664000D02*
X164217300Y-111322600D01*
X168048000Y-111664000D02*
X164558700Y-111664000D01*
X170751700Y-108960300D02*
X168048000Y-111664000D01*
X171712000Y-108960300D02*
X170751700Y-108960300D01*
D19*
X136914000Y-93264000D02*
X136914000Y-90678000D01*
X138810900Y-95160900D02*
X136914000Y-93264000D01*
D21*
G36*
X143874470Y-93633297D02*
X143847820Y-93641942D01*
X143791890Y-93673229D01*
X143730994Y-93693207D01*
X143707417Y-93706499D01*
X143688478Y-93722768D01*
X143665427Y-93732353D01*
X143661044Y-93735291D01*
X143636945Y-93759456D01*
X143606986Y-93775810D01*
X143547898Y-93825180D01*
X143486406Y-93901468D01*
X143418616Y-93972226D01*
X143384314Y-94026022D01*
X143342440Y-94133575D01*
X143297345Y-94239839D01*
X143283729Y-94305331D01*
X143283243Y-94361607D01*
X143270618Y-94416445D01*
X143269952Y-94438685D01*
X143279353Y-94494653D01*
X143276531Y-94551337D01*
X143288828Y-94634610D01*
X143324985Y-94735870D01*
X143325225Y-94736679D01*
X143314096Y-94784245D01*
X143283687Y-94880720D01*
X143274962Y-94960456D01*
X143281500Y-95035107D01*
X143276157Y-95109849D01*
X143276635Y-95113657D01*
X143224317Y-95092541D01*
X143174048Y-95059012D01*
X143109652Y-95046259D01*
X143048781Y-95021690D01*
X142988360Y-95022238D01*
X142929090Y-95010500D01*
X142864721Y-95023360D01*
X142799075Y-95023955D01*
X142743461Y-95047585D01*
X142684213Y-95059421D01*
X142629665Y-95095935D01*
X142569245Y-95121606D01*
X142497735Y-95170332D01*
X142497738Y-95169294D01*
X142495934Y-95160077D01*
X142495725Y-95159568D01*
X142495726Y-95159014D01*
X142480686Y-95082814D01*
X142456471Y-95024108D01*
X142444082Y-94961826D01*
X142409323Y-94909805D01*
X142385465Y-94851966D01*
X142340627Y-94806996D01*
X142305347Y-94754195D01*
X142253325Y-94719435D01*
X142209150Y-94675129D01*
X142150518Y-94650741D01*
X142097716Y-94615460D01*
X142036351Y-94603254D01*
X141978585Y-94579226D01*
X141915082Y-94579132D01*
X141852799Y-94566743D01*
X141535492Y-94566743D01*
X141534967Y-94566847D01*
X141534443Y-94566744D01*
X141430105Y-94566915D01*
X141427788Y-94567380D01*
X141425463Y-94566939D01*
X141346522Y-94567641D01*
X141340894Y-94568813D01*
X141335227Y-94567841D01*
X141278052Y-94569359D01*
X141265264Y-94572258D01*
X141252263Y-94570565D01*
X141213225Y-94573180D01*
X141183675Y-94581143D01*
X141153089Y-94580077D01*
X141128555Y-94584074D01*
X141059098Y-94610047D01*
X140986368Y-94624537D01*
X140972709Y-94630200D01*
X140951073Y-94644666D01*
X140949640Y-94644994D01*
X140948395Y-94645878D01*
X140923580Y-94653050D01*
X140905519Y-94667478D01*
X140894659Y-94671539D01*
X140877100Y-94687915D01*
X140867513Y-94691619D01*
X140836170Y-94721492D01*
X140765120Y-94768997D01*
X140756120Y-94782475D01*
X140746067Y-94789617D01*
X140739475Y-94800121D01*
X140728476Y-94808908D01*
X140722059Y-94816520D01*
X140706091Y-94845470D01*
X140686748Y-94863905D01*
X140657257Y-94930532D01*
X140626448Y-94976671D01*
X140625411Y-94981890D01*
X140613335Y-95001135D01*
X140612145Y-95004258D01*
X140609329Y-95020893D01*
X140601450Y-95035177D01*
X140598243Y-95063857D01*
X140585675Y-95092251D01*
X140581456Y-95111086D01*
X140581294Y-95117839D01*
X140578688Y-95124072D01*
X140570270Y-95165682D01*
X140570264Y-95167508D01*
X140569570Y-95169195D01*
X140568382Y-95175240D01*
X140564612Y-95171806D01*
X140516655Y-95142904D01*
X140494267Y-95134832D01*
X140475545Y-95120143D01*
X140442061Y-95103179D01*
X140388586Y-95088230D01*
X140339665Y-95061972D01*
X140317640Y-95055249D01*
X140305664Y-95054048D01*
X140294854Y-95048752D01*
X140233557Y-95044892D01*
X140201566Y-95035949D01*
X140197221Y-95036473D01*
X140186010Y-95032954D01*
X140137862Y-95037227D01*
X140069171Y-95030341D01*
X140060641Y-95032912D01*
X140054302Y-95032290D01*
X140050718Y-95033378D01*
X140045632Y-95033058D01*
X140032054Y-95034882D01*
X139985773Y-95050725D01*
X139937272Y-95055029D01*
X139886579Y-95081499D01*
X139879062Y-95082673D01*
X139869817Y-95088311D01*
X139815360Y-95104848D01*
X139815274Y-95104894D01*
X139806513Y-95112088D01*
X139795798Y-95115756D01*
X139759220Y-95148001D01*
X139715916Y-95170612D01*
X139698082Y-95184961D01*
X139684256Y-95201480D01*
X139665867Y-95212695D01*
X139631387Y-95244432D01*
X139627273Y-95250069D01*
X139621395Y-95253829D01*
X139573846Y-95299516D01*
X139571526Y-95302842D01*
X139568137Y-95305070D01*
X139511091Y-95361264D01*
X139509282Y-95363927D01*
X139506610Y-95365722D01*
X139443643Y-95428986D01*
X139442716Y-95430380D01*
X139441332Y-95431320D01*
X139434304Y-95438453D01*
X139432767Y-95440791D01*
X139430468Y-95442381D01*
X139353261Y-95522109D01*
X139348879Y-95528900D01*
X139342349Y-95533661D01*
X139285659Y-95595188D01*
X139277423Y-95608677D01*
X139265121Y-95618597D01*
X139227900Y-95663161D01*
X139209619Y-95696665D01*
X139182945Y-95723955D01*
X139164150Y-95752790D01*
X139123032Y-95855353D01*
X139108292Y-95882368D01*
X139107160Y-95892924D01*
X139080509Y-95946312D01*
X139079308Y-95963362D01*
X139071680Y-95982182D01*
X139069254Y-95994883D01*
X139070018Y-96095274D01*
X139062966Y-96195411D01*
X139070963Y-96219351D01*
X139071155Y-96244591D01*
X139110275Y-96337037D01*
X139142084Y-96432261D01*
X139152666Y-96450797D01*
X139162754Y-96462413D01*
X139168312Y-96476754D01*
X139192756Y-96515221D01*
X139195995Y-96518612D01*
X139197753Y-96522961D01*
X139205425Y-96534658D01*
X139178231Y-96539944D01*
X139174704Y-96541387D01*
X139170895Y-96541415D01*
X139145873Y-96546583D01*
X139137569Y-96550094D01*
X139128558Y-96550410D01*
X139128176Y-96550500D01*
X139114064Y-96556934D01*
X139101182Y-96557725D01*
X139098013Y-96559272D01*
X139093592Y-96559675D01*
X139082948Y-96562821D01*
X139049163Y-96580567D01*
X139031543Y-96583454D01*
X138973423Y-96619498D01*
X138915872Y-96643832D01*
X138909694Y-96650102D01*
X138900958Y-96654084D01*
X138898622Y-96656589D01*
X138876770Y-96667255D01*
X138868732Y-96673370D01*
X138865481Y-96677046D01*
X138861874Y-96678941D01*
X138845102Y-96699079D01*
X138819325Y-96715065D01*
X138764996Y-96790688D01*
X138703318Y-96860442D01*
X138692690Y-96891335D01*
X138673627Y-96917870D01*
X138667832Y-96930619D01*
X138648986Y-97011007D01*
X138619528Y-97088138D01*
X138615608Y-97111185D01*
X138616540Y-97144594D01*
X138607902Y-97176877D01*
X138605490Y-97213886D01*
X138607270Y-97227366D01*
X138604308Y-97240636D01*
X138603038Y-97295271D01*
X138603977Y-97300641D01*
X138602879Y-97305979D01*
X138602385Y-97381903D01*
X138602733Y-97383715D01*
X138602371Y-97385528D01*
X138602286Y-97486405D01*
X138602339Y-97486675D01*
X138602286Y-97486944D01*
X138602286Y-97500000D01*
X138602324Y-97500189D01*
X138602286Y-97500382D01*
X138602348Y-97604292D01*
X138602660Y-97605853D01*
X138602358Y-97607414D01*
X138602788Y-97685958D01*
X138603767Y-97690744D01*
X138602912Y-97695557D01*
X138604076Y-97752401D01*
X138606721Y-97764409D01*
X138605029Y-97776589D01*
X138607294Y-97815396D01*
X138614899Y-97844611D01*
X138613549Y-97874766D01*
X138617282Y-97899199D01*
X138642802Y-97969557D01*
X138656860Y-98043072D01*
X138662426Y-98056796D01*
X138677129Y-98079157D01*
X138684308Y-98104937D01*
X138698465Y-98123017D01*
X138702430Y-98133949D01*
X138734427Y-98168944D01*
X138738407Y-98174028D01*
X138739920Y-98177767D01*
X138746094Y-98184042D01*
X138799620Y-98265448D01*
X138821760Y-98280480D01*
X138838259Y-98301551D01*
X138846026Y-98308228D01*
X138848481Y-98309614D01*
X138850239Y-98311819D01*
X138886156Y-98331682D01*
X138897871Y-98344333D01*
X138908681Y-98349305D01*
X138915049Y-98355778D01*
X138961931Y-98375647D01*
X139006218Y-98405715D01*
X139026012Y-98409805D01*
X139063499Y-98430961D01*
X139066295Y-98431301D01*
X139068765Y-98432667D01*
X139079097Y-98435963D01*
X139102940Y-98438656D01*
X139124739Y-98448682D01*
X139126077Y-98449002D01*
X139135909Y-98449380D01*
X139144968Y-98453219D01*
X139169104Y-98458225D01*
X139173117Y-98458258D01*
X139176831Y-98459778D01*
X139205452Y-98465348D01*
X139204112Y-98468643D01*
X139201350Y-98471510D01*
X139174157Y-98513899D01*
X139170245Y-98523865D01*
X139163073Y-98531818D01*
X139149158Y-98555166D01*
X139146737Y-98561986D01*
X139142783Y-98566519D01*
X139134482Y-98591187D01*
X139118703Y-98612738D01*
X139117671Y-98614954D01*
X139095118Y-98707391D01*
X139065616Y-98790493D01*
X139065856Y-98795136D01*
X139063144Y-98803195D01*
X139065023Y-98830737D01*
X139058480Y-98857553D01*
X139073464Y-98954476D01*
X139076001Y-98991653D01*
X139076951Y-99010069D01*
X139077598Y-99040277D01*
X139079634Y-99044908D01*
X139080140Y-99052331D01*
X139084734Y-99069299D01*
X139094148Y-99088260D01*
X139096633Y-99104337D01*
X139126651Y-99153730D01*
X139133739Y-99168009D01*
X139178077Y-99268885D01*
X139200248Y-99300576D01*
X139223025Y-99322398D01*
X139238470Y-99349903D01*
X139279262Y-99397554D01*
X139290090Y-99406070D01*
X139297338Y-99417785D01*
X139357796Y-99482631D01*
X139363246Y-99486555D01*
X139366896Y-99492192D01*
X139431218Y-99558391D01*
X139434165Y-99560422D01*
X139436144Y-99563406D01*
X139499529Y-99627223D01*
X139502151Y-99628988D01*
X139503923Y-99631604D01*
X139561762Y-99688718D01*
X139565018Y-99690864D01*
X139567243Y-99694066D01*
X139615966Y-99741042D01*
X139621365Y-99744509D01*
X139625128Y-99749702D01*
X139661163Y-99783100D01*
X139676532Y-99792546D01*
X139687911Y-99806543D01*
X139707684Y-99822925D01*
X139750952Y-99846311D01*
X139787421Y-99879308D01*
X139788439Y-99879917D01*
X139792657Y-99881422D01*
X139796020Y-99884382D01*
X139827440Y-99895110D01*
X139831199Y-99898169D01*
X139864657Y-99908168D01*
X139873909Y-99913855D01*
X139876768Y-99914312D01*
X139927366Y-99941659D01*
X139975318Y-99946606D01*
X140023628Y-99963846D01*
X140028101Y-99963622D01*
X140032341Y-99965070D01*
X140045910Y-99966881D01*
X140058434Y-99966082D01*
X140070458Y-99969676D01*
X140134857Y-99963066D01*
X140175763Y-99967286D01*
X140191737Y-99962521D01*
X140202182Y-99963770D01*
X140233771Y-99954902D01*
X140295119Y-99950990D01*
X140306384Y-99945459D01*
X140318868Y-99944178D01*
X140341029Y-99937357D01*
X140389535Y-99911173D01*
X140442603Y-99896275D01*
X140476348Y-99879132D01*
X140494872Y-99864565D01*
X140517037Y-99856564D01*
X140565359Y-99827417D01*
X140568383Y-99824660D01*
X140573668Y-99851310D01*
X140574727Y-99853871D01*
X140574749Y-99856645D01*
X140581574Y-99889592D01*
X140585389Y-99898599D01*
X140585760Y-99908374D01*
X140587689Y-99916455D01*
X140595465Y-99933381D01*
X140595735Y-99937937D01*
X140626122Y-100000551D01*
X140654315Y-100085020D01*
X140659077Y-100093368D01*
X140676257Y-100113162D01*
X140678957Y-100119536D01*
X140682672Y-100123192D01*
X140691941Y-100143368D01*
X140698287Y-100149249D01*
X140704763Y-100162594D01*
X140767636Y-100218439D01*
X140822764Y-100281953D01*
X140845704Y-100293412D01*
X140858118Y-100306405D01*
X140875111Y-100313902D01*
X140891464Y-100328427D01*
X140902220Y-100334728D01*
X140942345Y-100348632D01*
X140948635Y-100353716D01*
X140992143Y-100366559D01*
X141046161Y-100393542D01*
X141057435Y-100394339D01*
X141086587Y-100407200D01*
X141106967Y-100411739D01*
X141125691Y-100412166D01*
X141138170Y-100416490D01*
X141157425Y-100415350D01*
X141188133Y-100424415D01*
X141221769Y-100427474D01*
X141239149Y-100425631D01*
X141256150Y-100429669D01*
X141306670Y-100431532D01*
X141314213Y-100430319D01*
X141321688Y-100431910D01*
X141392724Y-100432861D01*
X141395932Y-100432267D01*
X141399127Y-100432914D01*
X141494311Y-100433236D01*
X141495253Y-100433052D01*
X141496197Y-100433240D01*
X141535213Y-100433257D01*
X141535353Y-100433229D01*
X141535492Y-100433257D01*
X141852799Y-100433257D01*
X141915082Y-100420868D01*
X141978585Y-100420774D01*
X142036351Y-100396746D01*
X142097716Y-100384540D01*
X142150518Y-100349259D01*
X142209150Y-100324871D01*
X142253325Y-100280565D01*
X142305347Y-100245805D01*
X142340627Y-100193004D01*
X142385465Y-100148034D01*
X142409323Y-100090195D01*
X142444082Y-100038174D01*
X142456471Y-99975892D01*
X142480686Y-99917186D01*
X142495726Y-99840986D01*
X142495724Y-99839418D01*
X142496314Y-99837967D01*
X142497914Y-99829650D01*
X142569952Y-99878625D01*
X142630087Y-99904100D01*
X142684360Y-99940430D01*
X142743940Y-99952333D01*
X142799885Y-99976033D01*
X142865194Y-99976557D01*
X142929237Y-99989351D01*
X142988836Y-99977548D01*
X143049593Y-99978035D01*
X143110130Y-99953527D01*
X143174195Y-99940839D01*
X143224742Y-99907126D01*
X143281059Y-99884326D01*
X143327607Y-99838518D01*
X143346020Y-99826238D01*
X143336770Y-99883812D01*
X143312749Y-99971212D01*
X143307728Y-100040953D01*
X143318149Y-100124240D01*
X143317669Y-100208175D01*
X143330345Y-100273864D01*
X143346194Y-100312754D01*
X143332618Y-100397573D01*
X143309652Y-100501415D01*
X143308979Y-100533000D01*
X136627000Y-100533000D01*
X136627000Y-93627000D01*
X143927888Y-93627000D01*
X143874470Y-93633297D01*
X143874470Y-93633297D01*
G37*
X143874470Y-93633297D02*
X143847820Y-93641942D01*
X143791890Y-93673229D01*
X143730994Y-93693207D01*
X143707417Y-93706499D01*
X143688478Y-93722768D01*
X143665427Y-93732353D01*
X143661044Y-93735291D01*
X143636945Y-93759456D01*
X143606986Y-93775810D01*
X143547898Y-93825180D01*
X143486406Y-93901468D01*
X143418616Y-93972226D01*
X143384314Y-94026022D01*
X143342440Y-94133575D01*
X143297345Y-94239839D01*
X143283729Y-94305331D01*
X143283243Y-94361607D01*
X143270618Y-94416445D01*
X143269952Y-94438685D01*
X143279353Y-94494653D01*
X143276531Y-94551337D01*
X143288828Y-94634610D01*
X143324985Y-94735870D01*
X143325225Y-94736679D01*
X143314096Y-94784245D01*
X143283687Y-94880720D01*
X143274962Y-94960456D01*
X143281500Y-95035107D01*
X143276157Y-95109849D01*
X143276635Y-95113657D01*
X143224317Y-95092541D01*
X143174048Y-95059012D01*
X143109652Y-95046259D01*
X143048781Y-95021690D01*
X142988360Y-95022238D01*
X142929090Y-95010500D01*
X142864721Y-95023360D01*
X142799075Y-95023955D01*
X142743461Y-95047585D01*
X142684213Y-95059421D01*
X142629665Y-95095935D01*
X142569245Y-95121606D01*
X142497735Y-95170332D01*
X142497738Y-95169294D01*
X142495934Y-95160077D01*
X142495725Y-95159568D01*
X142495726Y-95159014D01*
X142480686Y-95082814D01*
X142456471Y-95024108D01*
X142444082Y-94961826D01*
X142409323Y-94909805D01*
X142385465Y-94851966D01*
X142340627Y-94806996D01*
X142305347Y-94754195D01*
X142253325Y-94719435D01*
X142209150Y-94675129D01*
X142150518Y-94650741D01*
X142097716Y-94615460D01*
X142036351Y-94603254D01*
X141978585Y-94579226D01*
X141915082Y-94579132D01*
X141852799Y-94566743D01*
X141535492Y-94566743D01*
X141534967Y-94566847D01*
X141534443Y-94566744D01*
X141430105Y-94566915D01*
X141427788Y-94567380D01*
X141425463Y-94566939D01*
X141346522Y-94567641D01*
X141340894Y-94568813D01*
X141335227Y-94567841D01*
X141278052Y-94569359D01*
X141265264Y-94572258D01*
X141252263Y-94570565D01*
X141213225Y-94573180D01*
X141183675Y-94581143D01*
X141153089Y-94580077D01*
X141128555Y-94584074D01*
X141059098Y-94610047D01*
X140986368Y-94624537D01*
X140972709Y-94630200D01*
X140951073Y-94644666D01*
X140949640Y-94644994D01*
X140948395Y-94645878D01*
X140923580Y-94653050D01*
X140905519Y-94667478D01*
X140894659Y-94671539D01*
X140877100Y-94687915D01*
X140867513Y-94691619D01*
X140836170Y-94721492D01*
X140765120Y-94768997D01*
X140756120Y-94782475D01*
X140746067Y-94789617D01*
X140739475Y-94800121D01*
X140728476Y-94808908D01*
X140722059Y-94816520D01*
X140706091Y-94845470D01*
X140686748Y-94863905D01*
X140657257Y-94930532D01*
X140626448Y-94976671D01*
X140625411Y-94981890D01*
X140613335Y-95001135D01*
X140612145Y-95004258D01*
X140609329Y-95020893D01*
X140601450Y-95035177D01*
X140598243Y-95063857D01*
X140585675Y-95092251D01*
X140581456Y-95111086D01*
X140581294Y-95117839D01*
X140578688Y-95124072D01*
X140570270Y-95165682D01*
X140570264Y-95167508D01*
X140569570Y-95169195D01*
X140568382Y-95175240D01*
X140564612Y-95171806D01*
X140516655Y-95142904D01*
X140494267Y-95134832D01*
X140475545Y-95120143D01*
X140442061Y-95103179D01*
X140388586Y-95088230D01*
X140339665Y-95061972D01*
X140317640Y-95055249D01*
X140305664Y-95054048D01*
X140294854Y-95048752D01*
X140233557Y-95044892D01*
X140201566Y-95035949D01*
X140197221Y-95036473D01*
X140186010Y-95032954D01*
X140137862Y-95037227D01*
X140069171Y-95030341D01*
X140060641Y-95032912D01*
X140054302Y-95032290D01*
X140050718Y-95033378D01*
X140045632Y-95033058D01*
X140032054Y-95034882D01*
X139985773Y-95050725D01*
X139937272Y-95055029D01*
X139886579Y-95081499D01*
X139879062Y-95082673D01*
X139869817Y-95088311D01*
X139815360Y-95104848D01*
X139815274Y-95104894D01*
X139806513Y-95112088D01*
X139795798Y-95115756D01*
X139759220Y-95148001D01*
X139715916Y-95170612D01*
X139698082Y-95184961D01*
X139684256Y-95201480D01*
X139665867Y-95212695D01*
X139631387Y-95244432D01*
X139627273Y-95250069D01*
X139621395Y-95253829D01*
X139573846Y-95299516D01*
X139571526Y-95302842D01*
X139568137Y-95305070D01*
X139511091Y-95361264D01*
X139509282Y-95363927D01*
X139506610Y-95365722D01*
X139443643Y-95428986D01*
X139442716Y-95430380D01*
X139441332Y-95431320D01*
X139434304Y-95438453D01*
X139432767Y-95440791D01*
X139430468Y-95442381D01*
X139353261Y-95522109D01*
X139348879Y-95528900D01*
X139342349Y-95533661D01*
X139285659Y-95595188D01*
X139277423Y-95608677D01*
X139265121Y-95618597D01*
X139227900Y-95663161D01*
X139209619Y-95696665D01*
X139182945Y-95723955D01*
X139164150Y-95752790D01*
X139123032Y-95855353D01*
X139108292Y-95882368D01*
X139107160Y-95892924D01*
X139080509Y-95946312D01*
X139079308Y-95963362D01*
X139071680Y-95982182D01*
X139069254Y-95994883D01*
X139070018Y-96095274D01*
X139062966Y-96195411D01*
X139070963Y-96219351D01*
X139071155Y-96244591D01*
X139110275Y-96337037D01*
X139142084Y-96432261D01*
X139152666Y-96450797D01*
X139162754Y-96462413D01*
X139168312Y-96476754D01*
X139192756Y-96515221D01*
X139195995Y-96518612D01*
X139197753Y-96522961D01*
X139205425Y-96534658D01*
X139178231Y-96539944D01*
X139174704Y-96541387D01*
X139170895Y-96541415D01*
X139145873Y-96546583D01*
X139137569Y-96550094D01*
X139128558Y-96550410D01*
X139128176Y-96550500D01*
X139114064Y-96556934D01*
X139101182Y-96557725D01*
X139098013Y-96559272D01*
X139093592Y-96559675D01*
X139082948Y-96562821D01*
X139049163Y-96580567D01*
X139031543Y-96583454D01*
X138973423Y-96619498D01*
X138915872Y-96643832D01*
X138909694Y-96650102D01*
X138900958Y-96654084D01*
X138898622Y-96656589D01*
X138876770Y-96667255D01*
X138868732Y-96673370D01*
X138865481Y-96677046D01*
X138861874Y-96678941D01*
X138845102Y-96699079D01*
X138819325Y-96715065D01*
X138764996Y-96790688D01*
X138703318Y-96860442D01*
X138692690Y-96891335D01*
X138673627Y-96917870D01*
X138667832Y-96930619D01*
X138648986Y-97011007D01*
X138619528Y-97088138D01*
X138615608Y-97111185D01*
X138616540Y-97144594D01*
X138607902Y-97176877D01*
X138605490Y-97213886D01*
X138607270Y-97227366D01*
X138604308Y-97240636D01*
X138603038Y-97295271D01*
X138603977Y-97300641D01*
X138602879Y-97305979D01*
X138602385Y-97381903D01*
X138602733Y-97383715D01*
X138602371Y-97385528D01*
X138602286Y-97486405D01*
X138602339Y-97486675D01*
X138602286Y-97486944D01*
X138602286Y-97500000D01*
X138602324Y-97500189D01*
X138602286Y-97500382D01*
X138602348Y-97604292D01*
X138602660Y-97605853D01*
X138602358Y-97607414D01*
X138602788Y-97685958D01*
X138603767Y-97690744D01*
X138602912Y-97695557D01*
X138604076Y-97752401D01*
X138606721Y-97764409D01*
X138605029Y-97776589D01*
X138607294Y-97815396D01*
X138614899Y-97844611D01*
X138613549Y-97874766D01*
X138617282Y-97899199D01*
X138642802Y-97969557D01*
X138656860Y-98043072D01*
X138662426Y-98056796D01*
X138677129Y-98079157D01*
X138684308Y-98104937D01*
X138698465Y-98123017D01*
X138702430Y-98133949D01*
X138734427Y-98168944D01*
X138738407Y-98174028D01*
X138739920Y-98177767D01*
X138746094Y-98184042D01*
X138799620Y-98265448D01*
X138821760Y-98280480D01*
X138838259Y-98301551D01*
X138846026Y-98308228D01*
X138848481Y-98309614D01*
X138850239Y-98311819D01*
X138886156Y-98331682D01*
X138897871Y-98344333D01*
X138908681Y-98349305D01*
X138915049Y-98355778D01*
X138961931Y-98375647D01*
X139006218Y-98405715D01*
X139026012Y-98409805D01*
X139063499Y-98430961D01*
X139066295Y-98431301D01*
X139068765Y-98432667D01*
X139079097Y-98435963D01*
X139102940Y-98438656D01*
X139124739Y-98448682D01*
X139126077Y-98449002D01*
X139135909Y-98449380D01*
X139144968Y-98453219D01*
X139169104Y-98458225D01*
X139173117Y-98458258D01*
X139176831Y-98459778D01*
X139205452Y-98465348D01*
X139204112Y-98468643D01*
X139201350Y-98471510D01*
X139174157Y-98513899D01*
X139170245Y-98523865D01*
X139163073Y-98531818D01*
X139149158Y-98555166D01*
X139146737Y-98561986D01*
X139142783Y-98566519D01*
X139134482Y-98591187D01*
X139118703Y-98612738D01*
X139117671Y-98614954D01*
X139095118Y-98707391D01*
X139065616Y-98790493D01*
X139065856Y-98795136D01*
X139063144Y-98803195D01*
X139065023Y-98830737D01*
X139058480Y-98857553D01*
X139073464Y-98954476D01*
X139076001Y-98991653D01*
X139076951Y-99010069D01*
X139077598Y-99040277D01*
X139079634Y-99044908D01*
X139080140Y-99052331D01*
X139084734Y-99069299D01*
X139094148Y-99088260D01*
X139096633Y-99104337D01*
X139126651Y-99153730D01*
X139133739Y-99168009D01*
X139178077Y-99268885D01*
X139200248Y-99300576D01*
X139223025Y-99322398D01*
X139238470Y-99349903D01*
X139279262Y-99397554D01*
X139290090Y-99406070D01*
X139297338Y-99417785D01*
X139357796Y-99482631D01*
X139363246Y-99486555D01*
X139366896Y-99492192D01*
X139431218Y-99558391D01*
X139434165Y-99560422D01*
X139436144Y-99563406D01*
X139499529Y-99627223D01*
X139502151Y-99628988D01*
X139503923Y-99631604D01*
X139561762Y-99688718D01*
X139565018Y-99690864D01*
X139567243Y-99694066D01*
X139615966Y-99741042D01*
X139621365Y-99744509D01*
X139625128Y-99749702D01*
X139661163Y-99783100D01*
X139676532Y-99792546D01*
X139687911Y-99806543D01*
X139707684Y-99822925D01*
X139750952Y-99846311D01*
X139787421Y-99879308D01*
X139788439Y-99879917D01*
X139792657Y-99881422D01*
X139796020Y-99884382D01*
X139827440Y-99895110D01*
X139831199Y-99898169D01*
X139864657Y-99908168D01*
X139873909Y-99913855D01*
X139876768Y-99914312D01*
X139927366Y-99941659D01*
X139975318Y-99946606D01*
X140023628Y-99963846D01*
X140028101Y-99963622D01*
X140032341Y-99965070D01*
X140045910Y-99966881D01*
X140058434Y-99966082D01*
X140070458Y-99969676D01*
X140134857Y-99963066D01*
X140175763Y-99967286D01*
X140191737Y-99962521D01*
X140202182Y-99963770D01*
X140233771Y-99954902D01*
X140295119Y-99950990D01*
X140306384Y-99945459D01*
X140318868Y-99944178D01*
X140341029Y-99937357D01*
X140389535Y-99911173D01*
X140442603Y-99896275D01*
X140476348Y-99879132D01*
X140494872Y-99864565D01*
X140517037Y-99856564D01*
X140565359Y-99827417D01*
X140568383Y-99824660D01*
X140573668Y-99851310D01*
X140574727Y-99853871D01*
X140574749Y-99856645D01*
X140581574Y-99889592D01*
X140585389Y-99898599D01*
X140585760Y-99908374D01*
X140587689Y-99916455D01*
X140595465Y-99933381D01*
X140595735Y-99937937D01*
X140626122Y-100000551D01*
X140654315Y-100085020D01*
X140659077Y-100093368D01*
X140676257Y-100113162D01*
X140678957Y-100119536D01*
X140682672Y-100123192D01*
X140691941Y-100143368D01*
X140698287Y-100149249D01*
X140704763Y-100162594D01*
X140767636Y-100218439D01*
X140822764Y-100281953D01*
X140845704Y-100293412D01*
X140858118Y-100306405D01*
X140875111Y-100313902D01*
X140891464Y-100328427D01*
X140902220Y-100334728D01*
X140942345Y-100348632D01*
X140948635Y-100353716D01*
X140992143Y-100366559D01*
X141046161Y-100393542D01*
X141057435Y-100394339D01*
X141086587Y-100407200D01*
X141106967Y-100411739D01*
X141125691Y-100412166D01*
X141138170Y-100416490D01*
X141157425Y-100415350D01*
X141188133Y-100424415D01*
X141221769Y-100427474D01*
X141239149Y-100425631D01*
X141256150Y-100429669D01*
X141306670Y-100431532D01*
X141314213Y-100430319D01*
X141321688Y-100431910D01*
X141392724Y-100432861D01*
X141395932Y-100432267D01*
X141399127Y-100432914D01*
X141494311Y-100433236D01*
X141495253Y-100433052D01*
X141496197Y-100433240D01*
X141535213Y-100433257D01*
X141535353Y-100433229D01*
X141535492Y-100433257D01*
X141852799Y-100433257D01*
X141915082Y-100420868D01*
X141978585Y-100420774D01*
X142036351Y-100396746D01*
X142097716Y-100384540D01*
X142150518Y-100349259D01*
X142209150Y-100324871D01*
X142253325Y-100280565D01*
X142305347Y-100245805D01*
X142340627Y-100193004D01*
X142385465Y-100148034D01*
X142409323Y-100090195D01*
X142444082Y-100038174D01*
X142456471Y-99975892D01*
X142480686Y-99917186D01*
X142495726Y-99840986D01*
X142495724Y-99839418D01*
X142496314Y-99837967D01*
X142497914Y-99829650D01*
X142569952Y-99878625D01*
X142630087Y-99904100D01*
X142684360Y-99940430D01*
X142743940Y-99952333D01*
X142799885Y-99976033D01*
X142865194Y-99976557D01*
X142929237Y-99989351D01*
X142988836Y-99977548D01*
X143049593Y-99978035D01*
X143110130Y-99953527D01*
X143174195Y-99940839D01*
X143224742Y-99907126D01*
X143281059Y-99884326D01*
X143327607Y-99838518D01*
X143346020Y-99826238D01*
X143336770Y-99883812D01*
X143312749Y-99971212D01*
X143307728Y-100040953D01*
X143318149Y-100124240D01*
X143317669Y-100208175D01*
X143330345Y-100273864D01*
X143346194Y-100312754D01*
X143332618Y-100397573D01*
X143309652Y-100501415D01*
X143308979Y-100533000D01*
X136627000Y-100533000D01*
X136627000Y-93627000D01*
X143927888Y-93627000D01*
X143874470Y-93633297D01*
G36*
X145435091Y-110491009D02*
X145539217Y-110560584D01*
X145544900Y-110566267D01*
X145544900Y-110939574D01*
X145702469Y-111319980D01*
X145993620Y-111611131D01*
X146374026Y-111768700D01*
X146547132Y-111768700D01*
X146572000Y-111793567D01*
X146552460Y-111891800D01*
X146552460Y-112875847D01*
X146518600Y-112869112D01*
X146443753Y-112884000D01*
X146035311Y-112884000D01*
X145917880Y-112766569D01*
X145537474Y-112609000D01*
X145125726Y-112609000D01*
X144745320Y-112766569D01*
X144454169Y-113057720D01*
X144296600Y-113438126D01*
X144296600Y-113849874D01*
X144454169Y-114230280D01*
X144745320Y-114521431D01*
X145125726Y-114679000D01*
X145537474Y-114679000D01*
X145917880Y-114521431D01*
X146035311Y-114404000D01*
X146203799Y-114404000D01*
X146284269Y-114484470D01*
X146326671Y-114547929D01*
X146578063Y-114715904D01*
X146578682Y-114716027D01*
X146587308Y-114759394D01*
X146564900Y-114813491D01*
X146564900Y-115238250D01*
X146723650Y-115397000D01*
X147873000Y-115397000D01*
X147873000Y-115377000D01*
X148127000Y-115377000D01*
X148127000Y-115397000D01*
X149276350Y-115397000D01*
X149435100Y-115238250D01*
X149435100Y-114813491D01*
X149412692Y-114759394D01*
X149447540Y-114584200D01*
X149447540Y-113415800D01*
X149412174Y-113238000D01*
X149447540Y-113060200D01*
X149447540Y-112613648D01*
X149726026Y-112729000D01*
X150137774Y-112729000D01*
X150518180Y-112571431D01*
X150809331Y-112280280D01*
X150891213Y-112082600D01*
X151982800Y-112082600D01*
X151982800Y-112264274D01*
X152140369Y-112644680D01*
X152431520Y-112935831D01*
X152811926Y-113093400D01*
X153223674Y-113093400D01*
X153604080Y-112935831D01*
X153895231Y-112644680D01*
X153941532Y-112532900D01*
X154745399Y-112532900D01*
X154641499Y-112636800D01*
X154475426Y-112636800D01*
X154095020Y-112794369D01*
X153803869Y-113085520D01*
X153646300Y-113465926D01*
X153646300Y-113877674D01*
X153803869Y-114258080D01*
X154095020Y-114549231D01*
X154475426Y-114706800D01*
X154661123Y-114706800D01*
X154642100Y-114752726D01*
X154642100Y-115164474D01*
X154799669Y-115544880D01*
X155090820Y-115836031D01*
X155471226Y-115993600D01*
X155882974Y-115993600D01*
X156263380Y-115836031D01*
X156554531Y-115544880D01*
X156712100Y-115164474D01*
X156712100Y-114998401D01*
X158277003Y-113433500D01*
X159451498Y-113433500D01*
X158267828Y-114617171D01*
X158204372Y-114659571D01*
X158161972Y-114723027D01*
X158161971Y-114723028D01*
X158055238Y-114882765D01*
X158036397Y-114910963D01*
X158000226Y-115092809D01*
X157977412Y-115207500D01*
X157992301Y-115282352D01*
X157992300Y-117659353D01*
X157866852Y-117634400D01*
X157792000Y-117619511D01*
X157717148Y-117634400D01*
X155285502Y-117634400D01*
X154055900Y-116404799D01*
X154055900Y-116238726D01*
X153898331Y-115858320D01*
X153607180Y-115567169D01*
X153226774Y-115409600D01*
X152815026Y-115409600D01*
X152434620Y-115567169D01*
X152143469Y-115858320D01*
X151985900Y-116238726D01*
X151985900Y-116650474D01*
X151988562Y-116656900D01*
X151984026Y-116656900D01*
X151603620Y-116814469D01*
X151312469Y-117105620D01*
X151154900Y-117486026D01*
X151154900Y-117897774D01*
X151312469Y-118278180D01*
X151603620Y-118569331D01*
X151984026Y-118726900D01*
X152150099Y-118726900D01*
X153566376Y-120143177D01*
X153575796Y-120190537D01*
X153743771Y-120441929D01*
X153969560Y-120592797D01*
X153969560Y-121111500D01*
X154018843Y-121359265D01*
X154159191Y-121569309D01*
X154369235Y-121709657D01*
X154492001Y-121734076D01*
X154492001Y-122063526D01*
X154338723Y-122127015D01*
X153932000Y-122533738D01*
X153525277Y-122127015D01*
X152965142Y-121895000D01*
X152358858Y-121895000D01*
X151798723Y-122127015D01*
X151392000Y-122533738D01*
X150985277Y-122127015D01*
X150837200Y-122065680D01*
X150837200Y-121877220D01*
X150882765Y-121868157D01*
X151092809Y-121727809D01*
X151233157Y-121517765D01*
X151282440Y-121270000D01*
X151282440Y-118730000D01*
X151233157Y-118482235D01*
X151092809Y-118272191D01*
X150882765Y-118131843D01*
X150635000Y-118082560D01*
X149365000Y-118082560D01*
X149117235Y-118131843D01*
X148907191Y-118272191D01*
X148766843Y-118482235D01*
X148717560Y-118730000D01*
X148717560Y-121270000D01*
X148766843Y-121517765D01*
X148804718Y-121574449D01*
X148767200Y-121665026D01*
X148767200Y-122076774D01*
X148924769Y-122457180D01*
X148926664Y-122459075D01*
X148852000Y-122533738D01*
X148445277Y-122127015D01*
X147885142Y-121895000D01*
X147278858Y-121895000D01*
X146718723Y-122127015D01*
X146312000Y-122533738D01*
X145905277Y-122127015D01*
X145345142Y-121895000D01*
X144738858Y-121895000D01*
X144239108Y-122102003D01*
X144316131Y-122024980D01*
X144473700Y-121644574D01*
X144473700Y-121232826D01*
X144316131Y-120852420D01*
X144024980Y-120561269D01*
X143720300Y-120435067D01*
X143720300Y-120074852D01*
X143735189Y-120000000D01*
X143676204Y-119703463D01*
X143508229Y-119452071D01*
X143282440Y-119301203D01*
X143282440Y-118730000D01*
X143233157Y-118482235D01*
X143092809Y-118272191D01*
X142882765Y-118131843D01*
X142635000Y-118082560D01*
X141365000Y-118082560D01*
X141117235Y-118131843D01*
X140907191Y-118272191D01*
X140766843Y-118482235D01*
X140717560Y-118730000D01*
X140717560Y-121270000D01*
X140766843Y-121517765D01*
X140907191Y-121727809D01*
X141117235Y-121868157D01*
X141365000Y-121917440D01*
X142144683Y-121917440D01*
X141638723Y-122127015D01*
X141232000Y-122533738D01*
X140825277Y-122127015D01*
X140265142Y-121895000D01*
X139658858Y-121895000D01*
X139098723Y-122127015D01*
X138670015Y-122555723D01*
X138659367Y-122581430D01*
X138494196Y-122526409D01*
X137601605Y-123419000D01*
X137615748Y-123433143D01*
X137436143Y-123612748D01*
X137422000Y-123598605D01*
X137407858Y-123612748D01*
X137228253Y-123433143D01*
X137242395Y-123419000D01*
X136349804Y-122526409D01*
X136184633Y-122581430D01*
X136173985Y-122555723D01*
X135965066Y-122346804D01*
X136529409Y-122346804D01*
X137422000Y-123239395D01*
X138314591Y-122346804D01*
X138229533Y-122091461D01*
X137660035Y-121883484D01*
X137054300Y-121909277D01*
X136614467Y-122091461D01*
X136529409Y-122346804D01*
X135965066Y-122346804D01*
X135745277Y-122127015D01*
X135185142Y-121895000D01*
X134578858Y-121895000D01*
X134018723Y-122127015D01*
X133612000Y-122533738D01*
X133205277Y-122127015D01*
X133177000Y-122115302D01*
X133177000Y-119671863D01*
X137039113Y-115809750D01*
X146564900Y-115809750D01*
X146564900Y-116234509D01*
X146661573Y-116467898D01*
X146840201Y-116646527D01*
X147073590Y-116743200D01*
X147714250Y-116743200D01*
X147873000Y-116584450D01*
X147873000Y-115651000D01*
X148127000Y-115651000D01*
X148127000Y-116584450D01*
X148285750Y-116743200D01*
X148926410Y-116743200D01*
X149159799Y-116646527D01*
X149338427Y-116467898D01*
X149435100Y-116234509D01*
X149435100Y-115809750D01*
X149276350Y-115651000D01*
X148127000Y-115651000D01*
X147873000Y-115651000D01*
X146723650Y-115651000D01*
X146564900Y-115809750D01*
X137039113Y-115809750D01*
X142413867Y-110434998D01*
X145397665Y-110434998D01*
X145435091Y-110491009D01*
X145435091Y-110491009D01*
G37*
X145435091Y-110491009D02*
X145539217Y-110560584D01*
X145544900Y-110566267D01*
X145544900Y-110939574D01*
X145702469Y-111319980D01*
X145993620Y-111611131D01*
X146374026Y-111768700D01*
X146547132Y-111768700D01*
X146572000Y-111793567D01*
X146552460Y-111891800D01*
X146552460Y-112875847D01*
X146518600Y-112869112D01*
X146443753Y-112884000D01*
X146035311Y-112884000D01*
X145917880Y-112766569D01*
X145537474Y-112609000D01*
X145125726Y-112609000D01*
X144745320Y-112766569D01*
X144454169Y-113057720D01*
X144296600Y-113438126D01*
X144296600Y-113849874D01*
X144454169Y-114230280D01*
X144745320Y-114521431D01*
X145125726Y-114679000D01*
X145537474Y-114679000D01*
X145917880Y-114521431D01*
X146035311Y-114404000D01*
X146203799Y-114404000D01*
X146284269Y-114484470D01*
X146326671Y-114547929D01*
X146578063Y-114715904D01*
X146578682Y-114716027D01*
X146587308Y-114759394D01*
X146564900Y-114813491D01*
X146564900Y-115238250D01*
X146723650Y-115397000D01*
X147873000Y-115397000D01*
X147873000Y-115377000D01*
X148127000Y-115377000D01*
X148127000Y-115397000D01*
X149276350Y-115397000D01*
X149435100Y-115238250D01*
X149435100Y-114813491D01*
X149412692Y-114759394D01*
X149447540Y-114584200D01*
X149447540Y-113415800D01*
X149412174Y-113238000D01*
X149447540Y-113060200D01*
X149447540Y-112613648D01*
X149726026Y-112729000D01*
X150137774Y-112729000D01*
X150518180Y-112571431D01*
X150809331Y-112280280D01*
X150891213Y-112082600D01*
X151982800Y-112082600D01*
X151982800Y-112264274D01*
X152140369Y-112644680D01*
X152431520Y-112935831D01*
X152811926Y-113093400D01*
X153223674Y-113093400D01*
X153604080Y-112935831D01*
X153895231Y-112644680D01*
X153941532Y-112532900D01*
X154745399Y-112532900D01*
X154641499Y-112636800D01*
X154475426Y-112636800D01*
X154095020Y-112794369D01*
X153803869Y-113085520D01*
X153646300Y-113465926D01*
X153646300Y-113877674D01*
X153803869Y-114258080D01*
X154095020Y-114549231D01*
X154475426Y-114706800D01*
X154661123Y-114706800D01*
X154642100Y-114752726D01*
X154642100Y-115164474D01*
X154799669Y-115544880D01*
X155090820Y-115836031D01*
X155471226Y-115993600D01*
X155882974Y-115993600D01*
X156263380Y-115836031D01*
X156554531Y-115544880D01*
X156712100Y-115164474D01*
X156712100Y-114998401D01*
X158277003Y-113433500D01*
X159451498Y-113433500D01*
X158267828Y-114617171D01*
X158204372Y-114659571D01*
X158161972Y-114723027D01*
X158161971Y-114723028D01*
X158055238Y-114882765D01*
X158036397Y-114910963D01*
X158000226Y-115092809D01*
X157977412Y-115207500D01*
X157992301Y-115282352D01*
X157992300Y-117659353D01*
X157866852Y-117634400D01*
X157792000Y-117619511D01*
X157717148Y-117634400D01*
X155285502Y-117634400D01*
X154055900Y-116404799D01*
X154055900Y-116238726D01*
X153898331Y-115858320D01*
X153607180Y-115567169D01*
X153226774Y-115409600D01*
X152815026Y-115409600D01*
X152434620Y-115567169D01*
X152143469Y-115858320D01*
X151985900Y-116238726D01*
X151985900Y-116650474D01*
X151988562Y-116656900D01*
X151984026Y-116656900D01*
X151603620Y-116814469D01*
X151312469Y-117105620D01*
X151154900Y-117486026D01*
X151154900Y-117897774D01*
X151312469Y-118278180D01*
X151603620Y-118569331D01*
X151984026Y-118726900D01*
X152150099Y-118726900D01*
X153566376Y-120143177D01*
X153575796Y-120190537D01*
X153743771Y-120441929D01*
X153969560Y-120592797D01*
X153969560Y-121111500D01*
X154018843Y-121359265D01*
X154159191Y-121569309D01*
X154369235Y-121709657D01*
X154492001Y-121734076D01*
X154492001Y-122063526D01*
X154338723Y-122127015D01*
X153932000Y-122533738D01*
X153525277Y-122127015D01*
X152965142Y-121895000D01*
X152358858Y-121895000D01*
X151798723Y-122127015D01*
X151392000Y-122533738D01*
X150985277Y-122127015D01*
X150837200Y-122065680D01*
X150837200Y-121877220D01*
X150882765Y-121868157D01*
X151092809Y-121727809D01*
X151233157Y-121517765D01*
X151282440Y-121270000D01*
X151282440Y-118730000D01*
X151233157Y-118482235D01*
X151092809Y-118272191D01*
X150882765Y-118131843D01*
X150635000Y-118082560D01*
X149365000Y-118082560D01*
X149117235Y-118131843D01*
X148907191Y-118272191D01*
X148766843Y-118482235D01*
X148717560Y-118730000D01*
X148717560Y-121270000D01*
X148766843Y-121517765D01*
X148804718Y-121574449D01*
X148767200Y-121665026D01*
X148767200Y-122076774D01*
X148924769Y-122457180D01*
X148926664Y-122459075D01*
X148852000Y-122533738D01*
X148445277Y-122127015D01*
X147885142Y-121895000D01*
X147278858Y-121895000D01*
X146718723Y-122127015D01*
X146312000Y-122533738D01*
X145905277Y-122127015D01*
X145345142Y-121895000D01*
X144738858Y-121895000D01*
X144239108Y-122102003D01*
X144316131Y-122024980D01*
X144473700Y-121644574D01*
X144473700Y-121232826D01*
X144316131Y-120852420D01*
X144024980Y-120561269D01*
X143720300Y-120435067D01*
X143720300Y-120074852D01*
X143735189Y-120000000D01*
X143676204Y-119703463D01*
X143508229Y-119452071D01*
X143282440Y-119301203D01*
X143282440Y-118730000D01*
X143233157Y-118482235D01*
X143092809Y-118272191D01*
X142882765Y-118131843D01*
X142635000Y-118082560D01*
X141365000Y-118082560D01*
X141117235Y-118131843D01*
X140907191Y-118272191D01*
X140766843Y-118482235D01*
X140717560Y-118730000D01*
X140717560Y-121270000D01*
X140766843Y-121517765D01*
X140907191Y-121727809D01*
X141117235Y-121868157D01*
X141365000Y-121917440D01*
X142144683Y-121917440D01*
X141638723Y-122127015D01*
X141232000Y-122533738D01*
X140825277Y-122127015D01*
X140265142Y-121895000D01*
X139658858Y-121895000D01*
X139098723Y-122127015D01*
X138670015Y-122555723D01*
X138659367Y-122581430D01*
X138494196Y-122526409D01*
X137601605Y-123419000D01*
X137615748Y-123433143D01*
X137436143Y-123612748D01*
X137422000Y-123598605D01*
X137407858Y-123612748D01*
X137228253Y-123433143D01*
X137242395Y-123419000D01*
X136349804Y-122526409D01*
X136184633Y-122581430D01*
X136173985Y-122555723D01*
X135965066Y-122346804D01*
X136529409Y-122346804D01*
X137422000Y-123239395D01*
X138314591Y-122346804D01*
X138229533Y-122091461D01*
X137660035Y-121883484D01*
X137054300Y-121909277D01*
X136614467Y-122091461D01*
X136529409Y-122346804D01*
X135965066Y-122346804D01*
X135745277Y-122127015D01*
X135185142Y-121895000D01*
X134578858Y-121895000D01*
X134018723Y-122127015D01*
X133612000Y-122533738D01*
X133205277Y-122127015D01*
X133177000Y-122115302D01*
X133177000Y-119671863D01*
X137039113Y-115809750D01*
X146564900Y-115809750D01*
X146564900Y-116234509D01*
X146661573Y-116467898D01*
X146840201Y-116646527D01*
X147073590Y-116743200D01*
X147714250Y-116743200D01*
X147873000Y-116584450D01*
X147873000Y-115651000D01*
X148127000Y-115651000D01*
X148127000Y-116584450D01*
X148285750Y-116743200D01*
X148926410Y-116743200D01*
X149159799Y-116646527D01*
X149338427Y-116467898D01*
X149435100Y-116234509D01*
X149435100Y-115809750D01*
X149276350Y-115651000D01*
X148127000Y-115651000D01*
X147873000Y-115651000D01*
X146723650Y-115651000D01*
X146564900Y-115809750D01*
X137039113Y-115809750D01*
X142413867Y-110434998D01*
X145397665Y-110434998D01*
X145435091Y-110491009D01*
G36*
X171939862Y-86139646D02*
X172353857Y-86416269D01*
X172630477Y-86830260D01*
X172741524Y-87388531D01*
X172741524Y-93704733D01*
X172613534Y-93395738D01*
X172209862Y-92992066D01*
X171682439Y-92773600D01*
X171111561Y-92773600D01*
X170584138Y-92992066D01*
X170180466Y-93395738D01*
X169962000Y-93923161D01*
X169962000Y-94494039D01*
X170180466Y-95021462D01*
X170584138Y-95425134D01*
X171111561Y-95643600D01*
X171682439Y-95643600D01*
X172209862Y-95425134D01*
X172613534Y-95021462D01*
X172741524Y-94712467D01*
X172741524Y-102733486D01*
X172090928Y-102464000D01*
X171333072Y-102464000D01*
X170632904Y-102754019D01*
X170097019Y-103289904D01*
X169807000Y-103990072D01*
X169807000Y-104747928D01*
X170097019Y-105448096D01*
X170632904Y-105983981D01*
X171333072Y-106274000D01*
X172090928Y-106274000D01*
X172741525Y-106004514D01*
X172741525Y-106717560D01*
X170442000Y-106717560D01*
X170194235Y-106766843D01*
X169984191Y-106907191D01*
X169843843Y-107117235D01*
X169794560Y-107365000D01*
X169794560Y-108635000D01*
X169829009Y-108808189D01*
X167733199Y-110904000D01*
X167482100Y-110904000D01*
X167482100Y-110694226D01*
X167324531Y-110313820D01*
X167306317Y-110295606D01*
X167449400Y-109950174D01*
X167449400Y-109538426D01*
X167291831Y-109158020D01*
X167174400Y-109040589D01*
X167174400Y-104901401D01*
X167495580Y-104580221D01*
X167598858Y-104623000D01*
X168205142Y-104623000D01*
X168765277Y-104390985D01*
X169193985Y-103962277D01*
X169426000Y-103402142D01*
X169426000Y-102795858D01*
X169193985Y-102235723D01*
X168765277Y-101807015D01*
X168205142Y-101575000D01*
X167598858Y-101575000D01*
X167038723Y-101807015D01*
X166632000Y-102213738D01*
X166225277Y-101807015D01*
X165665142Y-101575000D01*
X165058858Y-101575000D01*
X164498723Y-101807015D01*
X164092000Y-102213738D01*
X163685277Y-101807015D01*
X163125142Y-101575000D01*
X162518858Y-101575000D01*
X161958723Y-101807015D01*
X161552000Y-102213738D01*
X161145277Y-101807015D01*
X160585142Y-101575000D01*
X159978858Y-101575000D01*
X159418723Y-101807015D01*
X159012000Y-102213738D01*
X158605277Y-101807015D01*
X158045142Y-101575000D01*
X157438858Y-101575000D01*
X156878723Y-101807015D01*
X156472000Y-102213738D01*
X156065277Y-101807015D01*
X155505142Y-101575000D01*
X154898858Y-101575000D01*
X154338723Y-101807015D01*
X154281720Y-101864018D01*
X153226231Y-100808530D01*
X153183829Y-100745071D01*
X152932437Y-100577096D01*
X152710752Y-100533000D01*
X152710747Y-100533000D01*
X152635900Y-100518112D01*
X152561053Y-100533000D01*
X146635000Y-100533000D01*
X146635000Y-93903270D01*
X165362000Y-93903270D01*
X165362000Y-94513930D01*
X165595690Y-95078107D01*
X166027493Y-95509910D01*
X166591670Y-95743600D01*
X167202330Y-95743600D01*
X167766507Y-95509910D01*
X168198310Y-95078107D01*
X168432000Y-94513930D01*
X168432000Y-93903270D01*
X168198310Y-93339093D01*
X167766507Y-92907290D01*
X167202330Y-92673600D01*
X166591670Y-92673600D01*
X166027493Y-92907290D01*
X165595690Y-93339093D01*
X165362000Y-93903270D01*
X146635000Y-93903270D01*
X146635000Y-93500000D01*
X146586664Y-93256996D01*
X146449013Y-93050987D01*
X146243004Y-92913336D01*
X146000000Y-92865000D01*
X137749000Y-92865000D01*
X137749000Y-91306711D01*
X137791431Y-91264280D01*
X137949000Y-90883874D01*
X137949000Y-90472126D01*
X137791431Y-90091720D01*
X137500280Y-89800569D01*
X137119874Y-89643000D01*
X136708126Y-89643000D01*
X136327720Y-89800569D01*
X136036569Y-90091720D01*
X135879000Y-90472126D01*
X135879000Y-90883874D01*
X136036569Y-91264280D01*
X136079001Y-91306712D01*
X136079000Y-93032269D01*
X136050987Y-93050987D01*
X135913336Y-93256996D01*
X135865000Y-93500000D01*
X135865000Y-100533000D01*
X133416846Y-100533000D01*
X133341999Y-100518112D01*
X133267152Y-100533000D01*
X133267148Y-100533000D01*
X133045463Y-100577096D01*
X132990738Y-100613662D01*
X132857526Y-100702671D01*
X132857524Y-100702673D01*
X132794071Y-100745071D01*
X132751673Y-100808524D01*
X128423134Y-105137065D01*
X128532000Y-104874238D01*
X128532000Y-103863762D01*
X128145308Y-102930205D01*
X127430795Y-102215692D01*
X126497238Y-101829000D01*
X125486762Y-101829000D01*
X124553205Y-102215692D01*
X124261524Y-102507373D01*
X124261524Y-96171392D01*
X124322403Y-95799915D01*
X124476834Y-95550913D01*
X124714798Y-95379965D01*
X125125858Y-95283606D01*
X125252551Y-95258405D01*
X125487404Y-95101481D01*
X125644329Y-94866628D01*
X125685524Y-94659526D01*
X125685524Y-92685981D01*
X132977000Y-92685981D01*
X132977000Y-93191219D01*
X133170346Y-93657997D01*
X133527603Y-94015254D01*
X133994381Y-94208600D01*
X134499619Y-94208600D01*
X134966397Y-94015254D01*
X135323654Y-93657997D01*
X135517000Y-93191219D01*
X135517000Y-92685981D01*
X135323654Y-92219203D01*
X134966397Y-91861946D01*
X134499619Y-91668600D01*
X133994381Y-91668600D01*
X133527603Y-91861946D01*
X133170346Y-92219203D01*
X132977000Y-92685981D01*
X125685524Y-92685981D01*
X125685524Y-91217674D01*
X125644329Y-91010572D01*
X125487405Y-90775719D01*
X125252552Y-90618795D01*
X125125855Y-90593594D01*
X124714798Y-90497235D01*
X124476834Y-90326287D01*
X124322403Y-90077285D01*
X124261524Y-89705808D01*
X124261524Y-87388531D01*
X124372570Y-86830262D01*
X124649193Y-86416267D01*
X125063184Y-86139647D01*
X125621455Y-86028600D01*
X171381593Y-86028600D01*
X171939862Y-86139646D01*
X171939862Y-86139646D01*
G37*
X171939862Y-86139646D02*
X172353857Y-86416269D01*
X172630477Y-86830260D01*
X172741524Y-87388531D01*
X172741524Y-93704733D01*
X172613534Y-93395738D01*
X172209862Y-92992066D01*
X171682439Y-92773600D01*
X171111561Y-92773600D01*
X170584138Y-92992066D01*
X170180466Y-93395738D01*
X169962000Y-93923161D01*
X169962000Y-94494039D01*
X170180466Y-95021462D01*
X170584138Y-95425134D01*
X171111561Y-95643600D01*
X171682439Y-95643600D01*
X172209862Y-95425134D01*
X172613534Y-95021462D01*
X172741524Y-94712467D01*
X172741524Y-102733486D01*
X172090928Y-102464000D01*
X171333072Y-102464000D01*
X170632904Y-102754019D01*
X170097019Y-103289904D01*
X169807000Y-103990072D01*
X169807000Y-104747928D01*
X170097019Y-105448096D01*
X170632904Y-105983981D01*
X171333072Y-106274000D01*
X172090928Y-106274000D01*
X172741525Y-106004514D01*
X172741525Y-106717560D01*
X170442000Y-106717560D01*
X170194235Y-106766843D01*
X169984191Y-106907191D01*
X169843843Y-107117235D01*
X169794560Y-107365000D01*
X169794560Y-108635000D01*
X169829009Y-108808189D01*
X167733199Y-110904000D01*
X167482100Y-110904000D01*
X167482100Y-110694226D01*
X167324531Y-110313820D01*
X167306317Y-110295606D01*
X167449400Y-109950174D01*
X167449400Y-109538426D01*
X167291831Y-109158020D01*
X167174400Y-109040589D01*
X167174400Y-104901401D01*
X167495580Y-104580221D01*
X167598858Y-104623000D01*
X168205142Y-104623000D01*
X168765277Y-104390985D01*
X169193985Y-103962277D01*
X169426000Y-103402142D01*
X169426000Y-102795858D01*
X169193985Y-102235723D01*
X168765277Y-101807015D01*
X168205142Y-101575000D01*
X167598858Y-101575000D01*
X167038723Y-101807015D01*
X166632000Y-102213738D01*
X166225277Y-101807015D01*
X165665142Y-101575000D01*
X165058858Y-101575000D01*
X164498723Y-101807015D01*
X164092000Y-102213738D01*
X163685277Y-101807015D01*
X163125142Y-101575000D01*
X162518858Y-101575000D01*
X161958723Y-101807015D01*
X161552000Y-102213738D01*
X161145277Y-101807015D01*
X160585142Y-101575000D01*
X159978858Y-101575000D01*
X159418723Y-101807015D01*
X159012000Y-102213738D01*
X158605277Y-101807015D01*
X158045142Y-101575000D01*
X157438858Y-101575000D01*
X156878723Y-101807015D01*
X156472000Y-102213738D01*
X156065277Y-101807015D01*
X155505142Y-101575000D01*
X154898858Y-101575000D01*
X154338723Y-101807015D01*
X154281720Y-101864018D01*
X153226231Y-100808530D01*
X153183829Y-100745071D01*
X152932437Y-100577096D01*
X152710752Y-100533000D01*
X152710747Y-100533000D01*
X152635900Y-100518112D01*
X152561053Y-100533000D01*
X146635000Y-100533000D01*
X146635000Y-93903270D01*
X165362000Y-93903270D01*
X165362000Y-94513930D01*
X165595690Y-95078107D01*
X166027493Y-95509910D01*
X166591670Y-95743600D01*
X167202330Y-95743600D01*
X167766507Y-95509910D01*
X168198310Y-95078107D01*
X168432000Y-94513930D01*
X168432000Y-93903270D01*
X168198310Y-93339093D01*
X167766507Y-92907290D01*
X167202330Y-92673600D01*
X166591670Y-92673600D01*
X166027493Y-92907290D01*
X165595690Y-93339093D01*
X165362000Y-93903270D01*
X146635000Y-93903270D01*
X146635000Y-93500000D01*
X146586664Y-93256996D01*
X146449013Y-93050987D01*
X146243004Y-92913336D01*
X146000000Y-92865000D01*
X137749000Y-92865000D01*
X137749000Y-91306711D01*
X137791431Y-91264280D01*
X137949000Y-90883874D01*
X137949000Y-90472126D01*
X137791431Y-90091720D01*
X137500280Y-89800569D01*
X137119874Y-89643000D01*
X136708126Y-89643000D01*
X136327720Y-89800569D01*
X136036569Y-90091720D01*
X135879000Y-90472126D01*
X135879000Y-90883874D01*
X136036569Y-91264280D01*
X136079001Y-91306712D01*
X136079000Y-93032269D01*
X136050987Y-93050987D01*
X135913336Y-93256996D01*
X135865000Y-93500000D01*
X135865000Y-100533000D01*
X133416846Y-100533000D01*
X133341999Y-100518112D01*
X133267152Y-100533000D01*
X133267148Y-100533000D01*
X133045463Y-100577096D01*
X132990738Y-100613662D01*
X132857526Y-100702671D01*
X132857524Y-100702673D01*
X132794071Y-100745071D01*
X132751673Y-100808524D01*
X128423134Y-105137065D01*
X128532000Y-104874238D01*
X128532000Y-103863762D01*
X128145308Y-102930205D01*
X127430795Y-102215692D01*
X126497238Y-101829000D01*
X125486762Y-101829000D01*
X124553205Y-102215692D01*
X124261524Y-102507373D01*
X124261524Y-96171392D01*
X124322403Y-95799915D01*
X124476834Y-95550913D01*
X124714798Y-95379965D01*
X125125858Y-95283606D01*
X125252551Y-95258405D01*
X125487404Y-95101481D01*
X125644329Y-94866628D01*
X125685524Y-94659526D01*
X125685524Y-92685981D01*
X132977000Y-92685981D01*
X132977000Y-93191219D01*
X133170346Y-93657997D01*
X133527603Y-94015254D01*
X133994381Y-94208600D01*
X134499619Y-94208600D01*
X134966397Y-94015254D01*
X135323654Y-93657997D01*
X135517000Y-93191219D01*
X135517000Y-92685981D01*
X135323654Y-92219203D01*
X134966397Y-91861946D01*
X134499619Y-91668600D01*
X133994381Y-91668600D01*
X133527603Y-91861946D01*
X133170346Y-92219203D01*
X132977000Y-92685981D01*
X125685524Y-92685981D01*
X125685524Y-91217674D01*
X125644329Y-91010572D01*
X125487405Y-90775719D01*
X125252552Y-90618795D01*
X125125855Y-90593594D01*
X124714798Y-90497235D01*
X124476834Y-90326287D01*
X124322403Y-90077285D01*
X124261524Y-89705808D01*
X124261524Y-87388531D01*
X124372570Y-86830262D01*
X124649193Y-86416267D01*
X125063184Y-86139647D01*
X125621455Y-86028600D01*
X171381593Y-86028600D01*
X171939862Y-86139646D01*
G36*
X141772569Y-105601771D02*
X141615000Y-105982177D01*
X141615000Y-106393925D01*
X141772569Y-106774331D01*
X142063720Y-107065482D01*
X142444126Y-107223051D01*
X142610199Y-107223051D01*
X143796620Y-108409473D01*
X143839020Y-108472929D01*
X143902476Y-108515329D01*
X144090411Y-108640904D01*
X144138554Y-108650480D01*
X144312097Y-108685000D01*
X144312101Y-108685000D01*
X144386949Y-108699888D01*
X144461797Y-108685000D01*
X145280428Y-108685000D01*
X145280826Y-108687000D01*
X145265312Y-108764998D01*
X142270621Y-108764998D01*
X141334988Y-107829366D01*
X141334988Y-107144411D01*
X141377419Y-107101980D01*
X141534988Y-106721574D01*
X141534988Y-106309826D01*
X141377419Y-105929420D01*
X141086268Y-105638269D01*
X140705862Y-105480700D01*
X140363703Y-105480700D01*
X140421391Y-105423012D01*
X141951328Y-105423012D01*
X141772569Y-105601771D01*
X141772569Y-105601771D01*
G37*
X141772569Y-105601771D02*
X141615000Y-105982177D01*
X141615000Y-106393925D01*
X141772569Y-106774331D01*
X142063720Y-107065482D01*
X142444126Y-107223051D01*
X142610199Y-107223051D01*
X143796620Y-108409473D01*
X143839020Y-108472929D01*
X143902476Y-108515329D01*
X144090411Y-108640904D01*
X144138554Y-108650480D01*
X144312097Y-108685000D01*
X144312101Y-108685000D01*
X144386949Y-108699888D01*
X144461797Y-108685000D01*
X145280428Y-108685000D01*
X145280826Y-108687000D01*
X145265312Y-108764998D01*
X142270621Y-108764998D01*
X141334988Y-107829366D01*
X141334988Y-107144411D01*
X141377419Y-107101980D01*
X141534988Y-106721574D01*
X141534988Y-106309826D01*
X141377419Y-105929420D01*
X141086268Y-105638269D01*
X140705862Y-105480700D01*
X140363703Y-105480700D01*
X140421391Y-105423012D01*
X141951328Y-105423012D01*
X141772569Y-105601771D01*
G36*
X144234049Y-105876274D02*
X144276448Y-105939728D01*
X144339901Y-105982126D01*
X144339903Y-105982128D01*
X144453810Y-106058238D01*
X144527840Y-106107703D01*
X144749525Y-106151799D01*
X144749529Y-106151799D01*
X144824376Y-106166687D01*
X144899223Y-106151799D01*
X145294449Y-106151799D01*
X145416650Y-106274000D01*
X146566000Y-106274000D01*
X146566000Y-106254000D01*
X146820000Y-106254000D01*
X146820000Y-106274000D01*
X148725000Y-106274000D01*
X148725000Y-106254000D01*
X148979000Y-106254000D01*
X148979000Y-106274000D01*
X148999000Y-106274000D01*
X148999000Y-106528000D01*
X148979000Y-106528000D01*
X148979000Y-106548000D01*
X148725000Y-106548000D01*
X148725000Y-106528000D01*
X146820000Y-106528000D01*
X146820000Y-106548000D01*
X146566000Y-106548000D01*
X146566000Y-106528000D01*
X145416650Y-106528000D01*
X145257900Y-106686750D01*
X145257900Y-107111509D01*
X145280057Y-107165000D01*
X144701751Y-107165000D01*
X143685000Y-106148250D01*
X143685000Y-105982177D01*
X143527431Y-105601771D01*
X143348672Y-105423012D01*
X143780788Y-105423012D01*
X144234049Y-105876274D01*
X144234049Y-105876274D01*
G37*
X144234049Y-105876274D02*
X144276448Y-105939728D01*
X144339901Y-105982126D01*
X144339903Y-105982128D01*
X144453810Y-106058238D01*
X144527840Y-106107703D01*
X144749525Y-106151799D01*
X144749529Y-106151799D01*
X144824376Y-106166687D01*
X144899223Y-106151799D01*
X145294449Y-106151799D01*
X145416650Y-106274000D01*
X146566000Y-106274000D01*
X146566000Y-106254000D01*
X146820000Y-106254000D01*
X146820000Y-106274000D01*
X148725000Y-106274000D01*
X148725000Y-106254000D01*
X148979000Y-106254000D01*
X148979000Y-106274000D01*
X148999000Y-106274000D01*
X148999000Y-106528000D01*
X148979000Y-106528000D01*
X148979000Y-106548000D01*
X148725000Y-106548000D01*
X148725000Y-106528000D01*
X146820000Y-106528000D01*
X146820000Y-106548000D01*
X146566000Y-106548000D01*
X146566000Y-106528000D01*
X145416650Y-106528000D01*
X145257900Y-106686750D01*
X145257900Y-107111509D01*
X145280057Y-107165000D01*
X144701751Y-107165000D01*
X143685000Y-106148250D01*
X143685000Y-105982177D01*
X143527431Y-105601771D01*
X143348672Y-105423012D01*
X143780788Y-105423012D01*
X144234049Y-105876274D01*
M02*
