G04 #@! TF.GenerationSoftware,KiCad,Pcbnew,(2018-02-15 revision 29b28de31)-makepkg*
G04 #@! TF.CreationDate,2018-02-28T00:21:08+10:30*
G04 #@! TF.ProjectId,ATM90E26_Featherwing,41544D39304532365F46656174686572,rev?*
G04 #@! TF.SameCoordinates,Original*
G04 #@! TF.FileFunction,Soldermask,Bot*
G04 #@! TF.FilePolarity,Negative*
%FSLAX46Y46*%
G04 Gerber Fmt 4.6, Leading zero omitted, Abs format (unit mm)*
G04 Created by KiCad (PCBNEW (2018-02-15 revision 29b28de31)-makepkg) date 02/28/18 00:21:08*
%MOMM*%
%LPD*%
G01*
G04 APERTURE LIST*
%ADD10R,2.940000X1.670000*%
%ADD11R,1.670000X2.940000*%
%ADD12R,2.000200X1.568400*%
%ADD13R,1.035000X1.670000*%
%ADD14C,4.210000*%
%ADD15C,2.178000*%
%ADD16R,1.670000X1.035000*%
%ADD17C,0.254000*%
G04 APERTURE END LIST*
D10*
X171712000Y-113500000D03*
X171712000Y-110750000D03*
X171712000Y-119000000D03*
X126000000Y-108000000D03*
X126000000Y-117000000D03*
X126000000Y-114000000D03*
X126000000Y-111000000D03*
D11*
X142000000Y-120000000D03*
D10*
X171712000Y-108000000D03*
D11*
X150000000Y-120000000D03*
D10*
X171712000Y-116250000D03*
D12*
X148000000Y-115524000D03*
X148000000Y-114000000D03*
X148000000Y-112476000D03*
X148852000Y-109449000D03*
X148852000Y-107925000D03*
X148852000Y-106401000D03*
X146693000Y-109449000D03*
X146693000Y-107925000D03*
X146693000Y-106401000D03*
D13*
X157284800Y-106000000D03*
X156472000Y-106000000D03*
X155659200Y-106000000D03*
D14*
X125992000Y-104369000D03*
X125992000Y-122149000D03*
D15*
X139962000Y-103099000D03*
X142502000Y-103099000D03*
X145042000Y-103099000D03*
X147582000Y-103099000D03*
X150122000Y-103099000D03*
X152662000Y-103099000D03*
X155202000Y-103099000D03*
X157742000Y-103099000D03*
X160282000Y-103099000D03*
X162822000Y-103099000D03*
X165362000Y-103099000D03*
X167902000Y-103099000D03*
X139962000Y-123419000D03*
X142502000Y-123419000D03*
X145042000Y-123419000D03*
X147582000Y-123419000D03*
X150122000Y-123419000D03*
X152662000Y-123419000D03*
X155202000Y-123419000D03*
X157742000Y-123419000D03*
X160282000Y-123419000D03*
X162822000Y-123419000D03*
X165362000Y-123419000D03*
X167902000Y-123419000D03*
X137422000Y-123419000D03*
X134882000Y-123419000D03*
X132342000Y-123419000D03*
X129802000Y-123419000D03*
D16*
X160091000Y-120662800D03*
X160091000Y-119850000D03*
X160091000Y-119037200D03*
X157792000Y-119037200D03*
X157792000Y-119850000D03*
X157792000Y-120662800D03*
X155252000Y-120794000D03*
X155252000Y-119894000D03*
D17*
G36*
X144873000Y-100873000D02*
X136627000Y-100873000D01*
X136627000Y-93627000D01*
X144873000Y-93627000D01*
X144873000Y-100873000D01*
X144873000Y-100873000D01*
G37*
X144873000Y-100873000D02*
X136627000Y-100873000D01*
X136627000Y-93627000D01*
X144873000Y-93627000D01*
X144873000Y-100873000D01*
M02*
